<?xml version="1.0" standalone="no"?>
<!DOCTYPE svg PUBLIC "-//W3C//DTD SVG 1.1//EN" "http://www.w3.org/Graphics/SVG/1.1/DTD/svg11.dtd">
<svg xmlns="http://www.w3.org/2000/svg">
<defs >
<font id="Piazzolla" horiz-adv-x="585" ><font-face
    font-family="Piazzolla Thin SemiBold"
    units-per-em="1000"
    panose-1="0 0 0 0 0 0 0 0 0 0"
    ascent="1110"
    descent="-310"
    alphabetic="0" />
<glyph unicode=" " horiz-adv-x="159" />
<glyph unicode="!" horiz-adv-x="289" d="M285 666L261 550L164 212H104L158 550L185 666Q235 672 285 666ZM118 131Q136 117 149 95T168 46Q151 28 128 15T81 -3Q41 34 33 83Q49 102 72 115T118 131Z" />
<glyph unicode="&quot;" horiz-adv-x="389" d="M152 455L174 676Q226 685 275 676L209 455H152ZM289 455L311 676Q363 685 412 676L346 455H289Z" />
<glyph unicode="#" horiz-adv-x="614" d="M284 1L500 611H555L339 1H284ZM16 180L27 234H552L542 180H16ZM83 1L299 611H354L139 1H83ZM86 377L98 433H623L612 377H86Z" />
<glyph unicode="$" horiz-adv-x="586" d="M254 -11Q204 -11 147 -1T31 29L86 97Q207 53 353 62Q380 77 396 98T412 143Q412 170 390 191T333 231T259 272T186 317T129 373T107 448Q107 500 139 539T230 600T366 622Q411 622 461 614T559 589L520 517Q480 529 434
536T343 547T259 546Q237 535 224 515T211 473Q211 445 233 423T290 380T364 339T439 294T495 238T517 166Q517 114 484 74T391 12T254 -11ZM132 23L31 29L67 214H109L132 23ZM169 -143L383 742H439L226 -143H169ZM481 410L457 596L559 589L524 410H481Z" />
<glyph unicode="%" horiz-adv-x="888" d="M236 241Q172 241 135 281T98 393Q98 453 124 502T194 581T294 611Q359 611 396 570T433 459Q433 398 407 349T336 271T236 241ZM243 289Q263 289 279 298T308 323Q322 343 332 368T348 422T354 474Q354 515 336 537T286
560Q271 560 256 556T228 542Q213 520 201 491T183 431T176 374Q176 335 194 312T243 289ZM213 -56L168 -20L693 663L739 628L213 -56ZM635 -6Q571 -6 534 34T497 146Q497 206 523 255T593 334T693 364Q758 364 795 323T832 212Q832 151 806 102T735 24T635 -6ZM642
42Q662 42 678 51T707 76Q721 96 731 121T747 175T753 227Q753 268 735 290T685 313Q670 313 655 309T627 295Q612 273 600 244T582 184T575 127Q575 88 593 65T642 42Z" />
<glyph unicode="&amp;" horiz-adv-x="640" d="M528 -68L165 368Q140 400 126 433T111 502Q111 556 143 594T234 651T372 671T545 647L519 570Q424 589 351 591T213 581L236 610Q209 573 201 543T202 483T239 420L600 -12L528 -68ZM237 -11Q171 -11 121 11T41 71T10
161Q9 230 56 282T192 360L229 334Q162 302 131 264T100 179Q101 123 142 90T255 57Q307 57 352 72T433 117Q451 151 457 192T460 280T441 376L509 351Q531 274 520 208T472 92T374 16T237 -11ZM492 318L441 376L446 388H630L621 345L492 318ZM471 462L443 647H547L515
462H471Z" />
<glyph unicode="&apos;" horiz-adv-x="243" d="M136 455L158 676Q210 685 259 676L193 455H136Z" />
<glyph unicode="(" horiz-adv-x="320" d="M210 -201Q131 -125 91 -27T50 179Q50 290 91 397T209 596T395 753L420 728Q330 651 267 555T169 353T135 140Q135 49 161 -32T239 -180L210 -201Z" />
<glyph unicode=")" horiz-adv-x="320" d="M122 749Q201 673 241 575T281 369Q281 257 240 150T122 -48T-64 -206L-88 -180Q2 -103 65 -7T162 195T196 407Q196 498 170 580T93 728L122 749Z" />
<glyph unicode="*" horiz-adv-x="389" d="M253 549L157 592L129 626Q135 636 142 645T158 663L198 643L264 560L253 549ZM151 453Q144 462 138 472T125 492L155 524L254 561L263 548L192 471L151 453ZM276 408L256 447L250 552L266 557L318 465L321 421Q309 416
298 414T276 408ZM360 519L258 546L259 563L362 583L405 572Q407 550 404 526L360 519ZM266 552L251 558L263 662L286 700Q297 697 308 693T330 684L324 640L266 552Z" />
<glyph unicode="+" horiz-adv-x="527" d="M190 61L280 508H352L263 61H190ZM40 248L55 321H502L487 248H40Z" />
<glyph unicode="," horiz-adv-x="275" d="M22 -98L71 48L174 52Q150 10 121 -28T59 -104L22 -98ZM84 3L42 86Q62 103 83 115T131 133Q147 115 157 96T174 52L84 3Z" />
<glyph unicode="-" horiz-adv-x="312" d="M44 301L274 329L283 257L52 228L44 301Z" />
<glyph unicode="." horiz-adv-x="277" d="M83 -3Q67 12 53 34T34 83Q50 100 73 113T120 131Q139 114 152 92T168 46Q153 27 130 14T83 -3Z" />
<glyph unicode="/" horiz-adv-x="318" d="M-43 -203L-98 -180L372 751L426 729L-43 -203Z" />
<glyph unicode="0" horiz-adv-x="633" d="M277 -9Q212 -9 165 21T92 107T66 240Q66 317 90 385T157 506T256 588T378 618Q443 618 491 588T564 502T590 368Q590 291 566 223T499 103T399 21T277 -9ZM287 60Q319 60 347 75T400 123Q424 157 442 201T471 294T482
388Q482 462 452 503T366 545Q341 545 314 536T265 511Q238 469 218 417T185 313T173 214Q173 143 204 102T287 60Z" />
<glyph unicode="1" horiz-adv-x="409" d="M-19 0L-12 36Q22 45 56 51T126 61L227 533H91L99 568L284 616H348L238 60L362 40L354 0H-19Z" />
<glyph unicode="2" horiz-adv-x="598" d="M26 0L41 74Q51 122 84 161T164 234T260 299T353 363T423 430T450 506Q450 545 422 568L473 524Q442 529 412 532T350 535Q260 535 164 514L157 595Q213 607 262 613T353 619Q448 619 499 588T551 498Q551 449 524 409T453
333T359 265T262 200T183 135T142 66L129 0H26ZM66 0L80 70L466 81L452 0H66ZM377 0L477 209H519L480 0H377ZM117 380L157 595L256 596L160 380H117Z" />
<glyph unicode="3" horiz-adv-x="582" d="M35 20L71 90Q117 78 156 73T227 67Q305 67 349 97T393 183Q393 228 365 252T285 277H211L226 350H282Q328 350 363 368T419 418T439 486Q439 505 433 523T413 561L445 530Q395 544 332 544Q294 544 254 539T171 523L162
592Q212 607 258 614T345 622Q407 622 452 607T524 561T550 489Q550 432 505 387T383 319Q443 304 473 272T503 188Q503 127 466 83T364 15T218 -9Q175 -9 129 -2T35 20ZM77 206H120L139 19L35 20L77 206ZM130 408L162 592L266 593L172 408H130Z" />
<glyph unicode="4" horiz-adv-x="558" d="M155 0L161 33Q189 42 216 48T270 58L377 547L395 537L72 194L58 228H522L509 166H12L9 215L383 609H477L366 57L457 37L449 0H155Z" />
<glyph unicode="5" horiz-adv-x="600" d="M226 -10Q183 -10 138 -3T46 19L77 92Q126 80 169 73T249 66Q312 66 370 85Q394 116 406 145T418 199Q418 237 392 259T316 282H116L168 357H332Q423 357 472 320T522 214Q522 148 484 98T380 19T226 -10ZM149 18L46 19L87
198H128L149 18ZM116 282L181 609H259L196 308L116 282ZM535 530L203 535L181 609H550L535 530ZM492 418L472 609H574L533 418H492Z" />
<glyph unicode="6" horiz-adv-x="596" d="M284 -9Q176 -9 123 51T70 236Q70 359 113 444T238 575T432 620Q462 620 494 617T561 606L520 524Q484 535 447 539T372 544Q336 544 298 538T223 519L276 542Q253 518 234 481T200 400T178 308T170 217Q170 65 288 65Q326
65 355 80T400 124T416 188Q416 235 389 259T310 284H124L137 356H336Q423 356 470 315T518 196Q518 134 489 88T407 17T284 -9ZM484 423L463 606H561L525 423H484Z" />
<glyph unicode="7" horiz-adv-x="512" d="M73 383L114 609H212L115 383H73ZM121 523L138 609H518L503 531L121 523ZM558 575L190 0H97L491 609H564L558 575Z" />
<glyph unicode="8" horiz-adv-x="584" d="M260 -11Q198 -11 150 9T73 63T45 141Q45 200 98 248T244 325L265 301Q136 235 136 154Q136 109 174 84T279 59Q296 59 314 60T353 65Q381 83 398 107T416 155Q416 183 394 203T338 241T265 278T192 319T135 372T113 444Q113
492 145 533T231 598T349 623Q405 623 449 605T519 554T545 481Q545 424 493 373T352 293L333 319Q393 355 424 394T456 471Q456 510 424 531T335 552Q320 552 303 551T268 546Q244 531 228 507T212 460Q212 431 234 409T290 369T363 332T435 291T492 239T514 170Q514
120 479 79T387 14T260 -11Z" />
<glyph unicode="9" horiz-adv-x="596" d="M336 620Q445 620 497 560T550 375Q550 253 507 167T382 36T188 -9Q157 -9 125 -6T59 5L100 87Q171 67 249 67Q285 67 322 73T397 92L344 69Q367 93 386 130T420 211T442 302T450 393Q450 546 332 546Q294 546 265 531T220
487T203 422Q203 376 231 352T311 327H496L483 255H285Q198 255 150 297T102 415Q102 477 131 523T213 594T336 620ZM137 187L157 5H59L96 187H137Z" />
<glyph unicode=":" horiz-adv-x="280" d="M95 -3Q79 12 65 34T46 83Q62 100 85 113T132 131Q151 114 164 92T180 46Q165 27 142 14T95 -3ZM145 269Q129 284 115 306T96 355Q112 372 135 385T182 403Q201 386 214 364T230 318Q215 299 192 286T145 269Z" />
<glyph unicode=";" horiz-adv-x="277" d="M27 -98L76 48L179 52Q155 10 126 -28T64 -104L27 -98ZM89 3L47 86Q67 103 88 115T136 133Q152 115 162 96T179 52L89 3ZM148 269Q132 284 118 306T99 355Q115 372 138 385T185 403Q204 386 217 364T233 318Q218 299 195
286T148 269Z" />
<glyph unicode="&lt;" horiz-adv-x="465" d="M384 132L340 72L37 267L42 302L416 495L444 432L140 282L384 132Z" />
<glyph unicode="=" horiz-adv-x="635" d="M131 334L146 407H553L538 334H131ZM97 163L112 236H518L504 163H97Z" />
<glyph unicode="&gt;" horiz-adv-x="478" d="M102 437L146 497L450 302L443 267L69 74L42 137L347 288L102 437Z" />
<glyph unicode="?" horiz-adv-x="455" d="M299 670Q391 670 442 637T493 542Q493 493 472 459T419 401T351 357T288 314T248 261L230 212H165L177 274Q184 310 207 336T261 384T321 425T369 470T388 525Q388 556 360 573T281 591Q215 591 135 570L126 643Q172
656 216 663T299 670ZM226 643L128 450H87L126 643H226ZM185 131Q203 117 216 95T234 46Q217 28 194 15T148 -3Q107 34 100 83Q116 102 139 115T185 131Z" />
<glyph unicode="@" horiz-adv-x="875" d="M774 -139Q657 -189 547 -200T341 -187T173 -108T61 29T20 217Q20 313 54 395T151 538T297 633T479 667Q561 667 630 642T751 572T831 466T859 331Q859 266 836 210T771 111T674 44T556 20Q517 20 497 31T466 69L513 231L504
235L560 471H643L546 45L517 68Q580 58 635 73T733 124T799 212T823 327Q823 416 779 484T658 592T480 631Q390 631 313 600T178 513T88 382T56 219Q56 122 93 47T198 -79T354 -151T547 -163T761 -107L774 -139ZM351 21Q286 15 251 58T215 185Q215 246 232 299T279
392T349 456T434 479Q476 479 508 459T552 404L548 369Q519 395 481 407T393 421L434 426Q397 412 368 375T322 290T303 192T317 98L294 121Q334 96 378 91L353 80Q389 108 419 144T478 231T536 348L555 338Q507 217 457 139T351 21Z" />
<glyph unicode="A" horiz-adv-x="724" d="M606 55Q622 51 638 46T668 36L664 0H375L382 37L488 60L412 624L437 620L130 60Q156 55 181 49T233 36L228 0H-38L-32 37L42 64L381 661H507L606 55ZM164 207L195 272H525L532 207H164Z" />
<glyph unicode="B" horiz-adv-x="713" d="M-8 0L-1 36Q17 44 42 50T107 61L223 598L116 622L124 661H484Q541 661 584 645T651 599T675 527Q675 480 647 440T569 373T455 335L457 349Q546 339 592 301T638 200Q638 142 601 97T499 26T349 0H-8ZM223 70H403Q457
84 491 121T525 204Q525 250 493 275T402 300H211L224 370H432Q491 392 524 429T558 511Q558 549 531 570T451 591H327L223 70Z" />
<glyph unicode="C" horiz-adv-x="684" d="M364 -10Q225 -10 150 59T75 258Q75 350 103 426T185 557T310 642T471 672Q509 672 557 666T655 647L619 564Q579 577 540 583T458 589Q412 589 365 579T264 547L316 577Q276 534 248 480T204 366T188 248Q188 160 234
114T369 68Q403 68 444 76T535 101L557 19Q490 4 446 -3T364 -10ZM446 17L546 223H590L557 19L446 17ZM580 444L546 648L655 647L623 444H580Z" />
<glyph unicode="D" horiz-adv-x="764" d="M487 661Q602 661 666 597T730 415Q730 330 700 255T616 123T493 33T344 0H-9L-2 36Q18 44 44 50T107 61L224 598L115 622L123 661H487ZM414 71Q458 89 494 124T558 205T599 306T614 418Q614 500 575 545T465 590H327L224
71H414Z" />
<glyph unicode="E" horiz-adv-x="719" d="M-9 0L-2 36Q26 45 53 51T107 61L223 598L115 622L123 661H700L659 456H618L607 591H327L284 373H458L506 457H543L495 219H458L443 304H269L223 70H511L582 225H622L578 0H-9Z" />
<glyph unicode="F" horiz-adv-x="637" d="M675 661L634 454H593L582 591H327L220 60L350 40L343 0H-9L-2 36Q26 45 53 51T107 61L223 598L115 622L123 661H675ZM209 284L223 354H479L464 284H209ZM435 200L412 318L482 437H520L472 200H435Z" />
<glyph unicode="G" horiz-adv-x="739" d="M366 -10Q221 -10 149 61T76 271Q76 393 127 482T271 622T489 672Q516 672 549 670T618 662T689 647L636 564Q592 576 548 582T460 589Q409 589 361 579T265 549L317 575Q288 546 265 508T224 426T198 339T189 254Q189
162 238 113T383 64Q451 64 553 95L570 18Q503 4 455 -3T366 -10ZM459 18L510 273L385 296L392 336H712L708 299Q691 291 670 285T619 274L570 18H459ZM606 445L580 648L689 647L650 445H606Z" />
<glyph unicode="H" horiz-adv-x="825" d="M418 0L424 35Q450 44 476 51T529 61L646 598L542 622L550 661H865L858 625Q824 616 799 610T751 600L643 60L742 40L734 0H418ZM-9 0L-2 36Q26 45 53 51T107 61L223 598L115 622L123 661H439L432 625Q401 616 376 610T328
600L220 60L315 40L307 0H-9ZM215 299L229 370H652L638 299H215Z" />
<glyph unicode="I" horiz-adv-x="403" d="M-9 0L-2 36Q26 45 53 51T107 61L223 598L115 622L123 661H443L436 625Q402 616 377 610T328 600L220 60L319 40L311 0H-9Z" />
<glyph unicode="J" horiz-adv-x="525" d="M-4 0L27 93Q54 80 81 74T135 67Q183 67 213 80T270 129L369 598L223 622L232 661H583L576 625Q554 618 528 611T474 600L399 223Q353 -10 106 -10Q82 -10 55 -8T-4 0ZM-4 0L43 230H83L99 0H-4Z" />
<glyph unicode="K" horiz-adv-x="775" d="M-9 0L-2 36Q26 45 53 51T107 61L223 598L115 622L123 661H443L436 625Q402 616 377 610T328 600L220 60L319 40L311 0H-9ZM389 0L396 35Q442 53 488 64T579 79L709 40L701 0H389ZM649 582L515 620L523 661H813L806 627Q724
591 649 582ZM739 650L737 623L393 313L404 387L635 37L623 10H512L304 333L652 650H739Z" />
<glyph unicode="L" horiz-adv-x="625" d="M536 271H577L522 0H-9L-2 36Q26 45 53 51T107 61L223 598L115 622L123 661H461L454 625Q386 608 328 600L223 70H454L536 271Z" />
<glyph unicode="M" horiz-adv-x="986" d="M-13 0L-6 36Q23 45 50 51T103 61L229 598L118 622L126 661H381L476 123L449 128L766 661H1023L1016 625Q982 616 956 610T905 600L805 60L908 40L900 0H577L585 36Q615 45 641 51T694 61L808 621L820 617L455 0H395L286
609H302L183 60L298 40L290 0H-13Z" />
<glyph unicode="N" horiz-adv-x="812" d="M576 661H867L860 625Q833 616 808 610T754 600L633 0H518L263 574L289 577L186 60L302 40L294 0H-7L0 36Q27 45 53 51T106 61L222 598L116 622L124 661H351L605 88L581 86L673 601L568 622L576 661Z" />
<glyph unicode="O" horiz-adv-x="744" d="M335 -10Q256 -10 198 23T107 118T74 261Q74 347 102 421T181 552T298 639T443 671Q522 671 580 638T671 544T703 401Q703 313 676 238T598 108T481 21T335 -10ZM341 62Q386 62 426 82T499 139T554 230Q564 256 572 289T585
356T590 414Q590 500 548 547T428 594Q389 594 350 582T270 545L310 573Q272 527 244 473T202 360T187 246Q187 189 205 148T258 84T341 62Z" />
<glyph unicode="P" horiz-adv-x="661" d="M-9 0L-2 36Q18 45 44 51T107 61L223 598L115 622L123 661H486Q570 661 619 618T668 500Q668 430 631 374T528 286T381 253H203L217 322H448Q501 356 527 400T554 498Q554 543 526 567T445 591H327L220 60L352 40L344 0H-9Z" />
<glyph unicode="Q" horiz-adv-x="750" d="M631 -139L306 14L359 40Q412 31 460 20T563 -10L722 -63Q699 -86 678 -104T631 -139ZM335 -10Q256 -10 198 23T107 118T74 261Q74 347 102 421T181 552T298 639T443 671Q522 671 580 638T671 544T703 401Q703 313 676
238T598 108T481 21T335 -10ZM341 62Q386 62 426 82T499 139T554 230Q564 256 572 289T585 356T590 414Q590 500 548 547T428 594Q389 594 350 582T270 545L310 573Q272 527 244 473T202 360T187 246Q187 189 205 148T258 84T341 62Z" />
<glyph unicode="R" horiz-adv-x="734" d="M-9 0L-2 36Q16 44 41 50T107 61L224 598L115 622L123 661H493Q578 661 629 621T681 513Q681 464 652 422T571 350T454 310L450 323Q499 318 528 302T570 256T582 178V62L671 40L664 0H465L470 182Q471 238 452 259T381
281H215L228 350H441Q563 405 563 495Q563 540 536 565T457 591H327L221 60L320 40L312 0H-9Z" />
<glyph unicode="S" horiz-adv-x="648" d="M50 32L107 105Q216 65 341 65Q384 65 427 70L386 57Q420 75 440 101T460 155Q460 184 436 207T375 251T296 294T217 342T155 403T131 483Q131 539 166 581T263 647T408 671Q460 671 512 662T616 635L574 558Q524 575
464 583T345 592Q322 592 301 591T260 587L302 595Q274 582 258 560T241 510Q241 479 265 455T326 409T406 365T485 317T547 257T571 179Q571 123 535 80T436 13T288 -11Q236 -11 175 0T50 32ZM156 26L50 32L88 231H132L156 26ZM533 443L508 642L616 635L578 443H533Z"
/>
<glyph unicode="T" horiz-adv-x="719" d="M749 661L694 383H654L653 591H486L377 60L507 40L498 0H117L121 37Q155 47 189 53T260 62L378 591H208L125 383H83L138 661H749Z" />
<glyph unicode="U" horiz-adv-x="777" d="M348 -11Q238 -11 177 34T116 161Q116 171 117 182T121 208L206 598L99 622L107 661H421L414 625Q393 616 368 610T311 600L231 203Q230 191 229 183T227 167Q227 117 262 91T366 65Q422 65 465 82T543 137L641 598L539
622L547 661H838L831 625Q808 617 782 611T723 600L647 219Q625 108 548 49T348 -11Z" />
<glyph unicode="V" horiz-adv-x="724" d="M252 0L144 661H264L345 52H325L657 661H751L376 0H252ZM224 584Q189 590 156 600T90 626L94 661H383L377 624L224 584ZM691 584Q645 590 604 600T525 626L529 661H796L790 624L691 584Z" />
<glyph unicode="W" horiz-adv-x="1053" d="M611 0L545 650H644L700 52H680L981 650H1073L732 0H611ZM223 0L143 650H260L314 52H294L572 608L616 537L344 0H223ZM219 584Q186 590 154 600T92 626L96 661H376L370 624L219 584ZM616 584Q579 590 546 600T481 626L485
661H757L751 624L616 584ZM1019 584Q975 590 937 600T863 626L867 661H1125L1119 624L1019 584Z" />
<glyph unicode="X" horiz-adv-x="784" d="M49 10L55 45L365 378H480L650 43L643 10H532L381 323H415L132 10H49ZM355 325L200 627L208 654H322L454 381H423L667 654H752L751 627L471 325H355ZM385 0L390 36Q438 54 485 64T581 80L717 40L708 0H385ZM-24 0L-20
37Q19 55 59 65T137 80L278 40L270 0H-24ZM460 661L456 625Q408 607 359 597T260 581L132 621L139 661H460ZM824 661L820 624Q781 607 742 597T663 581L527 621L534 661H824Z" />
<glyph unicode="Y" horiz-adv-x="704" d="M313 207L156 622L162 650H277L397 301H363L627 650H703L701 622L371 207H313ZM120 0L127 38Q158 47 189 53T250 62L304 293H414L367 60L483 40L476 0H120ZM217 581L86 621L93 661H417L413 625Q365 607 316 597T217 581ZM616
581L484 621L491 661H777L773 624Q735 607 696 597T616 581Z" />
<glyph unicode="Z" horiz-adv-x="681" d="M688 623L142 31L128 63L495 73L560 223H604L563 0H11L17 38L561 630L576 598L231 589L164 440H119L162 661H694L688 623Z" />
<glyph unicode="[" horiz-adv-x="371" d="M27 -195L214 741H450L443 703L235 675L299 739L113 -193L74 -130L271 -158L264 -195H27Z" />
<glyph unicode="\" horiz-adv-x="320" d="M293 -199L52 734L108 750L349 -183L293 -199Z" />
<glyph unicode="]" horiz-adv-x="371" d="M355 741L168 -194H-68L-61 -156L148 -128L83 -192L269 740L308 676L111 705L119 741H355Z" />
<glyph unicode="^" horiz-adv-x="436" d="M66 224L7 257L270 599H306L432 257L366 224L271 499L66 224Z" />
<glyph unicode="_" horiz-adv-x="543" d="M-30 -138H417L402 -211H-44L-30 -138Z" />
<glyph unicode="`" horiz-adv-x="297" d="M347 564Q291 589 238 616T134 675L172 746H187L367 598L347 564Z" />
<glyph unicode="a" horiz-adv-x="544" d="M188 -4Q117 -12 78 31T38 168Q38 234 57 294T110 400T186 474T277 501Q318 501 349 481T396 423L395 395Q328 437 229 445L267 454Q229 434 200 394T154 301T133 191T142 78L124 98Q144 85 164 75T208 61L186 58Q238
99 286 175T378 364L398 346Q353 226 303 140T188 -4ZM395 27L376 73Q404 75 431 79T489 89Q482 60 466 39T427 5T381 -7Q355 -7 335 9T303 55L353 228L343 232L402 492H493L395 27Z" />
<glyph unicode="b" horiz-adv-x="530" d="M249 -10Q204 -10 169 12T115 76L134 107Q169 79 209 66T303 49L263 39Q294 58 319 89T362 160T390 243T400 330T386 413L406 392Q384 408 364 417T322 430L345 433Q291 394 243 319T154 135L134 154Q181 273 230 356T341
496Q414 503 453 459T492 322Q492 256 473 197T420 91T343 17T249 -10ZM34 0L190 714L284 741L225 450L176 264L185 259L148 77Q127 47 104 30T53 0H34ZM185 645L101 711Q149 727 193 735T284 741L185 645Z" />
<glyph unicode="c" horiz-adv-x="440" d="M206 -10Q129 -10 85 47T40 204Q40 289 73 356T162 463T290 502Q324 502 356 495T413 474L378 400Q305 432 212 437L263 457Q224 431 195 383T151 278T135 166Q135 142 140 119T155 75L138 108Q158 91 181 82T228 73Q264
73 297 92T358 149L376 140Q362 72 315 31T206 -10ZM341 314L319 475L413 474L383 314H341Z" />
<glyph unicode="d" horiz-adv-x="544" d="M396 28L377 73Q407 75 434 79T490 89Q483 60 466 39T427 5T382 -7Q356 -7 336 9T305 55L354 228L344 232L447 714L541 741L396 28ZM188 -4Q117 -12 78 31T38 168Q38 234 57 294T110 400T186 474T277 501Q318 501 349
481T396 423L395 395Q328 437 229 445L267 454Q229 434 200 394T154 301T133 191T142 78L124 98Q144 85 164 75T208 61L186 58Q238 99 286 175T378 364L398 346Q353 226 303 140T188 -4ZM443 645L358 711Q406 728 450 735T541 741L443 645ZM494 764H495V763L494
764Z" />
<glyph unicode="e" horiz-adv-x="457" d="M209 -10Q131 -10 85 46T39 199Q39 261 57 316T110 412T188 478T283 502Q346 502 385 469T424 381Q424 341 401 310T334 256T233 220T105 202V246Q225 260 278 291T332 380Q332 410 319 437L350 409Q321 422 291 429T228
436L259 444Q219 421 190 383T146 293T131 180Q131 152 136 124T154 69L135 106Q155 89 180 81T234 73Q273 73 312 90T387 144L401 130Q376 65 325 28T209 -10Z" />
<glyph unicode="f" horiz-adv-x="313" d="M-29 -207Q-58 -207 -80 -195T-115 -161T-125 -114Q-79 -115 -38 -114T47 -111Q53 -74 58 -46T67 10T77 74L156 605Q162 646 186 679T245 730T323 749Q354 749 377 737T413 705T425 657Q336 661 254 653Q249 640 246 627T240
596T235 552T229 486L165 82Q143 -64 96 -135T-29 -207ZM40 431L46 460Q68 472 91 479T143 490H371L359 431H40Z" />
<glyph unicode="g" horiz-adv-x="524" d="M198 -203Q127 -203 75 -183T-5 -126T-26 -44Q1 -18 20 -6T67 14Q51 -33 64 -69T117 -126T216 -147Q268 -147 303 -130T350 -87T342 -32L180 16Q163 33 155 51T147 88Q147 117 166 141T217 173V93L349 55Q452 26 452 -50Q452
-94 419 -128T328 -183T198 -203ZM232 154Q153 154 105 195T57 305Q57 357 86 399T164 467T274 492Q351 492 398 450T446 339Q446 287 418 246T341 179T232 154ZM259 202Q297 225 320 262T347 341T334 423Q313 429 291 434T244 441Q206 419 184 382T157 303T170
221Q199 211 220 207T259 202ZM392 410L274 492H511L496 422L407 440L392 410Z" />
<glyph unicode="h" horiz-adv-x="560" d="M146 106L134 146Q159 207 187 261T243 361T301 439T357 492Q367 494 375 495T392 496Q439 496 467 469T496 400Q496 393 496 386T493 370L424 75Q450 76 469 80T507 89Q500 60 483 39T443 5T397 -7Q371 -7 351 9T320
55L408 398L413 376Q393 396 377 406T338 426L361 430Q304 387 249 304T146 106ZM37 0L192 714L285 741L227 450L177 251L185 248L135 0H37ZM188 645L103 711Q151 728 195 735T285 741L188 645Z" />
<glyph unicode="i" horiz-adv-x="297" d="M162 28L142 73Q173 75 201 78T256 89Q248 60 231 39T192 5T145 -7Q120 -7 100 9T69 55L159 463L173 416Q139 415 114 413T61 406Q68 435 84 455T122 487T168 498Q192 498 212 484T245 443L162 28ZM244 732Q264 714 278
690T295 641Q279 621 255 607T205 589Q185 605 171 629T152 680Q170 700 194 714T244 732Z" />
<glyph unicode="j" horiz-adv-x="277" d="M175 417Q142 416 112 413T55 406Q61 434 77 455T116 487T161 498Q186 498 206 484T239 443L175 417ZM239 443L161 -9Q144 -103 101 -155T-11 -207Q-42 -207 -65 -195T-102 -161T-114 -114Q-79 -115 -37 -115T45 -112Q52
-81 57 -56T66 -7T76 45L149 448L239 443ZM241 732Q261 714 275 690T292 641Q276 621 252 607T202 589Q182 605 168 629T149 680Q167 700 191 714T241 732Z" />
<glyph unicode="k" horiz-adv-x="523" d="M33 0L188 714L281 741L132 0H33ZM318 24L195 255L265 306L417 39L370 76Q378 77 385 77T408 78Q423 78 437 80T467 86Q464 58 452 37T421 5T380 -6Q365 -6 349 1T318 24ZM195 255Q246 324 285 370T356 445T416 485T473
498Q482 498 488 498T502 495L475 369L357 406L416 430Q389 409 363 385T308 328T240 248L195 255ZM183 645L99 711Q139 727 183 735T281 741L183 645Z" />
<glyph unicode="l" horiz-adv-x="284" d="M182 645L98 711Q138 728 184 735T280 741L182 645ZM137 28L116 73Q148 75 176 78T230 89Q223 60 206 39T167 5T120 -7Q95 -7 75 9T44 55L187 714L280 741L137 28Z" />
<glyph unicode="m" horiz-adv-x="852" d="M439 106L427 146Q452 208 479 262T536 361T594 439T649 492Q660 494 668 495T685 496Q732 496 760 469T789 400Q789 393 789 386T786 370L716 75Q743 76 762 80T799 89Q792 60 775 39T736 5T690 -7Q664 -7 644 9T613
55L701 398L705 376Q685 396 669 406T631 426L653 430Q596 386 541 303T439 106ZM50 0L152 463L167 416Q141 415 117 413T54 406Q61 434 77 455T115 487T161 498Q186 498 206 484T239 443L190 251L199 248L150 0H50ZM329 0L418 404L427 376Q407 396 391 406T352
426L375 430Q317 384 261 302T160 106L148 146Q173 208 201 262T257 361T314 439T371 492Q383 494 391 495T407 496Q451 496 477 471T504 405Q504 397 503 389T499 371L468 251L477 248L429 0H329Z" />
<glyph unicode="n" horiz-adv-x="573" d="M334 55L421 398L427 376Q407 396 391 406T352 426L375 430Q318 387 263 304T160 106L148 146Q173 207 201 261T257 361T314 439T371 492Q381 494 389 495T406 496Q453 496 481 469T510 400Q510 393 510 386T506 370L438
75Q464 76 483 80T521 89Q514 60 497 39T457 5T411 -7Q385 -7 365 9T334 55ZM50 0L152 463L167 416Q141 415 117 413T54 406Q61 434 77 455T115 487T161 498Q186 498 206 484T239 443L190 251L199 248L150 0H50Z" />
<glyph unicode="o" horiz-adv-x="495" d="M208 -10Q130 -10 85 45T40 196Q40 260 58 315T111 413T190 478T287 502Q366 502 410 448T455 297Q455 232 436 177T384 79T306 14T208 -10ZM240 53Q274 71 300 109T342 198T360 302T349 404Q326 417 303 425T255 437Q221
418 195 379T153 289T135 185T147 86Q167 73 190 65T240 53Z" />
<glyph unicode="p" horiz-adv-x="546" d="M269 -9Q228 -9 197 11T151 69V97Q217 55 317 47L278 39Q316 59 345 99T392 192T413 302T404 414L422 394Q401 407 381 417T337 431L360 434Q307 393 260 318T168 129L148 146Q194 266 243 352T357 496Q429 504 468 461T507
324Q507 258 488 198T436 92T359 18T269 -9ZM-51 -196L-45 -163Q-12 -148 12 -140T63 -127L208 -163L201 -196H-51ZM8 -196L153 463L167 416Q135 414 108 412T55 406Q61 434 77 455T116 487T161 498Q186 498 207 484T240 443L193 264L202 259L108 -196H8Z" />
<glyph unicode="q" horiz-adv-x="526" d="M188 -4Q117 -12 78 31T38 168Q38 234 57 294T110 400T186 474T277 501Q318 501 349 481T396 423L395 395Q328 437 229 445L267 454Q229 434 200 394T154 301T133 191T142 78L124 98Q144 85 164 75T208 61L186 58Q238
99 286 175T378 364L398 346Q353 226 303 140T188 -4ZM171 -196L177 -163Q218 -149 247 -141T307 -127L431 -163L424 -196H171ZM251 -196L305 57L353 228L343 232L402 492H492L350 -196H251Z" />
<glyph unicode="r" horiz-adv-x="396" d="M51 0L152 463L167 416Q141 415 116 413T55 406Q61 435 77 455T116 487T161 498Q186 498 207 484T240 443L190 251L199 248L150 0H51ZM161 106L148 146Q201 272 248 351T338 467T421 498L388 359L319 380Q279 338 240
272T161 106Z" />
<glyph unicode="s" horiz-adv-x="435" d="M13 46L28 111L236 48L204 50Q224 53 241 63T268 87T279 117Q279 140 258 160T204 201T140 245T86 298T64 365Q64 405 90 436T162 483T263 500Q297 500 332 494T401 474L371 410Q332 419 292 423T210 428Q192 428 175
428T139 425L192 433Q175 424 164 409T153 377Q153 354 175 335T229 295T293 251T347 198T369 132Q369 94 344 62T276 11T182 -8Q139 -8 92 6T13 46ZM333 336L307 474H401L372 336H333Z" />
<glyph unicode="t" horiz-adv-x="401" d="M177 -10Q130 -10 97 19T59 95L178 631H265L150 58L146 106Q175 75 209 75Q242 75 273 100T328 168L348 161Q332 83 286 37T177 -10ZM58 431L64 460Q85 472 106 479T151 490H401L390 431H58Z" />
<glyph unicode="u" horiz-adv-x="568" d="M237 436L152 93L144 116Q161 98 180 85T217 65L195 61Q251 104 305 186T407 385L420 346Q393 283 366 229T310 130T254 52T199 0Q180 -4 164 -4Q117 -4 87 22T57 90Q57 106 62 122L152 463L198 421Q160 418 125 414T58
403Q66 432 82 453T119 486T163 498Q187 498 207 483T237 436ZM328 55L379 241L369 244L426 492H517L419 27L400 73Q429 75 457 79T513 89Q506 60 489 39T450 5T405 -7Q379 -7 359 9T328 55Z" />
<glyph unicode="v" horiz-adv-x="460" d="M223 77Q283 176 326 262T397 423L396 348L350 484Q374 493 399 493Q432 493 449 478T466 434Q466 408 452 373Q438 340 417 298T369 208T314 117T259 36Q248 22 240 14T220 2T190 -3T141 -5L92 464L122 412Q95 411 72
409T29 404Q31 432 44 452T77 484T119 496Q141 496 159 485T189 451L218 77H223Z" />
<glyph unicode="w" horiz-adv-x="699" d="M387 -5L353 417L371 322L311 482Q342 494 367 494Q413 494 435 458L460 77H466Q522 172 564 258T635 423L634 348L589 484Q613 493 638 493Q670 493 687 478T704 434Q704 408 689 372Q676 337 654 293T606 202T552 112T501
36Q491 22 483 14T463 2T435 -3T387 -5ZM137 -5L91 464L121 412Q91 411 70 409T30 404Q32 432 45 453T77 485T119 496Q139 496 157 485T188 451L213 77H219Q266 161 304 242T373 403L408 358Q394 324 376 282T337 197T295 113T254 39Q247 25 240 17T222 4T190 -3T137
-5Z" />
<glyph unicode="x" horiz-adv-x="514" d="M209 230L130 453L162 411Q141 409 118 407T69 403Q72 432 87 453T124 485T170 497Q190 497 207 489T237 464L290 298H306L275 230H209ZM251 221Q299 307 332 361T391 446T438 487T485 499Q490 499 495 499T506 497L476
358L401 379Q388 365 377 352T353 321T326 280T290 221H251ZM304 273L390 37L359 79Q380 81 403 82T451 86Q449 58 434 37T397 4T351 -8Q332 -8 314 1T284 26L223 206H207L238 273H304ZM260 282Q210 193 176 137T117 49T68 6T19 -7Q15 -7 10 -7T-3 -6L26 133L102
112Q115 126 126 139T149 169T179 213T221 282H260Z" />
<glyph unicode="y" horiz-adv-x="460" d="M-94 -189L-80 -115L63 -124Q111 -79 157 -19T245 112T324 260T388 418L390 338L345 484Q373 493 399 493Q428 493 443 480T459 440Q459 415 444 370Q424 312 393 247T322 117T241 -5T160 -105T87 -168Q34 -201 -24 -201Q-59
-201 -94 -189ZM147 0L95 464L120 412Q80 411 62 409T28 405Q30 433 43 453T77 485T119 497Q140 497 158 486T187 452L220 79H264L212 2L147 0Z" />
<glyph unicode="z" horiz-adv-x="485" d="M18 0L1 30L421 492H454L468 463L48 0H18ZM233 -1L53 37L121 111L357 81L308 57Q337 90 365 129T422 217Q425 207 426 198T427 178Q427 127 407 85T352 19T271 -6Q251 -6 233 -1ZM75 307L107 492H201L117 307H75ZM139
407L107 492H454L368 407H139Z" />
<glyph unicode="{" horiz-adv-x="372" d="M20 262L29 307H51Q109 307 144 334T189 415L223 583Q234 640 258 674T325 725T435 747L425 697Q385 691 363 679T330 642T309 574L275 423Q259 352 212 311T92 265L20 262ZM246 -199Q181 -194 146 -178T99 -127T100 -35L133
132Q144 186 120 213T38 241H16L24 286L94 276Q166 267 196 229T215 121L189 -26Q181 -69 183 -94T202 -131T256 -150L246 -199Z" />
<glyph unicode="|" horiz-adv-x="250" d="M102 -196V741H159V-196H102Z" />
<glyph unicode="}" horiz-adv-x="372" d="M362 286L354 241H332Q274 241 239 214T193 132L160 -35Q148 -92 124 -126T58 -177T-52 -199L-43 -150Q-2 -143 19 -131T53 -94T74 -26L107 125Q124 196 170 237T291 283L362 286ZM137 747Q202 742 237 725T283 674T283
583L249 415Q239 362 263 335T345 307H367L358 262L289 271Q217 281 187 319T168 427L193 574Q201 617 199 642T180 679T127 697L137 747Z" />
<glyph unicode="~" horiz-adv-x="595" d="M86 224L69 248Q111 288 138 311T184 345T217 356T248 349L415 285L526 348L542 323Q500 283 473 260T427 226T394 216T363 222L196 286L86 224Z" />
<glyph unicode="&#xa0;" horiz-adv-x="159" />
<glyph unicode="&#xa1;" horiz-adv-x="283" d="M0 -172L24 -56L121 282H181L127 -56L101 -172Q50 -178 0 -172ZM167 362Q149 377 136 399T118 448Q135 466 158 479T203 496Q223 479 236 457T252 411Q236 392 213 379T167 362Z" />
<glyph unicode="&#xa2;" horiz-adv-x="472" d="M205 -133H150L300 627H356L205 -133ZM220 -10Q143 -10 99 47T54 204Q54 289 86 356T175 463T304 502Q338 502 370 495T426 474L391 400Q319 432 226 437L277 457Q237 431 209 383T165 278T149 166Q149 142 154 119T169
75L151 108Q172 91 195 82T242 73Q278 73 310 92T372 149L389 140Q375 72 329 31T220 -10ZM355 314L333 475L426 474L397 314H355Z" />
<glyph unicode="&#xa3;" horiz-adv-x="620" d="M69 284L73 303Q128 333 184 345Q211 429 244 485T323 572T431 613T580 617L562 524Q512 529 463 529T364 525Q341 499 321 455T284 345H480L463 284H69ZM-12 0L-5 36Q23 44 50 52T103 64L173 312H276L235 154Q225
113 201 73T145 0H-12ZM122 0L138 76L486 82L470 0H122ZM392 0L493 205H535L495 0H392Z" />
<glyph unicode="&#xa4;" horiz-adv-x="633" d="M297 118Q251 118 215 137T159 192T138 272Q138 332 168 382T249 462T358 492Q429 492 473 450T517 339Q517 279 487 229T407 148T297 118ZM91 63L48 116L188 232L231 179L91 63ZM475 65L386 176L443 222L532 111L475
65ZM305 188Q343 188 375 208T427 261T446 333Q446 373 421 397T353 421Q314 421 282 402T230 350T210 278Q211 237 236 213T305 188ZM216 389L127 500L184 546L274 434L216 389ZM470 377L427 430L568 547L611 494L470 377Z" />
<glyph unicode="&#xa5;" horiz-adv-x="715" d="M107 267L116 318H623L612 267H107ZM80 135L90 185H596L587 135H80ZM322 214L171 579L177 609H277L394 297H361L607 609H686L680 578L376 214H322ZM143 0L150 33Q178 42 205 47T264 57L315 293H417L369 56L476 37L469
0H143ZM228 536L109 571L116 609H415L409 578Q363 561 317 551T228 536ZM595 536L476 571L483 609H746L740 578Q704 561 668 551T595 536Z" />
<glyph unicode="&#xa6;" horiz-adv-x="225" d="M77 390V741H134V390H77ZM77 -196V156H134V-196H77Z" />
<glyph unicode="&#xa7;" horiz-adv-x="528" d="M136 -201Q93 -201 50 -194T-33 -172L16 -105Q129 -139 248 -122Q271 -109 286 -89T306 -50Q310 -25 291 -6T241 30T175 67T108 110T60 165T48 242Q55 302 97 344T208 404L239 359Q202 347 177 321T146 261Q141 228
159 205T208 164T274 129T341 90T390 41T404 -29Q399 -80 363 -118T269 -179T136 -201ZM60 -174L-35 -170L6 12L45 8L60 -174ZM269 58L260 94Q292 101 320 119T368 161T390 210Q395 240 377 262T328 301T261 337T195 376T146 427T133 499Q138 550 171 587T261 645T390
666Q429 666 467 661T539 643L504 575Q449 590 392 593T277 587Q258 576 246 559T230 522Q225 494 243 474T293 435T361 399T428 357T476 303T489 228Q484 182 456 146T380 88T269 58ZM461 466L446 646L540 643L500 466H461Z" />
<glyph unicode="&#xa8;" horiz-adv-x="424" d="M233 722Q250 706 262 686T277 642Q263 625 242 613T198 597Q181 613 169 634T152 677Q169 694 189 706T233 722ZM404 722Q421 705 433 685T448 642Q432 625 412 613T369 597Q352 612 340 633T323 677Q339 694 360
706T404 722Z" />
<glyph unicode="&#xa9;" horiz-adv-x="742" d="M399 129Q304 129 253 181T202 330Q202 427 257 482T410 537Q434 537 463 534T521 522L504 466Q458 479 411 479T315 466Q280 411 280 330Q280 231 336 198T500 201L521 146Q488 138 457 134T399 129ZM448 146L491
271H521V146H448ZM491 398L448 523L521 522V398H491ZM387 -10Q313 -10 251 15T144 87T73 195T47 331Q47 405 72 466T143 574T251 645T387 671Q460 671 522 646T631 574T703 467T729 331Q729 257 703 195T631 87T523 16T387 -10ZM386 27Q475 27 543 66T652 175T692
331Q692 419 652 487T544 594T386 633Q299 633 231 594T124 487T84 331Q84 244 123 175T231 67T386 27Z" />
<glyph unicode="&#xaa;" horiz-adv-x="378" d="M209 411Q160 407 134 434T107 519Q107 559 119 596T154 661T203 706T263 723Q289 723 309 711T340 675V655Q316 667 290 673T231 681L257 689Q233 673 215 648T187 593T176 530T182 468L171 480Q183 474 196 468T224
459L209 457Q241 483 271 527T329 637L343 625Q314 554 282 501T209 411ZM350 432L336 465Q354 466 372 468T412 473Q405 443 383 427T337 410Q320 410 306 419T283 448L313 550L306 552L344 718H410L350 432Z" />
<glyph unicode="&#xab;" horiz-adv-x="448" d="M137 41L6 237L9 253L215 448L250 419L100 243L179 68L137 41ZM327 41L196 237L199 253L405 448L440 419L290 243L369 68L327 41Z" />
<glyph unicode="&#xac;" horiz-adv-x="625" d="M531 341L492 143H421L446 268H74L88 341H531Z" />
<glyph unicode="&#xad;" horiz-adv-x="312" d="M53 301L283 329L292 257L61 228L53 301Z" />
<glyph unicode="&#xae;" horiz-adv-x="621" d="M356 202Q277 202 215 238T117 336T81 479Q81 558 117 620T215 718T356 754Q436 754 498 718T597 620T634 478Q634 399 598 337T499 238T356 202ZM222 352V370Q228 374 236 376T260 382L265 592L222 603V623H321V381L359
372V352H222ZM356 237Q426 237 480 268T567 354T599 479Q599 548 567 602T480 687T356 719Q287 719 233 688T148 602T116 479Q116 409 147 355T233 269T356 237ZM412 352L402 430Q400 448 391 455T362 463H293V499H363Q386 499 400 512T414 545Q414 564 402 575T367
587H293V623H378Q421 623 446 605T472 556Q472 527 451 506T395 480L386 488Q423 484 440 470T462 427L473 352L444 388L504 372V352H412Z" />
<glyph unicode="&#xaf;" horiz-adv-x="438" d="M166 625L181 695H425L409 625H166Z" />
<glyph unicode="&#xb0;" horiz-adv-x="424" d="M256 300Q209 300 172 321T113 380T91 465Q91 513 112 550T171 608T256 630Q303 630 340 609T399 550T421 465Q421 418 400 381T341 322T256 300ZM256 349Q306 349 338 382T371 465Q371 515 339 548T256 582Q206
582 174 549T141 465Q141 415 173 382T256 349Z" />
<glyph unicode="&#xb1;" horiz-adv-x="552" d="M93 347L108 419H515L500 347H93ZM40 81L54 153H461L446 81H40ZM233 212L301 554H375L306 212H233Z" />
<glyph unicode="&#xb2;" horiz-adv-x="394" d="M80 375L87 411L221 523Q268 563 294 587T330 630T341 669Q341 677 337 685T324 701L357 672Q341 675 323 676T285 678Q259 678 229 675T165 665L163 723Q197 733 227 737T283 741Q343 741 379 721T416 663Q416 641
402 618T353 565T259 487L118 375H80ZM107 375L116 425L364 432L354 375H107ZM300 375L368 502H399L374 375H300ZM139 592L163 723L235 725L170 592H139Z" />
<glyph unicode="&#xb3;" horiz-adv-x="390" d="M98 387L123 437Q153 430 177 427T222 423Q265 423 290 438T316 483Q316 507 300 519T253 532H208L218 583H255Q292 583 317 603T342 657Q342 666 339 678T328 699L351 677Q335 681 317 683T280 685Q258 685 232
682T180 672L173 721Q204 731 234 736T290 741Q348 741 385 720T422 659Q422 627 395 601T320 561Q358 553 376 535T395 486Q395 450 372 424T307 383T215 369Q189 369 159 373T98 387ZM122 499H155L171 386L98 387L122 499ZM154 611L173 721L247 722L185 611H154Z"
/>
<glyph unicode="&#xb4;" horiz-adv-x="257" d="M122 564L101 598L282 746H296L335 675Q283 644 231 617T122 564Z" />
<glyph unicode="&#xb5;" horiz-adv-x="579" d="M160 116Q178 98 197 85T234 65L212 61Q268 104 322 186T424 385L437 346Q416 299 394 254T349 169T304 96T261 39T222 2Q189 -5 161 6T117 43L160 116ZM345 55L395 241L386 244L443 492H533L435 27L416 73Q446 75
473 79T530 89Q523 58 506 37T466 5T421 -7Q397 -7 376 8T345 55ZM107 -196H10L4 -187L167 463L213 421Q172 417 138 413T73 403Q81 434 97 455T135 486T177 497Q201 497 221 483T252 436L161 52H145L111 -184L107 -196Z" />
<glyph unicode="&#xb6;" horiz-adv-x="573" d="M216 -123L200 -103L350 64L471 661H678L674 624Q647 615 621 609T567 599L476 150Q457 55 393 -11T216 -123ZM266 234Q158 234 107 294T76 457Q94 553 165 607T345 661L266 234ZM323 588L345 661H523L508 588H323Z" />
<glyph unicode="&#xb7;" horiz-adv-x="271" d="M139 210Q123 225 109 247T90 296Q106 313 129 326T176 344Q195 327 208 305T224 259Q209 240 186 227T139 210Z" />
<glyph unicode="&#xb8;" horiz-adv-x="282" d="M-29 -216L-21 -162L102 -177Q109 -172 114 -164T119 -148Q119 -135 100 -122T27 -89L60 -35Q124 -54 151 -76T179 -131Q179 -172 151 -197T76 -228T-29 -216ZM62 14H108L70 -89H27L62 14Z" />
<glyph unicode="&#xb9;" horiz-adv-x="290" d="M65 375L70 401Q92 407 110 410T154 417L213 677H128L134 702L254 736H300L235 416L314 404L309 375H65Z" />
<glyph unicode="&#xba;" horiz-adv-x="344" d="M223 407Q170 407 139 442T108 539Q108 591 129 633T187 699T270 724Q324 724 355 690T386 594Q386 541 364 499T306 432T223 407ZM243 453Q265 465 280 488T305 540T316 601T309 659Q292 667 279 671T250 677Q229
665 214 642T189 589T178 528T185 471Q199 464 214 459T243 453Z" />
<glyph unicode="&#xbb;" horiz-adv-x="449" d="M320 448L451 252L448 235L243 41L207 69L358 245L278 420L320 448ZM127 448L258 252L255 235L50 41L14 69L165 245L85 420L127 448Z" />
<glyph unicode="&#xbc;" horiz-adv-x="771" d="M48 247L53 273Q75 279 93 282T137 289L196 549H111L117 574L237 608H283L218 288L297 276L292 247H48ZM154 -56L109 -20L634 663L680 628L154 -56ZM485 0L490 24Q507 29 522 33T555 40L616 314L631 307L435 113L425
138H718L710 95H393L392 130L621 358H689L624 39L679 27L674 0H485Z" />
<glyph unicode="&#xbd;" horiz-adv-x="832" d="M48 247L53 273Q75 279 93 282T137 289L196 549H111L117 574L237 608H283L218 288L297 276L292 247H48ZM154 -56L109 -20L634 663L680 628L154 -56ZM434 0L441 36L575 148Q622 188 648 212T684 255T695 294Q695 302
691 310T678 326L711 297Q695 300 677 301T639 303Q613 303 583 300T519 290L517 348Q551 358 581 362T637 366Q697 366 733 346T770 288Q770 266 756 243T707 190T613 112L472 0H434ZM461 0L470 50L718 57L708 0H461ZM654 0L722 127H753L728 0H654ZM493 217L517
348L589 350L524 217H493Z" />
<glyph unicode="&#xbe;" horiz-adv-x="815" d="M83 259L108 309Q138 302 162 299T207 295Q250 295 275 310T301 355Q301 379 285 391T238 404H193L203 455H240Q277 455 302 475T327 529Q327 538 324 550T313 571L336 549Q320 553 302 555T265 557Q243 557 217
554T165 544L158 593Q189 603 219 608T275 613Q333 613 370 592T407 531Q407 499 380 473T305 433Q343 425 361 407T380 358Q380 322 357 296T292 255T200 241Q174 241 144 245T83 259ZM107 371H140L156 258L83 259L107 371ZM139 483L158 593L232 594L170 483H139ZM197
-56L152 -20L677 663L723 628L197 -56ZM529 0L534 24Q551 29 566 33T599 40L660 314L675 307L479 113L469 138H762L754 95H437L436 130L665 358H733L668 39L723 27L718 0H529Z" />
<glyph unicode="&#xbf;" horiz-adv-x="436" d="M153 -177Q61 -177 10 -143T-41 -48Q-41 1 -20 35T33 93T101 137T164 180T204 233L222 282H288L275 220Q268 184 245 158T191 110T131 69T83 24T64 -32Q64 -63 92 -80T171 -97Q237 -97 317 -76L326 -149Q231 -177
153 -177ZM225 -150L325 43H365L326 -149L225 -150ZM267 362Q250 377 237 399T217 448Q236 466 258 479T304 496Q323 479 336 457T352 411Q336 392 313 379T267 362Z" />
<glyph unicode="&#xc0;" horiz-adv-x="724" d="M614 55Q630 51 646 46T676 36L672 0H383L390 37L496 60L420 624L445 620L138 60Q164 55 189 49T241 36L236 0H-30L-24 37L50 64L389 661H515L614 55ZM172 207L203 272H533L540 207H172ZM565 730Q509 755 456 782T352
841L390 912H405L585 764L565 730Z" />
<glyph unicode="&#xc1;" horiz-adv-x="724" d="M614 55Q630 51 646 46T676 36L672 0H383L390 37L496 60L420 624L445 620L138 60Q164 55 189 49T241 36L236 0H-30L-24 37L50 64L389 661H515L614 55ZM172 207L203 272H533L540 207H172ZM400 730L379 764L560 912H574L613
841Q561 810 509 783T400 730Z" />
<glyph unicode="&#xc2;" horiz-adv-x="724" d="M614 55Q630 51 646 46T676 36L672 0H383L390 37L496 60L420 624L445 620L138 60Q164 55 189 49T241 36L236 0H-30L-24 37L50 64L389 661H515L614 55ZM172 207L203 272H533L540 207H172ZM531 907L631 784L588 748L491
831L367 748L335 784L468 907H531Z" />
<glyph unicode="&#xc3;" horiz-adv-x="724" d="M614 55Q630 51 646 46T676 36L672 0H383L390 37L496 60L420 624L445 620L138 60Q164 55 189 49T241 36L236 0H-30L-24 37L50 64L389 661H515L614 55ZM172 207L203 272H533L540 207H172ZM343 755L323 775Q352 817
370 839T401 871T424 881T448 878L562 847L628 900L648 880Q621 839 603 816T571 784T547 774T523 777L409 808L343 755Z" />
<glyph unicode="&#xc4;" horiz-adv-x="724" d="M614 55Q630 51 646 46T676 36L672 0H383L390 37L496 60L420 624L445 620L138 60Q164 55 189 49T241 36L236 0H-30L-24 37L50 64L389 661H515L614 55ZM172 207L203 272H533L540 207H172ZM419 888Q436 872 448 852T463
808Q449 791 428 779T384 763Q367 779 355 800T338 843Q355 860 375 872T419 888ZM590 888Q607 871 619 851T634 808Q618 791 598 779T555 763Q538 778 526 799T509 843Q525 860 546 872T590 888Z" />
<glyph unicode="&#xc5;" horiz-adv-x="724" d="M614 55Q630 51 646 46T676 36L672 0H383L390 37L496 60L420 624L445 620L138 60Q164 55 189 49T241 36L236 0H-30L-24 37L50 64L389 661H515L614 55ZM172 207L203 272H533L540 207H172ZM475 728Q436 728 411 752T386
815Q386 844 401 869T441 909T495 924Q533 924 558 900T584 838Q584 807 569 783T530 743T475 728ZM476 775Q502 775 519 793T536 836Q536 855 525 865T493 876Q469 876 452 859T434 816Q434 797 445 786T476 775Z" />
<glyph unicode="&#xc6;" horiz-adv-x="995" d="M-8 10L423 650H558L590 10H483L464 610H479L88 10H-8ZM-39 0L-32 36L47 75Q91 70 132 61T214 36L207 0H-39ZM180 207L194 272H513V207H180ZM531 306V375H782L767 306H531ZM734 222L711 339L781 456H816L770 222H734ZM869
225H909L863 0H359L366 36L513 70H845L776 30L869 225ZM966 661L925 456H885L865 636L921 591H420L289 623L297 661H966Z" />
<glyph unicode="&#xc7;" horiz-adv-x="684" d="M374 -10Q235 -10 160 59T85 258Q85 350 113 426T195 557T320 642T481 672Q519 672 567 666T665 647L629 564Q589 577 550 583T468 589Q422 589 375 579T274 547L326 577Q286 534 258 480T214 366T198 248Q198 160
244 114T379 68Q413 68 454 76T545 101L567 19Q500 4 456 -3T374 -10ZM456 17L556 223H600L567 19L456 17ZM590 444L556 648L665 647L633 444H590ZM256 -216L264 -162L387 -177Q394 -172 399 -164T404 -148Q404 -135 385 -122T312 -89L345 -35Q409 -54 436 -76T464
-131Q464 -172 436 -197T361 -228T256 -216ZM347 14H393L355 -89H312L347 14Z" />
<glyph unicode="&#xc8;" horiz-adv-x="719" d="M-1 0L6 36Q34 45 61 51T115 61L231 598L123 622L131 661H708L667 456H626L615 591H335L292 373H466L514 457H551L503 219H466L451 304H277L231 70H519L590 225H630L586 0H-1ZM570 730Q514 755 461 782T357 841L395
912H410L590 764L570 730Z" />
<glyph unicode="&#xc9;" horiz-adv-x="719" d="M-1 0L6 36Q34 45 61 51T115 61L231 598L123 622L131 661H708L667 456H626L615 591H335L292 373H466L514 457H551L503 219H466L451 304H277L231 70H519L590 225H630L586 0H-1ZM406 730L385 764L566 912H580L619 841Q567
810 515 783T406 730Z" />
<glyph unicode="&#xca;" horiz-adv-x="719" d="M-1 0L6 36Q34 45 61 51T115 61L231 598L123 622L131 661H708L667 456H626L615 591H335L292 373H466L514 457H551L503 219H466L451 304H277L231 70H519L590 225H630L586 0H-1ZM538 907L638 784L595 748L498 831L374
748L342 784L475 907H538Z" />
<glyph unicode="&#xcb;" horiz-adv-x="719" d="M-1 0L6 36Q34 45 61 51T115 61L231 598L123 622L131 661H708L667 456H626L615 591H335L292 373H466L514 457H551L503 219H466L451 304H277L231 70H519L590 225H630L586 0H-1ZM425 888Q442 872 454 852T469 808Q455
791 434 779T390 763Q373 779 361 800T344 843Q361 860 381 872T425 888ZM596 888Q613 871 625 851T640 808Q624 791 604 779T561 763Q544 778 532 799T515 843Q531 860 552 872T596 888Z" />
<glyph unicode="&#xcc;" horiz-adv-x="403" d="M-1 0L6 36Q34 45 61 51T115 61L231 598L123 622L131 661H451L444 625Q410 616 385 610T336 600L228 60L327 40L319 0H-1ZM407 730Q351 755 298 782T194 841L232 912H247L427 764L407 730Z" />
<glyph unicode="&#xcd;" horiz-adv-x="403" d="M-1 0L6 36Q34 45 61 51T115 61L231 598L123 622L131 661H451L444 625Q410 616 385 610T336 600L228 60L327 40L319 0H-1ZM242 730L221 764L402 912H416L455 841Q403 810 351 783T242 730Z" />
<glyph unicode="&#xce;" horiz-adv-x="403" d="M-1 0L6 36Q34 45 61 51T115 61L231 598L123 622L131 661H451L444 625Q410 616 385 610T336 600L228 60L327 40L319 0H-1ZM374 907L474 784L431 748L334 831L210 748L178 784L311 907H374Z" />
<glyph unicode="&#xcf;" horiz-adv-x="403" d="M-1 0L6 36Q34 45 61 51T115 61L231 598L123 622L131 661H451L444 625Q410 616 385 610T336 600L228 60L327 40L319 0H-1ZM261 888Q278 872 290 852T305 808Q291 791 270 779T226 763Q209 779 197 800T180 843Q197
860 217 872T261 888ZM432 888Q449 871 461 851T476 808Q460 791 440 779T397 763Q380 778 368 799T351 843Q367 860 388 872T432 888Z" />
<glyph unicode="&#xd0;" horiz-adv-x="794" d="M525 661Q640 661 704 597T768 415Q768 330 738 255T654 123T531 33T382 0H29L36 36Q56 44 82 50T145 61L262 598L153 622L161 661H525ZM452 71Q496 89 532 124T596 205T637 306T652 418Q652 500 613 545T503 590H365L262
71H452ZM97 366H455L442 307H84L97 366Z" />
<glyph unicode="&#xd1;" horiz-adv-x="813" d="M584 661H875L868 625Q841 616 816 610T762 600L641 0H526L271 574L297 577L194 60L310 40L302 0H1L8 36Q35 45 61 51T114 61L230 598L124 622L132 661H359L613 88L589 86L681 601L576 622L584 661ZM389 755L369
775Q398 817 416 839T447 871T470 881T494 878L608 847L674 900L694 880Q667 839 649 816T617 784T593 774T569 777L455 808L389 755Z" />
<glyph unicode="&#xd2;" horiz-adv-x="744" d="M345 -10Q266 -10 208 23T117 118T84 261Q84 347 112 421T191 552T308 639T453 671Q532 671 590 638T681 544T713 401Q713 313 686 238T608 108T491 21T345 -10ZM351 62Q396 62 436 82T509 139T564 230Q574 256 582
289T595 356T600 414Q600 500 558 547T438 594Q399 594 360 582T280 545L320 573Q282 527 254 473T212 360T197 246Q197 189 215 148T268 84T351 62ZM560 730Q504 755 451 782T347 841L385 912H400L580 764L560 730Z" />
<glyph unicode="&#xd3;" horiz-adv-x="744" d="M345 -10Q266 -10 208 23T117 118T84 261Q84 347 112 421T191 552T308 639T453 671Q532 671 590 638T681 544T713 401Q713 313 686 238T608 108T491 21T345 -10ZM351 62Q396 62 436 82T509 139T564 230Q574 256 582
289T595 356T600 414Q600 500 558 547T438 594Q399 594 360 582T280 545L320 573Q282 527 254 473T212 360T197 246Q197 189 215 148T268 84T351 62ZM395 730L374 764L555 912H569L608 841Q556 810 504 783T395 730Z" />
<glyph unicode="&#xd4;" horiz-adv-x="744" d="M345 -10Q266 -10 208 23T117 118T84 261Q84 347 112 421T191 552T308 639T453 671Q532 671 590 638T681 544T713 401Q713 313 686 238T608 108T491 21T345 -10ZM351 62Q396 62 436 82T509 139T564 230Q574 256 582
289T595 356T600 414Q600 500 558 547T438 594Q399 594 360 582T280 545L320 573Q282 527 254 473T212 360T197 246Q197 189 215 148T268 84T351 62ZM528 907L628 784L585 748L488 831L364 748L332 784L465 907H528Z" />
<glyph unicode="&#xd5;" horiz-adv-x="744" d="M345 -10Q266 -10 208 23T117 118T84 261Q84 347 112 421T191 552T308 639T453 671Q532 671 590 638T681 544T713 401Q713 313 686 238T608 108T491 21T345 -10ZM351 62Q396 62 436 82T509 139T564 230Q574 256 582
289T595 356T600 414Q600 500 558 547T438 594Q399 594 360 582T280 545L320 573Q282 527 254 473T212 360T197 246Q197 189 215 148T268 84T351 62ZM339 755L319 775Q348 817 366 839T397 871T420 881T444 878L558 847L624 900L644 880Q617 839 599 816T567 784T543
774T519 777L405 808L339 755Z" />
<glyph unicode="&#xd6;" horiz-adv-x="744" d="M345 -10Q266 -10 208 23T117 118T84 261Q84 347 112 421T191 552T308 639T453 671Q532 671 590 638T681 544T713 401Q713 313 686 238T608 108T491 21T345 -10ZM351 62Q396 62 436 82T509 139T564 230Q574 256 582
289T595 356T600 414Q600 500 558 547T438 594Q399 594 360 582T280 545L320 573Q282 527 254 473T212 360T197 246Q197 189 215 148T268 84T351 62ZM415 888Q432 872 444 852T459 808Q445 791 424 779T380 763Q363 779 351 800T334 843Q351 860 371 872T415 888ZM586
888Q603 871 615 851T630 808Q614 791 594 779T551 763Q534 778 522 799T505 843Q521 860 542 872T586 888Z" />
<glyph unicode="&#xd7;" horiz-adv-x="489" d="M86 101L42 153L419 468L461 417L86 101ZM349 101L95 417L155 468L409 153L349 101Z" />
<glyph unicode="&#xd8;" horiz-adv-x="744" d="M254 49L174 -92L123 -65L204 79L254 49ZM335 -10Q256 -10 198 23T107 118T74 261Q74 347 102 421T181 552T298 639T443 671Q522 671 580 638T671 544T703 401Q703 313 676 238T598 108T481 21T335 -10ZM341 62Q386
62 426 82T499 139T554 230Q564 256 572 289T585 356T590 414Q590 500 548 547T428 594Q389 594 350 582T270 545L310 573Q272 527 244 473T202 360T187 246Q187 189 205 148T258 84T341 62ZM514 623L583 747L635 721L565 595L514 623ZM204 79L514 623L565 595L254
49L204 79Z" />
<glyph unicode="&#xd9;" horiz-adv-x="778" d="M359 -11Q249 -11 188 34T127 161Q127 171 128 182T132 208L217 598L110 622L118 661H432L425 625Q404 616 379 610T322 600L242 203Q241 191 240 183T238 167Q238 117 273 91T377 65Q433 65 476 82T554 137L652
598L550 622L558 661H849L842 625Q819 617 793 611T734 600L658 219Q636 108 559 49T359 -11ZM606 730Q550 755 497 782T393 841L431 912H446L626 764L606 730Z" />
<glyph unicode="&#xda;" horiz-adv-x="777" d="M358 -11Q248 -11 187 34T126 161Q126 171 127 182T131 208L216 598L109 622L117 661H431L424 625Q403 616 378 610T321 600L241 203Q240 191 239 183T237 167Q237 117 272 91T376 65Q432 65 475 82T553 137L651
598L549 622L557 661H848L841 625Q818 617 792 611T733 600L657 219Q635 108 558 49T358 -11ZM441 730L420 764L601 912H615L654 841Q602 810 550 783T441 730Z" />
<glyph unicode="&#xdb;" horiz-adv-x="777" d="M358 -11Q248 -11 187 34T126 161Q126 171 127 182T131 208L216 598L109 622L117 661H431L424 625Q403 616 378 610T321 600L241 203Q240 191 239 183T237 167Q237 117 272 91T376 65Q432 65 475 82T553 137L651
598L549 622L557 661H848L841 625Q818 617 792 611T733 600L657 219Q635 108 558 49T358 -11ZM572 907L672 784L629 748L532 831L408 748L376 784L509 907H572Z" />
<glyph unicode="&#xdc;" horiz-adv-x="778" d="M359 -11Q249 -11 188 34T127 161Q127 171 128 182T132 208L217 598L110 622L118 661H432L425 625Q404 616 379 610T322 600L242 203Q241 191 240 183T238 167Q238 117 273 91T377 65Q433 65 476 82T554 137L652
598L550 622L558 661H849L842 625Q819 617 793 611T734 600L658 219Q636 108 559 49T359 -11ZM460 888Q477 872 489 852T504 808Q490 791 469 779T425 763Q408 779 396 800T379 843Q396 860 416 872T460 888ZM631 888Q648 871 660 851T675 808Q659 791 639 779T596
763Q579 778 567 799T550 843Q566 860 587 872T631 888Z" />
<glyph unicode="&#xdd;" horiz-adv-x="704" d="M323 207L166 622L172 650H287L407 301H373L637 650H713L711 622L381 207H323ZM130 0L137 38Q168 47 199 53T260 62L314 293H424L377 60L493 40L486 0H130ZM227 581L96 621L103 661H427L423 625Q375 607 326 597T227
581ZM626 581L494 621L501 661H787L783 624Q745 607 706 597T626 581ZM392 730L371 764L552 912H566L605 841Q553 810 501 783T392 730Z" />
<glyph unicode="&#xde;" horiz-adv-x="660" d="M-9 0L-2 36Q29 45 55 51T107 61L223 598L115 622L123 661H443L436 627Q404 618 379 612T329 601L220 59L318 39L311 0H-9ZM182 144L196 213H431Q481 243 508 284T535 374Q535 465 427 465H246L260 533H462Q549 533
597 494T646 381Q646 314 608 261T505 176T357 144H182Z" />
<glyph unicode="&#xdf;" horiz-adv-x="598" d="M-22 -207Q-52 -207 -76 -194T-113 -160T-124 -114Q-88 -115 -43 -115T42 -112Q50 -85 54 -65T62 -22T71 38L156 595Q167 672 221 711T371 750Q456 750 497 717T538 617Q538 582 523 555T485 507T441 466T403 428T388
384Q388 360 405 339T449 297T502 252T546 198T564 131Q564 91 542 60T480 10T394 -8Q355 -8 311 6T232 46L246 109L419 53Q443 60 458 77T474 116Q474 139 457 160T413 203T360 249T316 303T298 370Q298 402 313 427T350 472T394 513T431 554T446 603Q446 639
422 657T342 675Q313 675 277 671T197 659L265 687Q256 667 251 650T243 612T237 561T230 483L152 -10Q143 -66 118 -110T56 -181T-22 -207ZM42 431L48 460Q72 472 95 479T143 490H187L175 431H42Z" />
<glyph unicode="&#xe0;" horiz-adv-x="544" d="M197 -4Q126 -12 87 31T47 168Q47 234 66 294T119 400T195 474T286 501Q327 501 358 481T405 423L404 395Q337 437 238 445L276 454Q238 434 209 394T163 301T142 191T151 78L133 98Q153 85 173 75T217 61L195 58Q247
99 295 175T387 364L407 346Q362 226 312 140T197 -4ZM404 27L385 73Q413 75 440 79T498 89Q491 60 475 39T436 5T390 -7Q364 -7 344 9T312 55L362 228L352 232L411 492H502L404 27ZM425 564Q369 589 316 616T212 675L250 746H265L445 598L425 564Z" />
<glyph unicode="&#xe1;" horiz-adv-x="544" d="M197 -4Q126 -12 87 31T47 168Q47 234 66 294T119 400T195 474T286 501Q327 501 358 481T405 423L404 395Q337 437 238 445L276 454Q238 434 209 394T163 301T142 191T151 78L133 98Q153 85 173 75T217 61L195 58Q247
99 295 175T387 364L407 346Q362 226 312 140T197 -4ZM404 27L385 73Q413 75 440 79T498 89Q491 60 475 39T436 5T390 -7Q364 -7 344 9T312 55L362 228L352 232L411 492H502L404 27ZM260 564L239 598L420 746H434L473 675Q421 644 369 617T260 564Z" />
<glyph unicode="&#xe2;" horiz-adv-x="544" d="M197 -4Q126 -12 87 31T47 168Q47 234 66 294T119 400T195 474T286 501Q327 501 358 481T405 423L404 395Q337 437 238 445L276 454Q238 434 209 394T163 301T142 191T151 78L133 98Q153 85 173 75T217 61L195 58Q247
99 295 175T387 364L407 346Q362 226 312 140T197 -4ZM404 27L385 73Q413 75 440 79T498 89Q491 60 475 39T436 5T390 -7Q364 -7 344 9T312 55L362 228L352 232L411 492H502L404 27ZM392 741L492 618L449 582L352 665L228 582L196 618L329 741H392Z" />
<glyph unicode="&#xe3;" horiz-adv-x="544" d="M197 -4Q126 -12 87 31T47 168Q47 234 66 294T119 400T195 474T286 501Q327 501 358 481T405 423L404 395Q337 437 238 445L276 454Q238 434 209 394T163 301T142 191T151 78L133 98Q153 85 173 75T217 61L195 58Q247
99 295 175T387 364L407 346Q362 226 312 140T197 -4ZM404 27L385 73Q413 75 440 79T498 89Q491 60 475 39T436 5T390 -7Q364 -7 344 9T312 55L362 228L352 232L411 492H502L404 27ZM204 589L184 609Q213 651 231 673T262 705T285 715T309 712L423 681L489 734L509
714Q482 673 464 650T432 618T408 608T384 611L270 642L204 589Z" />
<glyph unicode="&#xe4;" horiz-adv-x="544" d="M197 -4Q126 -12 87 31T47 168Q47 234 66 294T119 400T195 474T286 501Q327 501 358 481T405 423L404 395Q337 437 238 445L276 454Q238 434 209 394T163 301T142 191T151 78L133 98Q153 85 173 75T217 61L195 58Q247
99 295 175T387 364L407 346Q362 226 312 140T197 -4ZM404 27L385 73Q413 75 440 79T498 89Q491 60 475 39T436 5T390 -7Q364 -7 344 9T312 55L362 228L352 232L411 492H502L404 27ZM280 722Q297 706 309 686T324 642Q310 625 289 613T245 597Q228 613 216 634T199
677Q216 694 236 706T280 722ZM451 722Q468 705 480 685T495 642Q479 625 459 613T416 597Q399 612 387 633T370 677Q386 694 407 706T451 722Z" />
<glyph unicode="&#xe5;" horiz-adv-x="544" d="M197 -4Q126 -12 87 31T47 168Q47 234 66 294T119 400T195 474T286 501Q327 501 358 481T405 423L404 395Q337 437 238 445L276 454Q238 434 209 394T163 301T142 191T151 78L133 98Q153 85 173 75T217 61L195 58Q247
99 295 175T387 364L407 346Q362 226 312 140T197 -4ZM404 27L385 73Q413 75 440 79T498 89Q491 60 475 39T436 5T390 -7Q364 -7 344 9T312 55L362 228L352 232L411 492H502L404 27ZM336 562Q297 562 272 586T247 649Q247 678 262 703T302 743T356 758Q394 758
419 734T445 672Q445 641 430 617T391 577T336 562ZM337 609Q363 609 380 627T397 670Q397 689 386 699T354 710Q330 710 313 693T295 650Q295 631 306 620T337 609Z" />
<glyph unicode="&#xe6;" horiz-adv-x="749" d="M184 -4Q116 -12 79 36T41 179Q41 274 74 346T163 460T290 501Q334 501 377 484T451 436L415 392Q376 414 331 426T228 441L281 448Q249 435 222 406T176 338T146 254T135 164T150 80L127 104Q150 89 170 81T213
71L188 59Q210 77 229 100T269 156T315 237T375 357L396 346Q360 265 332 207T279 108T232 41T184 -4ZM501 -10Q423 -10 377 46T331 199Q331 261 350 316T402 412T480 478T576 502Q638 502 676 469T715 381Q715 343 693 312T629 257T529 220T397 202V246Q517 260
570 291T624 380Q624 389 623 398T618 417Q595 425 578 430T542 436Q504 415 478 379T437 295T424 197T443 94Q478 74 518 73T600 90T679 144L693 130Q667 65 616 28T501 -10Z" />
<glyph unicode="&#xe7;" horiz-adv-x="440" d="M215 -10Q138 -10 94 47T49 204Q49 289 82 356T171 463T299 502Q333 502 365 495T422 474L387 400Q314 432 221 437L272 457Q233 431 204 383T160 278T144 166Q144 142 149 119T164 75L147 108Q167 91 190 82T237
73Q273 73 306 92T367 149L385 140Q371 72 324 31T215 -10ZM350 314L328 475L422 474L392 314H350ZM96 -216L104 -162L227 -177Q234 -172 239 -164T244 -148Q244 -135 225 -122T152 -89L185 -35Q249 -54 276 -76T304 -131Q304 -172 276 -197T201 -228T96 -216ZM187
14H233L195 -89H152L187 14Z" />
<glyph unicode="&#xe8;" horiz-adv-x="457" d="M218 -10Q140 -10 94 46T48 199Q48 261 66 316T119 412T197 478T292 502Q355 502 394 469T433 381Q433 341 410 310T343 256T242 220T114 202V246Q234 260 287 291T341 380Q341 410 328 437L359 409Q330 422 300
429T237 436L268 444Q228 421 199 383T155 293T140 180Q140 152 145 124T163 69L144 106Q164 89 189 81T243 73Q282 73 321 90T396 144L410 130Q385 65 334 28T218 -10ZM383 815Q327 840 274 867T170 926L208 997H223L403 849L383 815Z" />
<glyph unicode="&#xe9;" horiz-adv-x="457" d="M218 -10Q140 -10 94 46T48 199Q48 261 66 316T119 412T197 478T292 502Q355 502 394 469T433 381Q433 341 410 310T343 256T242 220T114 202V246Q234 260 287 291T341 380Q341 410 328 437L359 409Q330 422 300
429T237 436L268 444Q228 421 199 383T155 293T140 180Q140 152 145 124T163 69L144 106Q164 89 189 81T243 73Q282 73 321 90T396 144L410 130Q385 65 334 28T218 -10ZM218 815L197 849L378 997H392L431 926Q379 895 327 868T218 815Z" />
<glyph unicode="&#xea;" horiz-adv-x="457" d="M218 -10Q140 -10 94 46T48 199Q48 261 66 316T119 412T197 478T292 502Q355 502 394 469T433 381Q433 341 410 310T343 256T242 220T114 202V246Q234 260 287 291T341 380Q341 410 328 437L359 409Q330 422 300
429T237 436L268 444Q228 421 199 383T155 293T140 180Q140 152 145 124T163 69L144 106Q164 89 189 81T243 73Q282 73 321 90T396 144L410 130Q385 65 334 28T218 -10ZM350 992L450 869L407 833L310 916L186 833L154 869L287 992H350Z" />
<glyph unicode="&#xeb;" horiz-adv-x="457" d="M218 -10Q140 -10 94 46T48 199Q48 261 66 316T119 412T197 478T292 502Q355 502 394 469T433 381Q433 341 410 310T343 256T242 220T114 202V246Q234 260 287 291T341 380Q341 410 328 437L359 409Q330 422 300
429T237 436L268 444Q228 421 199 383T155 293T140 180Q140 152 145 124T163 69L144 106Q164 89 189 81T243 73Q282 73 321 90T396 144L410 130Q385 65 334 28T218 -10ZM237 973Q254 957 266 937T281 893Q267 876 246 864T202 848Q185 864 173 885T156 928Q173
945 193 957T237 973ZM408 973Q425 956 437 936T452 893Q436 876 416 864T373 848Q356 863 344 884T327 928Q343 945 364 957T408 973Z" />
<glyph unicode="&#xec;" horiz-adv-x="295" d="M162 28L142 73Q173 75 201 78T256 89Q248 60 231 39T192 5T145 -7Q120 -7 100 9T69 55L159 463L173 416Q139 415 114 413T61 406Q68 435 84 455T122 487T168 498Q192 498 212 484T245 443L162 28ZM560 564Q504 589
451 616T347 675L385 746H400L580 598L560 564Z" />
<glyph unicode="&#xed;" horiz-adv-x="295" d="M162 28L142 73Q173 75 201 78T256 89Q248 60 231 39T192 5T145 -7Q120 -7 100 9T69 55L159 463L173 416Q139 415 114 413T61 406Q68 435 84 455T122 487T168 498Q192 498 212 484T245 443L162 28ZM139 564L118 598L299
746H313L352 675Q300 644 248 617T139 564Z" />
<glyph unicode="&#xee;" horiz-adv-x="295" d="M162 28L142 73Q173 75 201 78T256 89Q248 60 231 39T192 5T145 -7Q120 -7 100 9T69 55L159 463L173 416Q139 415 114 413T61 406Q68 435 84 455T122 487T168 498Q192 498 212 484T245 443L162 28ZM526 741L626 618L583
582L486 665L362 582L330 618L463 741H526Z" />
<glyph unicode="&#xef;" horiz-adv-x="295" d="M162 28L142 73Q173 75 201 78T256 89Q248 60 231 39T192 5T145 -7Q120 -7 100 9T69 55L159 463L173 416Q139 415 114 413T61 406Q68 435 84 455T122 487T168 498Q192 498 212 484T245 443L162 28ZM414 722Q431 706
443 686T458 642Q444 625 423 613T379 597Q362 613 350 634T333 677Q350 694 370 706T414 722ZM585 722Q602 705 614 685T629 642Q613 625 593 613T550 597Q533 612 521 633T504 677Q520 694 541 706T585 722Z" />
<glyph unicode="&#xf0;" horiz-adv-x="502" d="M209 -10Q129 -10 84 45T39 197Q39 282 70 349T155 454T276 492Q312 492 345 479T397 445V386Q371 396 350 403T307 416T253 427Q218 407 191 365T149 268T134 160Q134 142 137 123T146 86Q169 75 190 66T238 53Q276
80 303 122T345 217T360 332Q360 401 342 470T288 604T203 723L250 751Q319 697 364 629T431 484T454 325Q454 254 437 193T388 87T311 16T209 -10ZM160 538L144 584L468 693L484 647L160 538Z" />
<glyph unicode="&#xf1;" horiz-adv-x="573" d="M344 55L431 398L437 376Q417 396 401 406T362 426L385 430Q328 387 273 304T170 106L158 146Q183 207 211 261T267 361T324 439T381 492Q391 494 399 495T416 496Q463 496 491 469T520 400Q520 393 520 386T516
370L448 75Q474 76 493 80T531 89Q524 60 507 39T467 5T421 -7Q395 -7 375 9T344 55ZM60 0L162 463L177 416Q151 415 127 413T64 406Q71 434 87 455T125 487T171 498Q196 498 216 484T249 443L200 251L209 248L160 0H60ZM236 589L216 609Q245 651 263 673T294 705T317
715T341 712L455 681L521 734L541 714Q514 673 496 650T464 618T440 608T416 611L302 642L236 589Z" />
<glyph unicode="&#xf2;" horiz-adv-x="495" d="M217 -10Q139 -10 94 45T49 196Q49 260 67 315T120 413T199 478T296 502Q375 502 419 448T464 297Q464 232 445 177T393 79T315 14T217 -10ZM249 53Q283 71 309 109T351 198T369 302T358 404Q335 417 312 425T264
437Q230 418 204 379T162 289T144 185T156 86Q176 73 199 65T249 53ZM407 564Q351 589 298 616T194 675L232 746H247L427 598L407 564Z" />
<glyph unicode="&#xf3;" horiz-adv-x="495" d="M217 -10Q139 -10 94 45T49 196Q49 260 67 315T120 413T199 478T296 502Q375 502 419 448T464 297Q464 232 445 177T393 79T315 14T217 -10ZM249 53Q283 71 309 109T351 198T369 302T358 404Q335 417 312 425T264
437Q230 418 204 379T162 289T144 185T156 86Q176 73 199 65T249 53ZM243 564L222 598L403 746H417L456 675Q404 644 352 617T243 564Z" />
<glyph unicode="&#xf4;" horiz-adv-x="495" d="M217 -10Q139 -10 94 45T49 196Q49 260 67 315T120 413T199 478T296 502Q375 502 419 448T464 297Q464 232 445 177T393 79T315 14T217 -10ZM249 53Q283 71 309 109T351 198T369 302T358 404Q335 417 312 425T264
437Q230 418 204 379T162 289T144 185T156 86Q176 73 199 65T249 53ZM374 741L474 618L431 582L334 665L210 582L178 618L311 741H374Z" />
<glyph unicode="&#xf5;" horiz-adv-x="495" d="M217 -10Q139 -10 94 45T49 196Q49 260 67 315T120 413T199 478T296 502Q375 502 419 448T464 297Q464 232 445 177T393 79T315 14T217 -10ZM249 53Q283 71 309 109T351 198T369 302T358 404Q335 417 312 425T264
437Q230 418 204 379T162 289T144 185T156 86Q176 73 199 65T249 53ZM186 589L166 609Q195 651 213 673T244 705T267 715T291 712L405 681L471 734L491 714Q464 673 446 650T414 618T390 608T366 611L252 642L186 589Z" />
<glyph unicode="&#xf6;" horiz-adv-x="495" d="M217 -10Q139 -10 94 45T49 196Q49 260 67 315T120 413T199 478T296 502Q375 502 419 448T464 297Q464 232 445 177T393 79T315 14T217 -10ZM249 53Q283 71 309 109T351 198T369 302T358 404Q335 417 312 425T264
437Q230 418 204 379T162 289T144 185T156 86Q176 73 199 65T249 53ZM262 722Q279 706 291 686T306 642Q292 625 271 613T227 597Q210 613 198 634T181 677Q198 694 218 706T262 722ZM433 722Q450 705 462 685T477 642Q461 625 441 613T398 597Q381 612 369 633T352
677Q368 694 389 706T433 722Z" />
<glyph unicode="&#xf7;" horiz-adv-x="523" d="M37 248L52 321H499L484 248H37ZM210 46Q197 60 188 80T177 122Q193 135 213 144T254 155Q268 139 277 119T286 79Q271 65 251 56T210 46ZM283 414Q270 427 261 447T250 489Q266 502 286 511T327 522Q342 506 350
486T360 446Q345 432 325 424T283 414Z" />
<glyph unicode="&#xf8;" horiz-adv-x="510" d="M176 38L98 -113L47 -89L126 63L176 38ZM217 -10Q136 -10 89 45T41 198Q41 263 60 318T114 414T195 478T294 502Q376 502 422 447T469 294Q469 230 450 175T396 78T316 13T217 -10ZM248 52Q284 71 313 113T359 209T376
319Q376 342 373 363T361 404Q331 418 309 426T261 438Q225 416 196 374T151 278T134 169Q134 146 138 125T148 85Q177 72 198 64T248 52ZM332 462L410 610L462 586L383 434L332 462ZM126 63L332 462L383 434L176 38L126 63Z" />
<glyph unicode="&#xf9;" horiz-adv-x="568" d="M247 436L162 93L154 116Q171 98 190 85T227 65L205 61Q261 104 315 186T417 385L430 346Q403 283 376 229T320 130T264 52T209 0Q190 -4 174 -4Q127 -4 97 22T67 90Q67 106 72 122L162 463L208 421Q170 418 135
414T68 403Q76 432 92 453T129 486T173 498Q197 498 217 483T247 436ZM338 55L389 241L379 244L436 492H527L429 27L410 73Q439 75 467 79T523 89Q516 60 499 39T460 5T415 -7Q389 -7 369 9T338 55ZM436 564Q380 589 327 616T223 675L261 746H276L456 598L436 564Z"
/>
<glyph unicode="&#xfa;" horiz-adv-x="568" d="M247 436L162 93L154 116Q171 98 190 85T227 65L205 61Q261 104 315 186T417 385L430 346Q403 283 376 229T320 130T264 52T209 0Q190 -4 174 -4Q127 -4 97 22T67 90Q67 106 72 122L162 463L208 421Q170 418 135
414T68 403Q76 432 92 453T129 486T173 498Q197 498 217 483T247 436ZM338 55L389 241L379 244L436 492H527L429 27L410 73Q439 75 467 79T523 89Q516 60 499 39T460 5T415 -7Q389 -7 369 9T338 55ZM271 564L250 598L431 746H445L484 675Q432 644 380 617T271 564Z"
/>
<glyph unicode="&#xfb;" horiz-adv-x="568" d="M246 436L161 93L153 116Q170 98 189 85T226 65L204 61Q260 104 314 186T416 385L429 346Q402 283 375 229T319 130T263 52T208 0Q189 -4 173 -4Q126 -4 96 22T66 90Q66 106 71 122L161 463L207 421Q169 418 134
414T67 403Q75 432 91 453T128 486T172 498Q196 498 216 483T246 436ZM337 55L388 241L378 244L435 492H526L428 27L409 73Q438 75 466 79T522 89Q515 60 498 39T459 5T414 -7Q388 -7 368 9T337 55ZM403 741L503 618L460 582L363 665L239 582L207 618L340 741H403Z"
/>
<glyph unicode="&#xfc;" horiz-adv-x="568" d="M246 436L161 93L153 116Q170 98 189 85T226 65L204 61Q260 104 314 186T416 385L429 346Q402 283 375 229T319 130T263 52T208 0Q189 -4 173 -4Q126 -4 96 22T66 90Q66 106 71 122L161 463L207 421Q169 418 134
414T67 403Q75 432 91 453T128 486T172 498Q196 498 216 483T246 436ZM337 55L388 241L378 244L435 492H526L428 27L409 73Q438 75 466 79T522 89Q515 60 498 39T459 5T414 -7Q388 -7 368 9T337 55ZM290 722Q307 706 319 686T334 642Q320 625 299 613T255 597Q238
613 226 634T209 677Q226 694 246 706T290 722ZM461 722Q478 705 490 685T505 642Q489 625 469 613T426 597Q409 612 397 633T380 677Q396 694 417 706T461 722Z" />
<glyph unicode="&#xfd;" horiz-adv-x="460" d="M-86 -189L-72 -115L71 -124Q119 -79 165 -19T253 112T332 260T396 418L398 338L353 484Q381 493 407 493Q436 493 451 480T467 440Q467 415 452 370Q432 312 401 247T330 117T249 -5T168 -105T95 -168Q42 -201 -16
-201Q-51 -201 -86 -189ZM155 0L103 464L128 412Q88 411 70 409T36 405Q38 433 51 453T85 485T127 497Q148 497 166 486T195 452L228 79H272L220 2L155 0ZM237 564L216 598L397 746H411L450 675Q398 644 346 617T237 564Z" />
<glyph unicode="&#xfe;" horiz-adv-x="530" d="M-7 -196L191 714L285 741L226 450L178 264L187 259L93 -196H-7ZM-66 -196L-61 -163Q-26 -148 -2 -140T48 -127L193 -163L186 -196H-66ZM186 645L102 711Q194 744 285 741L186 645ZM254 -9Q213 -9 182 11T136 69V97Q202
55 301 47L263 39Q301 59 330 99T377 192T398 302T388 414L407 394Q386 407 366 417T322 431L345 434Q292 393 245 318T153 129L133 146Q179 266 228 352T342 496Q414 504 453 461T492 324Q492 258 473 198T421 92T344 18T254 -9Z" />
<glyph unicode="&#xff;" horiz-adv-x="460" d="M-86 -189L-72 -115L71 -124Q119 -79 165 -19T253 112T332 260T396 418L398 338L353 484Q381 493 407 493Q436 493 451 480T467 440Q467 415 452 370Q432 312 401 247T330 117T249 -5T168 -105T95 -168Q42 -201 -16
-201Q-51 -201 -86 -189ZM155 0L103 464L128 412Q88 411 70 409T36 405Q38 433 51 453T85 485T127 497Q148 497 166 486T195 452L228 79H272L220 2L155 0ZM256 722Q273 706 285 686T300 642Q286 625 265 613T221 597Q204 613 192 634T175 677Q192 694 212 706T256
722ZM427 722Q444 705 456 685T471 642Q455 625 435 613T392 597Q375 612 363 633T346 677Q362 694 383 706T427 722Z" />
<glyph unicode="&#x2013;" horiz-adv-x="564" d="M62 315H531L516 242H47L62 315Z" />
<glyph unicode="&#x2014;" horiz-adv-x="1008" d="M62 315H975L961 242H47L62 315Z" />
<glyph unicode="&#x2018;" horiz-adv-x="243" d="M255 679L206 534L102 530Q127 572 155 610T218 685L255 679ZM192 578L234 496Q215 478 194 467T146 449Q129 467 119 486T102 530L192 578Z" />
<glyph unicode="&#x2019;" horiz-adv-x="245" d="M128 453L177 599L280 603Q256 561 227 523T165 447L128 453ZM190 554L148 637Q168 654 189 666T237 684Q253 666 263 647T280 603L190 554Z" />
<glyph unicode="&#x201a;" horiz-adv-x="242" d="M271 -98L320 48L423 52Q399 10 370 -28T308 -104L271 -98ZM333 3L291 86Q311 103 332 115T380 133Q396 115 406 96T423 52L333 3Z" />
<glyph unicode="&#x201c;" horiz-adv-x="397" d="M255 679L206 534L102 530Q127 572 155 610T218 685L255 679ZM192 578L234 496Q215 478 194 467T146 449Q129 467 119 486T102 530L192 578ZM408 679L360 534L256 530Q281 572 309 610T372 685L408 679ZM347 578L388
496Q368 478 347 467T299 449Q283 467 273 486T256 530L347 578Z" />
<glyph unicode="&#x201d;" horiz-adv-x="396" d="M276 453L325 599L428 603Q404 561 375 523T313 447L276 453ZM338 554L296 637Q316 654 337 666T385 684Q401 666 411 647T428 603L338 554ZM128 453L177 599L280 603Q256 561 227 523T165 447L128 453ZM190 554L148
637Q168 654 189 666T237 684Q253 666 263 647T280 603L190 554Z" />
<glyph unicode="&#x201e;" horiz-adv-x="395" d="M164 -98L213 48L316 52Q292 10 263 -28T201 -104L164 -98ZM226 3L184 86Q204 103 225 115T273 133Q289 115 299 96T316 52L226 3ZM269 -98L318 48L421 52Q397 10 368 -28T306 -104L269 -98ZM331 3L289 86Q309
103 330 115T378 133Q394 115 404 96T421 52L331 3Z" />
<glyph unicode="&#x2022;" horiz-adv-x="324" d="M192 356Q220 331 239 297T265 227Q241 200 207 181T137 155Q111 177 91 210T62 283Q87 310 121 329T192 356Z" />
<glyph unicode="&#x2039;" horiz-adv-x="253" d="M136 41L5 237L8 253L214 448L249 419L99 243L178 68L136 41Z" />
<glyph unicode="&#x203a;" horiz-adv-x="256" d="M127 448L258 252L255 235L50 41L14 69L165 245L85 420L127 448Z" />
</font>
</defs>
</svg>
