<?xml version="1.0" standalone="no"?>
<!DOCTYPE svg PUBLIC "-//W3C//DTD SVG 1.1//EN" "http://www.w3.org/Graphics/SVG/1.1/DTD/svg11.dtd">
<svg xmlns="http://www.w3.org/2000/svg">
<defs >
<font id="Piazzolla" horiz-adv-x="585" ><font-face
    font-family="Piazzolla Thin"
    units-per-em="1000"
    panose-1="0 0 0 0 0 0 0 0 0 0"
    ascent="1110"
    descent="-310"
    alphabetic="0" />
<glyph unicode=" " horiz-adv-x="167" />
<glyph unicode="!" horiz-adv-x="285" d="M268 661L245 547L151 200H106L166 547L192 661Q230 666 268 661ZM109 107Q123 96 133 78T149 38Q136 24 117 13T79 -2Q46 29 40 69Q53 83 71 94T109 107Z" />
<glyph unicode="&quot;" horiz-adv-x="368" d="M161 475L182 673Q225 680 264 673L205 475H161ZM282 475L303 673Q346 680 385 673L326 475H282Z" />
<glyph unicode="#" horiz-adv-x="617" d="M290 2L503 606H547L334 2H290ZM23 185L32 228H550L542 185H23ZM94 2L308 606H352L138 2H94ZM91 378L100 423H619L611 378H91Z" />
<glyph unicode="$" horiz-adv-x="584" d="M255 -11Q207 -11 153 -1T41 28L80 81Q202 38 354 47Q386 63 405 88T424 141Q424 170 402 192T346 235T272 277T199 322T142 378T120 451Q120 500 150 537T235 596T362 617Q406 617 453 609T547 585L519 530Q477 542 430
549T337 558T255 556Q229 542 214 519T198 471Q198 439 220 415T277 370T351 328T425 283T482 229T504 158Q504 108 472 71T384 11T255 -11ZM119 23L41 28L75 207H105L119 23ZM175 -142L384 736H430L221 -142H175ZM483 413L468 591L547 585L514 413H483Z" />
<glyph unicode="%" horiz-adv-x="877" d="M237 242Q177 242 142 281T107 389Q107 448 132 497T201 576T296 606Q356 606 391 566T427 458Q427 399 402 350T333 272T237 242ZM243 281Q265 281 283 291T314 318Q330 338 341 363T358 417T364 470Q364 514 344 539T289
564Q272 564 255 559T224 543Q208 520 196 491T176 431T169 374Q169 332 189 307T243 281ZM209 -49L172 -20L690 652L727 623L209 -49ZM627 -5Q567 -5 532 34T497 142Q497 201 522 250T591 329T686 359Q746 359 781 319T817 211Q817 152 792 103T723 25T627 -5ZM633
34Q655 34 673 44T704 71Q720 91 731 116T748 170T754 223Q754 267 734 292T679 317Q662 317 645 312T614 296Q598 273 586 244T566 184T559 127Q559 85 579 60T633 34Z" />
<glyph unicode="&amp;" horiz-adv-x="638" d="M534 -63L172 374Q146 406 132 438T118 504Q118 555 150 591T239 646T373 664T537 641L517 581Q418 600 343 602T208 589L229 612Q199 576 189 545T189 482T229 415L591 -19L534 -63ZM239 -11Q174 -11 125 11T47 71T18
161Q18 230 66 282T203 361L234 337Q160 308 124 267T89 174Q89 115 133 80T253 44Q307 44 354 60T437 109Q454 142 461 184T464 275T444 372L498 350Q522 273 514 208T469 93T375 17T239 -11ZM485 326L444 372L448 382H620L613 351L485 326ZM476 461L457 641H539L508
461H476Z" />
<glyph unicode="&apos;" horiz-adv-x="241" d="M146 475L167 673Q210 680 249 673L190 475H146Z" />
<glyph unicode="(" horiz-adv-x="328" d="M215 -202Q140 -127 101 -30T61 176Q61 288 102 395T219 593T401 747L421 725Q329 654 263 561T162 362T126 149Q126 55 155 -30T239 -183L215 -202Z" />
<glyph unicode=")" horiz-adv-x="329" d="M125 744Q201 669 239 572T278 366Q278 254 237 147T121 -51T-62 -206L-82 -183Q11 -112 77 -19T178 179T214 392Q214 487 185 572T100 725L125 744Z" />
<glyph unicode="*" horiz-adv-x="390" d="M255 548L167 591L138 623Q143 631 149 638T162 653L200 632L264 557L255 548ZM156 459Q150 466 145 474T134 490L165 520L256 558L264 547L195 478L156 459ZM279 414L262 453L253 550L266 555L311 467L316 424Q305 421
297 419T279 414ZM355 523L260 545V559L356 575L398 566Q401 548 398 528L355 523ZM266 550L254 555L268 652L288 690Q297 688 306 684T324 676L316 634L266 550Z" />
<glyph unicode="+" horiz-adv-x="533" d="M201 64L290 504H347L260 64H201ZM48 255L60 312H500L488 255H48Z" />
<glyph unicode="," horiz-adv-x="274" d="M30 -97L78 37L160 42Q138 3 113 -32T57 -102L30 -97ZM87 1L51 70Q68 84 85 93T124 108Q138 93 146 78T160 42L87 1Z" />
<glyph unicode="-" horiz-adv-x="310" d="M48 293L271 321L278 263L54 236L48 293Z" />
<glyph unicode="." horiz-adv-x="275" d="M84 -2Q70 10 60 28T43 68Q56 81 75 92T114 107Q129 94 139 75T153 37Q140 22 122 12T84 -2Z" />
<glyph unicode="/" horiz-adv-x="326" d="M-47 -203L-91 -185L384 745L427 727L-47 -203Z" />
<glyph unicode="0" horiz-adv-x="629" d="M274 -8Q213 -8 169 21T100 105T75 234Q75 311 98 379T164 499T260 582T377 612Q438 612 483 582T552 498T577 368Q577 292 554 224T488 104T391 22T274 -8ZM283 47Q317 47 348 64T407 115Q433 149 452 194T483 287T494
383Q494 462 460 507T366 553Q337 553 307 543T254 513Q224 470 203 419T169 315T157 216Q157 139 191 93T283 47Z" />
<glyph unicode="1" horiz-adv-x="402" d="M-13 0L-8 27Q28 36 62 41T133 50L238 548H101L107 574L280 613H330L219 50L346 31L340 0H-13Z" />
<glyph unicode="2" horiz-adv-x="596" d="M33 0L47 69Q57 116 91 155T172 227T270 293T365 358T436 427T464 506Q464 548 431 569L478 536Q444 542 411 545T344 549Q258 549 169 529L164 591Q217 602 264 608T351 614Q442 614 491 584T541 498Q541 450 513 410T441
334T345 265T247 200T166 135T125 63L112 0H33ZM67 0L78 54L458 63L447 0H67ZM389 0L476 200H506L471 0H389ZM127 387L164 591H242L158 387H127Z" />
<glyph unicode="3" horiz-adv-x="582" d="M44 19L71 73Q116 62 154 57T226 52Q311 52 360 85T409 179Q409 229 377 257T288 285H214L226 343H278Q330 343 369 363T432 415T455 486Q455 506 448 526T424 564L450 542Q399 556 336 556Q299 556 259 551T177 535L170
588Q218 602 262 609T345 617Q404 617 448 602T516 558T540 488Q540 431 495 386T372 318Q432 304 462 271T493 184Q493 125 458 82T360 15T219 -8Q178 -8 134 -2T44 19ZM85 200H116L126 19H44L85 200ZM139 410L170 588L252 589L169 410H139Z" />
<glyph unicode="4" horiz-adv-x="556" d="M162 0L166 25Q195 34 222 39T278 48L389 555L402 547L70 194L60 220H513L503 169H20L17 208L390 603H464L352 47L447 28L441 0H162Z" />
<glyph unicode="5" horiz-adv-x="599" d="M226 -9Q185 -9 142 -2T56 18L80 75Q127 63 168 57T246 51Q313 51 375 72Q404 106 418 138T432 199Q432 239 405 263T324 288H126L167 348H333Q417 348 463 312T510 209Q510 145 474 96T374 19T226 -9ZM139 18H56L96 194H126L139
18ZM126 288L189 603H250L190 312L126 288ZM531 542L206 546L189 603H543L531 542ZM494 418L484 603H564L524 418H494Z" />
<glyph unicode="6" horiz-adv-x="595" d="M284 -8Q181 -8 131 51T80 234Q80 355 121 440T240 569T425 614Q455 614 486 611T550 600L521 535Q490 546 457 550T388 555Q349 555 308 548T226 524L268 545Q243 521 223 486T188 408T165 317T157 221Q157 51 288 51Q330
51 361 68T411 115T429 185Q429 236 399 263T312 290H128L138 347H332Q416 347 462 307T508 191Q508 132 480 87T401 17T284 -8ZM487 425L473 600H550L516 425H487Z" />
<glyph unicode="7" horiz-adv-x="513" d="M83 388L122 603H200L113 388H83ZM130 537L142 603H519L507 542L130 537ZM552 580L179 0H107L496 603H556L552 580Z" />
<glyph unicode="8" horiz-adv-x="583" d="M261 -10Q201 -10 155 9T81 63T54 141Q54 199 106 248T253 327L267 304Q125 238 125 149Q125 100 166 73T279 46Q297 46 315 47T355 52Q388 72 408 100T428 154Q428 183 406 204T350 244T276 282T202 323T145 375T123
446Q123 492 154 531T236 593T348 617Q402 617 444 599T510 550T535 478Q535 422 484 371T344 287L331 312Q397 349 431 389T466 472Q466 514 431 537T335 561Q320 561 302 559T265 554Q237 538 218 511T199 456Q199 425 221 403T277 361T351 323T424 282T481 231T503
163Q503 116 470 77T382 14T261 -10Z" />
<glyph unicode="9" horiz-adv-x="595" d="M334 614Q438 614 488 555T539 373Q539 252 498 167T379 37T193 -8Q164 -8 133 -5T68 6L98 71Q160 52 232 52Q270 52 311 59T393 82L350 62Q376 85 396 120T431 199T454 289T462 385Q462 556 330 556Q289 556 257 539T207
491T189 421Q189 371 219 344T307 317H491L480 260H287Q203 260 157 300T111 415Q111 475 139 519T217 589T334 614ZM132 181L146 6H68L103 181H132Z" />
<glyph unicode=":" horiz-adv-x="279" d="M98 -2Q84 10 74 28T57 68Q70 81 89 92T128 107Q143 94 153 75T167 37Q154 22 136 12T98 -2ZM148 271Q134 283 124 301T107 341Q120 354 139 365T178 380Q193 367 203 348T217 310Q204 295 186 285T148 271Z" />
<glyph unicode=";" horiz-adv-x="277" d="M37 -97L85 37L167 42Q145 3 120 -32T64 -102L37 -97ZM94 1L58 70Q75 84 92 93T131 108Q145 93 153 78T167 42L94 1ZM151 271Q137 283 127 301T110 341Q123 354 142 365T181 380Q196 367 206 348T220 310Q207 295 189
285T151 271Z" />
<glyph unicode="&lt;" horiz-adv-x="474" d="M383 128L349 81L47 270L52 298L423 485L445 435L129 281L383 128Z" />
<glyph unicode="=" horiz-adv-x="648" d="M142 335L154 393H554L542 335H142ZM110 175L122 233H522L510 175H110Z" />
<glyph unicode="&gt;" horiz-adv-x="483" d="M108 439L142 487L443 298L438 270L67 83L46 133L362 287L108 439Z" />
<glyph unicode="?" horiz-adv-x="451" d="M296 664Q383 664 431 633T479 542Q479 492 458 458T405 400T337 356T273 312T233 254L214 200H166L178 263Q185 300 210 327T267 376T330 420T380 468T401 529Q401 564 370 583T284 602Q214 602 134 581L128 638Q173
651 216 657T296 664ZM207 638L121 455H91L128 638H207ZM174 107Q189 96 199 78T215 38Q201 24 182 13T144 -2Q112 29 105 69Q118 83 137 94T174 107Z" />
<glyph unicode="@" horiz-adv-x="882" d="M775 -140Q658 -189 549 -199T345 -186T179 -107T67 30T27 216Q27 311 61 391T157 532T301 626T481 660Q563 660 631 635T751 566T830 461T858 328Q858 264 835 209T771 111T676 45T560 21Q524 21 506 31T479 66L526 238L519
242L572 467H635L539 43L518 62Q581 52 636 67T734 119T801 208T825 323Q825 412 781 480T660 588T482 627Q392 627 315 596T181 510T92 381T60 218Q60 122 97 46T201 -81T356 -154T549 -167T763 -111L775 -140ZM361 21Q297 14 262 56T227 184Q227 244 244 297T291
389T360 451T445 474Q486 474 518 455T564 402L560 373Q531 401 493 415T404 431L439 435Q397 421 364 382T313 292T293 186T313 85L288 107Q332 80 378 73L355 64Q391 89 423 127T487 220T549 349L566 340Q518 218 468 140T361 21Z" />
<glyph unicode="A" horiz-adv-x="726" d="M594 44Q612 41 628 37T659 27L656 0H390L396 28L506 48L420 626L440 623L117 48Q145 43 173 38T229 27L226 0H-29L-24 28L49 51L397 655H493L594 44ZM177 217L202 270H522L528 217H177Z" />
<glyph unicode="B" horiz-adv-x="705" d="M-2 0L4 27Q22 35 49 40T116 50L236 604L123 626L130 655H475Q529 655 570 640T633 595T656 525Q656 479 629 440T555 373T445 334L447 346Q531 336 576 298T621 198Q621 142 585 97T486 26T341 0H-2ZM205 56H398Q459
70 497 110T535 201Q535 251 499 279T398 307H213L223 363H426Q492 385 530 425T568 513Q568 555 538 577T453 599H314L205 56Z" />
<glyph unicode="C" horiz-adv-x="687" d="M370 -9Q233 -9 159 59T85 255Q85 346 113 421T194 551T317 636T475 666Q511 666 556 660T649 643L623 576Q583 589 545 594T467 600Q418 600 368 589T261 552L300 576Q259 532 230 478T186 365T170 248Q170 153 222 103T372
52Q406 52 447 59T537 83L551 18Q485 3 444 -3T370 -9ZM463 17L551 214H582L551 18L463 17ZM588 447L562 643H649L618 447H588Z" />
<glyph unicode="D" horiz-adv-x="762" d="M479 655Q591 655 653 592T716 413Q716 330 687 255T605 123T486 33T342 0H-2L3 27Q24 35 52 40T116 50L237 604L123 626L129 655H479ZM411 56Q460 76 500 112T569 195T613 299T629 415Q629 501 585 550T465 599H314L205 56H411Z" />
<glyph unicode="E" horiz-adv-x="712" d="M-2 0L3 27Q33 35 61 41T116 50L236 604L123 626L129 655H683L644 458H614L608 599H314L267 365H459L506 451H533L487 223H461L447 310H256L205 56H507L576 218H605L562 0H-2Z" />
<glyph unicode="F" horiz-adv-x="629" d="M655 655L615 456H586L580 599H314L203 50L336 30L331 0H-2L3 27Q33 35 61 41T116 50L236 604L123 626L129 655H655ZM210 292L221 348H469L457 292H210ZM435 206L417 319L481 433H508L462 206H435Z" />
<glyph unicode="G" horiz-adv-x="740" d="M372 -9Q229 -9 158 60T86 268Q86 388 136 477T278 616T493 666Q520 666 551 664T615 656T681 643L643 576Q600 588 557 594T472 600Q417 600 365 588T263 553L301 574Q272 544 248 506T207 425T180 339T171 254Q171 155
225 103T384 50Q451 50 549 78L560 17Q497 3 454 -3T372 -9ZM475 17L529 277L394 298L400 328H706L702 301Q685 294 663 289T611 279L560 17H475ZM611 448L594 643H681L642 448H611Z" />
<glyph unicode="H" horiz-adv-x="821" d="M424 0L428 25Q456 34 484 40T539 50L659 604L548 626L555 655H855L850 629Q812 620 787 615T737 606L626 50L730 30L724 0H424ZM-2 0L3 27Q33 35 61 41T116 50L236 604L123 626L129 655H430L425 629Q391 621 365 615T314
606L203 50L304 30L299 0H-2ZM215 306L225 363H649L638 306H215Z" />
<glyph unicode="I" horiz-adv-x="399" d="M-2 0L3 27Q33 35 61 41T116 50L236 604L123 626L129 655H432L427 629Q390 620 364 615T314 606L203 50L307 30L302 0H-2Z" />
<glyph unicode="J" horiz-adv-x="519" d="M6 0L30 70Q53 61 77 57T127 52Q182 52 215 68T278 125L379 604L235 626L241 655H569L564 629Q541 622 514 616T458 606L380 215Q336 -9 104 -9Q83 -9 59 -7T6 0ZM6 0L50 221H79L87 0H6Z" />
<glyph unicode="K" horiz-adv-x="771" d="M-2 0L3 27Q33 35 61 41T116 50L236 604L123 626L129 655H432L427 629Q390 620 364 615T314 606L203 50L307 30L302 0H-2ZM391 0L395 25Q440 41 484 50T571 63L695 30L689 0H391ZM644 593L510 625L516 655H800L795 631Q716
600 644 593ZM720 645L718 626L365 317L373 371L615 30L607 10H522L296 333L649 645H720Z" />
<glyph unicode="L" horiz-adv-x="621" d="M533 264H563L509 0H-2L3 27Q33 35 61 41T116 50L236 604L123 626L129 655H448L442 629Q371 612 314 606L205 56H454L533 264Z" />
<glyph unicode="M" horiz-adv-x="978" d="M-7 0L-2 27Q30 35 58 41T113 50L243 604L126 626L132 655H358L465 100L444 104L781 655H1008L1003 629Q965 620 938 615T887 606L784 50L892 30L887 0H579L585 27Q617 35 645 41T699 50L814 621L823 617L446 0H405L287
612H299L177 50L297 30L291 0H-7Z" />
<glyph unicode="N" horiz-adv-x="809" d="M574 655H858L853 629Q823 621 797 615T742 606L619 0H534L267 584L287 586L180 50L299 30L294 0H-1L4 27Q33 35 61 41T116 50L235 604L123 626L130 655H330L598 69L579 67L676 607L567 626L574 655Z" />
<glyph unicode="O" horiz-adv-x="745" d="M336 -9Q260 -9 204 24T116 118T84 258Q84 343 112 416T189 545T304 632T444 664Q520 664 576 632T664 539T695 398Q695 312 668 239T591 110T477 23T336 -9ZM340 48Q389 48 433 70T514 132T574 229Q585 255 592 286T605
350T610 407Q610 499 563 551T432 603Q391 603 349 590T264 549L295 572Q256 526 228 473T184 362T169 249Q169 188 190 143T249 73T340 48Z" />
<glyph unicode="P" horiz-adv-x="652" d="M-2 0L3 27Q23 35 50 41T116 50L236 604L123 626L129 655H475Q556 655 603 614T650 501Q650 432 614 377T516 290T374 258H203L214 314H445Q506 349 535 395T564 499Q564 548 534 573T445 599H314L203 50L338 30L333 0H-2Z" />
<glyph unicode="Q" horiz-adv-x="751" d="M636 -129L323 9L361 32Q411 23 455 12T550 -16L708 -70Q689 -88 672 -102T636 -129ZM336 -9Q260 -9 204 24T116 118T84 258Q84 343 112 416T189 545T304 632T444 664Q520 664 576 632T664 539T695 398Q695 312 668 239T591
110T477 23T336 -9ZM340 48Q389 48 433 70T514 132T574 229Q585 255 592 286T605 350T610 407Q610 499 563 551T432 603Q391 603 349 590T264 549L295 572Q256 526 228 473T184 362T169 249Q169 188 190 143T249 73T340 48Z" />
<glyph unicode="R" horiz-adv-x="726" d="M-2 0L3 27Q21 35 48 40T116 50L237 604L123 626L129 655H484Q564 655 612 615T661 509Q661 463 634 422T558 352T445 311L444 321Q487 316 512 300T550 255T562 181V51L654 30L648 0H473L477 182Q478 241 457 264T381
287H215L226 343H435Q573 400 573 497Q573 545 543 572T458 599H314L204 50L308 30L302 0H-2Z" />
<glyph unicode="S" horiz-adv-x="644" d="M58 31L99 87Q208 49 336 49Q377 49 418 53L384 43Q424 61 447 90T471 152Q471 183 447 208T386 255T307 299T228 348T167 407T143 486Q143 539 176 579T267 642T404 665Q452 665 502 657T602 630L572 572Q521 587 462
595T346 603Q324 603 304 602T264 598L297 605Q264 590 245 564T226 507Q226 474 250 448T311 399T391 354T470 305T532 247T556 170Q556 117 522 77T427 13T288 -11Q237 -11 179 0T58 31ZM141 26L58 31L94 224H126L141 26ZM534 446L518 636L602 630L566 446H534Z"
/>
<glyph unicode="T" horiz-adv-x="717" d="M737 655L683 383H655L660 599H474L362 50L494 30L488 0H128L131 28Q166 37 200 42T272 50L393 599H204L123 383H94L148 655H737Z" />
<glyph unicode="U" horiz-adv-x="783" d="M350 -10Q245 -10 187 34T128 157Q128 166 129 177T133 204L220 604L108 626L114 655H413L408 629Q386 621 360 616T299 606L217 200Q216 187 215 178T213 160Q213 105 251 78T362 50Q424 50 470 69T555 131L654 604L546
626L552 655H836L831 629Q808 622 781 616T719 606L640 214Q619 107 544 49T350 -10Z" />
<glyph unicode="V" horiz-adv-x="726" d="M268 0L159 655H249L338 39H321L666 655H739L362 0H268ZM219 596Q189 601 160 609T100 630L103 655H369L365 628L219 596ZM691 596Q647 601 607 609T530 630L533 655H789L784 628L691 596Z" />
<glyph unicode="W" horiz-adv-x="1053" d="M625 0L554 645H629L693 39H675L987 645H1059L717 0H625ZM238 0L157 645H245L306 39H289L576 601L610 543L329 0H238ZM216 596Q187 601 158 609T102 630L105 655H365L360 628L216 596ZM610 596Q575 601 544 609T483 630L487
655H744L739 628L610 596ZM1017 596Q974 601 936 609T864 630L867 655H1115L1110 628L1017 596Z" />
<glyph unicode="X" horiz-adv-x="786" d="M63 10L67 33L383 373H460L633 34L629 10H546L391 325H418L130 10H63ZM374 326L218 630L224 650H308L443 375H419L668 650H736L735 631L453 326H374ZM397 0L401 26Q446 41 490 50T581 63L709 30L702 0H397ZM-17 0L-13
26Q23 42 60 51T134 63L276 30L270 0H-17ZM454 655L451 630Q405 614 358 605T264 592L145 625L150 655H454ZM816 655L813 629Q776 614 739 605T662 592L527 625L533 655H816Z" />
<glyph unicode="Y" horiz-adv-x="705" d="M322 218L173 624L177 645H262L383 291H356L624 645H685L683 626L364 218H322ZM129 0L134 28Q167 37 198 42T261 50L315 285H398L351 50L471 30L465 0H129ZM218 592L97 625L102 655H408L406 630Q360 614 314 605T218 592ZM614
592L481 625L487 655H768L765 629Q729 614 691 605T614 592Z" />
<glyph unicode="Z" horiz-adv-x="676" d="M676 630L121 25L110 49L499 58L559 210H590L553 0H18L22 26L576 630L587 606L223 598L161 449H130L169 655H680L676 630Z" />
<glyph unicode="[" horiz-adv-x="377" d="M39 -195L224 735H447L442 707L237 682L289 734L104 -193L72 -142L267 -167L262 -195H39Z" />
<glyph unicode="\" horiz-adv-x="328" d="M315 -200L69 730L115 744L361 -186L315 -200Z" />
<glyph unicode="]" horiz-adv-x="377" d="M350 736L164 -194H-59L-54 -165L152 -140L99 -192L284 735L316 683L121 709L127 736H350Z" />
<glyph unicode="^" horiz-adv-x="433" d="M62 229L16 255L271 594H300L422 255L368 229L272 514L62 229Z" />
<glyph unicode="_" horiz-adv-x="543" d="M-29 -152H411L399 -210H-40L-29 -152Z" />
<glyph unicode="`" horiz-adv-x="294" d="M340 565Q287 591 238 619T141 678L171 731H183L355 590L340 565Z" />
<glyph unicode="a" horiz-adv-x="536" d="M191 -3Q122 -13 84 31T46 169Q46 235 64 294T115 398T190 470T279 496Q320 496 352 476T401 419L400 397Q336 445 234 455L268 460Q225 443 192 402T140 304T118 186T132 64L111 86Q134 72 156 61T204 45L181 41Q236
79 286 159T385 362L402 348Q355 221 304 135T191 -3ZM379 25L364 60Q391 61 418 66T474 79Q467 53 452 34T418 5T378 -6Q355 -6 337 9T311 53L360 236L352 239L407 488H476L379 25Z" />
<glyph unicode="b" horiz-adv-x="523" d="M240 -9Q196 -9 162 12T109 73L124 100Q158 69 197 54T291 35L255 29Q290 45 318 77T367 151T398 240T406 334T388 422L411 400Q386 417 364 427T319 441L343 445Q287 409 236 330T141 133L123 150Q172 275 222 358T331
490Q401 500 438 455T476 316Q476 251 458 192T407 88T332 17T240 -9ZM44 0L198 716L268 736L209 438L162 251L169 247L133 75Q116 46 99 30T57 0H44ZM195 659L107 711Q151 724 189 730T268 736L195 659Z" />
<glyph unicode="c" horiz-adv-x="438" d="M206 -9Q133 -9 90 48T47 201Q47 285 78 351T164 457T285 496Q318 496 350 489T404 469L376 411Q306 441 220 447L261 460Q217 437 186 391T137 288T120 173Q120 144 126 116T145 63L128 89Q151 73 175 65T222 56Q259
56 292 76T354 139L368 131Q353 68 308 30T206 -9ZM345 320L328 469H404L376 320H345Z" />
<glyph unicode="d" horiz-adv-x="537" d="M380 25L366 60Q394 61 420 66T474 79Q467 53 453 34T419 5T379 -6Q356 -6 338 9T313 53L361 236L354 239L454 716L525 736L380 25ZM191 -3Q122 -13 84 31T46 169Q46 235 64 294T115 398T190 470T279 496Q320 496 352
476T401 419L400 397Q336 445 234 455L268 460Q225 443 192 402T140 304T118 186T132 64L111 86Q134 72 156 61T204 45L181 41Q236 79 286 159T385 362L402 348Q355 221 304 135T191 -3ZM452 659L364 711Q408 724 446 730T525 736L452 659ZM489 760H490V759L489
760Z" />
<glyph unicode="e" horiz-adv-x="452" d="M206 -9Q133 -9 89 46T45 193Q45 255 63 310T115 406T190 472T282 496Q338 496 375 464T412 382Q412 344 390 313T326 259T226 222T94 201V238Q223 255 282 289T341 382Q341 412 328 439L353 416Q325 429 295 436T233
445L260 451Q215 430 183 390T133 297T115 183Q115 151 122 120T143 59L126 88Q149 71 173 64T224 56Q264 56 303 75T376 135L389 123Q364 62 315 27T206 -9Z" />
<glyph unicode="f" horiz-adv-x="308" d="M-32 -207Q-57 -207 -78 -198T-111 -171T-125 -133Q-79 -133 -38 -132T47 -129Q54 -97 59 -72T69 -19T79 45L166 609Q172 648 194 678T249 726T323 744Q350 744 371 735T406 708T420 670Q330 673 248 666Q241 651 238
637T231 604T224 556T216 482L147 49Q126 -83 84 -145T-32 -207ZM49 439L54 460Q75 471 99 477T150 486H365L356 439H49Z" />
<glyph unicode="g" horiz-adv-x="510" d="M194 -203Q122 -203 71 -181T-4 -120T-17 -35Q7 -14 21 -5T57 9Q36 -38 49 -76T103 -135T208 -157Q266 -157 305 -138T356 -88T344 -25L186 24Q170 40 163 57T155 93Q155 118 170 140T212 172L211 84L336 47Q435 18 435
-56Q435 -98 404 -131T318 -183T194 -203ZM228 155Q155 155 110 196T64 303Q64 354 92 396T167 463T271 488Q342 488 386 446T431 338Q431 288 404 247T330 180T228 155ZM253 194Q298 215 324 254T355 339T338 426Q316 433 292 439T241 448Q198 426 172 388T141
303T158 215Q190 204 213 199T253 194ZM371 421L271 488H490L478 431L384 448L371 421Z" />
<glyph unicode="h" horiz-adv-x="552" d="M137 119L125 151Q151 212 178 264T234 360T291 435T347 486Q357 488 365 489T381 490Q426 490 453 464T481 398Q481 391 481 385T478 371L406 61Q432 63 452 67T491 79Q484 53 469 34T435 5T395 -6Q372 -6 354 9T328
53L418 407L420 385Q398 407 382 418T341 440L361 442Q304 406 246 322T137 119ZM47 0L200 716L271 736L212 438L164 243L170 240L121 0H47ZM198 659L110 711Q154 724 192 730T271 736L198 659Z" />
<glyph unicode="i" horiz-adv-x="289" d="M147 25L132 60Q162 61 189 65T241 79Q234 53 219 34T185 4T145 -7Q121 -7 104 9T78 53L166 461L179 424Q144 424 120 422T70 412Q77 438 91 456T124 483T163 493Q185 493 203 480T231 441L147 25ZM235 711Q250 696 261
677T276 637Q263 621 244 610T203 595Q187 609 176 628T160 669Q174 685 194 696T235 711Z" />
<glyph unicode="j" horiz-adv-x="270" d="M177 424Q147 425 118 422T64 412Q70 437 84 455T118 483T156 493Q178 493 196 480T224 441L177 424ZM224 441L144 -31Q129 -115 89 -161T-15 -207Q-41 -207 -62 -198T-95 -171T-110 -133Q-77 -133 -35 -133T47 -130Q55
-104 60 -84T70 -43T79 5L157 451L224 441ZM232 711Q247 696 258 677T273 637Q260 621 241 610T200 595Q184 609 173 628T157 669Q171 685 191 696T232 711Z" />
<glyph unicode="k" horiz-adv-x="505" d="M42 0L195 716L266 736L118 0H42ZM322 18L183 258L237 295L395 32L356 63Q362 63 368 63T386 64Q401 64 415 67T446 75Q442 51 432 33T405 6T371 -4Q359 -4 346 1T322 18ZM183 258Q235 324 275 369T346 441T405 481T457
493Q464 493 469 493T480 491L457 389L360 417L408 437Q379 416 353 392T295 335T221 251L183 258ZM192 659L105 711Q139 724 178 730T266 736L192 659Z" />
<glyph unicode="l" horiz-adv-x="278" d="M192 659L104 711Q140 724 181 730T266 736L192 659ZM123 25L107 60Q137 61 164 65T216 79Q209 53 194 34T160 4T120 -7Q97 -7 79 9T53 53L195 716L266 736L123 25Z" />
<glyph unicode="m" horiz-adv-x="841" d="M426 119L415 151Q441 212 468 264T523 360T580 435T637 486Q647 488 655 489T671 490Q715 490 743 464T771 398Q771 391 771 385T768 371L695 61Q721 63 741 67T781 79Q774 53 759 34T725 5T685 -6Q661 -6 644 9T618
53L708 407L710 385Q688 407 671 418T630 440L651 442Q593 405 535 321T426 119ZM58 0L159 461L171 424Q144 424 120 422T62 412Q69 437 83 455T116 483T155 493Q177 493 195 480T224 441L175 243L182 240L134 0H58ZM336 0L426 415L433 385Q411 407 394 418T353
440L374 442Q316 404 258 320T149 119L138 151Q163 212 190 264T246 360T303 435T360 486Q372 489 380 490T394 491Q437 491 462 467T488 401Q488 394 487 386T483 369L452 243L459 240L412 0H336Z" />
<glyph unicode="n" horiz-adv-x="564" d="M340 53L430 407L433 385Q411 407 394 418T353 440L374 442Q316 406 258 322T149 119L138 151Q163 212 190 264T246 360T303 435T360 486Q370 488 378 489T393 490Q438 490 465 464T493 398Q493 391 493 385T490 371L418
61Q444 63 464 67T504 79Q497 53 482 34T448 5T407 -6Q384 -6 366 9T340 53ZM58 0L159 461L171 424Q144 424 120 422T62 412Q69 437 83 455T116 483T155 493Q177 493 195 480T224 441L175 243L182 240L134 0H58Z" />
<glyph unicode="o" horiz-adv-x="490" d="M206 -9Q132 -9 90 45T47 192Q47 256 65 311T115 408T191 473T285 496Q358 496 400 443T443 296Q443 232 425 177T374 80T299 15T206 -9ZM236 40Q274 57 304 97T351 190T371 300T356 409Q332 424 307 433T254 446Q215
428 185 387T138 293T120 184T135 78Q156 63 182 54T236 40Z" />
<glyph unicode="p" horiz-adv-x="538" d="M259 -9Q218 -9 186 12T137 69L138 91Q201 43 303 33L269 28Q312 45 345 86T398 184T420 302T405 423L426 402Q403 416 382 427T333 443L357 447Q302 408 252 329T153 126L135 140Q183 267 233 352T346 491Q415 501 453
457T491 319Q491 253 473 194T422 90T348 18T259 -9ZM-42 -196L-38 -171Q-9 -158 13 -152T61 -141L196 -171L191 -196H-42ZM17 -196L159 461L171 424Q140 423 114 421T63 412Q69 437 83 455T117 483T155 493Q178 493 196 480T225 441L177 251L184 247L93 -196H17Z"
/>
<glyph unicode="q" horiz-adv-x="518" d="M191 -3Q122 -13 84 31T46 169Q46 235 64 294T115 398T190 470T279 496Q320 496 352 476T401 419L400 397Q336 445 234 455L268 460Q225 443 192 402T140 304T118 186T132 64L111 86Q134 72 156 61T204 45L181 41Q236
79 286 159T385 362L402 348Q355 221 304 135T191 -3ZM175 -196L180 -171Q219 -159 247 -152T306 -141L415 -171L410 -196H175ZM260 -196L315 64L360 236L352 239L407 488H476L335 -196H260Z" />
<glyph unicode="r" horiz-adv-x="379" d="M59 0L159 461L171 424Q143 424 119 421T63 412Q69 438 83 456T116 483T155 493Q177 493 195 480T224 441L175 243L183 240L135 0H59ZM150 119L138 151Q189 271 235 348T324 462T405 494L378 382L319 400Q276 360 235
292T150 119Z" />
<glyph unicode="s" horiz-adv-x="427" d="M16 42L28 92L226 34L197 36Q221 39 240 51T272 79T285 113Q285 138 264 159T210 203T145 249T91 302T69 367Q69 405 94 434T161 479T257 495Q289 495 322 489T386 471L364 419Q326 428 288 432T209 437Q191 437 174 437T139
433L184 440Q164 431 151 414T138 377Q138 352 160 331T214 288T278 242T332 189T354 124Q354 89 330 59T267 10T179 -8Q140 -8 94 6T16 42ZM330 338L311 471H386L358 338H330Z" />
<glyph unicode="t" horiz-adv-x="394" d="M173 -9Q131 -9 100 19T66 90L183 627H249L134 54L129 93Q159 58 196 58Q231 58 264 85T319 159L336 152Q320 80 275 36T173 -9ZM67 439L71 460Q92 471 112 477T156 486H391L382 439H67Z" />
<glyph unicode="u" horiz-adv-x="560" d="M221 433L135 80L129 102Q147 83 168 68T207 46L187 44Q243 80 300 163T409 368L422 337Q394 274 367 221T312 126T257 52T201 1Q183 -3 167 -3Q124 -3 95 22T65 88Q65 102 70 116L159 461L192 429Q157 426 125 422T65
408Q73 435 87 454T120 483T157 493Q179 493 196 478T221 433ZM335 53L384 245L377 248L430 488H499L403 25L387 60Q416 61 443 66T497 79Q490 53 475 34T441 5T402 -6Q378 -6 361 9T335 53Z" />
<glyph unicode="v" horiz-adv-x="454" d="M213 60Q278 165 325 256T401 425L399 365L357 482Q375 488 395 488Q424 488 439 476T454 437Q454 413 441 380Q426 345 404 301T354 208T299 114T244 31Q235 18 228 11T212 1T189 -4T152 -5L98 463L126 421Q100 420 78
418T37 412Q39 436 50 453T77 481T113 492Q132 492 147 481T173 450L209 60H213Z" />
<glyph unicode="w" horiz-adv-x="690" d="M394 -5L354 419L368 346L312 480Q338 488 358 488Q397 488 416 459L448 60H452Q513 160 559 251T636 425L635 365L594 482Q611 488 632 488Q660 488 675 476T690 438Q690 413 675 378Q661 342 639 297T589 203T535 110T483
31Q474 18 467 11T452 1T430 -4T394 -5ZM148 -5L98 463L124 421Q97 421 77 419T38 412Q40 436 51 454T78 482T113 492Q131 492 146 481T172 450L204 60H209Q259 147 300 231T373 397L399 355Q385 320 366 279T326 194T283 109T240 33Q233 21 227 14T213 2T189 -3T148
-5Z" />
<glyph unicode="x" horiz-adv-x="500" d="M215 233L134 457L162 420Q142 419 119 417T75 411Q77 436 89 454T120 482T159 492Q175 492 189 486T213 466L273 289H288L261 233H215ZM240 227Q289 309 322 361T381 443T427 483T471 495Q476 495 480 495T490 493L465
382L401 399Q385 385 373 371T348 339T317 294T275 227H240ZM286 269L374 30L346 66Q366 67 388 68T434 74Q432 50 420 32T389 3T351 -7Q335 -7 321 0T296 20L227 215H212L239 269H286ZM256 275Q206 189 172 135T112 49T64 6T17 -7Q13 -7 9 -7T-2 -5L21 106L87
88Q102 103 114 116T140 149T173 198T222 275H256Z" />
<glyph unicode="y" horiz-adv-x="452" d="M-91 -189L-80 -132L49 -140Q97 -99 144 -39T236 95T320 251T390 419L391 357L351 482Q370 488 393 488Q419 488 432 478T445 443Q445 420 430 376Q410 316 378 250T307 117T226 -7T145 -108T73 -171Q26 -200 -25 -200Q-57
-200 -91 -189ZM155 0L100 463L124 421Q85 420 68 418T36 412Q38 437 49 455T78 483T113 493Q131 493 146 482T171 451L211 61H245L205 2L155 0Z" />
<glyph unicode="z" horiz-adv-x="478" d="M19 0L6 22L414 488H445L455 466L47 0H19ZM237 -2L51 33L102 89L341 57L303 40Q331 70 357 110T409 201Q411 193 412 185T413 170Q413 120 395 80T344 17T270 -7Q251 -7 237 -2ZM82 315L113 488H187L112 315H82ZM137 423L113
488H445L378 423H137Z" />
<glyph unicode="{" horiz-adv-x="379" d="M27 259L34 296H56Q118 296 156 326T205 413L238 576Q249 633 271 666T332 716T434 740L426 701Q385 694 362 681T326 643T304 571L271 417Q256 347 210 307T92 262L27 259ZM247 -198Q186 -191 154 -175T114 -125T117
-33L149 128Q160 186 134 216T46 246H24L31 283L94 274Q165 265 194 228T212 123L184 -30Q176 -75 178 -100T199 -139T255 -159L247 -198Z" />
<glyph unicode="|" horiz-adv-x="255" d="M110 -196V736H156V-196H110Z" />
<glyph unicode="}" horiz-adv-x="379" d="M363 283L356 246H334Q272 246 234 216T184 128L152 -33Q141 -91 119 -124T58 -174T-44 -198L-36 -159Q5 -151 28 -139T63 -101T86 -30L119 125Q134 195 180 235T298 280L363 283ZM143 740Q204 733 236 717T276 667T274
576L241 413Q230 357 256 327T344 296H366L359 259L295 267Q225 277 196 314T178 419L205 571Q214 617 212 642T191 681T136 701L143 740Z" />
<glyph unicode="~" horiz-adv-x="604" d="M93 229L81 248Q121 285 147 306T191 338T221 348T250 341L416 276L527 340L540 321Q499 284 473 263T430 232T399 222T371 228L204 293L93 229Z" />
<glyph unicode="&#xa0;" horiz-adv-x="167" />
<glyph unicode="&#xa1;" horiz-adv-x="281" d="M12 -173L35 -58L129 289H174L114 -58L89 -173Q50 -177 12 -173ZM171 381Q157 393 147 411T131 451Q145 465 164 476T201 491Q217 476 227 458T240 420Q228 406 209 395T171 381Z" />
<glyph unicode="&#xa2;" horiz-adv-x="477" d="M198 -134H154L304 624H348L198 -134ZM223 -9Q150 -9 107 48T64 201Q64 285 95 351T181 457T302 496Q335 496 366 489T420 469L393 411Q323 441 237 447L278 460Q234 437 203 391T154 288T137 173Q137 144 143 116T162
63L145 89Q168 73 192 65T238 56Q276 56 309 76T371 139L385 131Q369 68 325 30T223 -9ZM362 320L345 469H420L393 320H362Z" />
<glyph unicode="&#xa3;" horiz-adv-x="618" d="M81 288L85 304Q140 328 195 337Q222 424 253 481T326 569T428 609T569 612L555 539Q506 544 459 544T362 538Q336 513 314 463T271 337H474L460 288H81ZM-3 0L2 27Q31 35 59 42T115 52L187 310H264L220 137Q211
102 192 66T147 0H-3ZM127 0L139 60L475 64L463 0H127ZM403 0L491 196H522L485 0H403Z" />
<glyph unicode="&#xa4;" horiz-adv-x="638" d="M300 122Q256 122 222 140T169 192T149 269Q149 326 178 374T256 452T361 481Q428 481 470 441T512 336Q512 278 483 230T406 152T300 122ZM96 70L62 113L190 220L225 178L96 70ZM478 73L395 177L440 213L524 109L478
73ZM305 178Q346 178 380 199T435 256T456 332Q456 374 429 399T357 425Q316 425 282 404T227 349T206 272Q206 230 233 204T305 178ZM224 391L140 496L186 532L270 427L224 391ZM472 383L438 425L567 533L602 491L472 383Z" />
<glyph unicode="&#xa5;" horiz-adv-x="708" d="M117 262L125 304H601L593 262H117ZM91 130L99 172H575L567 130H91ZM329 226L184 581L188 603H263L382 292H356L603 603H666L662 583L368 226H329ZM149 0L154 25Q182 33 210 38T271 46L323 288H399L351 46L462 28L457
0H149ZM227 546L116 575L122 603H404L400 581Q355 567 312 558T227 546ZM591 546L471 575L476 603H735L731 581Q696 566 661 558T591 546Z" />
<glyph unicode="&#xa6;" horiz-adv-x="230" d="M85 387V736H131V387H85ZM85 -196V154H131V-196H85Z" />
<glyph unicode="&#xa7;" horiz-adv-x="520" d="M134 -200Q93 -200 52 -193T-28 -172L8 -119Q122 -153 246 -135Q274 -120 292 -98T316 -53Q320 -26 302 -5T252 34T184 71T117 115T69 171T59 248Q67 305 108 344T215 401L237 367Q196 354 168 326T133 260Q127 224
145 199T194 154T261 118T328 80T378 31T390 -40Q384 -87 350 -123T260 -179T134 -200ZM46 -174L-30 -171L10 8L39 4L46 -174ZM275 57L262 84Q295 92 324 110T372 154T396 206Q402 239 384 262T335 304T268 341T201 381T152 432T140 504Q147 551 179 586T264 640T385
660Q421 660 456 655T526 638L501 585Q444 600 386 602T270 594Q248 581 233 561T214 519Q208 489 226 467T276 425T344 387T411 345T460 291T471 216Q466 175 441 142T373 87T275 57ZM459 466L453 640L527 638L488 466H459Z" />
<glyph unicode="&#xa8;" horiz-adv-x="404" d="M228 703Q242 690 251 673T264 638Q252 624 235 614T199 601Q185 615 175 632T161 666Q175 681 192 690T228 703ZM384 703Q399 689 408 673T420 638Q407 623 390 614T356 601Q342 613 332 630T317 666Q331 681 348
690T384 703Z" />
<glyph unicode="&#xa9;" horiz-adv-x="749" d="M404 127Q309 127 259 178T209 327Q209 424 263 478T414 533Q438 533 465 530T521 519L508 473Q459 488 409 487T309 468Q270 411 270 327Q270 225 331 188T505 188L521 143Q489 135 460 131T404 127ZM460 143L498
264H521V143H460ZM498 399L461 520L521 519V399H498ZM390 -9Q318 -9 257 16T150 86T80 194T54 329Q54 401 79 462T149 568T256 639T390 664Q463 664 524 639T632 569T703 462T728 329Q728 256 703 194T632 87T525 16T390 -9ZM390 24Q478 24 547 63T656 172T696
329Q696 416 656 484T547 592T390 631Q303 631 235 592T127 485T87 329Q87 242 126 173T234 64T390 24Z" />
<glyph unicode="&#xaa;" horiz-adv-x="372" d="M211 409Q164 404 139 432T113 517Q113 557 125 593T158 657T206 701T264 718Q290 718 311 706T343 669V654Q320 667 294 674T235 685L258 690Q230 677 210 652T179 593T167 525T177 457L164 470Q177 463 191 456T221
447L206 445Q240 469 271 515T333 634L346 623Q316 547 284 495T211 409ZM340 428L329 455Q346 455 363 458T402 465Q395 438 376 423T335 408Q320 408 307 417T288 445L317 552L312 554L347 713H400L340 428Z" />
<glyph unicode="&#xab;" horiz-adv-x="439" d="M144 41L19 236L22 250L223 446L251 422L93 242L178 63L144 41ZM327 41L202 236L205 250L406 446L434 422L276 242L361 63L327 41Z" />
<glyph unicode="&#xac;" horiz-adv-x="637" d="M532 332L496 152H441L464 275H83L95 332H532Z" />
<glyph unicode="&#xad;" horiz-adv-x="310" d="M58 293L281 321L288 263L64 236L58 293Z" />
<glyph unicode="&#xae;" horiz-adv-x="623" d="M356 205Q280 205 220 240T124 336T89 475Q89 552 123 613T219 709T356 744Q435 744 496 709T593 613T629 475Q629 398 593 337T496 240T356 205ZM227 350V365Q233 369 241 371T267 376L272 591L227 602V619H318V376L359
367V350H227ZM357 236Q426 236 480 267T566 352T598 475Q598 544 567 597T481 682T356 713Q289 713 235 682T150 597T119 475Q119 407 150 353T235 267T357 236ZM417 350L407 429Q405 447 396 455T365 463H296V493H363Q388 493 403 507T419 543Q419 563 406 575T369
587H296V619H378Q419 619 443 601T468 553Q468 524 448 504T394 478L387 484Q421 480 437 467T458 427L469 350L444 382L502 367V350H417Z" />
<glyph unicode="&#xaf;" horiz-adv-x="437" d="M175 625L187 680H416L404 625H175Z" />
<glyph unicode="&#xb0;" horiz-adv-x="428" d="M258 303Q213 303 177 324T120 382T99 464Q99 511 119 546T176 603T258 624Q305 624 341 603T398 547T420 464Q420 419 399 383T341 325T258 303ZM258 344Q311 344 345 378T379 464Q379 517 345 551T258 585Q207
585 173 551T139 464Q139 412 173 378T258 344Z" />
<glyph unicode="&#xb1;" horiz-adv-x="560" d="M101 346L112 404H512L501 346H101ZM50 91L61 148H461L449 91H50ZM244 210L310 540H369L302 210H244Z" />
<glyph unicode="&#xb2;" horiz-adv-x="393" d="M85 376L90 403L229 521Q277 562 303 587T340 631T350 668Q350 678 346 686T330 702L361 679Q344 683 324 685T282 687Q257 687 229 684T170 675L168 721Q201 730 230 733T284 737Q341 737 376 718T411 664Q411 642
397 620T349 568T259 491L118 376H85ZM108 376L116 416L360 422L352 376H108ZM309 376L368 497H391L369 376H309ZM146 597L168 721L226 722L170 597H146Z" />
<glyph unicode="&#xb3;" horiz-adv-x="391" d="M105 388L125 428Q155 421 179 418T222 415Q270 415 298 432T327 481Q327 508 309 522T256 537H211L220 579H254Q296 579 324 601T353 657Q353 668 349 680T336 701L355 684Q339 688 321 690T284 692Q262 692 237
689T185 680L179 719Q210 729 239 733T291 737Q347 737 382 717T417 659Q417 627 390 601T314 561Q352 553 371 534T391 484Q391 449 369 424T307 385T217 371Q192 371 164 375T105 388ZM129 495H154L165 387L105 388L129 495ZM161 613L179 719L240 720L185 613H161Z"
/>
<glyph unicode="&#xb4;" horiz-adv-x="253" d="M124 565L109 590L282 731H292L323 678Q275 647 226 619T124 565Z" />
<glyph unicode="&#xb5;" horiz-adv-x="570" d="M146 102Q165 83 186 68T225 46L205 44Q261 80 318 163T427 368L439 337Q418 289 396 245T352 163T307 94T264 39T223 2Q189 -6 158 6T113 47L146 102ZM353 53L402 245L395 248L448 488H517L420 25L405 60Q433 61
460 66T515 79Q507 51 492 33T457 4T419 -6Q397 -6 379 8T353 53ZM93 -196H20L14 -188L175 461L208 429Q171 426 140 422T81 408Q89 436 104 455T137 483T173 492Q194 492 211 478T238 433L148 53H136L96 -187L93 -196Z" />
<glyph unicode="&#xb6;" horiz-adv-x="565" d="M227 -123L215 -108L359 55L480 655H667L664 628Q636 620 609 615T553 605L457 130Q440 47 384 -14T227 -123ZM272 241Q169 241 119 299T90 456Q108 550 177 602T350 655L272 241ZM332 598L350 655H522L510 598H332Z" />
<glyph unicode="&#xb7;" horiz-adv-x="270" d="M144 222Q130 234 120 252T103 292Q116 305 135 316T174 331Q189 318 199 299T213 261Q200 246 182 236T144 222Z" />
<glyph unicode="&#xb8;" horiz-adv-x="280" d="M-21 -210L-15 -167L105 -179Q112 -174 118 -164T125 -145Q125 -130 106 -117T35 -84L62 -39Q122 -58 148 -79T174 -131Q174 -169 148 -192T77 -221T-21 -210ZM68 13H106L71 -84H35L68 13Z" />
<glyph unicode="&#xb9;" horiz-adv-x="286" d="M70 376L74 397Q97 402 116 405T160 411L221 686H136L141 706L253 734H290L225 411L306 399L302 376H70Z" />
<glyph unicode="&#xba;" horiz-adv-x="340" d="M222 406Q172 406 143 440T113 534Q113 586 134 627T190 692T268 717Q319 717 348 684T378 591Q378 539 357 497T301 431T222 406ZM241 443Q266 454 283 478T311 533T322 597T313 659Q296 668 281 673T249 680Q226
668 208 644T180 589T169 525T178 463Q193 455 209 450T241 443Z" />
<glyph unicode="&#xbb;" horiz-adv-x="439" d="M305 446L431 250L428 236L228 41L199 64L357 245L271 424L305 446ZM120 446L245 250L243 236L43 41L14 64L172 245L86 424L120 446Z" />
<glyph unicode="&#xbc;" horiz-adv-x="759" d="M54 247L58 268Q81 273 100 276T144 282L205 557H120L125 577L237 605H274L209 282L290 270L286 247H54ZM144 -49L107 -20L625 652L662 623L144 -49ZM480 0L484 19Q502 24 517 27T551 34L614 318L626 312L425 112L418
132H703L697 96H390L388 125L616 354H672L607 33L664 21L660 0H480Z" />
<glyph unicode="&#xbd;" horiz-adv-x="814" d="M54 247L58 268Q81 273 100 276T144 282L205 557H120L125 577L237 605H274L209 282L290 270L286 247H54ZM144 -49L107 -20L625 652L662 623L144 -49ZM424 0L429 27L568 145Q616 186 642 211T679 255T689 292Q689
302 685 310T669 326L700 303Q683 307 663 309T621 311Q596 311 568 308T509 299L507 345Q540 354 569 357T623 361Q680 361 715 342T750 288Q750 266 736 244T688 192T598 115L457 0H424ZM447 0L455 40L699 46L691 0H447ZM648 0L707 121H730L708 0H648ZM485 221L507
345L565 346L509 221H485Z" />
<glyph unicode="&#xbe;" horiz-adv-x="809" d="M91 259L111 299Q141 292 165 289T208 286Q256 286 284 303T313 352Q313 379 295 393T242 408H197L206 450H240Q282 450 310 472T339 528Q339 539 335 551T322 572L341 555Q325 559 307 561T270 563Q248 563 223
560T171 551L165 590Q196 600 225 604T277 608Q333 608 368 588T403 530Q403 498 376 472T300 432Q338 424 357 405T377 355Q377 320 355 295T293 256T203 242Q178 242 150 246T91 259ZM115 366H140L151 258L91 259L115 366ZM147 484L165 590L226 591L171 484H147ZM194
-49L157 -20L675 652L712 623L194 -49ZM530 0L534 19Q552 24 567 27T601 34L664 318L676 312L475 112L468 132H753L747 96H440L438 125L666 354H722L657 33L714 21L710 0H530Z" />
<glyph unicode="&#xbf;" horiz-adv-x="436" d="M151 -176Q64 -176 16 -144T-32 -53Q-32 -3 -11 31T43 89T111 133T174 177T215 235L234 289H282L269 226Q262 189 237 162T180 113T117 69T66 21T46 -40Q46 -75 77 -94T163 -113Q233 -113 313 -92L319 -149Q226 -176
151 -176ZM240 -149L327 34H356L319 -149H240ZM273 381Q259 393 249 411T232 451Q246 465 265 476T303 491Q318 476 328 458T342 420Q329 406 311 395T273 381Z" />
<glyph unicode="&#xc0;" horiz-adv-x="725" d="M603 44Q621 41 637 37T668 27L665 0H399L405 28L515 48L429 626L449 623L126 48Q154 43 182 38T238 27L235 0H-20L-15 28L58 51L406 655H502L603 44ZM186 217L211 270H531L537 217H186ZM561 731Q508 757 459 785T362
844L392 897H404L576 756L561 731Z" />
<glyph unicode="&#xc1;" horiz-adv-x="726" d="M603 44Q621 41 637 37T668 27L665 0H399L405 28L515 48L429 626L449 623L126 48Q154 43 182 38T238 27L235 0H-20L-15 28L58 51L406 655H502L603 44ZM186 217L211 270H531L537 217H186ZM406 731L391 756L564 897H574L605
844Q557 813 508 785T406 731Z" />
<glyph unicode="&#xc2;" horiz-adv-x="725" d="M603 44Q621 41 637 37T668 27L665 0H399L405 28L515 48L429 626L449 623L126 48Q154 43 182 38T238 27L235 0H-20L-15 28L58 51L406 655H502L603 44ZM186 217L211 270H531L537 217H186ZM523 890L619 779L587 751L493
831L374 751L350 779L478 890H523Z" />
<glyph unicode="&#xc3;" horiz-adv-x="726" d="M603 44Q621 41 637 37T668 27L665 0H399L405 28L515 48L429 626L449 623L126 48Q154 43 182 38T238 27L235 0H-20L-15 28L58 51L406 655H502L603 44ZM186 217L211 270H531L537 217H186ZM349 755L333 771Q361 808
377 828T405 856T426 864T447 861L559 831L623 884L639 869Q613 833 597 813T568 785T546 775T525 778L413 808L349 755Z" />
<glyph unicode="&#xc4;" horiz-adv-x="726" d="M603 44Q621 41 637 37T668 27L665 0H399L405 28L515 48L429 626L449 623L126 48Q154 43 182 38T238 27L235 0H-20L-15 28L58 51L406 655H502L603 44ZM186 217L211 270H531L537 217H186ZM425 869Q439 856 448 839T461
804Q449 790 432 780T396 767Q382 781 372 798T358 832Q372 847 389 856T425 869ZM581 869Q596 855 605 839T617 804Q604 789 587 780T553 767Q539 779 529 796T514 832Q528 847 545 856T581 869Z" />
<glyph unicode="&#xc5;" horiz-adv-x="726" d="M603 44Q621 41 637 37T668 27L665 0H399L405 28L515 48L429 626L449 623L126 48Q154 43 182 38T238 27L235 0H-20L-15 28L58 51L406 655H502L603 44ZM186 217L211 270H531L537 217H186ZM477 730Q442 730 420 752T397
808Q397 834 410 856T446 892T495 906Q529 906 551 884T574 829Q574 802 561 780T526 744T477 730ZM477 769Q502 769 518 786T535 828Q535 846 524 856T494 866Q471 866 454 849T437 808Q437 791 448 780T477 769Z" />
<glyph unicode="&#xc6;" horiz-adv-x="985" d="M7 10L437 645H541L578 10H498L470 617H484L82 10H7ZM-29 0L-23 28L48 58Q90 54 130 47T210 27L205 0H-29ZM191 217L202 270H515V217H191ZM526 312V367H771L760 312H526ZM733 226L714 338L779 451H804L759 226H733ZM859
218H887L844 0H373L379 28L527 56H825L774 25L859 218ZM946 655L906 458H877L865 633L906 599H436L307 627L313 655H946Z" />
<glyph unicode="&#xc7;" horiz-adv-x="687" d="M381 -9Q244 -9 170 59T96 255Q96 346 124 421T205 551T328 636T486 666Q522 666 567 660T660 643L634 576Q594 589 556 594T478 600Q429 600 379 589T272 552L311 576Q270 532 241 478T197 365T181 248Q181 153
233 103T383 52Q417 52 458 59T548 83L562 18Q496 3 455 -3T381 -9ZM474 17L562 214H593L562 18L474 17ZM599 447L573 643H660L629 447H599ZM267 -210L273 -167L393 -179Q400 -174 406 -164T413 -145Q413 -130 394 -117T323 -84L350 -39Q410 -58 436 -79T462 -131Q462
-169 436 -192T365 -221T267 -210ZM356 13H394L359 -84H323L356 13Z" />
<glyph unicode="&#xc8;" horiz-adv-x="712" d="M7 0L12 27Q42 35 70 41T125 50L245 604L132 626L138 655H692L653 458H623L617 599H323L276 365H468L515 451H542L496 223H470L456 310H265L214 56H516L585 218H614L571 0H7ZM564 731Q511 757 462 785T365 844L395
897H407L579 756L564 731Z" />
<glyph unicode="&#xc9;" horiz-adv-x="712" d="M7 0L12 27Q42 35 70 41T125 50L245 604L132 626L138 655H692L653 458H623L617 599H323L276 365H468L515 451H542L496 223H470L456 310H265L214 56H516L585 218H614L571 0H7ZM410 731L395 756L568 897H578L609 844Q561
813 512 785T410 731Z" />
<glyph unicode="&#xca;" horiz-adv-x="712" d="M7 0L12 27Q42 35 70 41T125 50L245 604L132 626L138 655H692L653 458H623L617 599H323L276 365H468L515 451H542L496 223H470L456 310H265L214 56H516L585 218H614L571 0H7ZM526 890L622 779L590 751L496 831L377
751L353 779L481 890H526Z" />
<glyph unicode="&#xcb;" horiz-adv-x="712" d="M7 0L12 27Q42 35 70 41T125 50L245 604L132 626L138 655H692L653 458H623L617 599H323L276 365H468L515 451H542L496 223H470L456 310H265L214 56H516L585 218H614L571 0H7ZM428 869Q442 856 451 839T464 804Q452
790 435 780T399 767Q385 781 375 798T361 832Q375 847 392 856T428 869ZM584 869Q599 855 608 839T620 804Q607 789 590 780T556 767Q542 779 532 796T517 832Q531 847 548 856T584 869Z" />
<glyph unicode="&#xcc;" horiz-adv-x="399" d="M7 0L12 27Q42 35 70 41T125 50L245 604L132 626L138 655H441L436 629Q399 620 373 615T323 606L212 50L316 30L311 0H7ZM401 731Q348 757 299 785T202 844L232 897H244L416 756L401 731Z" />
<glyph unicode="&#xcd;" horiz-adv-x="399" d="M7 0L12 27Q42 35 70 41T125 50L245 604L132 626L138 655H441L436 629Q399 620 373 615T323 606L212 50L316 30L311 0H7ZM246 731L231 756L404 897H414L445 844Q397 813 348 785T246 731Z" />
<glyph unicode="&#xce;" horiz-adv-x="399" d="M7 0L12 27Q42 35 70 41T125 50L245 604L132 626L138 655H441L436 629Q399 620 373 615T323 606L212 50L316 30L311 0H7ZM362 890L458 779L426 751L332 831L213 751L189 779L317 890H362Z" />
<glyph unicode="&#xcf;" horiz-adv-x="399" d="M7 0L12 27Q42 35 70 41T125 50L245 604L132 626L138 655H441L436 629Q399 620 373 615T323 606L212 50L316 30L311 0H7ZM264 869Q278 856 287 839T300 804Q288 790 271 780T235 767Q221 781 211 798T197 832Q211
847 228 856T264 869ZM420 869Q435 855 444 839T456 804Q443 789 426 780T392 767Q378 779 368 796T353 832Q367 847 384 856T420 869Z" />
<glyph unicode="&#xd0;" horiz-adv-x="790" d="M516 655Q628 655 690 592T753 413Q753 330 724 255T642 123T523 33T379 0H35L40 27Q61 35 89 40T153 50L274 604L160 626L166 655H516ZM448 56Q497 76 537 112T606 195T650 299T666 415Q666 501 622 550T502 599H351L242
56H448ZM104 360H444L434 312H94L104 360Z" />
<glyph unicode="&#xd1;" horiz-adv-x="810" d="M583 655H867L862 629Q832 621 806 615T751 606L628 0H543L276 584L296 586L189 50L308 30L303 0H8L13 27Q42 35 70 41T125 50L244 604L132 626L139 655H339L607 69L588 67L685 607L576 626L583 655ZM394 755L378
771Q406 808 422 828T450 856T471 864T492 861L604 831L668 884L684 869Q658 833 642 813T613 785T591 775T570 778L458 808L394 755Z" />
<glyph unicode="&#xd2;" horiz-adv-x="745" d="M347 -9Q271 -9 215 24T127 118T95 258Q95 343 123 416T200 545T315 632T455 664Q531 664 587 632T675 539T706 398Q706 312 679 239T602 110T488 23T347 -9ZM351 48Q400 48 444 70T525 132T585 229Q596 255 603
286T616 350T621 407Q621 499 574 551T443 603Q402 603 360 590T275 549L306 572Q267 526 239 473T195 362T180 249Q180 188 201 143T260 73T351 48ZM557 731Q504 757 455 785T358 844L388 897H400L572 756L557 731Z" />
<glyph unicode="&#xd3;" horiz-adv-x="745" d="M347 -9Q271 -9 215 24T127 118T95 258Q95 343 123 416T200 545T315 632T455 664Q531 664 587 632T675 539T706 398Q706 312 679 239T602 110T488 23T347 -9ZM351 48Q400 48 444 70T525 132T585 229Q596 255 603
286T616 350T621 407Q621 499 574 551T443 603Q402 603 360 590T275 549L306 572Q267 526 239 473T195 362T180 249Q180 188 201 143T260 73T351 48ZM402 731L387 756L560 897H570L601 844Q553 813 504 785T402 731Z" />
<glyph unicode="&#xd4;" horiz-adv-x="745" d="M347 -9Q271 -9 215 24T127 118T95 258Q95 343 123 416T200 545T315 632T455 664Q531 664 587 632T675 539T706 398Q706 312 679 239T602 110T488 23T347 -9ZM351 48Q400 48 444 70T525 132T585 229Q596 255 603
286T616 350T621 407Q621 499 574 551T443 603Q402 603 360 590T275 549L306 572Q267 526 239 473T195 362T180 249Q180 188 201 143T260 73T351 48ZM519 890L615 779L583 751L489 831L370 751L346 779L474 890H519Z" />
<glyph unicode="&#xd5;" horiz-adv-x="745" d="M347 -9Q271 -9 215 24T127 118T95 258Q95 343 123 416T200 545T315 632T455 664Q531 664 587 632T675 539T706 398Q706 312 679 239T602 110T488 23T347 -9ZM351 48Q400 48 444 70T525 132T585 229Q596 255 603
286T616 350T621 407Q621 499 574 551T443 603Q402 603 360 590T275 549L306 572Q267 526 239 473T195 362T180 249Q180 188 201 143T260 73T351 48ZM346 755L330 771Q358 808 374 828T402 856T423 864T444 861L556 831L620 884L636 869Q610 833 594 813T565 785T543
775T522 778L410 808L346 755Z" />
<glyph unicode="&#xd6;" horiz-adv-x="745" d="M347 -9Q271 -9 215 24T127 118T95 258Q95 343 123 416T200 545T315 632T455 664Q531 664 587 632T675 539T706 398Q706 312 679 239T602 110T488 23T347 -9ZM351 48Q400 48 444 70T525 132T585 229Q596 255 603
286T616 350T621 407Q621 499 574 551T443 603Q402 603 360 590T275 549L306 572Q267 526 239 473T195 362T180 249Q180 188 201 143T260 73T351 48ZM421 869Q435 856 444 839T457 804Q445 790 428 780T392 767Q378 781 368 798T354 832Q368 847 385 856T421 869ZM577
869Q592 855 601 839T613 804Q600 789 583 780T549 767Q535 779 525 796T510 832Q524 847 541 856T577 869Z" />
<glyph unicode="&#xd7;" horiz-adv-x="494" d="M87 108L52 149L424 460L457 419L87 108ZM356 108L106 419L154 460L403 149L356 108Z" />
<glyph unicode="&#xd8;" horiz-adv-x="745" d="M245 46L168 -88L126 -65L204 70L245 46ZM336 -9Q260 -9 204 24T116 118T84 258Q84 343 112 416T189 545T304 632T444 664Q520 664 576 632T664 539T695 398Q695 312 668 239T591 110T477 23T336 -9ZM340 48Q389
48 433 70T514 132T574 229Q585 255 592 286T605 350T610 407Q610 499 563 551T432 603Q391 603 349 590T264 549L295 572Q256 526 228 473T184 362T169 249Q169 188 190 143T249 73T340 48ZM522 622L590 740L632 718L564 599L522 622ZM204 70L522 622L564 599L245
46L204 70Z" />
<glyph unicode="&#xd9;" horiz-adv-x="783" d="M362 -10Q257 -10 199 34T140 157Q140 166 141 177T145 204L232 604L120 626L126 655H425L420 629Q398 621 372 616T311 606L229 200Q228 187 227 178T225 160Q225 105 263 78T374 50Q436 50 482 69T567 131L666
604L558 626L564 655H848L843 629Q820 622 793 616T731 606L652 214Q631 107 556 49T362 -10ZM601 731Q548 757 499 785T402 844L432 897H444L616 756L601 731Z" />
<glyph unicode="&#xda;" horiz-adv-x="783" d="M361 -10Q256 -10 198 34T139 157Q139 166 140 177T144 204L231 604L119 626L125 655H424L419 629Q397 621 371 616T310 606L228 200Q227 187 226 178T224 160Q224 105 262 78T373 50Q435 50 481 69T566 131L665
604L557 626L563 655H847L842 629Q819 622 792 616T730 606L651 214Q630 107 555 49T361 -10ZM446 731L431 756L604 897H614L645 844Q597 813 548 785T446 731Z" />
<glyph unicode="&#xdb;" horiz-adv-x="783" d="M361 -10Q256 -10 198 34T139 157Q139 166 140 177T144 204L231 604L119 626L125 655H424L419 629Q397 621 371 616T310 606L228 200Q227 187 226 178T224 160Q224 105 262 78T373 50Q435 50 481 69T566 131L665
604L557 626L563 655H847L842 629Q819 622 792 616T730 606L651 214Q630 107 555 49T361 -10ZM562 890L658 779L626 751L532 831L413 751L389 779L517 890H562Z" />
<glyph unicode="&#xdc;" horiz-adv-x="783" d="M362 -10Q257 -10 199 34T140 157Q140 166 141 177T145 204L232 604L120 626L126 655H425L420 629Q398 621 372 616T311 606L229 200Q228 187 227 178T225 160Q225 105 263 78T374 50Q436 50 482 69T567 131L666
604L558 626L564 655H848L843 629Q820 622 793 616T731 606L652 214Q631 107 556 49T362 -10ZM465 869Q479 856 488 839T501 804Q489 790 472 780T436 767Q422 781 412 798T398 832Q412 847 429 856T465 869ZM621 869Q636 855 645 839T657 804Q644 789 627 780T593
767Q579 779 569 796T554 832Q568 847 585 856T621 869Z" />
<glyph unicode="&#xdd;" horiz-adv-x="705" d="M333 218L184 624L188 645H273L394 291H367L635 645H696L694 626L375 218H333ZM140 0L145 28Q178 37 209 42T272 50L326 285H409L362 50L482 30L476 0H140ZM229 592L108 625L113 655H419L417 630Q371 614 325 605T229
592ZM625 592L492 625L498 655H779L776 629Q740 614 702 605T625 592ZM398 731L383 756L556 897H566L597 844Q549 813 500 785T398 731Z" />
<glyph unicode="&#xde;" horiz-adv-x="651" d="M-2 0L3 27Q36 35 63 41T116 50L236 604L123 626L129 655H432L427 631Q391 622 365 616T315 607L203 49L307 30L302 0H-2ZM181 146L192 201H425Q483 233 513 278T543 376Q543 476 426 476H247L258 530H451Q535 530
581 492T627 381Q627 315 590 262T490 177T347 146H181Z" />
<glyph unicode="&#xdf;" horiz-adv-x="582" d="M-26 -207Q-53 -207 -75 -197T-110 -170T-124 -133Q-90 -133 -45 -133T41 -130Q50 -106 55 -88T63 -50T71 0L166 600Q177 672 226 708T363 745Q442 745 480 714T518 618Q518 583 502 557T463 509T417 468T379 429T363
384Q363 359 380 337T425 291T478 243T522 189T541 123Q541 86 520 57T463 10T383 -8Q348 -8 305 5T225 42L236 91L406 38Q435 45 454 65T473 112Q473 137 455 160T410 206T357 254T313 308T295 374Q295 405 310 430T348 475T394 515T432 557T448 608Q448 647 423
666T344 686Q316 686 283 682T210 669L258 692Q248 672 243 655T233 616T226 562T217 480L135 -32Q127 -82 104 -122T47 -184T-26 -207ZM51 439L55 460Q79 471 102 477T151 486H183L173 439H51Z" />
<glyph unicode="&#xe0;" horiz-adv-x="536" d="M201 -3Q132 -13 94 31T56 169Q56 235 74 294T125 398T200 470T289 496Q330 496 362 476T411 419L410 397Q346 445 244 455L278 460Q235 443 202 402T150 304T128 186T142 64L121 86Q144 72 166 61T214 45L191 41Q246
79 296 159T395 362L412 348Q365 221 314 135T201 -3ZM389 25L374 60Q401 61 428 66T484 79Q477 53 462 34T428 5T388 -6Q365 -6 347 9T321 53L370 236L362 239L417 488H486L389 25ZM415 565Q362 591 313 619T216 678L246 731H258L430 590L415 565Z" />
<glyph unicode="&#xe1;" horiz-adv-x="536" d="M201 -3Q132 -13 94 31T56 169Q56 235 74 294T125 398T200 470T289 496Q330 496 362 476T411 419L410 397Q346 445 244 455L278 460Q235 443 202 402T150 304T128 186T142 64L121 86Q144 72 166 61T214 45L191 41Q246
79 296 159T395 362L412 348Q365 221 314 135T201 -3ZM389 25L374 60Q401 61 428 66T484 79Q477 53 462 34T428 5T388 -6Q365 -6 347 9T321 53L370 236L362 239L417 488H486L389 25ZM260 565L245 590L418 731H428L459 678Q411 647 362 619T260 565Z" />
<glyph unicode="&#xe2;" horiz-adv-x="536" d="M201 -3Q132 -13 94 31T56 169Q56 235 74 294T125 398T200 470T289 496Q330 496 362 476T411 419L410 397Q346 445 244 455L278 460Q235 443 202 402T150 304T128 186T142 64L121 86Q144 72 166 61T214 45L191 41Q246
79 296 159T395 362L412 348Q365 221 314 135T201 -3ZM389 25L374 60Q401 61 428 66T484 79Q477 53 462 34T428 5T388 -6Q365 -6 347 9T321 53L370 236L362 239L417 488H486L389 25ZM376 724L472 613L440 585L346 665L227 585L203 613L331 724H376Z" />
<glyph unicode="&#xe3;" horiz-adv-x="536" d="M201 -3Q132 -13 94 31T56 169Q56 235 74 294T125 398T200 470T289 496Q330 496 362 476T411 419L410 397Q346 445 244 455L278 460Q235 443 202 402T150 304T128 186T142 64L121 86Q144 72 166 61T214 45L191 41Q246
79 296 159T395 362L412 348Q365 221 314 135T201 -3ZM389 25L374 60Q401 61 428 66T484 79Q477 53 462 34T428 5T388 -6Q365 -6 347 9T321 53L370 236L362 239L417 488H486L389 25ZM203 589L187 605Q215 642 231 662T259 690T280 698T301 695L413 665L477 718L493
703Q467 667 451 647T422 619T400 609T379 612L267 642L203 589Z" />
<glyph unicode="&#xe4;" horiz-adv-x="536" d="M201 -3Q132 -13 94 31T56 169Q56 235 74 294T125 398T200 470T289 496Q330 496 362 476T411 419L410 397Q346 445 244 455L278 460Q235 443 202 402T150 304T128 186T142 64L121 86Q144 72 166 61T214 45L191 41Q246
79 296 159T395 362L412 348Q365 221 314 135T201 -3ZM389 25L374 60Q401 61 428 66T484 79Q477 53 462 34T428 5T388 -6Q365 -6 347 9T321 53L370 236L362 239L417 488H486L389 25ZM279 703Q293 690 302 673T315 638Q303 624 286 614T250 601Q236 615 226 632T212
666Q226 681 243 690T279 703ZM435 703Q450 689 459 673T471 638Q458 623 441 614T407 601Q393 613 383 630T368 666Q382 681 399 690T435 703Z" />
<glyph unicode="&#xe5;" horiz-adv-x="536" d="M201 -3Q132 -13 94 31T56 169Q56 235 74 294T125 398T200 470T289 496Q330 496 362 476T411 419L410 397Q346 445 244 455L278 460Q235 443 202 402T150 304T128 186T142 64L121 86Q144 72 166 61T214 45L191 41Q246
79 296 159T395 362L412 348Q365 221 314 135T201 -3ZM389 25L374 60Q401 61 428 66T484 79Q477 53 462 34T428 5T388 -6Q365 -6 347 9T321 53L370 236L362 239L417 488H486L389 25ZM332 564Q297 564 275 586T252 642Q252 668 265 690T301 726T350 740Q384 740
406 718T429 663Q429 636 416 614T381 578T332 564ZM332 603Q357 603 373 620T390 662Q390 680 379 690T349 700Q326 700 309 683T292 642Q292 625 303 614T332 603Z" />
<glyph unicode="&#xe6;" horiz-adv-x="742" d="M189 -3Q122 -13 85 34T48 177Q48 270 80 342T167 455T291 496Q335 496 378 478T449 429L422 396Q383 421 338 434T233 452L282 457Q245 445 215 415T162 344T129 254T119 158T138 66L113 90Q139 73 160 64T207 52L182
42Q205 58 225 80T266 138T316 226T380 357L400 348Q361 263 332 203T280 104T234 39T189 -3ZM497 -9Q423 -9 380 46T336 193Q336 255 354 310T405 406T481 472T572 496Q629 496 665 464T702 382Q702 345 681 315T618 261T519 222T385 201V238Q514 255 572 289T631
382Q631 392 630 402T624 422Q599 432 581 438T541 445Q498 424 468 385T422 294T407 186T430 78Q469 56 510 56T591 75T667 135L679 123Q654 62 606 27T497 -9Z" />
<glyph unicode="&#xe7;" horiz-adv-x="438" d="M216 -9Q143 -9 100 48T57 201Q57 285 88 351T174 457T295 496Q328 496 360 489T414 469L386 411Q316 441 230 447L271 460Q227 437 196 391T147 288T130 173Q130 144 136 116T155 63L138 89Q161 73 185 65T232 56Q269
56 302 76T364 139L378 131Q363 68 318 30T216 -9ZM355 320L338 469H414L386 320H355ZM103 -210L109 -167L229 -179Q236 -174 242 -164T249 -145Q249 -130 230 -117T159 -84L186 -39Q246 -58 272 -79T298 -131Q298 -169 272 -192T201 -221T103 -210ZM192 13H230L195
-84H159L192 13Z" />
<glyph unicode="&#xe8;" horiz-adv-x="452" d="M216 -9Q143 -9 99 46T55 193Q55 255 73 310T125 406T200 472T292 496Q348 496 385 464T422 382Q422 344 400 313T336 259T236 222T104 201V238Q233 255 292 289T351 382Q351 412 338 439L363 416Q335 429 305 436T243
445L270 451Q225 430 193 390T143 297T125 183Q125 151 132 120T153 59L136 88Q159 71 183 64T234 56Q274 56 313 75T386 135L399 123Q374 62 325 27T216 -9ZM377 815Q324 841 275 869T178 928L208 981H220L392 840L377 815Z" />
<glyph unicode="&#xe9;" horiz-adv-x="452" d="M216 -9Q143 -9 99 46T55 193Q55 255 73 310T125 406T200 472T292 496Q348 496 385 464T422 382Q422 344 400 313T336 259T236 222T104 201V238Q233 255 292 289T351 382Q351 412 338 439L363 416Q335 429 305 436T243
445L270 451Q225 430 193 390T143 297T125 183Q125 151 132 120T153 59L136 88Q159 71 183 64T234 56Q274 56 313 75T386 135L399 123Q374 62 325 27T216 -9ZM223 815L208 840L381 981H391L422 928Q374 897 325 869T223 815Z" />
<glyph unicode="&#xea;" horiz-adv-x="452" d="M216 -9Q143 -9 99 46T55 193Q55 255 73 310T125 406T200 472T292 496Q348 496 385 464T422 382Q422 344 400 313T336 259T236 222T104 201V238Q233 255 292 289T351 382Q351 412 338 439L363 416Q335 429 305 436T243
445L270 451Q225 430 193 390T143 297T125 183Q125 151 132 120T153 59L136 88Q159 71 183 64T234 56Q274 56 313 75T386 135L399 123Q374 62 325 27T216 -9ZM339 974L435 863L403 835L309 915L190 835L166 863L294 974H339Z" />
<glyph unicode="&#xeb;" horiz-adv-x="452" d="M216 -9Q143 -9 99 46T55 193Q55 255 73 310T125 406T200 472T292 496Q348 496 385 464T422 382Q422 344 400 313T336 259T236 222T104 201V238Q233 255 292 289T351 382Q351 412 338 439L363 416Q335 429 305 436T243
445L270 451Q225 430 193 390T143 297T125 183Q125 151 132 120T153 59L136 88Q159 71 183 64T234 56Q274 56 313 75T386 135L399 123Q374 62 325 27T216 -9ZM241 953Q255 940 264 923T277 888Q265 874 248 864T212 851Q198 865 188 882T174 916Q188 931 205 940T241
953ZM397 953Q412 939 421 923T433 888Q420 873 403 864T369 851Q355 863 345 880T330 916Q344 931 361 940T397 953Z" />
<glyph unicode="&#xec;" horiz-adv-x="288" d="M147 25L132 60Q162 61 189 65T241 79Q234 53 219 34T185 4T145 -7Q121 -7 104 9T78 53L166 461L179 424Q144 424 120 422T70 412Q77 438 91 456T124 483T163 493Q185 493 203 480T231 441L147 25ZM549 565Q496 591
447 619T350 678L380 731H392L564 590L549 565Z" />
<glyph unicode="&#xed;" horiz-adv-x="288" d="M147 25L132 60Q162 61 189 65T241 79Q234 53 219 34T185 4T145 -7Q121 -7 104 9T78 53L166 461L179 424Q144 424 120 422T70 412Q77 438 91 456T124 483T163 493Q185 493 203 480T231 441L147 25ZM138 565L123 590L296
731H306L337 678Q289 647 240 619T138 565Z" />
<glyph unicode="&#xee;" horiz-adv-x="288" d="M147 25L132 60Q162 61 189 65T241 79Q234 53 219 34T185 4T145 -7Q121 -7 104 9T78 53L166 461L179 424Q144 424 120 422T70 412Q77 438 91 456T124 483T163 493Q185 493 203 480T231 441L147 25ZM510 724L606 613L574
585L480 665L361 585L337 613L465 724H510Z" />
<glyph unicode="&#xef;" horiz-adv-x="288" d="M147 25L132 60Q162 61 189 65T241 79Q234 53 219 34T185 4T145 -7Q121 -7 104 9T78 53L166 461L179 424Q144 424 120 422T70 412Q77 438 91 456T124 483T163 493Q185 493 203 480T231 441L147 25ZM413 703Q427 690
436 673T449 638Q437 624 420 614T384 601Q370 615 360 632T346 666Q360 681 377 690T413 703ZM569 703Q584 689 593 673T605 638Q592 623 575 614T541 601Q527 613 517 630T502 666Q516 681 533 690T569 703Z" />
<glyph unicode="&#xf0;" horiz-adv-x="497" d="M206 -9Q131 -9 89 45T46 193Q46 277 77 344T160 449T277 488Q312 488 345 474T397 439V396Q371 405 351 412T308 426T252 437Q213 419 183 376T135 278T118 166Q118 144 122 122T134 78Q157 66 179 55T234 40Q276
64 306 106T353 204T370 325Q370 395 351 465T297 601T211 721L248 745Q313 690 356 624T420 482T441 324Q441 253 425 192T377 86T303 16T206 -9ZM167 541L155 578L458 680L471 642L167 541Z" />
<glyph unicode="&#xf1;" horiz-adv-x="564" d="M351 53L441 407L444 385Q422 407 405 418T364 440L385 442Q327 406 269 322T160 119L149 151Q174 212 201 264T257 360T314 435T371 486Q381 488 389 489T404 490Q449 490 476 464T504 398Q504 391 504 385T501
371L429 61Q455 63 475 67T515 79Q508 53 493 34T459 5T418 -6Q395 -6 377 9T351 53ZM69 0L170 461L182 424Q155 424 131 422T73 412Q80 437 94 455T127 483T166 493Q188 493 206 480T235 441L186 243L193 240L145 0H69ZM238 589L222 605Q250 642 266 662T294 690T315
698T336 695L448 665L512 718L528 703Q502 667 486 647T457 619T435 609T414 612L302 642L238 589Z" />
<glyph unicode="&#xf2;" horiz-adv-x="490" d="M216 -9Q142 -9 100 45T57 192Q57 256 75 311T125 408T201 473T295 496Q368 496 410 443T453 296Q453 232 435 177T384 80T309 15T216 -9ZM246 40Q284 57 314 97T361 190T381 300T366 409Q342 424 317 433T264 446Q225
428 195 387T148 293T130 184T145 78Q166 63 192 54T246 40ZM400 565Q347 591 298 619T201 678L231 731H243L415 590L400 565Z" />
<glyph unicode="&#xf3;" horiz-adv-x="490" d="M216 -9Q142 -9 100 45T57 192Q57 256 75 311T125 408T201 473T295 496Q368 496 410 443T453 296Q453 232 435 177T384 80T309 15T216 -9ZM246 40Q284 57 314 97T361 190T381 300T366 409Q342 424 317 433T264 446Q225
428 195 387T148 293T130 184T145 78Q166 63 192 54T246 40ZM245 565L230 590L403 731H413L444 678Q396 647 347 619T245 565Z" />
<glyph unicode="&#xf4;" horiz-adv-x="490" d="M216 -9Q142 -9 100 45T57 192Q57 256 75 311T125 408T201 473T295 496Q368 496 410 443T453 296Q453 232 435 177T384 80T309 15T216 -9ZM246 40Q284 57 314 97T361 190T381 300T366 409Q342 424 317 433T264 446Q225
428 195 387T148 293T130 184T145 78Q166 63 192 54T246 40ZM362 724L458 613L426 585L332 665L213 585L189 613L317 724H362Z" />
<glyph unicode="&#xf5;" horiz-adv-x="490" d="M216 -9Q142 -9 100 45T57 192Q57 256 75 311T125 408T201 473T295 496Q368 496 410 443T453 296Q453 232 435 177T384 80T309 15T216 -9ZM246 40Q284 57 314 97T361 190T381 300T366 409Q342 424 317 433T264 446Q225
428 195 387T148 293T130 184T145 78Q166 63 192 54T246 40ZM189 589L173 605Q201 642 217 662T245 690T266 698T287 695L399 665L463 718L479 703Q453 667 437 647T408 619T386 609T365 612L253 642L189 589Z" />
<glyph unicode="&#xf6;" horiz-adv-x="490" d="M216 -9Q142 -9 100 45T57 192Q57 256 75 311T125 408T201 473T295 496Q368 496 410 443T453 296Q453 232 435 177T384 80T309 15T216 -9ZM246 40Q284 57 314 97T361 190T381 300T366 409Q342 424 317 433T264 446Q225
428 195 387T148 293T130 184T145 78Q166 63 192 54T246 40ZM264 703Q278 690 287 673T300 638Q288 624 271 614T235 601Q221 615 211 632T197 666Q211 681 228 690T264 703ZM420 703Q435 689 444 673T456 638Q443 623 426 614T392 601Q378 613 368 630T353 666Q367
681 384 690T420 703Z" />
<glyph unicode="&#xf7;" horiz-adv-x="531" d="M47 255L58 312H498L486 255H47ZM218 50Q207 62 200 78T188 114Q202 125 218 133T253 144Q266 130 273 113T282 79Q269 68 253 60T218 50ZM293 423Q282 434 274 451T263 486Q276 498 293 506T328 516Q340 503 348
486T356 452Q345 440 328 433T293 423Z" />
<glyph unicode="&#xf8;" horiz-adv-x="505" d="M165 36L88 -112L47 -93L125 55L165 36ZM214 -9Q138 -9 94 45T50 194Q50 257 68 312T120 408T197 473T292 496Q368 496 412 442T456 293Q456 230 438 175T386 79T309 15T214 -9ZM244 39Q284 57 316 98T367 195T386
311Q386 337 382 361T368 409Q336 424 313 434T260 447Q220 427 188 385T138 287T119 173Q119 146 123 122T137 77Q166 63 189 53T244 39ZM336 458L413 605L455 584L377 436L336 458ZM125 55L336 458L377 436L165 36L125 55Z" />
<glyph unicode="&#xf9;" horiz-adv-x="560" d="M232 433L146 80L140 102Q158 83 179 68T218 46L198 44Q254 80 311 163T420 368L433 337Q405 274 378 221T323 126T268 52T212 1Q194 -3 178 -3Q135 -3 106 22T76 88Q76 102 81 116L170 461L203 429Q168 426 136
422T76 408Q84 435 98 454T131 483T168 493Q190 493 207 478T232 433ZM346 53L395 245L388 248L441 488H510L414 25L398 60Q427 61 454 66T508 79Q501 53 486 34T452 5T413 -6Q389 -6 372 9T346 53ZM428 565Q375 591 326 619T229 678L259 731H271L443 590L428 565Z"
/>
<glyph unicode="&#xfa;" horiz-adv-x="560" d="M232 433L146 80L140 102Q158 83 179 68T218 46L198 44Q254 80 311 163T420 368L433 337Q405 274 378 221T323 126T268 52T212 1Q194 -3 178 -3Q135 -3 106 22T76 88Q76 102 81 116L170 461L203 429Q168 426 136
422T76 408Q84 435 98 454T131 483T168 493Q190 493 207 478T232 433ZM346 53L395 245L388 248L441 488H510L414 25L398 60Q427 61 454 66T508 79Q501 53 486 34T452 5T413 -6Q389 -6 372 9T346 53ZM273 565L258 590L431 731H441L472 678Q424 647 375 619T273 565Z"
/>
<glyph unicode="&#xfb;" horiz-adv-x="560" d="M231 433L145 80L139 102Q157 83 178 68T217 46L197 44Q253 80 310 163T419 368L432 337Q404 274 377 221T322 126T267 52T211 1Q193 -3 177 -3Q134 -3 105 22T75 88Q75 102 80 116L169 461L202 429Q167 426 135
422T75 408Q83 435 97 454T130 483T167 493Q189 493 206 478T231 433ZM345 53L394 245L387 248L440 488H509L413 25L397 60Q426 61 453 66T507 79Q500 53 485 34T451 5T412 -6Q388 -6 371 9T345 53ZM389 724L485 613L453 585L359 665L240 585L216 613L344 724H389Z"
/>
<glyph unicode="&#xfc;" horiz-adv-x="560" d="M231 433L145 80L139 102Q157 83 178 68T217 46L197 44Q253 80 310 163T419 368L432 337Q404 274 377 221T322 126T267 52T211 1Q193 -3 177 -3Q134 -3 105 22T75 88Q75 102 80 116L169 461L202 429Q167 426 135
422T75 408Q83 435 97 454T130 483T167 493Q189 493 206 478T231 433ZM345 53L394 245L387 248L440 488H509L413 25L397 60Q426 61 453 66T507 79Q500 53 485 34T451 5T412 -6Q388 -6 371 9T345 53ZM291 703Q305 690 314 673T327 638Q315 624 298 614T262 601Q248
615 238 632T224 666Q238 681 255 690T291 703ZM447 703Q462 689 471 673T483 638Q470 623 453 614T419 601Q405 613 395 630T380 666Q394 681 411 690T447 703Z" />
<glyph unicode="&#xfd;" horiz-adv-x="452" d="M-82 -189L-71 -132L58 -140Q106 -99 153 -39T245 95T329 251T399 419L400 357L360 482Q379 488 402 488Q428 488 441 478T454 443Q454 420 439 376Q419 316 387 250T316 117T235 -7T154 -108T82 -171Q35 -200 -16
-200Q-48 -200 -82 -189ZM164 0L109 463L133 421Q94 420 77 418T45 412Q47 437 58 455T87 483T122 493Q140 493 155 482T180 451L220 61H254L214 2L164 0ZM238 565L223 590L396 731H406L437 678Q389 647 340 619T238 565Z" />
<glyph unicode="&#xfe;" horiz-adv-x="524" d="M4 -196L200 716L271 736L211 438L164 251L171 247L80 -196H4ZM-55 -196L-51 -171Q-21 -158 1 -152T48 -141L183 -171L178 -196H-55ZM197 659L109 711Q193 738 271 736L197 659ZM245 -9Q205 -9 173 12T124 69L125
91Q188 43 290 33L256 28Q300 45 333 86T385 184T407 302T392 423L413 402Q390 416 368 427T320 443L344 447Q288 408 238 329T140 126L122 140Q170 267 220 352T333 491Q402 501 440 457T478 319Q478 253 460 194T409 90T335 18T245 -9Z" />
<glyph unicode="&#xff;" horiz-adv-x="452" d="M-82 -189L-71 -132L58 -140Q106 -99 153 -39T245 95T329 251T399 419L400 357L360 482Q379 488 402 488Q428 488 441 478T454 443Q454 420 439 376Q419 316 387 250T316 117T235 -7T154 -108T82 -171Q35 -200 -16
-200Q-48 -200 -82 -189ZM164 0L109 463L133 421Q94 420 77 418T45 412Q47 437 58 455T87 483T122 493Q140 493 155 482T180 451L220 61H254L214 2L164 0ZM257 703Q271 690 280 673T293 638Q281 624 264 614T228 601Q214 615 204 632T190 666Q204 681 221 690T257
703ZM413 703Q428 689 437 673T449 638Q436 623 419 614T385 601Q371 613 361 630T346 666Q360 681 377 690T413 703Z" />
<glyph unicode="&#x2013;" horiz-adv-x="563" d="M64 307H525L514 249H53L64 307Z" />
<glyph unicode="&#x2014;" horiz-adv-x="993" d="M64 307H956L945 249H53L64 307Z" />
<glyph unicode="&#x2018;" horiz-adv-x="240" d="M246 677L197 543L115 538Q137 576 162 611T218 682L246 677ZM188 578L224 511Q207 496 190 487T150 471Q137 486 129 502T115 538L188 578Z" />
<glyph unicode="&#x2019;" horiz-adv-x="242" d="M140 475L188 609L270 614Q248 575 223 540T167 470L140 475ZM197 573L161 642Q178 656 195 665T234 680Q248 665 256 650T270 614L197 573Z" />
<glyph unicode="&#x201a;" horiz-adv-x="239" d="M278 -97L326 37L408 42Q386 3 361 -32T305 -102L278 -97ZM335 1L299 70Q316 84 333 93T372 108Q386 93 394 78T408 42L335 1Z" />
<glyph unicode="&#x201c;" horiz-adv-x="375" d="M246 677L197 543L115 538Q137 576 162 611T218 682L246 677ZM188 578L224 511Q207 496 190 487T150 471Q137 486 129 502T115 538L188 578ZM380 677L332 543L250 538Q272 576 297 611T354 682L380 677ZM323 578L359
511Q342 496 325 487T285 471Q272 486 264 502T250 538L323 578Z" />
<glyph unicode="&#x201d;" horiz-adv-x="373" d="M270 475L318 609L400 614Q378 575 353 540T297 470L270 475ZM327 573L291 642Q308 656 325 665T364 680Q378 665 386 650T400 614L327 573ZM140 475L188 609L270 614Q248 575 223 540T167 470L140 475ZM197 573L161
642Q178 656 195 665T234 680Q248 665 256 650T270 614L197 573Z" />
<glyph unicode="&#x201e;" horiz-adv-x="374" d="M156 -97L204 37L286 42Q264 3 239 -32T183 -102L156 -97ZM213 1L177 70Q194 84 211 93T250 108Q264 93 272 78T286 42L213 1ZM279 -97L327 37L409 42Q387 3 362 -32T306 -102L279 -97ZM336 1L300 70Q317 84 334
93T373 108Q387 93 395 78T409 42L336 1Z" />
<glyph unicode="&#x2022;" horiz-adv-x="320" d="M187 341Q211 318 228 288T250 227Q229 204 200 188T139 165Q116 184 99 213T73 277Q95 300 124 317T187 341Z" />
<glyph unicode="&#x2039;" horiz-adv-x="255" d="M139 41L14 236L17 250L218 446L246 422L88 242L173 63L139 41Z" />
<glyph unicode="&#x203a;" horiz-adv-x="254" d="M120 446L245 250L243 236L43 41L14 64L172 245L86 424L120 446Z" />
</font>
</defs>
</svg>
