<?xml version="1.0" standalone="no"?>
<!DOCTYPE svg PUBLIC "-//W3C//DTD SVG 1.1//EN" "http://www.w3.org/Graphics/SVG/1.1/DTD/svg11.dtd">
<svg xmlns="http://www.w3.org/2000/svg">
<defs >
<font id="Piazzolla" horiz-adv-x="585" ><font-face
    font-family="Piazzolla Thin ExtraBold"
    units-per-em="1000"
    panose-1="0 0 0 0 0 0 0 0 0 0"
    ascent="1110"
    descent="-310"
    alphabetic="0" />
<glyph unicode=" " horiz-adv-x="147" />
<glyph unicode="!" horiz-adv-x="295" d="M309 672L285 555L184 229H102L147 555L174 672Q242 679 309 672ZM132 166Q155 148 171 119T195 57Q172 33 143 17T84 -5Q33 42 23 104Q43 129 72 145T132 166Z" />
<glyph unicode="&quot;" horiz-adv-x="420" d="M138 426L162 681Q229 692 291 681L213 426H138ZM299 426L323 681Q390 692 452 681L374 426H299Z" />
<glyph unicode="#" horiz-adv-x="609" d="M276 1L494 619H566L347 1H276ZM6 172L21 243H555L541 172H6ZM66 1L285 619H358L139 1H66ZM78 376L93 449H628L614 376H78Z" />
<glyph unicode="$" horiz-adv-x="588" d="M253 -12Q199 -12 139 -1T18 31L94 121Q215 76 353 85Q372 96 383 112T394 147Q394 170 372 189T315 226T242 264T168 309T111 366T89 443Q89 499 124 541T223 606T370 629Q420 629 473 621T576 595L521 498Q483 511 440
519T352 531T265 532Q249 523 240 509T231 477Q231 453 253 433T310 394T384 355T458 310T515 253T537 178Q537 123 501 80T400 13T253 -12ZM152 23L18 31L56 224H116L152 23ZM160 -145L380 751H452L233 -145H160ZM477 406L442 603L576 595L538 406H477Z" />
<glyph unicode="%" horiz-adv-x="905" d="M233 240Q163 240 124 282T84 399Q84 461 111 510T184 589T290 618Q361 618 400 576T440 460Q440 398 413 349T339 270T233 240ZM242 300Q258 300 272 308T296 332Q309 350 318 376T333 429T338 480Q338 515 324 535T281
555Q269 555 256 552T233 541Q220 520 209 490T192 430T186 373Q186 338 200 319T242 300ZM219 -65L162 -20L699 680L756 636L219 -65ZM647 -7Q577 -7 538 35T498 152Q498 214 525 263T598 342T704 371Q775 371 814 329T854 213Q854 151 827 102T753 23T647 -7ZM656
53Q672 53 686 61T710 85Q723 103 732 129T747 182T752 233Q752 268 738 288T695 308Q683 308 670 305T647 294Q634 273 623 243T606 183T600 126Q600 91 614 72T656 53Z" />
<glyph unicode="&amp;" horiz-adv-x="643" d="M518 -75L157 359Q130 391 115 426T100 500Q100 557 133 597T227 659T371 680T557 656L521 554Q432 572 361 575T220 568L246 607Q223 568 217 539T221 484T255 428L612 -1L518 -75ZM233 -12Q165 -12 113 10T31 72T-1
162Q-3 231 43 283T175 360L223 329Q165 293 141 259T117 185Q118 135 155 106T259 77Q306 77 349 90T428 128Q445 164 452 203T456 287T438 381L525 352Q544 274 530 208T476 92T373 16T233 -12ZM501 306L438 381L444 396H646L633 337L501 306ZM464 463L424 657L560
656L525 463H464Z" />
<glyph unicode="&apos;" horiz-adv-x="245" d="M121 426L145 681Q212 692 274 681L196 426H121Z" />
<glyph unicode="(" horiz-adv-x="308" d="M202 -200Q118 -124 76 -25T34 184Q34 293 75 400T195 600T386 761L417 732Q331 646 271 546T180 339T148 127Q148 41 170 -36T238 -176L202 -200Z" />
<glyph unicode=")" horiz-adv-x="308" d="M118 756Q202 680 243 581T285 372Q285 263 244 156T124 -44T-67 -205L-97 -175Q-11 -90 48 10T139 218T171 429Q171 514 149 591T82 732L118 756Z" />
<glyph unicode="*" horiz-adv-x="388" d="M251 550L143 593L116 631Q123 643 132 655T152 678L195 659L263 565L251 550ZM145 445Q136 457 127 469T111 495L141 530L252 566L263 549L189 462L145 445ZM271 398L249 440L247 555L266 561L328 462L329 415Q314 410
300 406T271 398ZM368 512L257 547L258 568L370 595L415 582Q417 552 413 523L368 512ZM266 554L248 562L256 677L282 715Q297 712 311 707T339 695L334 649L266 554Z" />
<glyph unicode="+" horiz-adv-x="518" d="M173 58L265 515H360L269 58H173ZM29 239L48 334H505L485 239H29Z" />
<glyph unicode="," horiz-adv-x="276" d="M10 -99L61 63L195 66Q167 20 134 -22T61 -106L10 -99ZM79 6L30 109Q54 132 81 146T140 168Q161 146 174 121T195 66L79 6Z" />
<glyph unicode="-" horiz-adv-x="314" d="M39 312L278 342L289 247L49 217L39 312Z" />
<glyph unicode="." horiz-adv-x="281" d="M83 -5Q61 14 44 43T20 105Q41 127 70 144T130 166Q153 145 170 117T191 58Q172 34 143 17T83 -5Z" />
<glyph unicode="/" horiz-adv-x="306" d="M-38 -203L-108 -174L355 761L425 733L-38 -203Z" />
<glyph unicode="0" horiz-adv-x="639" d="M280 -11Q209 -11 158 20T80 109T53 248Q53 327 78 396T147 517T251 598T380 627Q451 627 502 596T581 508T609 369Q609 290 584 221T514 100T410 19T280 -11ZM294 78Q321 78 345 91T390 135Q412 168 428 213T454 305T464
396Q464 462 439 498T366 534Q345 534 323 527T281 507Q257 466 239 415T209 310T198 212Q198 149 223 114T294 78Z" />
<glyph unicode="1" horiz-adv-x="420" d="M-29 0L-19 49Q14 58 47 65T115 77L211 512H75L86 559L289 622H374L266 75L387 54L376 0H-29Z" />
<glyph unicode="2" horiz-adv-x="602" d="M15 0L31 81Q41 130 74 169T152 243T245 308T335 370T403 434T430 508Q430 542 409 566L466 507Q438 510 413 512T359 515Q263 515 156 491L146 602Q206 614 259 620T356 627Q457 627 511 594T566 497Q566 448 539 408T470
332T378 264T284 200T208 137T168 70L154 0H15ZM64 0L82 93L479 107L459 0H64ZM359 0L478 224H538L495 0H359ZM103 371L146 602L278 604L162 371H103Z" />
<glyph unicode="3" horiz-adv-x="582" d="M21 22L70 114Q118 102 158 96T229 90Q297 90 333 115T370 189Q370 226 347 246T280 266H207L226 361H288Q327 361 355 377T399 421T415 486Q415 503 411 520T397 555L438 514Q388 527 325 527Q287 527 246 522T163 505L150
596Q203 613 252 621T344 629Q410 629 459 613T536 565T564 489Q564 433 520 388T400 320Q459 305 487 274T516 194Q516 131 477 85T369 14T215 -11Q170 -11 121 -3T21 22ZM65 215H125L158 20L21 22L65 215ZM116 405L150 596L287 599L176 405H116Z" />
<glyph unicode="4" horiz-adv-x="561" d="M146 0L154 45Q180 54 206 61T259 73L361 536L386 523L74 193L56 240H535L519 161H-1V226L372 616H496L386 71L471 50L461 0H146Z" />
<glyph unicode="5" horiz-adv-x="602" d="M226 -11Q180 -11 131 -3T32 20L74 118Q125 104 170 97T255 89Q311 89 362 105Q380 131 389 154T398 198Q398 233 374 253T304 273H100L169 372H331Q432 372 485 333T539 221Q539 153 499 101T388 19T226 -11ZM163 18L32
20L73 204H132L163 18ZM100 273L169 616H272L206 303L100 273ZM540 513L198 521L169 616H560L540 513ZM488 418L455 616H589L547 418H488Z" />
<glyph unicode="6" horiz-adv-x="598" d="M283 -11Q168 -11 112 51T55 240Q55 364 101 450T234 582T442 628Q474 628 507 625T576 615L520 507Q477 519 435 524T348 529Q317 529 284 525T218 511L287 539Q267 513 250 474T218 388T196 296T188 212Q188 85 288
85Q320 85 345 99T383 136T397 193Q397 233 374 254T306 276H118L135 370H340Q432 370 483 326T534 202Q534 138 503 90T416 16T283 -11ZM479 421L448 615H576L537 421H479Z" />
<glyph unicode="7" horiz-adv-x="511" d="M58 376L103 616H231L118 376H58ZM109 503L131 616H517L497 514L109 503ZM567 567L205 0H81L483 616H577L567 567Z" />
<glyph unicode="8" horiz-adv-x="586" d="M259 -12Q192 -12 141 8T62 62T33 142Q33 201 85 249T231 321L263 298Q153 231 153 161Q153 121 186 100T279 78Q295 78 313 80T350 85Q372 100 385 119T398 157Q398 183 376 202T320 238T248 273T176 313T120 367T98
441Q98 493 132 536T223 604T350 630Q411 630 458 612T532 560T559 485Q559 427 506 377T364 301L337 328Q388 365 415 401T442 471Q442 504 414 522T334 540Q320 540 305 539T273 535Q254 519 243 501T232 465Q232 438 253 418T308 380T380 344T452 304T508 251T529
180Q529 126 493 83T395 14T259 -12Z" />
<glyph unicode="9" horiz-adv-x="598" d="M339 628Q453 628 510 566T567 378Q567 254 521 167T388 35T180 -11Q148 -11 115 -8T46 2L102 110Q188 89 276 89Q307 89 339 93T404 107L334 78Q354 104 372 143T403 229T425 321T433 405Q433 532 333 532Q301 532 277
519T238 481T224 425Q224 384 247 363T316 341H504L486 248H282Q190 248 139 292T88 415Q88 479 119 527T207 601T339 628ZM143 196L174 2H46L85 196H143Z" />
<glyph unicode=":" horiz-adv-x="281" d="M93 -5Q71 14 54 43T30 105Q51 127 80 144T140 166Q163 145 180 117T201 58Q182 34 153 17T93 -5ZM141 264Q119 283 102 312T78 374Q99 396 128 413T188 435Q211 414 228 386T249 327Q230 303 201 286T141 264Z" />
<glyph unicode=";" horiz-adv-x="276" d="M13 -99L64 63L198 66Q170 20 137 -22T64 -106L13 -99ZM82 6L33 109Q57 132 84 146T143 168Q164 146 177 121T198 66L82 6ZM145 264Q123 283 106 312T82 374Q103 396 132 413T192 435Q215 414 232 386T253 327Q234 303
205 286T145 264Z" />
<glyph unicode="&lt;" horiz-adv-x="452" d="M386 138L328 59L21 263L28 309L406 510L443 428L155 283L386 138Z" />
<glyph unicode="=" horiz-adv-x="615" d="M115 333L135 428H552L533 333H115ZM78 145L97 241H514L496 145H78Z" />
<glyph unicode="&gt;" horiz-adv-x="470" d="M94 434L152 513L459 309L451 263L73 62L36 144L325 289L94 434Z" />
<glyph unicode="?" horiz-adv-x="462" d="M305 678Q403 678 458 643T513 542Q513 494 492 461T439 403T373 359T310 317T270 270L254 229H164L176 289Q183 324 204 349T254 395T308 434T351 473T369 520Q369 546 345 560T277 574Q218 574 136 553L123 651Q171
665 217 671T305 678ZM254 652L138 444H82L123 651L254 652ZM200 166Q223 148 240 119T263 57Q240 33 211 17T153 -5Q102 42 91 104Q112 129 141 145T200 166Z" />
<glyph unicode="@" horiz-adv-x="865" d="M773 -137Q655 -189 544 -200T335 -189T165 -110T50 29T9 218Q9 316 44 399T143 545T291 642T476 677Q560 677 630 652T752 581T832 473T861 336Q861 269 838 212T771 112T672 44T550 20Q508 20 485 32T446 74L494 220L481
226L542 477H655L556 49L516 77Q579 67 634 81T731 131T796 217T820 333Q820 421 776 489T655 597T477 636Q387 636 309 605T173 517T83 385T50 220Q50 123 87 48T192 -77T349 -148T543 -159T758 -101L773 -137ZM336 22Q269 17 233 60T197 188Q197 248 214 301T262
396T333 461T418 485Q461 485 493 463T534 407L531 363Q501 385 463 395T378 406L426 414Q397 398 373 365T335 288T317 200T324 118L304 140Q338 120 377 117L352 104Q386 135 414 169T466 247T516 348L539 336Q490 215 441 138T336 22Z" />
<glyph unicode="A" horiz-adv-x="722" d="M623 71Q638 66 653 61T681 49L675 0H352L362 50L463 78L399 622L433 616L148 77Q170 71 193 64T238 49L232 0H-52L-43 50L32 84L358 669H528L623 71ZM145 193L183 275H529L538 193H145Z" />
<glyph unicode="B" horiz-adv-x="724" d="M-18 0L-9 49Q9 58 32 64T92 78L204 588L105 615L115 669H496Q558 669 604 653T676 606T703 531Q703 481 673 441T589 373T468 335L472 354Q567 344 615 305T663 202Q663 143 625 98T519 26T360 0H-18ZM248 90H410Q455
104 482 136T509 209Q509 249 483 270T409 291H209L226 381H440Q489 403 516 436T543 507Q543 542 519 560T450 578H346L248 90Z" />
<glyph unicode="C" horiz-adv-x="680" d="M355 -11Q214 -11 138 60T61 263Q61 356 90 433T172 565T300 651T466 681Q507 681 558 675T664 654L614 546Q572 559 532 565T444 572Q404 572 361 565T268 539L339 579Q301 538 273 483T230 366T214 248Q214 170 252
131T365 91Q397 91 439 100T533 128L566 20Q498 4 447 -3T355 -11ZM421 18L538 236H600L566 20L421 18ZM569 439L522 656L664 654L630 439H569Z" />
<glyph unicode="D" horiz-adv-x="768" d="M498 669Q619 669 684 604T749 418Q749 331 718 256T631 122T503 32T347 0H-19L-9 49Q9 57 33 64T92 78L205 588L104 615L114 669H498ZM418 92Q455 108 486 141T542 220T578 317T591 423Q591 498 559 537T465 577H346L250
92H418Z" />
<glyph unicode="E" horiz-adv-x="729" d="M-19 0L-9 49Q16 59 41 66T92 78L204 588L104 615L114 669H725L682 453H624L607 578H346L308 386H456L505 465H557L506 213H455L437 295H290L248 91H517L590 235H647L601 0H-19Z" />
<glyph unicode="F" horiz-adv-x="649" d="M704 669L661 450H602L586 578H346L245 76L371 55L360 0H-19L-9 49Q16 59 41 66T92 78L204 588L104 615L114 669H704ZM208 273L227 363H493L475 273H208ZM434 191L405 316L484 442H537L487 191H434Z" />
<glyph unicode="G" horiz-adv-x="737" d="M357 -11Q210 -11 136 61T62 276Q62 399 114 490T260 631T482 681Q510 681 546 678T623 670T702 654L626 546Q580 559 534 565T441 572Q397 572 354 565T269 542L339 576Q312 549 290 511T250 429T224 340T215 254Q215
171 257 128T383 85Q451 85 558 121L584 20Q512 5 458 -3T357 -11ZM434 20L483 266L370 292L380 347H722L716 295Q700 287 679 281T630 268L584 20H434ZM599 442L561 656L702 654L660 442H599Z" />
<glyph unicode="H" horiz-adv-x="831" d="M410 0L418 49Q442 58 466 65T514 78L627 588L532 615L543 669H881L871 620Q842 610 818 603T770 591L668 76L759 55L748 0H410ZM-19 0L-9 49Q16 59 41 66T92 78L204 588L104 615L114 669H453L443 620Q417 610 394 603T348
591L245 76L330 55L319 0H-19ZM216 289L234 380H656L638 289H216Z" />
<glyph unicode="I" horiz-adv-x="409" d="M-19 0L-9 49Q16 59 41 66T92 78L204 588L104 615L114 669H458L449 620Q420 610 396 603T348 591L245 76L336 55L325 0H-19Z" />
<glyph unicode="J" horiz-adv-x="534" d="M-17 0L22 126Q54 109 86 100T148 90Q186 90 210 99T258 135L354 588L207 615L217 669H603L593 620Q573 612 548 604T498 591L426 233Q378 -12 109 -12Q81 -12 50 -10T-17 0ZM-17 0L31 243H89L117 0H-17Z" />
<glyph unicode="K" horiz-adv-x="781" d="M-19 0L-9 49Q16 59 41 66T92 78L204 588L104 615L114 669H458L449 620Q420 610 396 603T348 591L245 76L336 55L325 0H-19ZM386 0L396 49Q446 70 495 84T591 103L730 55L718 0H386ZM657 565L522 613L533 669H832L822
621Q737 578 657 565ZM767 658L764 618L432 309L450 410L663 47L646 10H498L316 332L657 658H767Z" />
<glyph unicode="L" horiz-adv-x="630" d="M539 282H598L541 0H-19L-9 49Q16 59 41 66T92 78L204 588L104 615L114 669H481L471 620Q408 601 348 591L248 91H453L539 282Z" />
<glyph unicode="M" horiz-adv-x="998" d="M-22 0L-12 49Q14 59 38 66T89 78L210 588L106 615L116 669H416L493 157L457 163L743 669H1045L1036 620Q1006 610 981 603T932 591L835 76L930 55L919 0H575L584 49Q612 59 636 66T686 78L800 621L816 616L467 0H381L285
605H305L193 76L300 55L288 0H-22Z" />
<glyph unicode="N" horiz-adv-x="817" d="M580 669H881L871 620Q846 610 823 603T773 591L654 0H495L257 559L293 563L195 76L306 55L295 0H-16L-7 49Q17 59 41 66T91 78L203 588L105 615L115 669H381L616 117L583 114L667 593L569 615L580 669Z" />
<glyph unicode="O" horiz-adv-x="741" d="M334 -12Q250 -12 189 22T94 118T60 265Q60 354 89 429T169 561T290 648T441 680Q526 680 587 647T681 552T715 405Q715 314 687 238T608 106T488 19T334 -12ZM341 82Q381 82 415 99T478 150T525 231Q535 258 543 294T557
365T562 425Q562 501 527 541T422 581Q387 581 353 570T278 538L332 574Q295 529 268 473T227 358T212 241Q212 190 227 155T271 101T341 82Z" />
<glyph unicode="P" horiz-adv-x="675" d="M-19 0L-9 49Q10 59 34 66T92 78L204 588L104 615L114 669H503Q591 669 643 623T695 499Q695 426 655 369T546 278T389 244H203L221 335H452Q495 365 517 407T539 496Q539 536 515 557T444 578H346L245 76L372 55L361 0H-19Z" />
<glyph unicode="Q" horiz-adv-x="749" d="M623 -155L282 21L357 52Q414 43 468 31T583 -1L742 -52Q713 -82 686 -106T623 -155ZM334 -12Q250 -12 189 22T94 118T60 265Q60 354 89 429T169 561T290 648T441 680Q526 680 587 647T681 552T715 405Q715 314 687 238T608
106T488 19T334 -12ZM341 82Q381 82 415 99T478 150T525 231Q535 258 543 294T557 365T562 425Q562 501 527 541T422 581Q387 581 353 570T278 538L332 574Q295 529 268 473T227 358T212 241Q212 190 227 155T271 101T341 82Z" />
<glyph unicode="R" horiz-adv-x="745" d="M-19 0L-9 49Q8 58 31 64T92 78L205 588L104 615L114 669H505Q599 669 654 628T710 517Q710 466 678 422T591 348T466 309L459 325Q516 321 550 305T598 257T612 174V77L696 55L686 0H453L460 182Q462 233 445 252T383
271H214L231 361H449Q549 412 549 491Q549 532 525 555T456 578H346L246 76L338 55L327 0H-19Z" />
<glyph unicode="S" horiz-adv-x="655" d="M38 34L117 130Q227 89 347 89Q393 89 440 95L387 78Q414 94 428 115T443 158Q443 184 419 205T358 245T279 286T200 334T139 396T115 478Q115 538 152 583T257 654T415 679Q472 679 528 670T636 641L578 538Q527 558
467 567T343 577Q320 577 298 576T253 572L309 581Q289 570 277 553T264 514Q264 487 288 466T349 424T429 382T508 334T569 273T593 191Q593 132 554 86T447 14T289 -12Q234 -12 169 0T38 34ZM179 26L38 34L78 242H141L179 26ZM532 438L494 650L636 641L595 438H532Z"
/>
<glyph unicode="T" horiz-adv-x="721" d="M766 669L710 382H652L643 578H504L400 76L525 55L514 0H100L107 51Q140 61 173 67T243 79L356 578H214L127 382H68L125 669H766Z" />
<glyph unicode="U" horiz-adv-x="768" d="M346 -12Q229 -12 164 35T98 168Q98 178 99 189T103 214L186 588L85 615L96 669H433L423 620Q403 610 381 603T328 591L251 206Q250 197 249 191T248 178Q248 134 280 111T372 87Q419 87 457 101T526 146L621 588L530
615L541 669H840L831 620Q809 611 785 604T730 591L657 226Q634 110 554 49T346 -12Z" />
<glyph unicode="V" horiz-adv-x="721" d="M228 0L123 669H287L355 72H330L644 669H769L396 0H228ZM232 567Q190 574 151 587T74 621L80 669H403L394 619L232 567ZM692 567Q643 574 600 587T517 621L523 669H808L799 619L692 567Z" />
<glyph unicode="W" horiz-adv-x="1054" d="M590 0L532 658H666L711 71H686L972 658H1094L753 0H590ZM201 0L123 658H282L325 71H301L565 619L625 529L366 0H201ZM224 567Q185 574 148 587T77 621L83 669H393L384 619L224 567ZM626 567Q585 574 549 587T477 621L484
669H777L768 619L626 567ZM1023 567Q977 574 938 588T862 621L867 669H1140L1132 619L1023 567Z" />
<glyph unicode="X" horiz-adv-x="782" d="M28 10L38 61L339 386H508L674 56L664 10H511L367 319H410L136 10H28ZM328 323L174 623L185 661H342L469 390H428L665 661H775L773 620L497 323H328ZM368 0L375 51Q427 73 478 86T581 104L728 55L717 0H368ZM-36 0L-29
52Q13 74 57 86T141 104L281 55L270 0H-36ZM469 669L464 618Q412 596 360 584T255 564L114 614L124 669H469ZM836 669L829 617Q787 596 746 583T664 564L527 614L537 669H836Z" />
<glyph unicode="Y" horiz-adv-x="704" d="M299 191L131 620L140 658H299L418 315H371L633 658H729L726 617L382 191H299ZM107 0L116 52Q146 61 175 68T234 79L288 305H437L391 76L501 55L491 0H107ZM215 564L70 614L79 669H430L424 618Q373 596 321 584T215 564ZM619
564L488 614L498 669H791L784 617Q743 596 702 583T619 564Z" />
<glyph unicode="Z" horiz-adv-x="688" d="M704 613L173 40L154 82L490 95L561 242H625L579 0H2L11 56L540 629L560 585L242 576L168 426H103L152 669H713L704 613Z" />
<glyph unicode="[" horiz-adv-x="363" d="M11 -195L199 749H455L445 697L231 665L313 746L127 -192L76 -112L277 -144L267 -195H11Z" />
<glyph unicode="\" horiz-adv-x="307" d="M260 -198L27 738L98 758L331 -178L260 -198Z" />
<glyph unicode="]" horiz-adv-x="362" d="M363 749L175 -194H-82L-72 -142L142 -111L60 -191L247 747L297 666L96 699L107 749H363Z" />
<glyph unicode="^" horiz-adv-x="440" d="M72 216L-5 260L268 607H314L448 260L362 216L269 477L72 216Z" />
<glyph unicode="_" horiz-adv-x="543" d="M-31 -117H426L407 -212H-50L-31 -117Z" />
<glyph unicode="`" horiz-adv-x="302" d="M359 563Q298 586 240 612T124 671L174 767H193L386 609L359 563Z" />
<glyph unicode="a" horiz-adv-x="556" d="M184 -5Q108 -10 68 32T27 167Q27 233 47 294T101 403T180 480T274 508Q314 508 343 488T387 429L386 392Q317 426 221 431L266 445Q236 420 212 381T174 295T154 198T156 97L142 116Q159 105 177 97T215 85L193 82Q242
127 285 197T369 366L391 344Q349 234 300 148T184 -5ZM418 31L394 92Q422 95 451 98T512 104Q505 69 486 44T439 6T384 -8Q354 -8 330 8T292 57L342 216L328 222L394 499H517L418 31Z" />
<glyph unicode="b" horiz-adv-x="541" d="M261 -11Q214 -11 178 13T125 81L148 118Q186 94 227 83T320 70L274 55Q299 76 319 106T354 173T378 247T388 325T383 401L398 381Q380 394 362 401T326 413L349 416Q298 372 255 302T174 138L151 160Q194 269 242 354T356
503Q434 508 474 465T514 330Q514 264 494 203T439 94T358 18T261 -11ZM21 0L179 711L306 749L249 468L198 282L210 276L169 79Q143 48 113 30T46 0H21ZM171 623L93 711Q145 732 197 741T306 749L171 623Z" />
<glyph unicode="c" horiz-adv-x="444" d="M207 -12Q123 -12 77 46T30 208Q30 296 64 364T159 471T296 510Q332 510 366 503T426 482L380 385Q303 420 200 421L266 452Q233 420 209 370T171 264T157 155Q157 139 160 123T170 94L151 135Q168 117 191 108T238 98Q271
98 303 114T365 163L387 153Q375 78 326 33T207 -12ZM336 305L305 482H426L393 305H336Z" />
<glyph unicode="d" horiz-adv-x="555" d="M419 32L394 92Q425 95 453 98T512 104Q505 69 486 44T439 6T385 -8Q356 -8 332 8T294 57L344 216L330 222L437 711L564 749L419 32ZM184 -5Q108 -10 68 32T27 167Q27 233 47 294T101 403T180 480T274 508Q314 508 343
488T387 429L386 392Q317 426 221 431L266 445Q236 420 212 381T174 295T154 198T156 97L142 116Q159 105 177 97T215 85L193 82Q242 127 285 197T369 366L391 344Q349 234 300 148T184 -5ZM430 623L351 711Q404 733 456 742T564 749L430 623ZM500 769H501V768L500
769Z" />
<glyph unicode="e" horiz-adv-x="465" d="M213 -12Q129 -12 79 47T29 206Q29 270 48 325T102 421T184 486T286 510Q356 510 399 475T442 380Q442 337 417 304T347 249T244 216T120 205V257Q228 267 273 294T319 376Q319 408 307 435L345 399Q316 411 285 417T220
424L259 433Q225 408 202 372T166 287T153 176Q153 154 157 131T169 84L147 133Q165 115 191 106T248 97Q286 97 325 112T403 157L418 139Q394 69 339 29T213 -12Z" />
<glyph unicode="f" horiz-adv-x="320" d="M-25 -206Q-59 -206 -84 -190T-120 -147T-124 -86Q-79 -88 -38 -88T46 -84Q52 -39 56 -8T64 52T73 118L142 599Q149 644 174 680T239 736T323 757Q360 757 386 742T425 699T431 639Q344 642 263 636Q259 624 257 612T254
583T252 545T249 491L193 130Q167 -36 113 -121T-25 -206ZM27 420L36 460Q58 473 81 482T131 495H379L364 420H27Z" />
<glyph unicode="g" horiz-adv-x="544" d="M202 -204Q133 -204 80 -186T-5 -134T-39 -58Q-9 -24 18 -7T81 20Q72 -25 87 -59T138 -113T227 -132Q270 -132 300 -119T341 -86T340 -42L171 5Q153 22 145 42T136 81Q136 116 160 143T225 174L224 105L369 66Q477 38
477 -41Q477 -87 441 -124T342 -182T202 -204ZM238 152Q151 152 99 195T47 308Q47 362 78 405T161 474T279 499Q364 499 416 456T468 341Q468 287 438 245T355 177T238 152ZM267 215Q296 239 314 273T336 345T328 418Q310 424 290 427T247 432Q219 408 202 374T180
303T188 229Q213 221 232 218T267 215ZM422 394L279 499H541L523 410L440 427L422 394Z" />
<glyph unicode="h" horiz-adv-x="571" d="M160 88L147 139Q171 201 199 257T257 362T316 445T371 499Q381 501 390 502T408 503Q459 503 488 476T518 403Q518 395 517 386T514 367L450 94Q477 96 494 98T529 104Q522 69 502 44T455 6T400 -8Q370 -8 346 8T308
57L393 386L402 363Q384 380 370 389T334 405L360 412Q303 359 253 278T160 88ZM22 0L180 711L306 749L251 468L196 263L207 259L155 0H22ZM172 623L93 711Q147 733 199 742T306 749L172 623Z" />
<glyph unicode="i" horiz-adv-x="308" d="M183 33L156 92Q189 94 218 97T276 104Q269 69 249 44T201 5T146 -9Q117 -9 93 8T55 57L147 466L165 404Q130 403 103 401T47 396Q54 430 73 454T119 492T174 506Q202 506 226 491T266 445L183 33ZM258 763Q283 740 301
710T324 647Q303 622 272 604T208 581Q183 601 165 632T141 697Q163 721 194 739T258 763Z" />
<glyph unicode="j" horiz-adv-x="287" d="M172 406Q135 403 104 401T42 396Q48 430 67 454T114 492T168 506Q197 506 221 491T260 445L172 406ZM260 445L186 23Q166 -87 119 -146T-4 -206Q-42 -206 -69 -190T-111 -147T-120 -86Q-82 -88 -40 -88T43 -85Q48 -48
52 -16T62 45T73 104L137 445H260ZM255 763Q280 740 298 710T321 647Q300 622 269 604T205 581Q180 601 162 632T138 697Q160 721 191 739T255 763Z" />
<glyph unicode="k" horiz-adv-x="549" d="M20 0L177 711L304 749L153 0H20ZM314 33L212 251L305 321L449 49L391 95Q402 96 412 96T440 97Q454 97 468 98T498 103Q496 68 481 44T443 6T393 -8Q373 -8 352 2T314 33ZM212 251Q262 324 300 372T371 450T433 491T497
504Q508 504 516 504T535 501L501 339L352 390L428 420Q402 399 378 374T327 318T268 243L212 251ZM170 623L91 711Q138 732 190 741T304 749L170 623Z" />
<glyph unicode="l" horiz-adv-x="294" d="M167 623L88 711Q137 732 190 741T301 749L167 623ZM158 33L131 92Q164 94 193 97T251 104Q244 69 224 44T177 5T121 -9Q92 -9 68 8T30 57L175 711L301 749L158 33Z" />
<glyph unicode="m" horiz-adv-x="868" d="M457 88L444 139Q469 201 497 257T554 362T613 445T668 499Q679 501 687 502T705 503Q757 503 786 476T816 403Q816 395 815 386T812 367L748 94Q774 96 791 98T826 104Q819 69 799 44T752 6T697 -8Q668 -8 644 8T605
57L691 386L699 363Q682 380 667 389T631 405L657 412Q599 357 548 276T457 88ZM38 0L143 466L161 404Q137 402 112 401T42 396Q49 430 68 454T114 492T169 505Q198 505 222 490T262 445L210 263L223 259L172 0H38ZM319 0L407 390L418 363Q401 380 386 389T350
405L377 412Q318 355 267 274T176 88L163 139Q187 201 215 257T273 362T332 445T388 499Q399 502 408 503T425 504Q472 504 500 479T529 411Q529 402 528 393T522 373L491 263L504 259L454 0H319Z" />
<glyph unicode="n" horiz-adv-x="587" d="M324 57L409 386L418 363Q401 380 386 389T350 405L377 412Q319 359 268 278T176 88L163 139Q187 201 215 257T273 362T332 445T388 499Q398 501 406 502T424 503Q475 503 505 476T535 403Q535 395 534 386T530 367L467
94Q493 96 510 98T545 104Q538 69 518 44T471 6T416 -8Q387 -8 363 8T324 57ZM38 0L143 466L161 404Q137 402 112 401T42 396Q49 430 68 454T114 492T169 505Q198 505 222 490T262 445L210 263L223 259L172 0H38Z" />
<glyph unicode="o" horiz-adv-x="502" d="M211 -12Q126 -12 78 44T29 201Q29 267 49 323T104 421T187 486T290 510Q376 510 424 455T473 299Q473 233 453 177T398 78T315 12T211 -12ZM246 72Q272 90 293 127T328 210T345 306T338 397Q318 407 298 414T256 423Q229
403 208 366T174 283T158 188T165 98Q183 87 203 81T246 72Z" />
<glyph unicode="p" horiz-adv-x="559" d="M284 -11Q243 -11 214 10T171 69V106Q241 72 336 68L292 54Q322 79 345 118T384 204T404 301T402 401L416 382Q398 394 381 402T343 414L365 417Q316 372 273 302T190 133L167 155Q209 265 258 351T373 504Q450 509 491
466T532 331Q532 265 512 204T456 95T377 18T284 -11ZM-64 -195L-56 -152Q-17 -133 10 -123T66 -107L226 -150L216 -195H-64ZM-5 -195L143 466L161 404Q129 401 100 400T43 396Q49 430 69 454T115 492T170 505Q198 505 223 490T263 445L215 282L227 276L130 -195H-5Z"
/>
<glyph unicode="q" horiz-adv-x="537" d="M184 -5Q108 -10 68 32T27 167Q27 233 47 294T101 403T180 480T274 508Q314 508 343 488T387 429L386 392Q317 426 221 431L266 445Q236 420 212 381T174 295T154 198T156 97L142 116Q159 105 177 97T215 85L193 82Q242
127 285 197T369 366L391 344Q349 234 300 148T184 -5ZM164 -195L172 -152Q216 -134 248 -123T308 -107L454 -150L444 -195H164ZM237 -195L291 46L342 216L328 222L394 499H516L370 -195H237Z" />
<glyph unicode="r" horiz-adv-x="421" d="M39 0L143 466L161 404Q137 402 112 401T43 396Q49 430 69 454T115 492T170 505Q198 505 223 490T262 445L211 263L224 259L173 0H39ZM177 88L163 139Q219 273 267 356T358 474T445 505L403 325L320 350Q282 307 247 243T177 88Z" />
<glyph unicode="s" horiz-adv-x="447" d="M8 51L28 138L252 68L215 70Q230 73 242 81T263 100T271 123Q271 143 249 160T195 197T132 239T78 292T56 361Q56 406 84 439T162 490T272 508Q309 508 347 501T423 479L380 396Q341 406 299 411T212 416Q194 416 176
416T140 413L203 422Q191 414 184 402T176 377Q176 358 197 341T251 304T315 263T369 211T391 143Q391 101 363 67T289 12T187 -9Q138 -9 89 7T8 51ZM337 332L302 479H423L392 332H337Z" />
<glyph unicode="t" horiz-adv-x="410" d="M182 -12Q128 -12 92 19T49 101L169 637H288L173 63L170 126Q198 100 228 100Q258 100 287 121T341 182L364 173Q349 87 300 38T182 -12ZM45 420L53 460Q76 473 97 482T143 495H417L402 420H45Z" />
<glyph unicode="u" horiz-adv-x="581" d="M259 441L176 112L165 136Q180 120 197 109T232 92L206 86Q263 138 312 218T404 410L417 359Q392 297 364 240T307 136T250 53T195 -2Q176 -5 159 -5Q107 -5 76 21T45 92Q45 112 50 131L142 466L208 410Q163 406 124 402T48
394Q56 429 75 454T119 492T171 506Q198 506 222 490T259 441ZM318 57L370 235L357 240L419 499H542L442 31L417 92Q449 95 477 98T536 104Q529 69 510 44T463 6T409 -8Q380 -8 356 8T318 57Z" />
<glyph unicode="v" horiz-adv-x="468" d="M237 103Q290 191 328 269T392 422L391 323L339 487Q373 500 404 500Q442 500 462 482T482 428Q482 401 469 364Q456 333 435 293T388 208T335 121T281 43Q268 27 258 18T232 4T191 -2T125 -4L82 465L117 400Q89 397 65
396T18 393Q20 426 36 451T76 489T128 503Q153 503 175 491T212 453L230 103H237Z" />
<glyph unicode="w" horiz-adv-x="712" d="M378 -4L352 415L374 287L308 486Q347 502 379 502Q436 502 463 457L477 103H485Q535 188 571 266T634 422L633 323L583 487Q617 501 648 501Q685 501 705 483T725 429Q725 401 710 363Q697 330 676 288T630 201T578 116T528
44Q515 28 505 18T480 4T441 -2T378 -4ZM120 -4L82 465L115 400Q81 397 60 396T19 393Q20 427 36 451T76 489T128 503Q152 503 174 491T211 453L225 103H233Q275 181 309 257T372 410L421 363Q407 328 390 286T352 201T313 118T276 48Q267 31 258 21T234 6T193
-2T120 -4Z" />
<glyph unicode="x" horiz-adv-x="534" d="M202 225L125 449L160 398Q139 395 115 394T62 391Q64 426 83 451T130 490T187 505Q212 505 234 494T272 461L315 312H333L295 225H202ZM266 213Q313 303 346 360T405 450T453 494T505 506Q511 506 517 505T531 503L492
324L403 349Q391 336 382 323T362 295T340 260T312 213H266ZM331 279L413 47L378 98Q399 101 423 102T476 104Q474 70 456 45T410 5T352 -9Q327 -9 305 2T267 35L218 193H200L237 279H331ZM265 291Q217 199 184 141T124 50T75 4T22 -9Q17 -9 10 -9T-5 -7L33 173L124
147Q135 160 144 172T163 198T186 235T219 291H265Z" />
<glyph unicode="y" horiz-adv-x="472" d="M-99 -188L-80 -90L83 -102Q131 -51 175 9T259 136T330 273T386 417L389 310L337 487Q376 501 409 501Q443 501 460 485T478 435Q478 408 463 362Q445 307 414 245T344 119T263 -1T181 -100T107 -164Q46 -202 -22 -202Q-62
-202 -99 -188ZM135 0L87 465L115 400Q73 397 53 396T17 393Q19 427 35 451T76 490T128 504Q153 504 174 492T210 453L234 106H293L222 1L135 0Z" />
<glyph unicode="z" horiz-adv-x="496" d="M18 0L-7 41L430 499H468L487 458L50 0H18ZM226 2L57 43L148 143L380 116L316 82Q346 118 377 157T441 240Q444 228 446 216T448 191Q448 138 426 93T364 21T274 -6Q252 -6 226 2ZM65 295L100 499H222L124 295H65ZM141
384L100 499H468L352 384H141Z" />
<glyph unicode="{" horiz-adv-x="361" d="M10 266L21 322H43Q96 322 126 346T166 418L201 594Q212 650 240 685T316 737T436 757L423 692Q386 687 366 676T335 641T315 577L281 432Q264 360 216 317T91 270L10 266ZM245 -201Q174 -197 133 -180T78 -128T75 -37L111
138Q120 187 99 210T25 234H3L14 291L93 279Q167 269 198 230T219 119L195 -21Q188 -62 190 -85T207 -119T257 -136L245 -201Z" />
<glyph unicode="|" horiz-adv-x="242" d="M90 -195V749H162V-195H90Z" />
<glyph unicode="}" horiz-adv-x="361" d="M361 291L351 234H329Q276 234 246 211T205 138L171 -37Q159 -93 132 -128T56 -180T-64 -201L-52 -136Q-14 -130 6 -119T37 -84T57 -21L91 125Q108 197 156 240T281 287L361 291ZM127 757Q198 754 239 737T294 685T297
594L261 418Q251 371 272 347T346 322H368L357 266L280 277Q205 287 174 326T153 437L176 577Q183 618 182 641T165 676T115 692L127 757Z" />
<glyph unicode="~" horiz-adv-x="582" d="M75 217L52 248Q97 293 126 319T175 357T211 369T245 361L414 299L524 358L545 327Q501 282 472 256T423 219T387 207T353 214L183 276L75 217Z" />
<glyph unicode="&#xa0;" horiz-adv-x="147" />
<glyph unicode="&#xa1;" horiz-adv-x="286" d="M-16 -172L8 -54L109 272H191L146 -54L118 -172Q50 -178 -16 -172ZM161 335Q138 353 121 382T98 444Q121 468 150 484T207 505Q232 483 248 455T269 397Q249 373 220 356T161 335Z" />
<glyph unicode="&#xa2;" horiz-adv-x="465" d="M215 -132H144L295 632L367 633L215 -132ZM217 -12Q132 -12 86 46T39 208Q39 296 73 364T168 471T305 510Q341 510 375 503T435 482L389 385Q312 420 209 421L276 452Q242 420 218 370T180 264T166 155Q166 139 169
123T180 94L160 135Q177 117 199 108T247 98Q280 98 312 114T375 163L396 153Q384 78 335 33T217 -12ZM345 305L315 482H435L402 305H345Z" />
<glyph unicode="&#xa3;" horiz-adv-x="623" d="M50 277L55 303Q110 341 169 357Q196 437 232 491T319 576T437 618T595 624L571 501Q520 507 470 508T366 505Q347 478 332 442T304 357H489L466 277H50ZM-25 0L-15 49Q10 58 36 67T87 83L153 315H293L258 179Q244
128 214 81T142 0H-25ZM115 0L135 100L501 109L480 0H115ZM375 0L496 217H554L510 0H375Z" />
<glyph unicode="&#xa4;" horiz-adv-x="626" d="M293 111Q243 111 205 132T145 190T123 277Q123 339 155 392T239 476T355 508Q430 508 477 463T524 344Q524 280 493 227T409 143T293 111ZM84 52L29 121L184 249L239 180L84 52ZM470 53L374 174L448 235L545 114L470
53ZM304 202Q339 202 368 220T415 269T433 334Q433 371 409 393T346 416Q311 416 281 398T234 351T217 285Q217 248 241 225T304 202ZM204 385L107 507L182 568L279 445L204 385ZM466 369L412 438L568 568L623 500L466 369Z" />
<glyph unicode="&#xa5;" horiz-adv-x="724" d="M91 275L104 338H655L641 275H91ZM65 142L76 204H627L615 142H65ZM312 196L152 575L161 616H298L413 304H368L613 616H714L705 572L388 196H312ZM135 0L145 45Q172 55 198 61T254 72L304 301H442L396 70L497 51L487
0H135ZM230 521L97 566L108 616H431L423 572Q374 552 325 540T230 521ZM601 521L483 566L494 616H763L754 572Q715 552 677 540T601 521Z" />
<glyph unicode="&#xa6;" horiz-adv-x="216" d="M65 395V749H137V395H65ZM65 -195V159H137V-195H65Z" />
<glyph unicode="&#xa7;" horiz-adv-x="538" d="M139 -203Q94 -203 47 -195T-40 -172L28 -84Q139 -118 251 -103Q267 -92 278 -76T292 -46Q295 -25 276 -8T226 26T161 60T95 102T46 157T32 233Q37 298 81 343T199 408L240 347Q210 337 189 313T164 262Q160 234
178 214T227 177T293 144T359 106T408 56T424 -14Q421 -70 384 -112T283 -179T139 -203ZM82 -174L-41 -168L0 18L55 13L82 -174ZM260 58L255 107Q288 114 316 131T361 171T382 216Q385 243 367 262T318 298T252 331T186 369T137 420T122 492Q126 548 161 589T257
653T398 676Q440 676 481 670T558 652L509 560Q457 576 401 580T287 577Q274 567 265 554T253 526Q250 503 269 485T319 450T385 415T451 374T500 319T514 245Q511 193 479 153T390 88T260 58ZM463 467L435 655L558 652L518 467H463Z" />
<glyph unicode="&#xa8;" horiz-adv-x="453" d="M240 749Q262 729 277 703T296 649Q278 627 251 612T196 592Q175 610 160 637T138 693Q158 714 184 729T240 749ZM432 749Q454 729 469 703T489 649Q470 627 444 612T389 592Q367 609 352 636T330 693Q351 714 377
729T432 749Z" />
<glyph unicode="&#xa9;" horiz-adv-x="732" d="M391 132Q296 132 244 184T192 334Q192 432 248 487T404 543Q429 543 460 539T522 527L498 456Q457 468 413 469T323 462Q294 411 294 335Q294 240 343 211T493 220L522 151Q486 142 453 137T391 132ZM429 150L481
282H522V151L429 150ZM481 397L430 528L522 527V397H481ZM382 -12Q307 -12 244 14T135 87T63 197T37 335Q37 410 62 472T134 582T244 654T382 680Q456 680 519 654T630 582T703 473T729 335Q729 260 703 197T630 87T520 14T382 -12ZM381 31Q470 31 538 70T647 179T687
335Q687 422 647 490T539 598T381 637Q295 637 227 598T119 491T79 335Q79 248 118 179T226 71T381 31Z" />
<glyph unicode="&#xaa;" horiz-adv-x="387" d="M207 413Q155 411 127 438T99 522Q99 562 112 600T148 667T200 714T261 732Q287 732 307 720T336 683V658Q311 667 285 672T227 677L256 688Q237 669 223 645T200 593T189 537T191 483L181 495Q192 489 203 484T228
477L213 475Q243 503 270 544T324 643L340 627Q313 563 281 510T207 413ZM365 437L347 480Q367 482 386 483T427 486Q420 451 394 432T340 412Q321 412 304 422T276 452L308 546L298 549L340 727H426L365 437Z" />
<glyph unicode="&#xab;" horiz-adv-x="462" d="M384 41L244 238L248 257L461 450L506 414L367 245L437 76L384 41ZM328 41L188 238L192 257L405 450L450 414L311 245L381 76L328 41Z" />
<glyph unicode="&#xac;" horiz-adv-x="607" d="M530 353L486 131H393L418 258H60L79 353H530Z" />
<glyph unicode="&#xad;" horiz-adv-x="314" d="M47 312L286 342L297 247L57 217L47 312Z" />
<glyph unicode="&#xae;" horiz-adv-x="617" d="M354 197Q273 197 209 234T108 337T71 484Q71 565 107 629T208 730T354 767Q437 767 501 731T604 630T642 483Q642 402 605 337T502 235T354 197ZM214 355V378Q221 382 229 384T250 390L255 593L214 605V630H324V389L360
380V355H214ZM355 238Q425 238 481 270T569 358T601 484Q601 554 569 608T481 695T354 727Q285 727 230 695T143 608T111 484Q111 414 143 359T230 271T355 238ZM405 355L395 431Q392 449 385 456T359 463H289V506H363Q383 506 395 517T407 547Q407 565 396 575T365
586H289V630H378Q424 630 450 611T477 561Q477 530 455 509T396 483L385 493Q425 489 444 473T468 427L479 355L446 397L508 380V355H405Z" />
<glyph unicode="&#xaf;" horiz-adv-x="440" d="M154 625L175 718H440L419 625H154Z" />
<glyph unicode="&#xb0;" horiz-adv-x="417" d="M252 294Q204 294 165 316T104 378T81 466Q81 516 103 554T165 615T252 637Q301 637 340 615T401 555T424 466Q424 417 402 378T340 317T252 294ZM252 357Q299 357 330 388T361 466Q361 514 330 545T252 576Q205
576 174 545T143 466Q143 419 174 388T252 357Z" />
<glyph unicode="&#xb1;" horiz-adv-x="541" d="M82 347L101 442H518L499 347H82ZM25 66L44 161H462L442 66H25ZM216 215L288 576H384L311 215H216Z" />
<glyph unicode="&#xb2;" horiz-adv-x="395" d="M74 374L84 424L209 527Q254 564 279 588T316 630T327 671Q327 677 325 685T315 700L352 662Q338 664 323 665T290 666Q261 666 228 663T158 652L156 728Q191 738 223 742T282 747Q345 747 385 725T425 662Q425 640
410 617T359 562T259 481L117 374H74ZM105 374L117 439L370 447L357 374H105ZM288 374L368 511H409L381 374H288ZM130 586L156 728L247 729L171 586H130Z" />
<glyph unicode="&#xb3;" horiz-adv-x="389" d="M88 388L121 451Q152 444 176 441T221 437Q259 437 280 449T301 486Q301 506 288 515T249 525H204L217 590H257Q287 590 306 606T326 656Q326 665 324 676T317 696L346 668Q330 672 312 673T275 675Q253 675 227
672T174 662L164 725Q197 735 229 740T288 746Q351 746 390 723T430 660Q430 627 403 601T329 561Q367 552 385 535T403 489Q403 452 378 425T309 382T212 367Q184 367 152 372T88 388ZM113 504H156L181 386L88 388L113 504ZM144 610L164 725L259 727L186 610H144Z"
/>
<glyph unicode="&#xb4;" horiz-adv-x="264" d="M118 563L91 609L284 767H302L352 671Q295 639 237 613T118 563Z" />
<glyph unicode="&#xb5;" horiz-adv-x="592" d="M181 136Q197 119 214 108T248 92L222 86Q279 138 328 218T420 410L434 359Q414 313 392 267T345 178T299 99T256 38T220 1Q190 -4 165 5T123 37L181 136ZM334 57L386 235L373 240L435 499H557L458 31L433 92Q464
95 492 98T553 104Q546 68 526 44T479 6T425 -8Q397 -8 373 8T334 57ZM128 -195H-4L-10 -185L155 466L221 410Q173 405 135 402T61 394Q69 430 88 454T132 492T183 505Q211 505 234 490T272 441L181 51H159L132 -180L128 -195Z" />
<glyph unicode="&#xb6;" horiz-adv-x="586" d="M198 -123L178 -96L337 78L457 669H693L687 617Q663 608 638 602T587 589L505 180Q482 67 406 -7T198 -123ZM256 224Q143 224 88 287T56 458Q75 558 149 613T337 669L256 224ZM310 574L337 669H526L507 574H310Z" />
<glyph unicode="&#xb7;" horiz-adv-x="274" d="M133 191Q111 210 94 239T70 301Q91 323 120 340T180 362Q203 341 220 313T241 254Q222 230 193 213T133 191Z" />
<glyph unicode="&#xb8;" horiz-adv-x="284" d="M-40 -224L-31 -156L98 -173Q103 -170 106 -164T110 -152Q110 -140 91 -129T15 -96L56 -29Q125 -48 155 -71T185 -130Q185 -174 156 -201T75 -235T-40 -224ZM54 16H110L68 -96H15L54 16Z" />
<glyph unicode="&#xb9;" horiz-adv-x="294" d="M56 374L63 408Q85 414 102 418T145 426L200 664H116L123 697L255 740H313L250 424L326 412L320 374H56Z" />
<glyph unicode="&#xba;" horiz-adv-x="350" d="M225 409Q168 409 135 445T101 546Q101 600 123 642T184 708T273 733Q331 733 364 698T398 599Q398 544 375 502T313 434T225 409ZM247 468Q264 480 276 502T297 551T306 607T303 658Q288 665 276 668T250 673Q235
660 222 638T201 588T191 533T195 482Q208 476 221 473T247 468Z" />
<glyph unicode="&#xbb;" horiz-adv-x="463" d="M342 450L481 254L477 234L265 41L220 77L359 247L288 415L342 450ZM137 450L276 254L272 234L60 41L15 77L155 247L83 415L137 450Z" />
<glyph unicode="&#xbc;" horiz-adv-x="790" d="M39 247L46 281Q68 287 85 291T128 299L183 537H99L106 570L238 613H296L233 297L309 285L303 247H39ZM169 -65L112 -20L649 680L706 636L169 -65ZM493 0L498 31Q516 37 529 41T562 49L621 309L639 300L450 113L437
146H741L730 92H399V137L629 364H715L650 47L702 35L695 0H493Z" />
<glyph unicode="&#xbd;" horiz-adv-x="858" d="M39 247L46 281Q68 287 85 291T128 299L183 537H99L106 570L238 613H296L233 297L309 285L303 247H39ZM169 -65L112 -20L649 680L706 636L169 -65ZM450 0L460 50L585 153Q630 190 655 214T692 256T703 297Q703 303
701 311T691 326L728 288Q714 290 699 291T666 292Q637 292 604 289T534 278L532 354Q567 364 599 368T658 373Q721 373 761 351T801 288Q801 266 786 243T735 188T635 107L493 0H450ZM481 0L493 65L746 73L733 0H481ZM664 0L744 137H785L757 0H664ZM506 212L532
354L623 355L547 212H506Z" />
<glyph unicode="&#xbe;" horiz-adv-x="823" d="M70 261L103 324Q134 317 158 314T203 310Q241 310 262 322T283 359Q283 379 270 388T231 398H186L199 463H239Q269 463 288 479T308 529Q308 538 306 549T299 569L328 541Q312 545 294 546T257 548Q235 548 209
545T156 535L146 598Q179 608 211 613T270 619Q333 619 372 596T412 533Q412 500 385 474T311 434Q349 425 367 408T385 362Q385 325 360 298T291 255T194 240Q166 240 134 245T70 261ZM95 377H138L163 259L70 261L95 377ZM126 483L146 598L241 600L168 483H126ZM202
-65L145 -20L682 680L739 636L202 -65ZM526 0L531 31Q549 37 562 41T595 49L654 309L672 300L483 113L470 146H774L763 92H432V137L662 364H748L683 47L735 35L728 0H526Z" />
<glyph unicode="&#xbf;" horiz-adv-x="436" d="M155 -178Q56 -178 1 -142T-54 -41Q-54 7 -33 40T20 98T87 143T150 184T189 231L205 272H296L284 212Q277 177 256 152T206 106T152 67T108 28T90 -19Q90 -45 114 -59T182 -73Q242 -73 323 -52L337 -150Q238 -178
155 -178ZM205 -152L321 57H378L337 -150L205 -152ZM260 335Q236 353 220 382T196 444Q220 468 249 484T306 505Q331 483 347 455T368 397Q347 373 318 356T260 335Z" />
<glyph unicode="&#xc0;" horiz-adv-x="722" d="M630 71Q645 66 660 61T688 49L682 0H359L369 50L470 78L406 622L440 616L155 77Q177 71 200 64T245 49L239 0H-45L-36 50L39 84L365 669H535L630 71ZM152 193L190 275H536L545 193H152ZM571 728Q510 751 452 777T336
836L386 932H405L598 774L571 728Z" />
<glyph unicode="&#xc1;" horiz-adv-x="722" d="M630 71Q645 66 660 61T688 49L682 0H359L369 50L470 78L406 622L440 616L155 77Q177 71 200 64T245 49L239 0H-45L-36 50L39 84L365 669H535L630 71ZM152 193L190 275H536L545 193H152ZM389 728L362 774L555 932H573L623
836Q566 804 508 778T389 728Z" />
<glyph unicode="&#xc2;" horiz-adv-x="722" d="M630 71Q645 66 660 61T688 49L682 0H359L369 50L470 78L406 622L440 616L155 77Q177 71 200 64T245 49L239 0H-45L-36 50L39 84L365 669H535L630 71ZM152 193L190 275H536L545 193H152ZM545 930L649 791L591 742L489
831L357 742L314 791L455 930H545Z" />
<glyph unicode="&#xc3;" horiz-adv-x="722" d="M630 71Q645 66 660 61T688 49L682 0H359L369 50L470 78L406 622L440 616L155 77Q177 71 200 64T245 49L239 0H-45L-36 50L39 84L365 669H535L630 71ZM152 193L190 275H536L545 193H152ZM334 753L307 780Q338 828
358 855T393 893T420 904T448 901L566 869L633 922L661 896Q631 846 611 820T575 782T547 771T519 774L402 807L334 753Z" />
<glyph unicode="&#xc4;" horiz-adv-x="722" d="M630 71Q645 66 660 61T688 49L682 0H359L369 50L470 78L406 622L440 616L155 77Q177 71 200 64T245 49L239 0H-45L-36 50L39 84L365 669H535L630 71ZM152 193L190 275H536L545 193H152ZM411 914Q433 894 448 868T467
814Q449 792 422 777T367 757Q346 775 331 802T309 858Q329 879 355 894T411 914ZM603 914Q625 894 640 868T660 814Q641 792 615 777T560 757Q538 774 523 801T501 858Q522 879 548 894T603 914Z" />
<glyph unicode="&#xc5;" horiz-adv-x="722" d="M630 71Q645 66 660 61T688 49L682 0H359L369 50L470 78L406 622L440 616L155 77Q177 71 200 64T245 49L239 0H-45L-36 50L39 84L365 669H535L630 71ZM152 193L190 275H536L545 193H152ZM471 723Q427 723 398 751T369
824Q369 857 386 886T432 932T494 949Q538 949 567 921T596 850Q596 815 580 787T534 741T471 723ZM474 783Q500 783 518 801T536 846Q536 866 524 877T491 889Q466 889 448 871T429 826Q429 806 440 795T474 783Z" />
<glyph unicode="&#xc6;" horiz-adv-x="1010" d="M-30 10L403 658H583L607 10H461L456 599H472L96 10H-30ZM-54 0L-44 49L45 99Q92 93 134 81T218 50L209 0H-54ZM164 193L182 275H511V193H164ZM538 297V386H797L778 297H538ZM735 217L706 340L784 463H835L786 217H735ZM884
234H939L892 0H337L347 49L494 91H875L779 36L884 234ZM995 669L953 454H896L865 640L944 578H397L262 617L273 669H995Z" />
<glyph unicode="&#xc7;" horiz-adv-x="680" d="M364 -11Q223 -11 147 60T70 263Q70 356 99 433T181 565T309 651T475 681Q516 681 567 675T673 654L623 546Q581 559 541 565T453 572Q413 572 370 565T277 539L348 579Q310 538 282 483T239 366T223 248Q223 170
261 131T374 91Q406 91 448 100T542 128L575 20Q507 4 456 -3T364 -11ZM430 18L547 236H609L575 20L430 18ZM578 439L531 656L673 654L639 439H578ZM240 -224L249 -156L378 -173Q383 -170 386 -164T390 -152Q390 -140 371 -129T295 -96L336 -29Q405 -48 435 -71T465
-130Q465 -174 436 -201T355 -235T240 -224ZM334 16H390L348 -96H295L334 16Z" />
<glyph unicode="&#xc8;" horiz-adv-x="729" d="M-12 0L-2 49Q23 59 48 66T99 78L211 588L111 615L121 669H732L689 453H631L614 578H353L315 386H463L512 465H564L513 213H462L444 295H297L255 91H524L597 235H654L608 0H-12ZM581 728Q520 751 462 777T346 836L396
932H415L608 774L581 728Z" />
<glyph unicode="&#xc9;" horiz-adv-x="729" d="M-12 0L-2 49Q23 59 48 66T99 78L211 588L111 615L121 669H732L689 453H631L614 578H353L315 386H463L512 465H564L513 213H462L444 295H297L255 91H524L597 235H654L608 0H-12ZM399 728L372 774L565 932H583L633
836Q576 804 518 778T399 728Z" />
<glyph unicode="&#xca;" horiz-adv-x="729" d="M-12 0L-2 49Q23 59 48 66T99 78L211 588L111 615L121 669H732L689 453H631L614 578H353L315 386H463L512 465H564L513 213H462L444 295H297L255 91H524L597 235H654L608 0H-12ZM556 930L660 791L602 742L500 831L368
742L325 791L466 930H556Z" />
<glyph unicode="&#xcb;" horiz-adv-x="729" d="M-12 0L-2 49Q23 59 48 66T99 78L211 588L111 615L121 669H732L689 453H631L614 578H353L315 386H463L512 465H564L513 213H462L444 295H297L255 91H524L597 235H654L608 0H-12ZM421 914Q443 894 458 868T477 814Q459
792 432 777T377 757Q356 775 341 802T319 858Q339 879 365 894T421 914ZM613 914Q635 894 650 868T670 814Q651 792 625 777T570 757Q548 774 533 801T511 858Q532 879 558 894T613 914Z" />
<glyph unicode="&#xcc;" horiz-adv-x="409" d="M-12 0L-2 49Q23 59 48 66T99 78L211 588L111 615L121 669H465L456 620Q427 610 403 603T355 591L252 76L343 55L332 0H-12ZM417 728Q356 751 298 777T182 836L232 932H251L444 774L417 728Z" />
<glyph unicode="&#xcd;" horiz-adv-x="409" d="M-12 0L-2 49Q23 59 48 66T99 78L211 588L111 615L121 669H465L456 620Q427 610 403 603T355 591L252 76L343 55L332 0H-12ZM235 728L208 774L401 932H419L469 836Q412 804 354 778T235 728Z" />
<glyph unicode="&#xce;" horiz-adv-x="409" d="M-12 0L-2 49Q23 59 48 66T99 78L211 588L111 615L121 669H465L456 620Q427 610 403 603T355 591L252 76L343 55L332 0H-12ZM392 930L496 791L438 742L336 831L204 742L161 791L302 930H392Z" />
<glyph unicode="&#xcf;" horiz-adv-x="409" d="M-12 0L-2 49Q23 59 48 66T99 78L211 588L111 615L121 669H465L456 620Q427 610 403 603T355 591L252 76L343 55L332 0H-12ZM257 914Q279 894 294 868T313 814Q295 792 268 777T213 757Q192 775 177 802T155 858Q175
879 201 894T257 914ZM449 914Q471 894 486 868T506 814Q487 792 461 777T406 757Q384 774 369 801T347 858Q368 879 394 894T449 914Z" />
<glyph unicode="&#xd0;" horiz-adv-x="800" d="M537 669Q658 669 723 604T788 418Q788 331 757 256T670 122T542 32T386 0H20L30 49Q48 57 72 64T131 78L244 588L143 615L153 669H537ZM457 92Q494 108 525 141T581 220T617 317T630 423Q630 498 598 537T504 577H385L289
92H457ZM86 375H471L455 299H70L86 375Z" />
<glyph unicode="&#xd1;" horiz-adv-x="817" d="M587 669H888L878 620Q853 610 830 603T780 591L661 0H502L264 559L300 563L202 76L313 55L302 0H-9L0 49Q24 59 48 66T98 78L210 588L112 615L122 669H388L623 117L590 114L674 593L576 615L587 669ZM382 753L355
780Q386 828 406 855T441 893T468 904T496 901L614 869L681 922L709 896Q679 846 659 820T623 782T595 771T567 774L450 807L382 753Z" />
<glyph unicode="&#xd2;" horiz-adv-x="741" d="M343 -12Q259 -12 198 22T103 118T69 265Q69 354 98 429T178 561T299 648T450 680Q535 680 596 647T690 552T724 405Q724 314 696 238T617 106T497 19T343 -12ZM350 82Q390 82 424 99T487 150T534 231Q544 258 552
294T566 365T571 425Q571 501 536 541T431 581Q396 581 362 570T287 538L341 574Q304 529 277 473T236 358T221 241Q221 190 236 155T280 101T350 82ZM567 728Q506 751 448 777T332 836L382 932H401L594 774L567 728Z" />
<glyph unicode="&#xd3;" horiz-adv-x="741" d="M343 -12Q259 -12 198 22T103 118T69 265Q69 354 98 429T178 561T299 648T450 680Q535 680 596 647T690 552T724 405Q724 314 696 238T617 106T497 19T343 -12ZM350 82Q390 82 424 99T487 150T534 231Q544 258 552
294T566 365T571 425Q571 501 536 541T431 581Q396 581 362 570T287 538L341 574Q304 529 277 473T236 358T221 241Q221 190 236 155T280 101T350 82ZM384 728L357 774L550 932H568L618 836Q561 804 503 778T384 728Z" />
<glyph unicode="&#xd4;" horiz-adv-x="741" d="M343 -12Q259 -12 198 22T103 118T69 265Q69 354 98 429T178 561T299 648T450 680Q535 680 596 647T690 552T724 405Q724 314 696 238T617 106T497 19T343 -12ZM350 82Q390 82 424 99T487 150T534 231Q544 258 552
294T566 365T571 425Q571 501 536 541T431 581Q396 581 362 570T287 538L341 574Q304 529 277 473T236 358T221 241Q221 190 236 155T280 101T350 82ZM541 930L645 791L587 742L485 831L353 742L310 791L451 930H541Z" />
<glyph unicode="&#xd5;" horiz-adv-x="741" d="M343 -12Q259 -12 198 22T103 118T69 265Q69 354 98 429T178 561T299 648T450 680Q535 680 596 647T690 552T724 405Q724 314 696 238T617 106T497 19T343 -12ZM350 82Q390 82 424 99T487 150T534 231Q544 258 552
294T566 365T571 425Q571 501 536 541T431 581Q396 581 362 570T287 538L341 574Q304 529 277 473T236 358T221 241Q221 190 236 155T280 101T350 82ZM329 753L302 780Q333 828 353 855T388 893T415 904T443 901L561 869L628 922L656 896Q626 846 606 820T570 782T542
771T514 774L397 807L329 753Z" />
<glyph unicode="&#xd6;" horiz-adv-x="741" d="M343 -12Q259 -12 198 22T103 118T69 265Q69 354 98 429T178 561T299 648T450 680Q535 680 596 647T690 552T724 405Q724 314 696 238T617 106T497 19T343 -12ZM350 82Q390 82 424 99T487 150T534 231Q544 258 552
294T566 365T571 425Q571 501 536 541T431 581Q396 581 362 570T287 538L341 574Q304 529 277 473T236 358T221 241Q221 190 236 155T280 101T350 82ZM407 914Q429 894 444 868T463 814Q445 792 418 777T363 757Q342 775 327 802T305 858Q325 879 351 894T407 914ZM599
914Q621 894 636 868T656 814Q637 792 611 777T556 757Q534 774 519 801T497 858Q518 879 544 894T599 914Z" />
<glyph unicode="&#xd7;" horiz-adv-x="481" d="M84 91L27 159L412 481L468 414L84 91ZM339 91L78 414L156 481L417 159L339 91Z" />
<glyph unicode="&#xd8;" horiz-adv-x="741" d="M267 54L183 -98L117 -63L203 91L267 54ZM334 -12Q250 -12 189 22T94 118T60 265Q60 354 89 429T169 561T290 648T441 680Q526 680 587 647T681 552T715 405Q715 314 687 238T608 106T488 19T334 -12ZM341 82Q381
82 415 99T478 150T525 231Q535 258 543 294T557 365T562 425Q562 501 527 541T422 581Q387 581 353 570T278 538L332 574Q295 529 268 473T227 358T212 241Q212 190 227 155T271 101T341 82ZM501 624L574 756L640 724L566 591L501 624ZM203 91L501 624L566 591L267
54L203 91Z" />
<glyph unicode="&#xd9;" horiz-adv-x="769" d="M355 -12Q238 -12 173 35T107 168Q107 178 108 189T112 214L195 588L94 615L105 669H442L432 620Q412 610 390 603T337 591L260 206Q259 197 258 191T257 178Q257 134 289 111T381 87Q428 87 466 101T535 146L630
588L539 615L550 669H849L840 620Q818 611 794 604T739 591L666 226Q643 110 563 49T355 -12ZM614 728Q553 751 495 777T379 836L429 932H448L641 774L614 728Z" />
<glyph unicode="&#xda;" horiz-adv-x="768" d="M355 -12Q238 -12 173 35T107 168Q107 178 108 189T112 214L195 588L94 615L105 669H442L432 620Q412 610 390 603T337 591L260 206Q259 197 258 191T257 178Q257 134 289 111T381 87Q428 87 466 101T535 146L630
588L539 615L550 669H849L840 620Q818 611 794 604T739 591L666 226Q643 110 563 49T355 -12ZM432 728L405 774L598 932H616L666 836Q609 804 551 778T432 728Z" />
<glyph unicode="&#xdb;" horiz-adv-x="768" d="M355 -12Q238 -12 173 35T107 168Q107 178 108 189T112 214L195 588L94 615L105 669H442L432 620Q412 610 390 603T337 591L260 206Q259 197 258 191T257 178Q257 134 289 111T381 87Q428 87 466 101T535 146L630
588L539 615L550 669H849L840 620Q818 611 794 604T739 591L666 226Q643 110 563 49T355 -12ZM588 930L692 791L634 742L532 831L400 742L357 791L498 930H588Z" />
<glyph unicode="&#xdc;" horiz-adv-x="769" d="M355 -12Q238 -12 173 35T107 168Q107 178 108 189T112 214L195 588L94 615L105 669H442L432 620Q412 610 390 603T337 591L260 206Q259 197 258 191T257 178Q257 134 289 111T381 87Q428 87 466 101T535 146L630
588L539 615L550 669H849L840 620Q818 611 794 604T739 591L666 226Q643 110 563 49T355 -12ZM454 914Q476 894 491 868T510 814Q492 792 465 777T410 757Q389 775 374 802T352 858Q372 879 398 894T454 914ZM646 914Q668 894 683 868T703 814Q684 792 658 777T603
757Q581 774 566 801T544 858Q565 879 591 894T646 914Z" />
<glyph unicode="&#xdd;" horiz-adv-x="704" d="M308 191L140 620L149 658H308L427 315H380L642 658H738L735 617L391 191H308ZM116 0L125 52Q155 61 184 68T243 79L297 305H446L400 76L510 55L500 0H116ZM224 564L79 614L88 669H439L433 618Q382 596 330 584T224
564ZM628 564L497 614L507 669H800L793 617Q752 596 711 583T628 564ZM381 728L354 774L547 932H565L615 836Q558 804 500 778T381 728Z" />
<glyph unicode="&#xde;" horiz-adv-x="673" d="M-19 0L-9 49Q19 59 43 66T92 78L204 588L104 615L114 669H458L450 622Q422 614 398 606T349 593L245 74L336 53L325 0H-19ZM184 142L202 231H439Q479 257 501 294T523 371Q523 449 428 449H245L264 537H479Q570
537 621 497T673 380Q673 312 634 259T526 174T371 142H184Z" />
<glyph unicode="&#xdf;" horiz-adv-x="621" d="M-16 -206Q-50 -206 -77 -189T-117 -145T-123 -86Q-84 -88 -40 -88T44 -85Q50 -55 53 -31T60 21T69 94L142 589Q153 672 214 715T383 758Q476 758 521 722T567 615Q567 580 553 553T517 504T475 463T439 425T424
383Q424 362 441 344T485 306T536 263T579 211T597 142Q597 99 573 65T505 11T410 -9Q365 -9 320 7T241 51L259 137L440 76Q456 81 466 94T477 122Q477 143 460 161T416 200T365 243T322 296T304 363Q304 397 318 423T352 469T394 509T429 549T443 595Q443 628
420 643T339 658Q308 658 268 655T178 645L275 680Q268 661 264 644T258 607T254 558T250 488L177 22Q167 -42 139 -94T70 -176T-16 -206ZM29 420L37 460Q61 473 84 482T132 495H193L177 420H29Z" />
<glyph unicode="&#xe0;" horiz-adv-x="556" d="M192 -5Q116 -10 76 32T35 167Q35 233 55 294T109 403T188 480T282 508Q322 508 351 488T395 429L394 392Q325 426 229 431L274 445Q244 420 220 381T182 295T162 198T164 97L150 116Q167 105 185 97T223 85L201
82Q250 127 293 197T377 366L399 344Q357 234 308 148T192 -5ZM426 31L402 92Q430 95 459 98T520 104Q513 69 494 44T447 6T392 -8Q362 -8 338 8T300 57L350 216L336 222L402 499H525L426 31ZM442 564Q381 587 323 613T207 672L257 768H276L469 610L442 564Z" />
<glyph unicode="&#xe1;" horiz-adv-x="556" d="M192 -5Q116 -10 76 32T35 167Q35 233 55 294T109 403T188 480T282 508Q322 508 351 488T395 429L394 392Q325 426 229 431L274 445Q244 420 220 381T182 295T162 198T164 97L150 116Q167 105 185 97T223 85L201
82Q250 127 293 197T377 366L399 344Q357 234 308 148T192 -5ZM426 31L402 92Q430 95 459 98T520 104Q513 69 494 44T447 6T392 -8Q362 -8 338 8T300 57L350 216L336 222L402 499H525L426 31ZM260 564L233 610L426 768H444L494 672Q437 640 379 614T260 564Z" />
<glyph unicode="&#xe2;" horiz-adv-x="556" d="M192 -5Q116 -10 76 32T35 167Q35 233 55 294T109 403T188 480T282 508Q322 508 351 488T395 429L394 392Q325 426 229 431L274 445Q244 420 220 381T182 295T162 198T164 97L150 116Q167 105 185 97T223 85L201
82Q250 127 293 197T377 366L399 344Q357 234 308 148T192 -5ZM426 31L402 92Q430 95 459 98T520 104Q513 69 494 44T447 6T392 -8Q362 -8 338 8T300 57L350 216L336 222L402 499H525L426 31ZM416 766L520 627L462 578L360 667L228 578L185 627L326 766H416Z" />
<glyph unicode="&#xe3;" horiz-adv-x="556" d="M192 -5Q116 -10 76 32T35 167Q35 233 55 294T109 403T188 480T282 508Q322 508 351 488T395 429L394 392Q325 426 229 431L274 445Q244 420 220 381T182 295T162 198T164 97L150 116Q167 105 185 97T223 85L201
82Q250 127 293 197T377 366L399 344Q357 234 308 148T192 -5ZM426 31L402 92Q430 95 459 98T520 104Q513 69 494 44T447 6T392 -8Q362 -8 338 8T300 57L350 216L336 222L402 499H525L426 31ZM204 589L177 616Q208 664 228 691T263 729T290 740T318 737L436 705L503
758L531 732Q501 682 481 656T445 618T417 607T389 610L272 643L204 589Z" />
<glyph unicode="&#xe4;" horiz-adv-x="556" d="M192 -5Q116 -10 76 32T35 167Q35 233 55 294T109 403T188 480T282 508Q322 508 351 488T395 429L394 392Q325 426 229 431L274 445Q244 420 220 381T182 295T162 198T164 97L150 116Q167 105 185 97T223 85L201
82Q250 127 293 197T377 366L399 344Q357 234 308 148T192 -5ZM426 31L402 92Q430 95 459 98T520 104Q513 69 494 44T447 6T392 -8Q362 -8 338 8T300 57L350 216L336 222L402 499H525L426 31ZM282 750Q304 730 319 704T338 650Q320 628 293 613T238 593Q217 611
202 638T180 694Q200 715 226 730T282 750ZM474 750Q496 730 511 704T531 650Q512 628 486 613T431 593Q409 610 394 637T372 694Q393 715 419 730T474 750Z" />
<glyph unicode="&#xe5;" horiz-adv-x="556" d="M192 -5Q116 -10 76 32T35 167Q35 233 55 294T109 403T188 480T282 508Q322 508 351 488T395 429L394 392Q325 426 229 431L274 445Q244 420 220 381T182 295T162 198T164 97L150 116Q167 105 185 97T223 85L201
82Q250 127 293 197T377 366L399 344Q357 234 308 148T192 -5ZM426 31L402 92Q430 95 459 98T520 104Q513 69 494 44T447 6T392 -8Q362 -8 338 8T300 57L350 216L336 222L402 499H525L426 31ZM342 559Q298 559 269 587T240 660Q240 693 257 722T303 768T365 785Q409
785 438 757T467 686Q467 651 451 623T405 577T342 559ZM345 619Q371 619 389 637T407 682Q407 702 395 713T362 725Q337 725 319 707T300 662Q300 642 311 631T345 619Z" />
<glyph unicode="&#xe6;" horiz-adv-x="759" d="M178 -5Q107 -10 69 38T30 182Q30 279 65 352T158 467T288 509Q332 509 375 493T454 446L406 386Q366 404 321 413T222 425L279 434Q255 420 234 393T196 330T170 254T159 175T167 100L147 124Q167 112 183 106T223
98L196 84Q218 106 237 128T274 181T315 253T366 356L391 344Q358 268 331 211T279 113T229 43T178 -5ZM507 -12Q422 -12 373 47T323 206Q323 270 342 325T397 421T480 486T580 510Q651 510 693 475T735 380Q735 340 712 308T645 252T544 217T414 205V257Q521 267
567 294T613 376Q613 384 612 391T609 408Q589 414 574 418T543 423Q514 402 493 370T461 298T449 211T461 117Q490 99 530 98T613 111T697 157L712 139Q688 69 632 29T507 -12Z" />
<glyph unicode="&#xe7;" horiz-adv-x="444" d="M215 -12Q131 -12 85 46T38 208Q38 296 72 364T167 471T304 510Q340 510 374 503T434 482L388 385Q311 420 208 421L274 452Q241 420 217 370T179 264T165 155Q165 139 168 123T178 94L159 135Q176 117 199 108T246
98Q279 98 311 114T373 163L395 153Q383 78 334 33T215 -12ZM344 305L313 482H434L401 305H344ZM85 -224L94 -156L223 -173Q228 -170 231 -164T235 -152Q235 -140 216 -129T140 -96L181 -29Q250 -48 280 -71T310 -130Q310 -174 281 -201T200 -235T85 -224ZM179
16H235L193 -96H140L179 16Z" />
<glyph unicode="&#xe8;" horiz-adv-x="465" d="M221 -12Q137 -12 87 47T37 206Q37 270 56 325T110 421T192 486T294 510Q364 510 407 475T450 380Q450 337 425 304T355 249T252 216T128 205V257Q236 267 281 294T327 376Q327 408 315 435L353 399Q324 411 293
417T228 424L267 433Q233 408 210 372T174 287T161 176Q161 154 165 131T177 84L155 133Q173 115 199 106T256 97Q294 97 333 112T411 157L426 139Q402 69 347 29T221 -12ZM392 815Q331 838 273 864T157 923L207 1019H226L419 861L392 815Z" />
<glyph unicode="&#xe9;" horiz-adv-x="465" d="M221 -12Q137 -12 87 47T37 206Q37 270 56 325T110 421T192 486T294 510Q364 510 407 475T450 380Q450 337 425 304T355 249T252 216T128 205V257Q236 267 281 294T327 376Q327 408 315 435L353 399Q324 411 293
417T228 424L267 433Q233 408 210 372T174 287T161 176Q161 154 165 131T177 84L155 133Q173 115 199 106T256 97Q294 97 333 112T411 157L426 139Q402 69 347 29T221 -12ZM211 815L184 861L377 1019H395L445 923Q388 891 330 865T211 815Z" />
<glyph unicode="&#xea;" horiz-adv-x="465" d="M221 -12Q137 -12 87 47T37 206Q37 270 56 325T110 421T192 486T294 510Q364 510 407 475T450 380Q450 337 425 304T355 249T252 216T128 205V257Q236 267 281 294T327 376Q327 408 315 435L353 399Q324 411 293
417T228 424L267 433Q233 408 210 372T174 287T161 176Q161 154 165 131T177 84L155 133Q173 115 199 106T256 97Q294 97 333 112T411 157L426 139Q402 69 347 29T221 -12ZM367 1017L471 878L413 829L311 918L179 829L136 878L277 1017H367Z" />
<glyph unicode="&#xeb;" horiz-adv-x="465" d="M221 -12Q137 -12 87 47T37 206Q37 270 56 325T110 421T192 486T294 510Q364 510 407 475T450 380Q450 337 425 304T355 249T252 216T128 205V257Q236 267 281 294T327 376Q327 408 315 435L353 399Q324 411 293
417T228 424L267 433Q233 408 210 372T174 287T161 176Q161 154 165 131T177 84L155 133Q173 115 199 106T256 97Q294 97 333 112T411 157L426 139Q402 69 347 29T221 -12ZM232 1001Q254 981 269 955T288 901Q270 879 243 864T188 844Q167 862 152 889T130 945Q150
966 176 981T232 1001ZM424 1001Q446 981 461 955T481 901Q462 879 436 864T381 844Q359 861 344 888T322 945Q343 966 369 981T424 1001Z" />
<glyph unicode="&#xec;" horiz-adv-x="307" d="M183 33L156 92Q189 94 218 97T276 104Q269 69 249 44T201 5T146 -9Q117 -9 93 8T55 57L147 466L165 404Q130 403 103 401T47 396Q54 430 73 454T119 492T174 506Q202 506 226 491T266 445L183 33ZM576 563Q515 586
457 612T341 671L391 767H410L603 609L576 563Z" />
<glyph unicode="&#xed;" horiz-adv-x="307" d="M183 33L156 92Q189 94 218 97T276 104Q269 69 249 44T201 5T146 -9Q117 -9 93 8T55 57L147 466L165 404Q130 403 103 401T47 396Q54 430 73 454T119 492T174 506Q202 506 226 491T266 445L183 33ZM138 563L111 609L304
767H322L372 671Q315 639 257 613T138 563Z" />
<glyph unicode="&#xee;" horiz-adv-x="307" d="M183 33L156 92Q189 94 218 97T276 104Q269 69 249 44T201 5T146 -9Q117 -9 93 8T55 57L147 466L165 404Q130 403 103 401T47 396Q54 430 73 454T119 492T174 506Q202 506 226 491T266 445L183 33ZM551 765L655 626L597
577L495 666L363 577L320 626L461 765H551Z" />
<glyph unicode="&#xef;" horiz-adv-x="307" d="M183 33L156 92Q189 94 218 97T276 104Q269 69 249 44T201 5T146 -9Q117 -9 93 8T55 57L147 466L165 404Q130 403 103 401T47 396Q54 430 73 454T119 492T174 506Q202 506 226 491T266 445L183 33ZM417 749Q439 729
454 703T473 649Q455 627 428 612T373 592Q352 610 337 637T315 693Q335 714 361 729T417 749ZM609 749Q631 729 646 703T666 649Q647 627 621 612T566 592Q544 609 529 636T507 693Q528 714 554 729T609 749Z" />
<glyph unicode="&#xf0;" horiz-adv-x="509" d="M212 -12Q126 -12 78 44T29 202Q29 290 61 357T149 461T275 499Q311 499 343 487T396 455L397 372Q371 382 350 389T305 402T254 412Q227 390 205 348T169 254T156 152Q156 139 158 125T164 98Q186 89 204 82T245
72Q276 104 298 146T333 237T345 343Q345 411 327 478T276 609T192 726L254 760Q328 707 376 638T448 489T472 327Q472 257 455 196T404 88T322 15T212 -12ZM148 534L128 592L484 712L504 653L148 534Z" />
<glyph unicode="&#xf1;" horiz-adv-x="587" d="M332 57L417 386L426 363Q409 380 394 389T358 405L385 412Q327 359 276 278T184 88L171 139Q195 201 223 257T281 362T340 445T396 499Q406 501 414 502T432 503Q483 503 513 476T543 403Q543 395 542 386T538 367L475
94Q501 96 518 98T553 104Q546 69 526 44T479 6T424 -8Q395 -8 371 8T332 57ZM46 0L151 466L169 404Q145 402 120 401T50 396Q57 430 76 454T122 492T177 505Q206 505 230 490T270 445L218 263L231 259L180 0H46ZM235 588L208 615Q239 663 259 690T294 728T321
739T349 736L467 704L534 757L562 731Q532 681 512 655T476 617T448 606T420 609L303 642L235 588Z" />
<glyph unicode="&#xf2;" horiz-adv-x="502" d="M219 -12Q134 -12 86 44T37 201Q37 267 57 323T112 421T195 486T298 510Q384 510 432 455T481 299Q481 233 461 177T406 78T323 12T219 -12ZM254 72Q280 90 301 127T336 210T353 306T346 397Q326 407 306 414T264
423Q237 403 216 366T182 283T166 188T173 98Q191 87 211 81T254 72ZM419 563Q358 586 300 612T184 671L234 767H253L446 609L419 563Z" />
<glyph unicode="&#xf3;" horiz-adv-x="502" d="M219 -12Q134 -12 86 44T37 201Q37 267 57 323T112 421T195 486T298 510Q384 510 432 455T481 299Q481 233 461 177T406 78T323 12T219 -12ZM254 72Q280 90 301 127T336 210T353 306T346 397Q326 407 306 414T264
423Q237 403 216 366T182 283T166 188T173 98Q191 87 211 81T254 72ZM237 563L210 609L403 767H421L471 671Q414 639 356 613T237 563Z" />
<glyph unicode="&#xf4;" horiz-adv-x="502" d="M219 -12Q134 -12 86 44T37 201Q37 267 57 323T112 421T195 486T298 510Q384 510 432 455T481 299Q481 233 461 177T406 78T323 12T219 -12ZM254 72Q280 90 301 127T336 210T353 306T346 397Q326 407 306 414T264
423Q237 403 216 366T182 283T166 188T173 98Q191 87 211 81T254 72ZM393 765L497 626L439 577L337 666L205 577L162 626L303 765H393Z" />
<glyph unicode="&#xf5;" horiz-adv-x="502" d="M219 -12Q134 -12 86 44T37 201Q37 267 57 323T112 421T195 486T298 510Q384 510 432 455T481 299Q481 233 461 177T406 78T323 12T219 -12ZM254 72Q280 90 301 127T336 210T353 306T346 397Q326 407 306 414T264
423Q237 403 216 366T182 283T166 188T173 98Q191 87 211 81T254 72ZM182 588L155 615Q186 663 206 690T241 728T268 739T296 736L414 704L481 757L509 731Q479 681 459 655T423 617T395 606T367 609L250 642L182 588Z" />
<glyph unicode="&#xf6;" horiz-adv-x="502" d="M219 -12Q134 -12 86 44T37 201Q37 267 57 323T112 421T195 486T298 510Q384 510 432 455T481 299Q481 233 461 177T406 78T323 12T219 -12ZM254 72Q280 90 301 127T336 210T353 306T346 397Q326 407 306 414T264
423Q237 403 216 366T182 283T166 188T173 98Q191 87 211 81T254 72ZM259 749Q281 729 296 703T315 649Q297 627 270 612T215 592Q194 610 179 637T157 693Q177 714 203 729T259 749ZM451 749Q473 729 488 703T508 649Q489 627 463 612T408 592Q386 609 371 636T349
693Q370 714 396 729T451 749Z" />
<glyph unicode="&#xf7;" horiz-adv-x="510" d="M24 239L43 334H501L481 239H24ZM198 41Q182 58 172 83T160 135Q180 150 204 161T255 173Q272 153 282 128T293 78Q274 61 249 51T198 41ZM269 400Q253 417 243 442T231 494Q251 509 276 520T327 531Q343 512 353
487T364 438Q345 420 320 410T269 400Z" />
<glyph unicode="&#xf8;" horiz-adv-x="518" d="M192 43L113 -113L47 -83L127 73L192 43ZM220 -12Q132 -12 81 45T30 204Q30 270 50 325T106 422T191 486T297 510Q387 510 437 454T487 296Q487 230 467 174T411 77T326 12T220 -12ZM254 72Q283 92 307 134T346 227T361
331Q361 348 359 365T351 397Q324 408 304 415T261 424Q232 401 208 359T170 265T156 163Q156 145 158 129T166 98Q193 87 212 80T254 72ZM327 466L405 618L471 588L390 431L327 466ZM127 73L327 466L390 431L192 43L127 73Z" />
<glyph unicode="&#xf9;" horiz-adv-x="581" d="M267 441L184 112L173 136Q188 120 205 109T240 92L214 86Q271 138 320 218T412 410L425 359Q400 297 372 240T315 136T258 53T203 -2Q184 -5 167 -5Q115 -5 84 21T53 92Q53 112 58 131L150 466L216 410Q171 406
132 402T56 394Q64 429 83 454T127 492T179 506Q206 506 230 490T267 441ZM326 57L378 235L365 240L427 499H550L450 31L425 92Q457 95 485 98T544 104Q537 69 518 44T471 6T417 -8Q388 -8 364 8T326 57ZM449 563Q388 586 330 612T214 671L264 767H283L476 609L449
563Z" />
<glyph unicode="&#xfa;" horiz-adv-x="581" d="M267 441L184 112L173 136Q188 120 205 109T240 92L214 86Q271 138 320 218T412 410L425 359Q400 297 372 240T315 136T258 53T203 -2Q184 -5 167 -5Q115 -5 84 21T53 92Q53 112 58 131L150 466L216 410Q171 406
132 402T56 394Q64 429 83 454T127 492T179 506Q206 506 230 490T267 441ZM326 57L378 235L365 240L427 499H550L450 31L425 92Q457 95 485 98T544 104Q537 69 518 44T471 6T417 -8Q388 -8 364 8T326 57ZM267 563L240 609L433 767H451L501 671Q444 639 386 613T267
563Z" />
<glyph unicode="&#xfb;" horiz-adv-x="581" d="M267 441L184 112L173 136Q188 120 205 109T240 92L214 86Q271 138 320 218T412 410L425 359Q400 297 372 240T315 136T258 53T203 -2Q184 -5 167 -5Q115 -5 84 21T53 92Q53 112 58 131L150 466L216 410Q171 406
132 402T56 394Q64 429 83 454T127 492T179 506Q206 506 230 490T267 441ZM326 57L378 235L365 240L427 499H550L450 31L425 92Q457 95 485 98T544 104Q537 69 518 44T471 6T417 -8Q388 -8 364 8T326 57ZM423 765L527 626L469 577L367 666L235 577L192 626L333
765H423Z" />
<glyph unicode="&#xfc;" horiz-adv-x="581" d="M267 441L184 112L173 136Q188 120 205 109T240 92L214 86Q271 138 320 218T412 410L425 359Q400 297 372 240T315 136T258 53T203 -2Q184 -5 167 -5Q115 -5 84 21T53 92Q53 112 58 131L150 466L216 410Q171 406
132 402T56 394Q64 429 83 454T127 492T179 506Q206 506 230 490T267 441ZM326 57L378 235L365 240L427 499H550L450 31L425 92Q457 95 485 98T544 104Q537 69 518 44T471 6T417 -8Q388 -8 364 8T326 57ZM289 749Q311 729 326 703T345 649Q327 627 300 612T245
592Q224 610 209 637T187 693Q207 714 233 729T289 749ZM481 749Q503 729 518 703T538 649Q519 627 493 612T438 592Q416 609 401 636T379 693Q400 714 426 729T481 749Z" />
<glyph unicode="&#xfd;" horiz-adv-x="472" d="M-92 -188L-73 -90L90 -102Q138 -51 182 9T266 136T337 273T393 417L396 310L344 487Q383 501 416 501Q450 501 467 485T485 435Q485 408 470 362Q452 307 421 245T351 119T270 -1T188 -100T114 -164Q53 -202 -15
-202Q-55 -202 -92 -188ZM142 0L94 465L122 400Q80 397 60 396T24 393Q26 427 42 451T83 490T135 504Q160 504 181 492T217 453L241 106H300L229 1L142 0ZM233 563L206 609L399 767H417L467 671Q410 639 352 613T233 563Z" />
<glyph unicode="&#xfe;" horiz-adv-x="539" d="M-23 -195L178 711L305 749L249 468L197 282L209 276L111 -195H-23ZM-82 -195L-74 -152Q-34 -133 -7 -123T47 -107L208 -150L197 -195H-82ZM171 623L92 711Q195 753 305 749L171 623ZM266 -11Q225 -11 196 10T153
69V106Q222 72 318 68L274 54Q304 79 327 118T366 204T385 301T383 401L398 382Q380 394 363 402T324 414L347 417Q297 372 254 302T171 133L148 155Q191 265 240 351T356 504Q432 509 472 466T513 331Q513 265 493 204T438 95T359 18T266 -11Z" />
<glyph unicode="&#xff;" horiz-adv-x="472" d="M-92 -188L-73 -90L90 -102Q138 -51 182 9T266 136T337 273T393 417L396 310L344 487Q383 501 416 501Q450 501 467 485T485 435Q485 408 470 362Q452 307 421 245T351 119T270 -1T188 -100T114 -164Q53 -202 -15
-202Q-55 -202 -92 -188ZM142 0L94 465L122 400Q80 397 60 396T24 393Q26 427 42 451T83 490T135 504Q160 504 181 492T217 453L241 106H300L229 1L142 0ZM256 749Q278 729 293 703T312 649Q294 627 267 612T212 592Q191 610 176 637T154 693Q174 714 200 729T256
749ZM448 749Q470 729 485 703T505 649Q486 627 460 612T405 592Q383 609 368 636T346 693Q367 714 393 729T448 749Z" />
<glyph unicode="&#x2013;" horiz-adv-x="566" d="M58 327H539L520 232H39L58 327Z" />
<glyph unicode="&#x2014;" horiz-adv-x="1030" d="M58 327H1004L985 232H39L58 327Z" />
<glyph unicode="&#x2018;" horiz-adv-x="248" d="M269 683L218 521L84 518Q112 565 145 607T217 691L269 683ZM199 577L249 475Q225 453 198 439T138 416Q117 438 104 463T84 518L199 577Z" />
<glyph unicode="&#x2019;" horiz-adv-x="250" d="M111 422L162 584L296 587Q268 541 235 499T162 415L111 422ZM180 527L131 630Q155 653 182 667T241 689Q262 667 275 642T296 587L180 527Z" />
<glyph unicode="&#x201a;" horiz-adv-x="245" d="M260 -99L311 63L445 66Q417 20 384 -22T311 -106L260 -99ZM329 6L280 109Q304 132 331 146T390 168Q411 146 424 121T445 66L329 6Z" />
<glyph unicode="&#x201c;" horiz-adv-x="429" d="M269 683L218 521L84 518Q112 565 145 607T217 691L269 683ZM199 577L249 475Q225 453 198 439T138 416Q117 438 104 463T84 518L199 577ZM450 683L400 521L266 518Q294 565 327 607T400 691L450 683ZM382 577L430
475Q406 453 379 439T320 416Q299 438 286 463T266 518L382 577Z" />
<glyph unicode="&#x201d;" horiz-adv-x="429" d="M286 422L337 584L471 587Q443 541 410 499T337 415L286 422ZM355 527L306 630Q330 653 357 667T416 689Q437 667 450 642T471 587L355 527ZM111 422L162 584L296 587Q268 541 235 499T162 415L111 422ZM180 527L131
630Q155 653 182 667T241 689Q262 667 275 642T296 587L180 527Z" />
<glyph unicode="&#x201e;" horiz-adv-x="427" d="M175 -99L226 63L360 66Q332 20 299 -22T226 -106L175 -99ZM244 6L195 109Q219 132 246 146T305 168Q326 146 339 121T360 66L244 6ZM255 -99L306 63L440 66Q412 20 379 -22T306 -106L255 -99ZM324 6L275 109Q299
132 326 146T385 168Q406 146 419 121T440 66L324 6Z" />
<glyph unicode="&#x2022;" horiz-adv-x="329" d="M200 379Q234 349 257 309T287 226Q259 194 219 170T135 140Q103 166 79 206T46 292Q76 324 116 347T200 379Z" />
<glyph unicode="&#x2039;" horiz-adv-x="250" d="M132 41L-8 238L-4 257L209 450L254 414L115 245L185 76L132 41Z" />
<glyph unicode="&#x203a;" horiz-adv-x="258" d="M137 450L276 254L272 234L60 41L15 77L155 247L83 415L137 450Z" />
</font>
</defs>
</svg>
