<?xml version="1.0" standalone="no"?>
<!DOCTYPE svg PUBLIC "-//W3C//DTD SVG 1.1//EN" "http://www.w3.org/Graphics/SVG/1.1/DTD/svg11.dtd">
<svg xmlns="http://www.w3.org/2000/svg">
<defs >
<font id="Piazzolla" horiz-adv-x="594" ><font-face
    font-family="Piazzolla Thin SemiBold"
    units-per-em="1000"
    panose-1="0 0 0 0 0 0 0 0 0 0"
    ascent="1110"
    descent="-310"
    alphabetic="0" />
<glyph unicode=" " horiz-adv-x="170" />
<glyph unicode="!" horiz-adv-x="287" d="M200 666L199 550L171 212H111L97 550L100 666Q113 667 125 668T150 670Q163 670 176 669T200 666ZM154 131Q172 117 185 95T204 46Q186 28 164 15T118 -3Q98 15 86 37T69 83Q85 102 108 115T154 131Z" />
<glyph unicode="&quot;" horiz-adv-x="415" d="M104 455L82 676Q95 679 107 680T132 681Q145 681 157 680T182 676L160 455H104ZM241 455L219 676Q232 679 244 680T269 681Q282 681 294 680T319 676L297 455H241Z" />
<glyph unicode="#" horiz-adv-x="619" d="M328 1L436 611H491L384 1H328ZM24 180L34 234H560L550 180H24ZM127 1L235 611H291L183 1H127ZM59 377L69 433H595L585 377H59Z" />
<glyph unicode="$" horiz-adv-x="593" d="M312 -143H255L292 742H349L312 -143ZM263 -10Q217 -10 167 -3T64 19L108 89Q172 73 240 69T382 71Q406 85 419 104T433 144Q433 171 407 192T341 233T255 273T169 320T103 379T77 458Q77 511 109 547T200 604T338 624Q378
624 422 619T511 601L481 527Q412 543 346 546T218 540Q199 530 189 513T178 475Q178 445 203 422T269 379T355 339T441 294T508 237T534 160Q534 108 500 70T404 11T263 -10ZM164 18L64 19L69 205H110L164 18ZM464 420L412 602L511 601L505 420H464Z" />
<glyph unicode="%" horiz-adv-x="869" d="M219 241Q147 241 105 290T62 421Q62 477 82 520T139 587T226 611Q275 611 311 589T366 527T385 432Q385 375 365 332T308 265T219 241ZM223 289Q262 289 284 325T307 427Q307 490 285 525T220 560Q189 560 166 542Q154
513 148 484T141 423Q141 360 163 325T223 289ZM195 -56L149 -20L674 663L721 628L195 -56ZM659 -6Q587 -6 545 43T502 174Q502 230 522 273T579 340T666 364Q715 364 751 342T806 280T825 185Q825 128 805 85T748 18T659 -6ZM663 42Q702 42 724 78T747 180Q747
243 725 278T660 313Q629 313 606 295Q594 266 588 237T581 176Q581 113 603 78T663 42Z" />
<glyph unicode="&amp;" horiz-adv-x="655" d="M516 0L160 362Q115 409 98 441T80 513Q80 584 130 624T274 670T496 647L476 570Q390 588 314 591T169 581L190 613Q171 572 168 542T178 483T225 422L601 39V0H516ZM255 -11Q185 -11 132 11T50 73T20 167Q20 230
60 280T176 364L208 344Q158 305 134 268T109 188Q109 148 132 119T193 74T276 57T368 69T453 115Q470 174 468 239T441 371L506 368Q533 286 527 217T486 96T393 17T255 -11ZM520 0V76L656 41V0H520ZM480 333L386 367V409H621V371Q582 360 545 350T480 333ZM448
465L390 647H496L492 465H448Z" />
<glyph unicode="&apos;" horiz-adv-x="244" d="M94 455L72 676Q85 679 97 680T122 681Q135 681 147 680T172 676L150 455H94Z" />
<glyph unicode="(" horiz-adv-x="325" d="M293 -204Q179 -120 117 3T54 273Q54 419 116 543T293 750L321 723Q235 636 191 522T146 273Q146 139 190 25T321 -177L293 -204Z" />
<glyph unicode=")" horiz-adv-x="325" d="M31 751Q146 668 208 545T270 275Q270 128 208 5T31 -202L4 -176Q90 -88 134 26T179 275Q179 409 135 523T4 725L31 751Z" />
<glyph unicode="*" horiz-adv-x="389" d="M191 549L95 592L67 626Q79 645 96 663L136 643L202 560L191 549ZM89 453Q82 462 76 471T62 492L92 524L192 561L201 548L130 471L89 453ZM214 408L194 447L188 552L204 557L255 465L259 421Q248 417 237 414T214 408ZM298
519L196 546V563L300 583L343 572Q345 550 342 526L298 519ZM204 552L189 558L201 662L223 700Q235 697 246 693T268 684L261 640L204 552Z" />
<glyph unicode="+" horiz-adv-x="528" d="M228 61V508H301V61H228ZM41 248V321H488V248H41Z" />
<glyph unicode="," horiz-adv-x="277" d="M87 -98L112 63L214 52Q198 12 176 -26T126 -104L87 -98ZM124 3L82 86Q102 104 124 115T170 133Q186 116 197 97T214 52L124 3Z" />
<glyph unicode="-" horiz-adv-x="315" d="M39 301L269 329L277 257L47 228L39 301Z" />
<glyph unicode="." horiz-adv-x="279" d="M122 -3Q104 12 91 35T72 83Q89 100 111 113T158 131Q177 115 190 92T207 46Q192 27 169 14T122 -3Z" />
<glyph unicode="/" horiz-adv-x="333" d="M41 -201L-13 -183L292 749L347 733L41 -201Z" />
<glyph unicode="0" horiz-adv-x="627" d="M307 -9Q232 -9 177 29T91 135T61 297Q61 393 93 465T183 577T317 618Q393 618 449 580T536 474T567 314Q567 217 535 145T445 32T307 -9ZM313 60Q357 60 389 89T440 175T458 307Q458 382 441 435T390 516T309 545Q284
545 259 536T215 510Q193 460 181 407T169 299Q169 225 186 171T236 89T313 60Z" />
<glyph unicode="1" horiz-adv-x="409" d="M30 0V36Q63 45 96 51T163 61L172 533H36V568L212 616H275V60L403 40V0H30Z" />
<glyph unicode="2" horiz-adv-x="598" d="M72 0L73 71Q73 114 96 151T157 222T237 285T316 346T376 409T400 477Q400 502 391 522T358 561L415 521Q350 535 287 535Q241 535 197 530T107 515L90 594Q145 607 194 613T285 619Q389 619 446 583T504 478Q504 433
481 395T420 323T341 259T262 198T200 137T176 70L175 0H72ZM113 0V70L497 81L498 0H113ZM424 0L484 209H525L527 0H424ZM93 380L90 594L189 595L134 380H93Z" />
<glyph unicode="3" horiz-adv-x="582" d="M81 20L104 90Q151 78 190 72T261 66Q330 66 368 93T407 172Q407 221 374 249T280 277H207V350H263Q303 350 332 363T379 400T396 457Q396 480 388 499T365 535Q329 544 280 544Q243 544 202 539T117 523L94 592Q146 607
194 614T284 621Q351 621 400 604T475 553T502 474Q502 421 468 380T369 320Q441 304 478 266T516 166Q516 110 485 71T399 11T269 -10Q227 -10 180 -3T81 20ZM86 206H128L185 19L81 20L86 206ZM99 408L94 592L198 593L141 408H99Z" />
<glyph unicode="4" horiz-adv-x="559" d="M197 0V33Q224 42 249 48T301 58L310 547L331 537L75 194L61 228H526V166H28L16 215L310 609H405V57L499 37V0H197Z" />
<glyph unicode="5" horiz-adv-x="600" d="M278 -10Q235 -10 188 -3T92 19L109 92Q159 80 202 73T283 66Q347 66 404 85Q417 107 423 128T429 169Q429 219 397 250T304 282H109L147 357H315Q418 357 474 313T530 185Q530 94 463 42T278 -10ZM195 18L92 19L97 198H138L195
18ZM109 282V609H188L184 318L109 282ZM478 530L147 535L109 609H478V530ZM458 418L400 609H502L499 418H458Z" />
<glyph unicode="6" horiz-adv-x="592" d="M297 -9Q179 -9 123 62T67 283Q67 454 140 537T361 621Q391 621 425 617T496 606L471 524Q402 547 319 547Q284 547 248 540T176 520L222 542Q196 497 182 428T168 280Q168 166 199 116T302 65Q356 65 387 95T418 182Q418
234 389 259T300 284H109V356H313Q412 356 465 312T518 184Q518 95 459 43T297 -9ZM452 423L398 606H496L492 423H452Z" />
<glyph unicode="7" horiz-adv-x="511" d="M43 383L40 609H138L86 383H43ZM64 523V609H444V531L64 523ZM490 575L235 0H144L417 609H490V575Z" />
<glyph unicode="8" horiz-adv-x="585" d="M287 -11Q222 -11 172 9T92 66T63 151Q63 209 107 254T229 325L251 301Q200 271 175 239T150 166Q150 116 191 88T302 59Q337 59 380 67Q404 81 418 101T432 142Q432 171 407 193T341 233T256 272T170 316T105 375T79
455Q79 503 107 541T186 601T300 623Q360 623 405 604T477 552T504 473Q504 415 462 368T343 293L321 317Q371 351 394 385T418 458Q418 505 385 529T293 553Q276 553 258 552T220 546Q199 533 187 514T174 474Q174 442 199 419T265 377T349 337T434 293T499 237T525
160Q525 111 494 73T409 12T287 -11Z" />
<glyph unicode="9" horiz-adv-x="591" d="M293 621Q411 621 467 550T523 329Q523 159 451 75T230 -9Q199 -9 166 -6T95 5L120 87Q190 66 274 66Q345 66 415 91L369 70Q395 115 409 184T424 332Q424 446 392 496T290 547Q234 547 204 516T173 430Q173 377 201 353T291
328H482V256H278Q178 256 125 300T72 427Q72 517 131 569T293 621ZM139 188L192 5H95L98 188H139Z" />
<glyph unicode=":" horiz-adv-x="282" d="M130 -3Q112 12 99 35T80 83Q97 100 119 113T166 131Q185 115 198 92T215 46Q200 27 177 14T130 -3ZM130 269Q112 284 99 307T80 355Q97 372 119 385T166 403Q185 387 198 364T215 318Q200 299 177 286T130 269Z" />
<glyph unicode=";" horiz-adv-x="283" d="M97 -98L122 63L224 52Q208 12 186 -26T136 -104L97 -98ZM134 3L92 86Q112 104 134 115T180 133Q196 116 207 97T224 52L134 3ZM132 266Q114 281 101 304T82 352Q99 369 121 382T168 400Q187 384 200 361T217 315Q202
296 179 283T132 266Z" />
<glyph unicode="&lt;" horiz-adv-x="467" d="M407 135L373 72L32 267V302L373 497L407 435L132 285L407 135Z" />
<glyph unicode="=" horiz-adv-x="637" d="M114 334V407H521V334H114ZM114 163V236H521V163H114Z" />
<glyph unicode="&gt;" horiz-adv-x="471" d="M64 434L97 497L439 302V267L97 72L64 135L339 285L64 434Z" />
<glyph unicode="?" horiz-adv-x="443" d="M222 670Q323 670 380 630T438 520Q438 478 421 449T377 397T323 355T275 314T249 264L239 212H174L173 274Q173 307 189 331T230 375T278 414T319 457T336 510Q336 549 303 570T210 591Q151 591 72 570L49 643Q93 656
136 663T222 670ZM150 643L89 450H49V643H150ZM221 131Q239 117 252 95T271 46Q253 28 231 15T184 -3Q165 15 153 37T136 83Q152 102 175 115T221 131Z" />
<glyph unicode="@" horiz-adv-x="868" d="M772 -139Q655 -189 545 -200T339 -187T171 -108T59 29T18 217Q18 314 53 396T150 539T296 633T477 667Q561 667 630 642T750 572T829 465T858 331Q858 266 834 210T769 111T672 44T554 20Q516 20 496 31T464 69L511 231L502
235L558 471H641L545 45L515 68Q578 58 633 73T731 124T797 212T821 327Q821 414 778 482T658 591T478 631Q389 631 312 600T177 514T87 383T54 219Q54 122 91 47T196 -79T352 -151T545 -163T759 -107L772 -139ZM350 21Q285 15 249 58T213 185Q213 246 230 299T278
392T347 456T432 479Q474 479 506 459T550 404L546 369Q517 395 479 407T392 421L432 426Q395 412 366 375T320 290T301 192T315 98L293 121Q332 96 376 91L351 80Q387 108 418 144T477 231T534 348L553 338Q505 217 455 139T350 21Z" />
<glyph unicode="A" horiz-adv-x="725" d="M645 58Q662 53 679 48T714 38V0H425V37L523 59L333 623H361L165 63Q194 58 222 52T279 38V0H11V37L80 63L301 661H426L645 58ZM182 207V272H535V207H182Z" />
<glyph unicode="B" horiz-adv-x="714" d="M477 343Q560 328 604 286T649 180Q649 96 583 48T399 0H42V36Q58 44 82 50T144 61L154 598L42 622V661H409Q507 661 564 620T621 508Q621 451 582 407T477 343ZM259 23L213 70H439Q485 82 510 111T536 183Q536 237 497
268T391 300H248V370H407Q508 410 508 488Q508 536 475 563T383 591H213L259 637V23Z" />
<glyph unicode="C" horiz-adv-x="684" d="M389 -9Q233 -9 149 78T64 327Q64 435 105 512T223 630T406 672Q447 672 493 666T588 647L563 563Q518 576 474 583T384 591Q340 591 296 582T210 555L253 588Q216 529 197 465T178 325Q178 200 235 134T399 68Q433 68
472 76T557 100L588 19Q476 -9 389 -9ZM477 18L544 224H588V19L477 18ZM544 444L478 648L588 647V444H544Z" />
<glyph unicode="D" horiz-adv-x="765" d="M411 661Q501 661 566 622T666 511T702 340Q702 237 664 161T557 43T394 0H42V36Q64 44 89 50T144 61L154 598L42 622V661H411ZM450 71Q519 102 553 166T588 329Q588 401 573 451T531 531T470 576T395 590H213L259 636V25L213
71H450Z" />
<glyph unicode="E" horiz-adv-x="715" d="M581 225H622V0H42V36Q68 45 93 51T144 61L154 598L42 622V661H613V456H571L534 591H213L259 637V373H427L458 457H495V219H458L426 304H259V24L213 70H542L581 225Z" />
<glyph unicode="F" horiz-adv-x="639" d="M593 661V454H552L514 591H213L259 637V354H414L445 437H482V200H445L413 284H259V60L393 40V0H42V36Q68 45 93 51T144 61L154 598L42 622V661H593Z" />
<glyph unicode="G" horiz-adv-x="739" d="M405 -9Q241 -9 152 78T62 327Q62 435 105 512T230 630T425 672Q466 672 514 666T611 647L578 563Q532 576 485 583T388 590Q337 590 286 581T187 552L261 588Q220 529 199 464T177 325Q177 199 239 133T414 66Q451 66
492 73T581 96L611 19Q554 5 502 -2T405 -9ZM500 19L505 273L375 296V336H696V300Q678 292 657 286T611 275V19H500ZM568 445L501 648L611 647V445H568Z" />
<glyph unicode="H" horiz-adv-x="829" d="M468 0V35Q493 44 518 51T566 61L577 598L468 622V661H784V625Q761 617 735 611T681 600V60L784 40V0H468ZM42 0V36Q68 45 93 51T144 61L154 598L42 622V661H358V625Q335 617 310 611T259 600V60L358 40V0H42ZM206 299V370H628V299H206Z"
/>
<glyph unicode="I" horiz-adv-x="406" d="M42 0V36Q68 45 93 51T144 61L154 598L42 622V661H361V625Q338 617 313 611T259 600V60L361 40V0H42Z" />
<glyph unicode="J" horiz-adv-x="529" d="M48 1L59 94Q92 81 121 74T174 67Q209 67 234 75T276 99T306 143L294 83L300 598L151 622V661H502V625Q482 618 459 611T406 600V223Q406 -10 160 -10Q134 -10 106 -7T48 1ZM48 1V231H88L150 1H48Z" />
<glyph unicode="K" horiz-adv-x="777" d="M42 0V36Q68 45 93 51T144 61L154 598L42 622V661H361V625Q338 617 313 611T259 600V60L361 40V0H42ZM439 0V35Q484 53 529 64T620 79L751 40V0H439ZM583 582L445 620V661H731V627Q695 609 658 598T583 582ZM380 321L384
394L685 43V10H559L287 333L576 650H660L661 623L380 321Z" />
<glyph unicode="L" horiz-adv-x="621" d="M533 272H573V0H42V36Q68 45 93 51T144 61L154 598L42 622V661H379V625Q353 617 323 611T259 600V70H491L533 272Z" />
<glyph unicode="M" horiz-adv-x="988" d="M844 60L950 40V0H628V36Q654 45 680 51T732 61L734 622L748 619L506 0H446L215 607L230 610L222 60L341 40V0H38V36Q64 45 89 51T141 61L161 598L44 622V661H302L502 125H475L686 661H942V625Q919 617 892 611T836 600L844 60Z" />
<glyph unicode="N" horiz-adv-x="814" d="M494 661H786V625Q760 616 736 610T684 600L683 0H568L200 567L225 574V60L345 40V0H43V36Q68 45 93 51T143 61L153 598L42 622V661H269L636 96L613 89L603 601L494 622V661Z" />
<glyph unicode="O" horiz-adv-x="743" d="M363 -10Q273 -10 206 31T101 146T64 322Q64 425 104 503T215 626T377 671Q468 671 536 630T642 514T680 341Q680 236 641 157T530 34T363 -10ZM372 62Q430 62 473 95T541 189T565 333Q565 415 542 473T474 562T368 594Q328
594 287 579T210 534L251 582Q178 462 178 324Q178 244 202 185T269 94T372 62Z" />
<glyph unicode="P" horiz-adv-x="661" d="M404 661Q472 661 520 638T594 571T621 468Q621 404 590 356T504 280T374 253H203V322H433Q472 350 490 383T508 461Q508 525 474 558T377 591H259V60L395 40V0H42V36Q59 45 84 51T144 61L154 598L42 622V661H404Z" />
<glyph unicode="Q" horiz-adv-x="749" d="M363 -9Q272 -9 205 31T100 146T63 322Q63 426 102 504T212 627T376 671Q468 671 536 630T642 515T680 341Q680 236 641 158T530 35T363 -9ZM686 -137L362 2L390 40Q443 32 493 21T602 -9L765 -60Q746 -82 728 -100T686
-137ZM371 63Q429 63 472 95T540 189T565 334Q565 415 541 473T473 563T367 594Q335 594 302 585T238 555Q207 501 192 444T177 325Q177 245 201 186T268 95T371 63Z" />
<glyph unicode="R" horiz-adv-x="734" d="M620 62L714 40V0H515L483 182Q474 238 450 259T375 281H208V350H420Q470 375 492 406T515 477Q515 530 482 560T390 591H259V60L362 40V0H42V36Q58 44 83 50T144 61L154 598L42 622V661H411Q510 661 569 617T628 498Q628
436 588 387T480 319Q530 306 557 273T597 178L620 62Z" />
<glyph unicode="S" horiz-adv-x="646" d="M287 -11Q237 -11 184 -3T78 21L124 95Q170 81 220 75T323 68Q354 68 385 70T448 77L405 65Q421 72 435 86T458 117T468 153Q468 183 441 206T370 250T279 292T188 341T118 405T91 493Q91 548 124 587T220 648T366 670Q413
670 459 664T550 645L519 568Q473 580 425 586T326 593Q295 593 265 590T205 582L253 595Q228 580 213 559T198 513Q198 480 225 455T295 409T386 366T477 318T548 257T575 172Q575 117 539 76T438 12T287 -11ZM186 19L78 21L83 220H127L186 19ZM499 453L443 647L550
645L544 453H499Z" />
<glyph unicode="T" horiz-adv-x="713" d="M662 661V403H621L581 591H410V62L543 40V0H162V36Q196 45 229 52T295 63L306 591H133L92 403H51V661H662Z" />
<glyph unicode="U" horiz-adv-x="776" d="M388 -11Q262 -11 194 46T126 208L134 598L21 622V661H338V625Q318 617 295 611T239 600V203Q239 136 280 101T401 65Q457 65 496 82T564 137L570 598L464 622V661H753V625Q731 617 706 611T650 600V219Q650 109 581 49T388 -11Z" />
<glyph unicode="V" horiz-adv-x="724" d="M300 0L64 650H190L389 52H368L575 650H664L425 0H300ZM153 584Q117 590 82 600T11 624V661H300V624L153 584ZM620 584Q576 590 533 600T447 624V661H714V624L620 584Z" />
<glyph unicode="W" horiz-adv-x="1054" d="M658 0L463 650H567L744 52H724L905 650H992L779 0H658ZM270 0L60 650H184L358 52H338L505 608L558 537L392 0H270ZM148 584Q113 590 79 600T12 624V661H293V624L148 584ZM544 584Q508 590 473 600T403 624V661H674V624L544
584ZM948 584Q906 590 865 600T784 624V661H1042V624L948 584Z" />
<glyph unicode="X" horiz-adv-x="784" d="M96 10V45L340 378H454L690 43V10H571L358 323H392L172 10H96ZM337 325L125 622V650H248L433 381H401L588 650H669V622L452 325H337ZM430 0V35Q474 53 520 64T613 79L757 40V0H430ZM23 0V35Q59 53 95 64T169 79L315 40V0H23ZM380
661V627Q335 609 288 598T192 582L55 621V661H380ZM740 661V627Q704 609 667 598T591 582L454 621V661H740Z" />
<glyph unicode="Y" horiz-adv-x="703" d="M319 207L79 622V650H198L388 301H353L547 650H623L624 622L377 207H319ZM171 0V36Q201 45 230 51T289 61L294 293H404V60L524 40V0H171ZM146 582L10 621V661H334V627Q289 609 242 598T146 582ZM545 582L408 621V661H694V627Q658
609 621 598T545 582Z" />
<glyph unicode="Z" horiz-adv-x="683" d="M61 0V38L464 596L162 589L126 440H81L79 661H612V623L210 65L532 74L566 223H610L614 0H61Z" />
<glyph unicode="[" horiz-adv-x="374" d="M117 -195V741H354V703L151 675L203 739V-193L151 -130L354 -158V-195H117Z" />
<glyph unicode="\" horiz-adv-x="333" d="M292 -201L-13 733L41 750L347 -183L292 -201Z" />
<glyph unicode="]" horiz-adv-x="374" d="M245 741V-194H8V-156L211 -128L159 -192V740L211 676L8 705V741H245Z" />
<glyph unicode="^" horiz-adv-x="437" d="M69 224L6 257L200 599H236L431 257L368 224L219 499L69 224Z" />
<glyph unicode="_" horiz-adv-x="635" d="M94 -138H541V-211H94V-138Z" />
<glyph unicode="`" horiz-adv-x="301" d="M242 564Q187 588 134 615T29 675L67 746H82L262 598L242 564Z" />
<glyph unicode="a" horiz-adv-x="535" d="M428 -7Q395 -7 366 17T326 89L338 384Q270 435 170 435Q153 435 135 433T101 427L161 457L142 308Q99 313 78 330T56 376Q56 411 82 439T151 485T247 502Q303 502 351 480T434 418V82L528 89Q525 59 511 38T475 5T428
-7ZM210 -11Q135 -10 91 27T46 125Q46 153 58 174T104 214T198 251T356 296V238L131 199L165 214Q160 199 158 183T155 153Q155 113 173 92T229 71Q256 71 285 81T347 113V98Q318 65 286 38T210 -11Z" />
<glyph unicode="b" horiz-adv-x="556" d="M80 27L121 97Q166 80 201 72T263 63Q334 63 372 109T410 240Q410 286 399 328T364 405L416 357Q351 410 285 410Q233 410 180 371L179 395Q205 428 233 453T293 501Q298 501 302 501T311 502Q373 502 418 471T488 384T513
256Q513 173 482 114T394 23T259 -9Q219 -9 174 -1T80 27ZM80 27L92 625L38 705Q74 725 111 737T188 753V50L80 27Z" />
<glyph unicode="c" horiz-adv-x="466" d="M248 -9Q187 -9 141 22T69 110T43 242Q43 323 72 381T154 470T277 502Q311 502 345 495T412 474L397 396Q324 427 241 427Q216 427 192 421T146 401L192 439Q170 397 159 351T148 258Q148 199 166 158T218 95T297 73Q324
73 354 81T417 106L425 87Q352 -9 248 -9ZM370 321L319 474H412L409 321H370Z" />
<glyph unicode="d" horiz-adv-x="577" d="M244 -9Q184 -9 139 21T68 107T43 236Q43 362 112 432T299 502Q332 502 368 497T443 478L428 389Q344 430 268 430Q236 430 206 423T147 399L189 427Q168 390 157 344T146 246Q146 192 160 156T202 101T266 82Q290 82
317 91T374 121V97Q350 68 322 41T260 -8Q256 -8 252 -8T244 -9ZM472 -7Q447 -7 424 5T385 43T365 105L375 625L322 705Q355 724 391 736T471 753V77L564 85Q560 54 546 34T513 3T472 -7ZM411 763L410 764H411V763Z" />
<glyph unicode="e" horiz-adv-x="506" d="M256 -9Q191 -9 143 22T69 109T42 240Q42 317 70 376T149 468T270 502Q326 502 368 479T433 414T456 316L453 250Q392 239 338 233T227 223T104 216L105 275L359 277L361 319Q361 371 334 401T259 431Q239 431 218 425T177
409Q159 373 150 334T140 256Q140 167 182 120T301 72Q366 72 450 108L457 88Q414 40 363 16T256 -9Z" />
<glyph unicode="f" horiz-adv-x="354" d="M31 431V451Q50 466 70 476T115 490Q118 553 135 601T181 683T250 734T336 752Q343 752 350 752T366 750V657Q346 660 327 661T289 662Q273 662 257 661T225 657Q217 635 214 592T211 490H352L347 431H31ZM214 463V54L308
34V0H41V32Q54 39 70 45T107 57L115 463H214Z" />
<glyph unicode="g" horiz-adv-x="554" d="M250 -208Q146 -208 87 -169T25 -58Q51 -25 86 -1T166 36H182Q150 8 138 -13T125 -51Q125 -90 162 -112T268 -134Q340 -134 383 -109T426 -40Q426 -25 420 -9T402 21H151Q121 39 106 63T91 110Q91 138 112 163T168 203L166
109H405Q439 109 467 92T511 45T528 -23Q528 -77 493 -119T395 -184T250 -208ZM262 172Q160 172 107 213T53 330Q53 384 79 423T155 482T277 503Q379 503 433 462T487 344Q487 291 461 252T384 193T262 172ZM267 236Q323 236 354 264T386 341Q386 387 355 411T269
436Q249 436 226 433T181 424Q169 399 162 375T155 332Q155 288 185 262T267 236ZM417 449Q403 469 396 489T388 525Q388 562 413 583T484 605Q499 605 516 602T554 592L545 525H440L428 449H417Z" />
<glyph unicode="h" horiz-adv-x="591" d="M28 0V32Q40 39 55 45T91 57L103 625L46 704Q81 724 118 736T199 753V54L266 34V0H28ZM331 0V32Q343 39 358 45T393 57L404 371L501 419V54L569 34V0H331ZM191 370L189 391Q216 426 246 453T311 500Q318 501 325 501T339
502Q387 502 427 482T501 419L404 371Q355 411 300 411Q246 411 191 370Z" />
<glyph unicode="i" horiz-adv-x="299" d="M42 0V32Q56 40 71 46T105 57L115 382L61 455Q95 475 133 487T213 504V54L280 34V0H42ZM178 732Q198 714 211 690T229 641Q213 621 189 607T139 589Q119 605 105 629T86 680Q104 700 128 714T178 732Z" />
<glyph unicode="j" horiz-adv-x="278" d="M17 -201L7 -179L92 -58L103 382L48 455Q82 475 120 487T200 504V12Q200 -66 152 -119T17 -201ZM166 732Q186 714 199 690T217 641Q201 621 177 607T127 589Q107 605 93 629T74 680Q92 700 116 714T166 732Z" />
<glyph unicode="k" horiz-adv-x="542" d="M28 0V32Q41 39 56 45T91 57L103 625L47 704Q81 724 119 736T199 753V54L266 34V0H28ZM418 -8L218 258L410 482H485V469L290 243L292 315L532 17Q505 8 477 2T418 -8ZM418 415Q388 421 362 431T312 457V492H523V457L418 415Z" />
<glyph unicode="l" horiz-adv-x="294" d="M28 0V32Q40 39 55 45T91 57L103 625L46 704Q81 724 118 736T199 753V54L266 34V0H28Z" />
<glyph unicode="m" horiz-adv-x="899" d="M33 0V32Q46 39 60 45T96 57L106 382L52 455Q119 494 194 504L204 392V54L271 34V0H33ZM336 0V32Q348 39 363 45T398 57L409 371L513 407L506 389V54L574 34V0H336ZM409 371Q360 411 305 411Q251 411 197 370L194 391Q221
426 251 453T316 500Q323 501 330 501T344 502Q395 502 437 479T513 407L409 371ZM639 0V32Q650 39 665 45T701 57L711 371L809 419V54L876 34V0H639ZM711 371Q663 411 608 411Q554 411 499 370L497 391Q524 426 554 453T619 500Q626 501 633 501T647 502Q695 502
735 482T809 419L711 371Z" />
<glyph unicode="n" horiz-adv-x="596" d="M33 0V32Q46 39 60 45T96 57L106 382L52 455Q119 494 194 504L204 392V54L271 34V0H33ZM336 0V32Q348 39 363 45T398 57L409 371L506 419V54L574 34V0H336ZM197 370L194 391Q221 426 251 453T316 500Q323 501 330 501T344
502Q393 502 433 482T506 419L409 371Q360 411 305 411Q251 411 197 370Z" />
<glyph unicode="o" horiz-adv-x="540" d="M262 -10Q195 -10 146 20T70 107T43 239Q43 319 71 378T152 469T274 502Q343 502 393 472T470 386T498 255Q498 174 469 115T387 23T262 -10ZM269 57Q307 57 334 78T376 143T391 248Q391 308 377 348T334 410T266 431Q240
431 209 422T135 393L195 435Q172 391 161 345T149 244Q149 183 164 142T206 79T269 57Z" />
<glyph unicode="p" horiz-adv-x="560" d="M264 -9Q229 -9 189 -2T107 19L126 97Q171 80 206 72T268 63Q339 63 377 109T415 240Q415 286 404 328T369 405L421 357Q356 410 290 410Q238 410 185 371L184 395Q210 428 238 453T298 501Q303 501 307 501T316 502Q378
502 423 471T493 384T518 256Q518 173 487 114T399 23T264 -9ZM23 -196V-164Q36 -157 50 -150T85 -138L95 382L41 455Q76 474 111 486T183 504L193 392V-141L276 -161V-196H23Z" />
<glyph unicode="q" horiz-adv-x="551" d="M244 -9Q184 -9 139 21T68 107T43 236Q43 362 112 432T299 502Q332 502 368 497T443 478L428 389Q344 430 268 430Q235 430 206 423T147 399L189 427Q168 390 157 344T146 246Q146 192 160 156T202 101T266 82Q290 82
317 91T374 121V97Q350 68 322 41T260 -8Q256 -8 252 -8T244 -9ZM272 -196V-164Q292 -155 313 -149T358 -138L371 469L466 504V-141L528 -161V-196H272Z" />
<glyph unicode="r" horiz-adv-x="404" d="M381 390Q284 401 195 362V380Q222 416 251 444T314 496Q334 497 352 493T386 478L381 390ZM33 0V32Q46 40 61 46T96 57L106 382L52 455Q119 494 194 504L204 380V58L312 34V0H33Z" />
<glyph unicode="s" horiz-adv-x="494" d="M224 -7Q187 -7 145 -1T58 18L99 94Q145 80 188 72T274 64Q290 64 306 65T337 70L303 49Q321 60 334 77T347 115Q347 136 327 151T275 181T208 212T140 248T88 296T67 364Q67 430 124 466T277 502Q310 502 347 498T423
483L395 404Q351 417 309 424T229 431Q213 431 199 430T166 427L196 442Q177 432 169 416T161 383Q161 361 181 345T234 313T301 283T369 247T421 199T442 133Q442 67 382 30T224 -7ZM58 18L62 173H108L159 19L58 18ZM377 337L323 485L423 483L421 337H377Z" />
<glyph unicode="t" horiz-adv-x="375" d="M196 584V490H358L352 431H196V77L357 80Q344 51 322 31T271 1T213 -10Q173 -10 139 7T87 61L100 431H26V452Q61 491 103 524T196 584Z" />
<glyph unicode="u" horiz-adv-x="595" d="M489 77L583 85Q579 54 565 34T531 3T490 -7Q465 -7 442 5T403 43T383 105L391 382L337 455Q410 497 489 504V77ZM272 -7Q264 -8 257 -8T243 -9Q193 -9 153 12T80 77L168 129Q222 83 284 83Q337 83 391 122L393 102Q367
67 337 40T272 -7ZM80 77L90 382L34 455Q112 497 187 504V91L80 77Z" />
<glyph unicode="v" horiz-adv-x="503" d="M199 -5L25 482H142L281 47H259L404 482H482L332 67Q325 45 318 32T299 11T263 0T199 -5ZM105 416Q75 422 47 432T-7 457V492H216V457L105 416ZM447 416Q376 427 311 457V492H509V457L447 416Z" />
<glyph unicode="w" horiz-adv-x="787" d="M485 -5L314 482H426L565 47H539L686 482H767L616 67Q608 45 602 32T583 11T548 0T485 -5ZM199 -5L25 482H142L282 47H257L375 403L415 308L329 67Q322 44 315 31T296 10T260 0T199 -5ZM105 416Q75 422 47 432T-7 457V492H216V457L105
416ZM391 416Q363 422 335 432T282 457V492H499V457L391 416ZM731 416Q695 421 661 431T595 457V492H793V457L731 416Z" />
<glyph unicode="x" horiz-adv-x="541" d="M42 10V38L224 282H320L493 41V10H396L238 239H271L109 10H42ZM9 0V33Q52 62 106 72L193 33V0H9ZM307 0V33Q339 49 371 59T436 73L534 33V0H307ZM136 420Q104 425 77 435T23 460V492H245V460L136 420ZM221 241L66 456V482H167L302
285H270L407 482H476L477 456L318 241H221ZM441 420Q412 426 385 435T333 460V492H517V460L441 420Z" />
<glyph unicode="y" horiz-adv-x="504" d="M-29 -183L-23 -110L167 -122Q192 -90 209 -62T240 -1T269 73L404 482H482L329 52Q283 -79 223 -141T79 -204Q55 -204 28 -199T-29 -183ZM193 7L25 482H141L285 27L193 7ZM106 416Q76 421 48 431T-7 457V492H216V457L106
416ZM447 416Q412 421 378 431T311 457V492H509V457L447 416Z" />
<glyph unicode="z" horiz-adv-x="515" d="M41 0V33L329 431L127 428L97 319H60L58 492H461V460L173 60L395 64L424 178H462L465 0H41Z" />
<glyph unicode="{" horiz-adv-x="367" d="M19 262V307H40Q93 307 122 333T152 415V583Q152 635 167 669T220 722T327 747V697Q285 690 267 675T245 635T239 574L236 423Q234 354 197 315T87 268L19 262ZM327 -199Q258 -193 220 -175T167 -122T152 -35V132Q152
185 124 213T40 241H19V286L88 280Q158 273 196 233T236 121L239 -26Q240 -62 244 -86T266 -126T327 -150V-199Z" />
<glyph unicode="|" horiz-adv-x="228" d="M85 -196V741H143V-196H85Z" />
<glyph unicode="}" horiz-adv-x="367" d="M348 286V241H327Q274 241 245 215T215 132V-35Q215 -86 200 -120T147 -174T40 -199V-150Q82 -142 100 -127T123 -88T128 -26L131 125Q134 194 170 233T280 280L348 286ZM40 747Q109 742 147 723T200 669T215 583V415Q215
363 243 335T327 307H348V262L279 268Q209 275 172 315T132 427L128 574Q127 609 123 634T101 674T40 697V747Z" />
<glyph unicode="~" horiz-adv-x="590" d="M87 224L68 244Q114 298 140 324T186 354T228 350L406 285L505 348L523 327Q477 273 451 248T406 217T363 221L185 286L87 224Z" />
<glyph unicode="&#xa0;" horiz-adv-x="170" />
<glyph unicode="&#xa1;" horiz-adv-x="288" d="M87 -172L88 -56L116 282H176L190 -56L186 -172Q174 -173 162 -174T136 -176Q124 -176 112 -175T87 -172ZM133 362Q115 377 102 399T83 448Q101 466 124 479T170 496Q189 479 201 457T218 411Q202 392 179 379T133 362Z" />
<glyph unicode="&#xa2;" horiz-adv-x="492" d="M266 -133H209L264 627L321 626L266 -133ZM256 -9Q196 -9 151 22T79 109T53 242Q53 322 82 380T165 470T288 502Q321 502 355 495T422 474L406 396Q349 423 283 424T157 401L201 439Q181 397 170 350T158 258Q158
194 179 152T237 90T322 72T427 105L435 87Q394 38 350 15T256 -9ZM381 321L329 474H422L419 321H381Z" />
<glyph unicode="&#xa3;" horiz-adv-x="622" d="M62 284V303Q86 318 112 328T167 345Q175 425 199 480T264 567T366 611T508 617V524Q460 529 411 529T310 525Q274 479 266 345H462L457 284H62ZM39 0V36Q64 45 90 52T141 64L162 312H264L255 154Q253 110 238 71T195
0H39ZM173 0V76L520 82L521 0H173ZM443 0L502 205H544L546 0H443Z" />
<glyph unicode="&#xa4;" horiz-adv-x="633" d="M315 118Q262 118 220 142T153 209T129 306Q129 359 153 401T219 467T315 492Q369 492 411 468T477 401T502 306Q502 252 478 210T411 143T315 118ZM125 65L76 114L191 228L239 178L125 65ZM316 186Q349 186 376
202T418 245T434 306Q433 339 418 365T376 407T316 423Q282 423 255 408T212 366T197 306Q197 272 213 245T256 202T316 186ZM509 65L395 179L444 227L558 114L509 65ZM189 385L76 496L125 547L239 432L189 385ZM444 383L396 433L509 547L558 496L444 383Z" />
<glyph unicode="&#xa5;" horiz-adv-x="715" d="M102 267V318H608V267H102ZM102 135V185H608V135H102ZM328 214L104 579V609H212L391 297H356L541 609H613V578L382 214H328ZM192 0V33Q220 42 247 47T301 57L306 293H407V56L517 37V0H192ZM170 536L43 571V609H342V578Q301
560 258 550T170 536ZM536 536L410 571V609H673V578Q641 560 607 550T536 536Z" />
<glyph unicode="&#xa6;" horiz-adv-x="228" d="M85 390V741H143V390H85ZM85 -196V156H143V-196H85Z" />
<glyph unicode="&#xa7;" horiz-adv-x="531" d="M225 -201Q183 -201 139 -194T51 -172L89 -105Q205 -139 325 -123Q344 -110 355 -91T367 -53Q367 -27 344 -8T285 28T209 63T132 106T73 166T50 251Q50 307 83 347T179 404L218 359Q183 348 164 323T144 265Q144
231 167 207T226 165T302 128T379 88T438 35T462 -42Q462 -89 432 -125T349 -181T225 -201ZM146 -174L50 -170L54 12L94 8L146 -174ZM307 58L292 94Q338 105 368 137T399 206Q399 238 376 260T317 301T241 337T164 379T105 434T82 512Q82 583 143 624T309 666Q347
666 385 661T462 643L439 575Q381 590 324 593T209 587Q193 576 185 560T176 526Q176 497 199 476T258 438T334 402T411 360T471 303T494 221Q494 178 471 144T406 87T307 58ZM418 466L367 646L462 643L458 466H418Z" />
<glyph unicode="&#xa8;" horiz-adv-x="422" d="M149 722Q167 706 179 685T195 641Q180 624 159 611T114 595Q97 610 85 631T67 677Q83 693 104 705T149 722ZM333 722Q350 706 362 685T379 641Q364 624 343 611T298 595Q280 610 268 631T251 677Q267 693 288 705T333 722Z" />
<glyph unicode="&#xa9;" horiz-adv-x="732" d="M376 129Q282 129 231 181T180 330Q180 428 235 482T387 537Q412 537 440 534T499 522L482 466Q436 479 388 479T292 466Q257 409 257 330Q257 231 313 198T478 201L499 146Q465 137 434 133T376 129ZM425 146L469
271H499V146H425ZM469 398L426 523L499 522V398H469ZM364 -10Q291 -10 229 15T121 87T50 195T24 331Q24 405 49 466T121 574T229 645T364 671Q438 671 500 646T609 574T681 467T707 331Q707 257 681 195T609 87T501 16T364 -10ZM364 27Q452 27 521 66T630 175T670
331Q670 419 630 487T521 594T364 633Q277 633 209 594T102 487T62 331Q62 244 101 175T208 67T364 27Z" />
<glyph unicode="&#xaa;" horiz-adv-x="369" d="M299 409Q277 409 257 424T230 470L238 648Q217 662 189 670T127 679Q115 679 105 678T82 674L125 695L111 601Q83 604 68 615T52 645Q52 666 69 684T116 712T180 723Q257 723 305 671V468L365 474Q363 445 344 427T299
409ZM156 407Q106 408 76 431T46 492Q46 514 61 530T120 561T250 598V560L104 538L128 548Q125 539 124 529T122 511Q122 487 133 475T169 462Q186 462 205 467T244 485V477Q224 454 203 438T156 407Z" />
<glyph unicode="&#xab;" horiz-adv-x="442" d="M182 41L13 236V252L182 448L220 419L105 244L220 68L182 41ZM373 41L204 236V252L373 448L411 419L296 244L411 68L373 41Z" />
<glyph unicode="&#xac;" horiz-adv-x="627" d="M512 341V143H442V268H70V341H512Z" />
<glyph unicode="&#xad;" horiz-adv-x="315" d="M48 301L278 329L286 257L56 228L48 301Z" />
<glyph unicode="&#xae;" horiz-adv-x="614" d="M305 202Q226 202 164 238T66 336T30 479Q30 558 66 620T164 718T305 754Q385 754 448 718T547 620T583 478Q583 399 547 337T448 238T305 202ZM171 352V370Q179 374 188 377T210 382L215 592L171 603V623H270V381L309
372V352H171ZM305 237Q375 237 430 268T517 354T549 479Q549 548 517 602T430 687T305 719Q236 719 182 688T97 602T65 479Q65 409 96 355T182 269T305 237ZM361 352L351 429Q349 448 340 455T312 463H242V499H313Q335 499 349 512T363 545Q363 564 351 575T317
587H242V623H327Q371 623 396 605T421 556Q421 527 400 506T345 480L335 488Q372 484 389 470T411 427L422 352L394 388L454 372V352H361Z" />
<glyph unicode="&#xaf;" horiz-adv-x="438" d="M85 625V695H348V625H85Z" />
<glyph unicode="&#xb0;" horiz-adv-x="423" d="M210 300Q164 300 127 321T68 380T46 465Q46 513 67 550T126 608T210 630Q258 630 295 609T354 550T376 465Q376 418 355 381T296 322T210 300ZM211 349Q261 349 293 382T326 465Q326 515 294 548T211 582Q161 582
129 549T96 465Q96 415 128 382T211 349Z" />
<glyph unicode="&#xb1;" horiz-adv-x="555" d="M74 347V419H481V347H74ZM74 81V153H481V81H74ZM241 212V554H314V212H241Z" />
<glyph unicode="&#xb2;" horiz-adv-x="405" d="M67 375V417Q67 449 87 474T138 522T197 565T247 607T268 652Q268 663 263 675T244 701L281 672Q264 675 245 676T206 678Q178 678 149 675T90 665L78 723Q113 731 143 735T203 739Q269 739 306 717T343 654Q343
622 323 596T273 548T213 505T163 463T142 417V375H67ZM94 375V425L336 432L337 375H94ZM283 375L325 502H357V375H283ZM79 592L78 723L149 725L110 592H79Z" />
<glyph unicode="&#xb3;" horiz-adv-x="392" d="M72 387L88 437Q119 430 144 427T187 423Q227 423 249 437T271 477Q271 504 252 518T199 532H153V583H190Q223 583 244 598T265 640Q265 650 261 660T248 680Q237 683 225 684T198 685Q175 685 149 682T96 672L80
721Q112 730 142 735T201 740Q265 740 303 717T342 651Q342 620 321 597T260 562Q305 553 327 530T350 473Q350 423 307 396T193 369Q166 369 135 373T72 387ZM74 499H106L146 386L72 387L74 499ZM83 611L80 721L154 722L114 611H83Z" />
<glyph unicode="&#xb4;" horiz-adv-x="301" d="M43 564L23 598L203 746H217L256 675Q204 643 151 616T43 564Z" />
<glyph unicode="&#xb5;" horiz-adv-x="610" d="M509 77L604 85Q600 54 586 34T552 3T511 -7Q486 -7 463 5T424 43T403 105L412 382L358 455Q431 497 509 504V77ZM97 -196L110 382L56 455Q132 497 208 504L206 89L188 53L212 -183V-196H97ZM299 -7Q292 -8 286 -9T273
-10Q195 -10 139 53L189 129Q243 83 304 83Q357 83 412 122L414 102Q388 67 360 40T299 -7Z" />
<glyph unicode="&#xb6;" horiz-adv-x="554" d="M256 -122L241 -103L358 64V661H566V625Q541 616 516 610T464 600V154Q464 59 413 -8T256 -122ZM235 234Q128 234 66 291T4 449Q4 548 65 604T235 661V234ZM225 588L235 661H411V588H225Z" />
<glyph unicode="&#xb7;" horiz-adv-x="274" d="M127 210Q109 225 96 248T77 296Q94 313 116 326T163 344Q182 328 195 305T212 259Q197 240 174 227T127 210Z" />
<glyph unicode="&#xb8;" horiz-adv-x="305" d="M56 -218L63 -151Q100 -162 132 -168T200 -177Q206 -173 209 -166T213 -153Q213 -142 204 -134T171 -116T103 -91L130 -34Q208 -52 242 -78T277 -142Q277 -181 247 -204T166 -232T56 -218ZM127 15H168L144 -91H103L127 15Z" />
<glyph unicode="&#xb9;" horiz-adv-x="292" d="M43 375V401Q63 406 83 410T124 417L130 677H45V702L160 736H205V416L284 404V375H43Z" />
<glyph unicode="&#xba;" horiz-adv-x="374" d="M191 407Q123 407 84 448T44 562Q44 636 86 680T199 724Q268 724 308 683T348 572Q348 496 306 452T191 407ZM196 454Q230 454 250 482T270 566Q270 619 250 647T193 675Q175 675 155 669T106 651L150 682Q136 654
129 626T122 565Q122 509 142 482T196 454Z" />
<glyph unicode="&#xbb;" horiz-adv-x="441" d="M268 448L437 253V236L268 41L229 69L344 245L229 420L268 448ZM75 448L243 253V236L75 41L36 69L150 245L36 420L75 448Z" />
<glyph unicode="&#xbc;" horiz-adv-x="765" d="M52 247V273Q72 278 92 282T133 289L139 549H54V574L169 608H214V288L293 276V247H52ZM149 -56L103 -20L628 663L675 628L149 -56ZM521 0V24Q538 29 553 33T585 40L590 314L605 307L449 113L439 138H733V95H416L409
130L591 358H659V39L716 27V0H521Z" />
<glyph unicode="&#xbd;" horiz-adv-x="844" d="M52 247V273Q72 278 92 282T133 289L139 549H54V574L169 608H214V288L293 276V247H52ZM149 -56L103 -20L628 663L675 628L149 -56ZM499 0V42Q499 74 519 99T570 147T629 190T679 232T700 277Q700 288 695 300T676
326L713 297Q696 300 677 301T638 303Q610 303 581 300T522 290L510 348Q545 356 575 360T635 364Q701 364 738 342T775 279Q775 247 755 221T705 173T645 130T595 88T574 42V0H499ZM526 0V50L768 57L769 0H526ZM715 0L757 127H789V0H715ZM511 217L510 348L581
350L542 217H511Z" />
<glyph unicode="&#xbe;" horiz-adv-x="806" d="M82 259L98 309Q129 302 154 299T197 295Q237 295 259 309T281 349Q281 376 262 390T209 404H163V455H200Q233 455 254 470T275 512Q275 522 271 532T258 552Q247 555 235 556T208 557Q185 557 159 554T106 544L90
593Q122 602 152 607T211 612Q275 612 313 589T352 523Q352 492 331 469T270 434Q315 425 337 402T360 345Q360 295 317 268T203 241Q176 241 145 245T82 259ZM84 371H116L156 258L82 259L84 371ZM93 483L90 593L164 594L124 483H93ZM190 -56L144 -20L669 663L716
628L190 -56ZM562 0V24Q579 29 594 33T626 40L631 314L646 307L490 113L480 138H774V95H457L450 130L632 358H700V39L757 27V0H562Z" />
<glyph unicode="&#xbf;" horiz-adv-x="434" d="M231 -177Q130 -177 72 -137T14 -26Q14 15 32 45T76 97T130 139T178 180T205 230L213 282H279L280 220Q280 187 264 163T223 119T175 79T134 37T117 -16Q117 -55 150 -76T243 -97Q302 -97 380 -76L404 -149Q360 -162
317 -169T231 -177ZM303 -150L364 43H404V-149L303 -150ZM231 362Q214 377 201 399T182 448Q200 466 223 479T269 496Q288 479 300 457T317 411Q301 392 278 379T231 362Z" />
<glyph unicode="&#xc0;" horiz-adv-x="725" d="M654 58Q671 53 688 48T723 38V0H434V37L532 59L342 623H370L174 63Q203 58 231 52T288 38V0H20V37L89 63L310 661H435L654 58ZM191 207V272H544V207H191ZM464 730Q409 754 356 781T251 841L289 912H304L484 764L464 730Z" />
<glyph unicode="&#xc1;" horiz-adv-x="725" d="M654 58Q671 53 688 48T723 38V0H434V37L532 59L342 623H370L174 63Q203 58 231 52T288 38V0H20V37L89 63L310 661H435L654 58ZM191 207V272H544V207H191ZM285 730L265 764L445 912H459L498 841Q446 809 393 782T285 730Z" />
<glyph unicode="&#xc2;" horiz-adv-x="725" d="M654 58Q671 53 688 48T723 38V0H434V37L532 59L342 623H370L174 63Q203 58 231 52T288 38V0H20V37L89 63L310 661H435L654 58ZM191 207V272H544V207H191ZM416 907L532 784L495 748L384 832L274 748L237 784L353 907H416Z" />
<glyph unicode="&#xc3;" horiz-adv-x="725" d="M653 58Q670 53 687 48T722 38V0H433V37L531 59L341 623H369L173 63Q202 58 230 52T287 38V0H19V37L88 63L309 661H434L653 58ZM190 207V272H543V207H190ZM226 755L204 774Q230 817 247 840T277 872T300 881T324
878L449 847L512 900L534 880Q502 828 483 805T448 777T415 776L289 808L226 755Z" />
<glyph unicode="&#xc4;" horiz-adv-x="725" d="M654 58Q671 53 688 48T723 38V0H434V37L532 59L342 623H370L174 63Q203 58 231 52T288 38V0H20V37L89 63L310 661H435L654 58ZM191 207V272H544V207H191ZM296 888Q314 872 326 851T342 807Q327 790 306 777T261
761Q244 776 232 797T214 843Q230 859 251 871T296 888ZM480 888Q497 872 509 851T526 807Q511 790 490 777T445 761Q427 776 415 797T398 843Q414 859 435 871T480 888Z" />
<glyph unicode="&#xc5;" horiz-adv-x="725" d="M653 58Q670 53 687 48T722 38V0H433V37L531 59L341 623H369L173 63Q202 58 230 52T287 38V0H19V37L88 63L309 661H434L653 58ZM190 207V272H543V207H190ZM368 726Q339 726 317 739T282 774T269 826Q269 854 282
876T317 912T368 925Q411 925 439 897T467 826Q467 797 454 775T419 739T368 726ZM368 773Q391 773 405 788T420 825Q420 848 406 863T368 878Q346 878 331 863T316 825Q316 804 331 789T368 773Z" />
<glyph unicode="&#xc6;" horiz-adv-x="989" d="M867 225H907V0H409V36L516 61L383 632L410 630L150 59Q177 54 203 49T256 36V0H11V36L64 63L320 600L214 623V661H877V456H837L800 591H445L481 636L635 25L578 70H828L867 225ZM732 222L686 339L732 456H769V222H732ZM188
207L189 272H535V207H188ZM504 306V375H750L749 306H504Z" />
<glyph unicode="&#xc7;" horiz-adv-x="684" d="M399 -9Q243 -9 159 78T74 327Q74 435 115 512T233 630T416 672Q457 672 503 666T598 647L573 563Q528 576 484 583T394 591Q350 591 306 582T220 555L263 588Q226 529 207 465T188 325Q188 200 245 134T409 68Q443
68 482 76T567 100L598 19Q486 -9 399 -9ZM487 18L554 224H598V19L487 18ZM554 444L488 648L598 647V444H554ZM311 -218L318 -151Q355 -162 387 -168T455 -177Q461 -173 464 -166T468 -153Q468 -142 459 -134T426 -116T358 -91L385 -34Q463 -52 497 -78T532 -142Q532
-181 502 -204T421 -232T311 -218ZM382 15H423L399 -91H358L382 15Z" />
<glyph unicode="&#xc8;" horiz-adv-x="715" d="M590 225H631V0H51V36Q77 45 102 51T153 61L163 598L51 622V661H622V456H580L543 591H222L268 637V373H436L467 457H504V219H467L435 304H268V24L222 70H551L590 225ZM470 730Q415 754 362 781T257 841L295 912H310L490
764L470 730Z" />
<glyph unicode="&#xc9;" horiz-adv-x="715" d="M590 225H631V0H51V36Q77 45 102 51T153 61L163 598L51 622V661H622V456H580L543 591H222L268 637V373H436L467 457H504V219H467L435 304H268V24L222 70H551L590 225ZM292 730L272 764L452 912H466L505 841Q453 809
400 782T292 730Z" />
<glyph unicode="&#xca;" horiz-adv-x="715" d="M590 225H631V0H51V36Q77 45 102 51T153 61L163 598L51 622V661H622V456H580L543 591H222L268 637V373H436L467 457H504V219H467L435 304H268V24L222 70H551L590 225ZM422 907L538 784L501 748L390 832L280 748L243
784L359 907H422Z" />
<glyph unicode="&#xcb;" horiz-adv-x="715" d="M590 225H631V0H51V36Q77 45 102 51T153 61L163 598L51 622V661H622V456H580L543 591H222L268 637V373H436L467 457H504V219H467L435 304H268V24L222 70H551L590 225ZM302 888Q320 872 332 851T348 807Q333 790 312
777T267 761Q250 776 238 797T220 843Q236 859 257 871T302 888ZM486 888Q503 872 515 851T532 807Q517 790 496 777T451 761Q433 776 421 797T404 843Q420 859 441 871T486 888Z" />
<glyph unicode="&#xcc;" horiz-adv-x="406" d="M51 0V36Q77 45 102 51T153 61L163 598L51 622V661H370V625Q347 617 322 611T268 600V60L370 40V0H51ZM308 730Q253 754 200 781T95 841L133 912H148L328 764L308 730Z" />
<glyph unicode="&#xcd;" horiz-adv-x="406" d="M51 0V36Q77 45 102 51T153 61L163 598L51 622V661H370V625Q347 617 322 611T268 600V60L370 40V0H51ZM128 730L108 764L288 912H302L341 841Q289 809 236 782T128 730Z" />
<glyph unicode="&#xce;" horiz-adv-x="406" d="M51 0V36Q77 45 102 51T153 61L163 598L51 622V661H370V625Q347 617 322 611T268 600V60L370 40V0H51ZM259 907L375 784L338 748L227 832L117 748L80 784L196 907H259Z" />
<glyph unicode="&#xcf;" horiz-adv-x="406" d="M51 0V36Q77 45 102 51T153 61L163 598L51 622V661H370V625Q347 617 322 611T268 600V60L370 40V0H51ZM139 888Q157 872 169 851T185 807Q170 790 149 777T104 761Q87 776 75 797T57 843Q73 859 94 871T139 888ZM323
888Q340 872 352 851T369 807Q354 790 333 777T288 761Q270 776 258 797T241 843Q257 859 278 871T323 888Z" />
<glyph unicode="&#xd0;" horiz-adv-x="790" d="M445 661Q535 661 600 622T700 511T736 340Q736 237 698 161T591 43T428 0H76V36Q98 44 123 50T178 61L188 598L76 622V661H445ZM484 71Q553 102 587 166T622 329Q622 401 607 451T565 531T504 576T429 590H247L293
636V25L247 71H484ZM78 366H437V307H78V366Z" />
<glyph unicode="&#xd1;" horiz-adv-x="814" d="M503 661H795V625Q769 616 745 610T693 600L692 0H577L209 567L234 574V60L354 40V0H52V36Q77 45 102 51T152 61L162 598L51 622V661H278L645 96L622 89L612 601L503 622V661ZM271 755L249 774Q275 817 292 840T322
872T345 881T369 878L494 847L557 900L579 880Q547 828 528 805T493 777T460 776L334 808L271 755Z" />
<glyph unicode="&#xd2;" horiz-adv-x="743" d="M373 -10Q283 -10 216 31T111 146T74 322Q74 425 114 503T225 626T387 671Q478 671 546 630T652 514T690 341Q690 236 651 157T540 34T373 -10ZM382 62Q440 62 483 95T551 189T575 333Q575 415 552 473T484 562T378
594Q338 594 297 579T220 534L261 582Q188 462 188 324Q188 244 212 185T279 94T382 62ZM475 730Q420 754 367 781T262 841L300 912H315L495 764L475 730Z" />
<glyph unicode="&#xd3;" horiz-adv-x="743" d="M373 -10Q283 -10 216 31T111 146T74 322Q74 425 114 503T225 626T387 671Q478 671 546 630T652 514T690 341Q690 236 651 157T540 34T373 -10ZM382 62Q440 62 483 95T551 189T575 333Q575 415 552 473T484 562T378
594Q338 594 297 579T220 534L261 582Q188 462 188 324Q188 244 212 185T279 94T382 62ZM295 730L275 764L455 912H469L508 841Q456 809 403 782T295 730Z" />
<glyph unicode="&#xd4;" horiz-adv-x="743" d="M373 -10Q283 -10 216 31T111 146T74 322Q74 425 114 503T225 626T387 671Q478 671 546 630T652 514T690 341Q690 236 651 157T540 34T373 -10ZM382 62Q440 62 483 95T551 189T575 333Q575 415 552 473T484 562T378
594Q338 594 297 579T220 534L261 582Q188 462 188 324Q188 244 212 185T279 94T382 62ZM426 907L542 784L505 748L394 832L284 748L247 784L363 907H426Z" />
<glyph unicode="&#xd5;" horiz-adv-x="743" d="M373 -10Q283 -10 216 31T111 146T74 322Q74 425 114 503T225 626T387 671Q478 671 546 630T652 514T690 341Q690 236 651 157T540 34T373 -10ZM382 62Q440 62 483 95T551 189T575 333Q575 415 552 473T484 562T378
594Q338 594 297 579T220 534L261 582Q188 462 188 324Q188 244 212 185T279 94T382 62ZM236 755L214 774Q240 817 257 840T287 872T310 881T334 878L459 847L522 900L544 880Q512 828 493 805T458 777T425 776L299 808L236 755Z" />
<glyph unicode="&#xd6;" horiz-adv-x="743" d="M373 -10Q283 -10 216 31T111 146T74 322Q74 425 114 503T225 626T387 671Q478 671 546 630T652 514T690 341Q690 236 651 157T540 34T373 -10ZM382 62Q440 62 483 95T551 189T575 333Q575 415 552 473T484 562T378
594Q338 594 297 579T220 534L261 582Q188 462 188 324Q188 244 212 185T279 94T382 62ZM306 888Q324 872 336 851T352 807Q337 790 316 777T271 761Q254 776 242 797T224 843Q240 859 261 871T306 888ZM490 888Q507 872 519 851T536 807Q521 790 500 777T455 761Q437
776 425 797T408 843Q424 859 445 871T490 888Z" />
<glyph unicode="&#xd7;" horiz-adv-x="490" d="M113 101L62 153L377 468L429 417L113 101ZM377 101L62 417L113 468L429 153L377 101Z" />
<glyph unicode="&#xd8;" horiz-adv-x="746" d="M268 53L202 -88L148 -65L216 80L268 53ZM365 -10Q275 -10 208 31T103 146T66 322Q66 425 105 503T215 626T379 671Q470 671 538 630T644 514T682 341Q682 236 643 157T532 34T365 -10ZM374 62Q432 62 475 95T543
189T567 333Q567 415 544 473T476 562T371 594Q337 594 304 584T241 555Q180 446 180 324Q180 244 204 185T271 94T374 62ZM466 615L527 743L580 721L520 591L466 615ZM216 80L466 615L520 591L268 53L216 80Z" />
<glyph unicode="&#xd9;" horiz-adv-x="776" d="M397 -11Q271 -11 203 46T135 208L143 598L30 622V661H347V625Q327 617 304 611T248 600V203Q248 136 289 101T410 65Q466 65 505 82T573 137L579 598L473 622V661H762V625Q740 617 715 611T659 600V219Q659 109
590 49T397 -11ZM502 730Q447 754 394 781T289 841L327 912H342L522 764L502 730Z" />
<glyph unicode="&#xda;" horiz-adv-x="776" d="M396 -11Q270 -11 202 46T134 208L142 598L29 622V661H346V625Q326 617 303 611T247 600V203Q247 136 288 101T409 65Q465 65 504 82T572 137L578 598L472 622V661H761V625Q739 617 714 611T658 600V219Q658 109
589 49T396 -11ZM323 730L303 764L483 912H497L536 841Q484 809 431 782T323 730Z" />
<glyph unicode="&#xdb;" horiz-adv-x="776" d="M397 -11Q271 -11 203 46T135 208L143 598L30 622V661H347V625Q327 617 304 611T248 600V203Q248 136 289 101T410 65Q466 65 505 82T573 137L579 598L473 622V661H762V625Q740 617 715 611T659 600V219Q659 109
590 49T397 -11ZM454 907L570 784L533 748L422 832L312 748L275 784L391 907H454Z" />
<glyph unicode="&#xdc;" horiz-adv-x="776" d="M396 -11Q270 -11 202 46T134 208L142 598L29 622V661H346V625Q326 617 303 611T247 600V203Q247 136 288 101T409 65Q465 65 504 82T572 137L578 598L472 622V661H761V625Q739 617 714 611T658 600V219Q658 109
589 49T396 -11ZM333 888Q351 872 363 851T379 807Q364 790 343 777T298 761Q281 776 269 797T251 843Q267 859 288 871T333 888ZM517 888Q534 872 546 851T563 807Q548 790 527 777T482 761Q464 776 452 797T435 843Q451 859 472 871T517 888Z" />
<glyph unicode="&#xdd;" horiz-adv-x="703" d="M328 207L88 622V650H207L397 301H362L556 650H632L633 622L386 207H328ZM180 0V36Q210 45 239 51T298 61L303 293H413V60L533 40V0H180ZM155 582L19 621V661H343V627Q298 609 251 598T155 582ZM554 582L417 621V661H703V627Q667
609 630 598T554 582ZM286 730L266 764L446 912H460L499 841Q447 809 394 782T286 730Z" />
<glyph unicode="&#xde;" horiz-adv-x="660" d="M42 0V36Q68 45 93 51T144 61L154 598L42 622V661H361V627Q338 619 313 612T259 601V59L361 39V0H42ZM204 144V213H438Q477 239 495 270T513 343Q513 403 480 434T382 465H204V533H405Q506 533 564 485T622 350Q622
288 591 242T505 170T375 144H204Z" />
<glyph unicode="&#xdf;" horiz-adv-x="673" d="M298 16L323 81Q368 70 409 66T496 61Q515 61 535 61T577 64L519 57Q536 63 547 80T558 116Q558 138 542 156T499 189T444 222T389 260T346 306T329 369Q329 400 343 422T379 462T422 497T458 534T473 581Q473 624
438 645T338 667Q317 667 293 665T243 658Q228 632 221 578T214 431H32V451Q50 465 70 475T114 490Q121 577 151 634T234 721T361 750Q456 750 511 709T567 600Q567 564 553 538T516 491T473 453T437 418T422 380Q422 359 438 342T480 310T535 279T590 242T632
196T649 133Q649 89 622 58T549 10T444 -7Q410 -7 373 -2T298 16ZM42 0V32Q57 40 72 46T106 57L114 431H214V0H42ZM387 15L298 16L302 167H338L387 15Z" />
<glyph unicode="&#xe0;" horiz-adv-x="531" d="M437 -7Q404 -7 375 17T335 89L347 384Q279 435 179 435Q162 435 144 433T110 427L170 457L151 308Q108 313 87 330T65 376Q65 411 91 439T160 485T256 502Q312 502 360 480T443 418V82L537 89Q534 59 520 38T484
5T437 -7ZM219 -11Q144 -10 100 27T55 125Q55 153 67 174T113 214T207 251T365 296V238L140 199L174 214Q169 199 167 183T164 153Q164 113 182 92T238 71Q265 71 294 81T356 113V98Q327 65 295 38T219 -11ZM365 564Q310 588 257 615T152 675L190 746H205L385 598L365
564Z" />
<glyph unicode="&#xe1;" horiz-adv-x="531" d="M437 -7Q404 -7 375 17T335 89L347 384Q279 435 179 435Q162 435 144 433T110 427L170 457L151 308Q108 313 87 330T65 376Q65 411 91 439T160 485T256 502Q312 502 360 480T443 418V82L537 89Q534 59 520 38T484
5T437 -7ZM219 -11Q144 -10 100 27T55 125Q55 153 67 174T113 214T207 251T365 296V238L140 199L174 214Q169 199 167 183T164 153Q164 113 182 92T238 71Q265 71 294 81T356 113V98Q327 65 295 38T219 -11ZM186 564L166 598L346 746H360L399 675Q347 643 294 616T186
564Z" />
<glyph unicode="&#xe2;" horiz-adv-x="531" d="M437 -7Q404 -7 375 17T335 89L347 384Q279 435 179 435Q162 435 144 433T110 427L170 457L151 308Q108 313 87 330T65 376Q65 411 91 439T160 485T256 502Q312 502 360 480T443 418V82L537 89Q534 59 520 38T484
5T437 -7ZM219 -11Q144 -10 100 27T55 125Q55 153 67 174T113 214T207 251T365 296V238L140 199L174 214Q169 199 167 183T164 153Q164 113 182 92T238 71Q265 71 294 81T356 113V98Q327 65 295 38T219 -11ZM317 741L433 618L396 582L285 666L175 582L138 618L254
741H317Z" />
<glyph unicode="&#xe3;" horiz-adv-x="531" d="M437 -7Q404 -7 375 17T335 89L347 384Q279 435 179 435Q162 435 144 433T110 427L170 457L151 308Q108 313 87 330T65 376Q65 411 91 439T160 485T256 502Q312 502 360 480T443 418V82L537 89Q534 59 520 38T484
5T437 -7ZM219 -11Q144 -10 100 27T55 125Q55 153 67 174T113 214T207 251T365 296V238L140 199L174 214Q169 199 167 183T164 153Q164 113 182 92T238 71Q265 71 294 81T356 113V98Q327 65 295 38T219 -11ZM127 589L105 608Q131 651 148 674T178 706T201 715T225
712L350 681L413 734L435 714Q403 662 384 639T349 611T316 610L190 642L127 589Z" />
<glyph unicode="&#xe4;" horiz-adv-x="531" d="M437 -7Q404 -7 375 17T335 89L347 384Q279 435 179 435Q162 435 144 433T110 427L170 457L151 308Q108 313 87 330T65 376Q65 411 91 439T160 485T256 502Q312 502 360 480T443 418V82L537 89Q534 59 520 38T484
5T437 -7ZM219 -11Q144 -10 100 27T55 125Q55 153 67 174T113 214T207 251T365 296V238L140 199L174 214Q169 199 167 183T164 153Q164 113 182 92T238 71Q265 71 294 81T356 113V98Q327 65 295 38T219 -11ZM197 722Q215 706 227 685T243 641Q228 624 207 611T162
595Q145 610 133 631T115 677Q131 693 152 705T197 722ZM381 722Q398 706 410 685T427 641Q412 624 391 611T346 595Q328 610 316 631T299 677Q315 693 336 705T381 722Z" />
<glyph unicode="&#xe5;" horiz-adv-x="531" d="M437 -7Q404 -7 375 17T335 89L347 384Q279 435 179 435Q162 435 144 433T110 427L170 457L151 308Q108 313 87 330T65 376Q65 411 91 439T160 485T256 502Q312 502 360 480T443 418V82L537 89Q534 59 520 38T484
5T437 -7ZM219 -11Q144 -10 100 27T55 125Q55 153 67 174T113 214T207 251T365 296V238L140 199L174 214Q169 199 167 183T164 153Q164 113 182 92T238 71Q265 71 294 81T356 113V98Q327 65 295 38T219 -11ZM269 560Q240 560 218 573T183 608T170 660Q170 688 183
710T218 746T269 759Q312 759 340 731T368 660Q368 631 355 609T320 573T269 560ZM269 607Q292 607 306 622T321 659Q321 682 307 697T269 712Q247 712 232 697T217 659Q217 638 232 623T269 607Z" />
<glyph unicode="&#xe6;" horiz-adv-x="792" d="M542 -9Q440 -9 386 61T331 260Q331 379 390 440T563 501Q618 501 658 478T720 413T742 316L738 252Q677 241 624 234T516 223T391 218L392 271L647 273L651 319Q651 372 623 402T545 433Q524 433 499 427T450 409Q439
376 433 340T426 269Q426 169 468 119T585 69Q618 69 656 78T736 105L744 87Q652 -9 542 -9ZM223 -10Q137 -10 93 24T48 123Q48 152 60 173T106 213T199 251T356 294V239L157 201Q154 187 152 174T150 150Q150 108 169 88T227 67Q262 67 301 84T384 134L388 116Q351
74 312 44T223 -10ZM361 368Q284 437 174 437Q139 437 102 428L159 457L139 309Q99 314 78 332T57 378Q57 412 82 440T150 484T244 501Q302 501 353 477T440 408L361 368Z" />
<glyph unicode="&#xe7;" horiz-adv-x="466" d="M257 -9Q196 -9 150 22T78 110T52 242Q52 323 81 381T163 470T286 502Q320 502 354 495T421 474L406 396Q333 427 250 427Q225 427 201 421T155 401L201 439Q179 397 168 351T157 258Q157 199 175 158T227 95T306
73Q333 73 363 81T426 106L434 87Q361 -9 257 -9ZM379 321L328 474H421L418 321H379ZM162 -218L169 -151Q206 -162 238 -168T306 -177Q312 -173 315 -166T319 -153Q319 -142 310 -134T277 -116T209 -91L236 -34Q314 -52 348 -78T383 -142Q383 -181 353 -204T272
-232T162 -218ZM233 15H274L250 -91H209L233 15Z" />
<glyph unicode="&#xe8;" horiz-adv-x="506" d="M265 -9Q200 -9 152 22T78 109T51 240Q51 317 79 376T158 468T279 502Q335 502 377 479T442 414T465 316L462 250Q401 239 347 233T236 223T113 216L114 275L368 277L370 319Q370 371 343 401T268 431Q248 431 227
425T186 409Q168 373 159 334T149 256Q149 167 191 120T310 72Q375 72 459 108L466 88Q423 40 372 16T265 -9ZM369 564Q314 588 261 615T156 675L194 746H209L389 598L369 564Z" />
<glyph unicode="&#xe9;" horiz-adv-x="506" d="M265 -9Q200 -9 152 22T78 109T51 240Q51 317 79 376T158 468T279 502Q335 502 377 479T442 414T465 316L462 250Q401 239 347 233T236 223T113 216L114 275L368 277L370 319Q370 371 343 401T268 431Q248 431 227
425T186 409Q168 373 159 334T149 256Q149 167 191 120T310 72Q375 72 459 108L466 88Q423 40 372 16T265 -9ZM190 564L170 598L350 746H364L403 675Q351 643 298 616T190 564Z" />
<glyph unicode="&#xea;" horiz-adv-x="506" d="M265 -9Q200 -9 152 22T78 109T51 240Q51 317 79 376T158 468T279 502Q335 502 377 479T442 414T465 316L462 250Q401 239 347 233T236 223T113 216L114 275L368 277L370 319Q370 371 343 401T268 431Q248 431 227
425T186 409Q168 373 159 334T149 256Q149 167 191 120T310 72Q375 72 459 108L466 88Q423 40 372 16T265 -9ZM321 741L437 618L400 582L289 666L179 582L142 618L258 741H321Z" />
<glyph unicode="&#xeb;" horiz-adv-x="506" d="M265 -9Q200 -9 152 22T78 109T51 240Q51 317 79 376T158 468T279 502Q335 502 377 479T442 414T465 316L462 250Q401 239 347 233T236 223T113 216L114 275L368 277L370 319Q370 371 343 401T268 431Q248 431 227
425T186 409Q168 373 159 334T149 256Q149 167 191 120T310 72Q375 72 459 108L466 88Q423 40 372 16T265 -9ZM200 722Q218 706 230 685T246 641Q231 624 210 611T165 595Q148 610 136 631T118 677Q134 693 155 705T200 722ZM384 722Q401 706 413 685T430 641Q415
624 394 611T349 595Q331 610 319 631T302 677Q318 693 339 705T384 722Z" />
<glyph unicode="&#xec;" horiz-adv-x="299" d="M41 0V32Q55 40 70 46T104 57L114 382L60 455Q94 475 132 487T212 504V54L279 34V0H41ZM253 564Q198 588 145 615T40 675L78 746H93L273 598L253 564Z" />
<glyph unicode="&#xed;" horiz-adv-x="299" d="M41 0V32Q55 40 70 46T104 57L114 382L60 455Q94 475 132 487T212 504V54L279 34V0H41ZM74 564L54 598L234 746H248L287 675Q235 643 182 616T74 564Z" />
<glyph unicode="&#xee;" horiz-adv-x="299" d="M41 0V32Q55 40 70 46T104 57L114 382L60 455Q94 475 132 487T212 504V54L279 34V0H41ZM461 741L577 618L540 582L429 666L319 582L282 618L398 741H461Z" />
<glyph unicode="&#xef;" horiz-adv-x="299" d="M42 0V32Q56 40 71 46T105 57L115 382L61 455Q95 475 133 487T213 504V54L280 34V0H42ZM341 722Q359 706 371 685T387 641Q372 624 351 611T306 595Q289 610 277 631T259 677Q275 693 296 705T341 722ZM525 722Q542
706 554 685T571 641Q556 624 535 611T490 595Q472 610 460 631T443 677Q459 693 480 705T525 722Z" />
<glyph unicode="&#xf0;" horiz-adv-x="547" d="M263 -10Q194 -10 145 20T69 105T42 236Q42 317 71 375T151 463T264 494Q302 494 342 480T420 435L411 366Q380 395 341 410T261 425Q242 425 223 420T185 405Q166 364 157 323T148 239Q148 182 163 141T205 79T270
57Q307 57 334 79T375 143T390 246Q390 338 361 418T269 574T111 724L152 752Q263 687 340 609T456 443T496 259Q496 177 468 117T388 23T263 -10ZM123 540L105 590L426 698L444 647L123 540Z" />
<glyph unicode="&#xf1;" horiz-adv-x="596" d="M41 0V32Q54 39 68 45T104 57L114 382L60 455Q127 494 202 504L212 392V54L279 34V0H41ZM344 0V32Q356 39 371 45T406 57L417 371L514 419V54L582 34V0H344ZM205 370L202 391Q229 426 259 453T324 500Q331 501 338
501T352 502Q401 502 441 482T514 419L417 371Q368 411 313 411Q259 411 205 370ZM173 589L151 608Q177 651 194 674T224 706T247 715T271 712L396 681L459 734L481 714Q449 662 430 639T395 611T362 610L236 642L173 589Z" />
<glyph unicode="&#xf2;" horiz-adv-x="540" d="M271 -10Q204 -10 155 20T79 107T52 239Q52 319 80 378T161 469T283 502Q352 502 402 472T479 386T507 255Q507 174 478 115T396 23T271 -10ZM278 57Q316 57 343 78T385 143T400 248Q400 308 386 348T343 410T275
431Q249 431 218 422T144 393L204 435Q181 391 170 345T158 244Q158 183 173 142T215 79T278 57ZM374 564Q319 588 266 615T161 675L199 746H214L394 598L374 564Z" />
<glyph unicode="&#xf3;" horiz-adv-x="540" d="M271 -10Q204 -10 155 20T79 107T52 239Q52 319 80 378T161 469T283 502Q352 502 402 472T479 386T507 255Q507 174 478 115T396 23T271 -10ZM278 57Q316 57 343 78T385 143T400 248Q400 308 386 348T343 410T275
431Q249 431 218 422T144 393L204 435Q181 391 170 345T158 244Q158 183 173 142T215 79T278 57ZM195 564L175 598L355 746H369L408 675Q356 643 303 616T195 564Z" />
<glyph unicode="&#xf4;" horiz-adv-x="540" d="M271 -10Q204 -10 155 20T79 107T52 239Q52 319 80 378T161 469T283 502Q352 502 402 472T479 386T507 255Q507 174 478 115T396 23T271 -10ZM278 57Q316 57 343 78T385 143T400 248Q400 308 386 348T343 410T275
431Q249 431 218 422T144 393L204 435Q181 391 170 345T158 244Q158 183 173 142T215 79T278 57ZM326 741L442 618L405 582L294 666L184 582L147 618L263 741H326Z" />
<glyph unicode="&#xf5;" horiz-adv-x="540" d="M271 -10Q204 -10 155 20T79 107T52 239Q52 319 80 378T161 469T283 502Q352 502 402 472T479 386T507 255Q507 174 478 115T396 23T271 -10ZM278 57Q316 57 343 78T385 143T400 248Q400 308 386 348T343 410T275
431Q249 431 218 422T144 393L204 435Q181 391 170 345T158 244Q158 183 173 142T215 79T278 57ZM135 589L113 608Q139 651 156 674T186 706T209 715T233 712L358 681L421 734L443 714Q411 662 392 639T357 611T324 610L198 642L135 589Z" />
<glyph unicode="&#xf6;" horiz-adv-x="540" d="M271 -10Q204 -10 155 20T79 107T52 239Q52 319 80 378T161 469T283 502Q352 502 402 472T479 386T507 255Q507 174 478 115T396 23T271 -10ZM278 57Q316 57 343 78T385 143T400 248Q400 308 386 348T343 410T275
431Q249 431 218 422T144 393L204 435Q181 391 170 345T158 244Q158 183 173 142T215 79T278 57ZM206 722Q224 706 236 685T252 641Q237 624 216 611T171 595Q154 610 142 631T124 677Q140 693 161 705T206 722ZM390 722Q407 706 419 685T436 641Q421 624 400 611T355
595Q337 610 325 631T308 677Q324 693 345 705T390 722Z" />
<glyph unicode="&#xf7;" horiz-adv-x="524" d="M38 248V321H485V248H38ZM240 46Q226 61 217 81T207 122Q222 136 242 145T284 155Q297 140 306 120T316 79Q301 65 281 56T240 46ZM240 414Q226 428 217 448T207 489Q222 503 242 512T284 522Q297 507 306 487T316
446Q301 432 281 424T240 414Z" />
<glyph unicode="&#xf8;" horiz-adv-x="547" d="M216 33L156 -113L101 -94L163 58L216 33ZM266 -10Q198 -10 149 20T72 107T45 239Q45 319 74 378T155 469T278 502Q346 502 396 472T474 386T502 255Q502 174 473 115T391 23T266 -10ZM273 57Q310 57 338 78T381
142T396 248Q396 308 381 348T338 410T269 431Q229 431 188 409Q169 371 160 329T151 244Q151 183 166 141T208 78T273 57ZM328 458L388 605L443 586L381 435L328 458ZM163 58L328 458L381 435L216 33L163 58Z" />
<glyph unicode="&#xf9;" horiz-adv-x="596" d="M498 77L592 85Q588 54 574 34T540 3T499 -7Q474 -7 451 5T412 43T392 105L400 382L346 455Q419 497 498 504V77ZM281 -7Q273 -8 266 -8T252 -9Q202 -9 162 12T89 77L177 129Q231 83 293 83Q346 83 400 122L402 102Q376
67 346 40T281 -7ZM89 77L99 382L43 455Q121 497 196 504V91L89 77ZM394 564Q339 588 286 615T181 675L219 746H234L414 598L394 564Z" />
<glyph unicode="&#xfa;" horiz-adv-x="596" d="M498 77L592 85Q588 54 574 34T540 3T499 -7Q474 -7 451 5T412 43T392 105L400 382L346 455Q419 497 498 504V77ZM281 -7Q273 -8 266 -8T252 -9Q202 -9 162 12T89 77L177 129Q231 83 293 83Q346 83 400 122L402 102Q376
67 346 40T281 -7ZM89 77L99 382L43 455Q121 497 196 504V91L89 77ZM214 564L194 598L374 746H388L427 675Q375 643 322 616T214 564Z" />
<glyph unicode="&#xfb;" horiz-adv-x="596" d="M498 77L592 85Q588 54 574 34T540 3T499 -7Q474 -7 451 5T412 43T392 105L400 382L346 455Q419 497 498 504V77ZM281 -7Q273 -8 266 -8T252 -9Q202 -9 162 12T89 77L177 129Q231 83 293 83Q346 83 400 122L402 102Q376
67 346 40T281 -7ZM89 77L99 382L43 455Q121 497 196 504V91L89 77ZM346 741L462 618L425 582L314 666L204 582L167 618L283 741H346Z" />
<glyph unicode="&#xfc;" horiz-adv-x="596" d="M498 77L592 85Q588 54 574 34T540 3T499 -7Q474 -7 451 5T412 43T392 105L400 382L346 455Q419 497 498 504V77ZM281 -7Q273 -8 266 -8T252 -9Q202 -9 162 12T89 77L177 129Q231 83 293 83Q346 83 400 122L402 102Q376
67 346 40T281 -7ZM89 77L99 382L43 455Q121 497 196 504V91L89 77ZM225 722Q243 706 255 685T271 641Q256 624 235 611T190 595Q173 610 161 631T143 677Q159 693 180 705T225 722ZM409 722Q426 706 438 685T455 641Q440 624 419 611T374 595Q356 610 344 631T327
677Q343 693 364 705T409 722Z" />
<glyph unicode="&#xfd;" horiz-adv-x="504" d="M-21 -183L-15 -110L175 -122Q200 -90 217 -62T248 -1T277 73L412 482H490L337 52Q291 -79 231 -141T87 -204Q63 -204 36 -199T-21 -183ZM201 7L33 482H149L293 27L201 7ZM114 416Q84 421 56 431T1 457V492H224V457L114
416ZM455 416Q420 421 386 431T319 457V492H517V457L455 416ZM182 564L162 598L342 746H356L395 675Q343 643 290 616T182 564Z" />
<glyph unicode="&#xfe;" horiz-adv-x="556" d="M18 -196V-164Q30 -157 44 -150T80 -138L91 625L35 704Q70 724 107 736T187 753L188 -141L271 -161V-196H18ZM102 19L120 97Q165 79 200 71T262 63Q334 63 372 109T410 240Q410 286 399 328T365 405L415 357Q351
411 284 411Q230 411 179 372L178 395Q203 426 231 452T293 501Q299 501 305 501T317 502Q406 498 460 432T514 256Q514 173 482 114T393 22T258 -10Q185 -10 102 19Z" />
<glyph unicode="&#xff;" horiz-adv-x="504" d="M-21 -183L-15 -110L175 -122Q200 -90 217 -62T248 -1T277 73L412 482H490L337 52Q291 -79 231 -141T87 -204Q63 -204 36 -199T-21 -183ZM201 7L33 482H149L293 27L201 7ZM114 416Q84 421 56 431T1 457V492H224V457L114
416ZM455 416Q420 421 386 431T319 457V492H517V457L455 416ZM193 722Q211 706 223 685T239 641Q224 624 203 611T158 595Q141 610 129 631T111 677Q127 693 148 705T193 722ZM377 722Q394 706 406 685T423 641Q408 624 387 611T342 595Q324 610 312 631T295 677Q311
693 332 705T377 722Z" />
<glyph unicode="&#x2013;" horiz-adv-x="565" d="M48 315H517V242H48V315Z" />
<glyph unicode="&#x2014;" horiz-adv-x="1010" d="M48 315H962V242H48V315Z" />
<glyph unicode="&#x2018;" horiz-adv-x="246" d="M173 679L148 518L46 530Q79 611 134 685L173 679ZM136 578L178 496Q158 478 136 467T90 449Q74 466 63 485T46 530L136 578Z" />
<glyph unicode="&#x2019;" horiz-adv-x="246" d="M81 453L106 614L208 603Q192 563 170 525T120 447L81 453ZM118 554L76 637Q96 655 118 666T164 684Q180 667 191 648T208 603L118 554Z" />
<glyph unicode="&#x201a;" horiz-adv-x="244" d="M337 -98L362 63L464 52Q448 12 426 -26T376 -104L337 -98ZM374 3L332 86Q352 104 374 115T420 133Q436 116 447 97T464 52L374 3Z" />
<glyph unicode="&#x201c;" horiz-adv-x="397" d="M172 679L147 518L45 530Q79 611 133 685L172 679ZM135 578L177 496Q157 478 136 467T89 449Q73 466 63 485T45 530L135 578ZM326 679L301 518L199 530Q233 611 287 685L326 679ZM290 578L331 496Q311 478 289
467T243 449Q227 466 216 485T199 530L290 578Z" />
<glyph unicode="&#x201d;" horiz-adv-x="395" d="M224 453L249 614L351 603Q335 563 313 525T263 447L224 453ZM261 554L219 637Q239 655 261 666T307 684Q323 667 334 648T351 603L261 554ZM76 453L101 614L203 603Q187 563 165 525T115 447L76 453ZM113 554L71
637Q91 655 113 666T159 684Q175 667 186 648T203 603L113 554Z" />
<glyph unicode="&#x201e;" horiz-adv-x="398" d="M232 -98L257 63L359 52Q343 12 321 -26T271 -104L232 -98ZM269 3L227 86Q247 104 269 115T315 133Q331 116 342 97T359 52L269 3ZM337 -98L362 63L464 52Q448 12 426 -26T376 -104L337 -98ZM374 3L332 86Q352
104 374 115T420 133Q436 116 447 97T464 52L374 3Z" />
<glyph unicode="&#x2022;" horiz-adv-x="326" d="M192 356Q219 331 239 297T264 227Q241 200 207 181T137 155Q110 178 90 212T62 283Q87 310 121 329T192 356Z" />
<glyph unicode="&#x2039;" horiz-adv-x="248" d="M174 41L5 236V252L174 448L212 419L97 244L212 68L174 41Z" />
<glyph unicode="&#x203a;" horiz-adv-x="248" d="M75 448L243 253V236L75 41L36 69L150 245L36 420L75 448Z" />
</font>
</defs>
</svg>
