<?xml version="1.0" standalone="no"?>
<!DOCTYPE svg PUBLIC "-//W3C//DTD SVG 1.1//EN" "http://www.w3.org/Graphics/SVG/1.1/DTD/svg11.dtd">
<svg xmlns="http://www.w3.org/2000/svg">
<defs >
<font id="Piazzolla" horiz-adv-x="594" ><font-face
    font-family="Piazzolla Thin ExtraBold"
    units-per-em="1000"
    panose-1="0 0 0 0 0 0 0 0 0 0"
    ascent="1110"
    descent="-310"
    alphabetic="0" />
<glyph unicode=" " horiz-adv-x="158" />
<glyph unicode="!" horiz-adv-x="289" d="M219 672L218 555L183 229H101L80 555L84 672Q102 674 118 675T152 677Q169 677 186 676T219 672ZM160 166Q183 148 200 119T223 57Q200 33 171 17T114 -5Q89 18 73 46T52 104Q72 129 101 145T160 166Z" />
<glyph unicode="&quot;" horiz-adv-x="440" d="M93 426L67 681Q84 684 99 685T131 687Q147 687 163 686T195 681L169 426H93ZM255 426L229 681Q246 684 261 685T293 687Q309 687 325 686T357 681L331 426H255Z" />
<glyph unicode="#" horiz-adv-x="615" d="M321 1L430 619H502L393 1H321ZM15 172L29 243H563L551 172H15ZM112 1L221 619H294L184 1H112ZM52 376L64 449H600L587 376H52Z" />
<glyph unicode="$" horiz-adv-x="596" d="M319 -145H247L288 751H360L319 -145ZM261 -11Q213 -11 159 -4T50 21L112 113Q175 97 241 92T377 94Q394 103 404 118T414 148Q414 172 389 191T323 228T237 266T152 313T86 373T60 455Q60 511 95 550T194 610T341 631Q385
631 432 626T528 606L487 508Q420 524 355 528T227 526Q213 517 205 505T197 476Q197 451 222 431T288 393T374 354T460 309T526 250T552 170Q552 114 515 74T412 11T261 -11ZM181 19L50 21L55 214H112L181 19ZM464 415L398 608L528 606L523 415H464Z" />
<glyph unicode="%" horiz-adv-x="889" d="M218 240Q140 240 96 289T51 424Q51 483 72 526T132 594T226 618Q279 618 317 596T375 534T395 437Q395 376 374 332T314 264T218 240ZM223 300Q257 300 275 333T293 430Q293 491 275 523T219 555Q193 555 174 540Q164
513 159 485T153 426Q153 365 171 333T223 300ZM203 -65L145 -20L681 680L740 636L203 -65ZM673 -7Q595 -7 551 42T506 177Q506 236 527 279T587 347T681 371Q734 371 772 349T830 287T850 190Q850 129 829 85T769 17T673 -7ZM678 53Q712 53 730 86T748 183Q748
244 730 276T674 308Q648 308 629 293Q619 266 614 238T608 179Q608 118 626 86T678 53Z" />
<glyph unicode="&amp;" horiz-adv-x="656" d="M502 0L152 354Q105 401 87 436T69 513Q69 588 121 630T271 679T505 656L480 553Q391 571 318 575T176 569L199 611Q185 572 184 543T196 487T240 431L615 52V0H502ZM248 -12Q177 -12 124 10T41 73T11 169Q11 233
51 282T166 362L204 341Q165 302 146 268T127 199Q127 162 147 136T202 94T278 76T364 85T449 125Q466 186 464 249T438 376L522 372Q546 292 537 222T491 100T391 18T248 -12ZM508 0V97L661 56V0H508ZM489 326L387 366V422H635V371Q599 359 561 348T489 326ZM440
469L367 657L505 656L502 469H440Z" />
<glyph unicode="&apos;" horiz-adv-x="246" d="M85 426L59 681Q76 684 91 685T123 687Q139 687 155 686T187 681L161 426H85Z" />
<glyph unicode="(" horiz-adv-x="320" d="M286 -203Q167 -119 103 5T38 277Q38 424 102 548T286 757L322 725Q243 637 202 524T161 277Q161 143 202 30T322 -172L286 -203Z" />
<glyph unicode=")" horiz-adv-x="320" d="M33 759Q153 675 217 551T282 279Q282 132 218 8T33 -201L-2 -170Q77 -81 117 32T158 279Q158 412 118 525T-2 728L33 759Z" />
<glyph unicode="*" horiz-adv-x="389" d="M190 550L82 593L53 631Q69 655 91 678L133 659L202 565L190 550ZM83 445Q73 457 65 469T49 495L79 530L191 566L202 549L127 462L83 445ZM210 398L187 440L186 555L205 561L266 462L268 415Q254 411 240 407T210 398ZM306
512L195 547L196 568L308 595L353 582Q356 552 352 523L306 512ZM205 554L187 562L195 677L220 715Q235 712 249 707T277 695L272 649L205 554Z" />
<glyph unicode="+" horiz-adv-x="520" d="M213 58V515H308V58H213ZM32 239V334H488V239H32Z" />
<glyph unicode="," horiz-adv-x="278" d="M75 -99L99 88L231 66Q212 21 187 -21T128 -106L75 -99ZM116 6L67 109Q91 132 118 146T176 168Q196 147 210 122T231 66L116 6Z" />
<glyph unicode="-" horiz-adv-x="317" d="M34 312L274 342L284 247L45 217L34 312Z" />
<glyph unicode="." horiz-adv-x="284" d="M120 -5Q96 15 80 44T56 105Q78 127 106 144T166 166Q189 145 206 117T227 58Q208 34 179 17T120 -5Z" />
<glyph unicode="/" horiz-adv-x="319" d="M46 -200L-24 -178L274 758L344 737L46 -200Z" />
<glyph unicode="0" horiz-adv-x="633" d="M308 -11Q228 -11 169 27T79 134T48 300Q48 400 81 473T176 586T320 627Q402 627 461 590T553 483T585 320Q585 219 552 145T456 30T308 -11ZM316 78Q355 78 382 105T424 184T439 310Q439 383 425 432T382 508T310 534Q290
534 270 527T232 505Q214 458 204 408T194 303Q194 231 208 181T250 104T316 78Z" />
<glyph unicode="1" horiz-adv-x="420" d="M21 0V49Q53 58 85 65T150 77L160 512H25V559L216 622H301V75L424 54V0H21Z" />
<glyph unicode="2" horiz-adv-x="600" d="M61 0V76Q62 120 85 157T144 228T220 291T297 352T356 412T379 476Q379 497 371 516T345 559L409 504Q353 515 297 515Q248 515 199 509T102 493L79 600Q138 614 190 620T288 627Q398 627 458 589T518 478Q518 433 496
395T437 323T360 259T283 199T224 139T201 75L200 0H61ZM111 0V93L504 107V0H111ZM406 0L482 224H541L540 0H406ZM81 370L79 600L210 602L139 370H81Z" />
<glyph unicode="3" horiz-adv-x="583" d="M68 22L99 114Q150 102 190 96T261 89Q321 89 352 112T383 179Q383 221 356 243T278 266H205V361H268Q300 361 324 371T361 402T374 453Q374 471 368 487T351 520Q317 527 275 527Q237 527 197 522T113 505L82 596Q137
613 188 621T284 629Q354 629 406 611T488 558T517 474Q517 421 483 381T387 320Q457 304 493 267T529 169Q529 112 497 72T406 11T272 -11Q226 -11 175 -3T68 22ZM73 215H132L205 20L68 22L73 215ZM87 405L82 596L219 599L146 405H87Z" />
<glyph unicode="4" horiz-adv-x="562" d="M186 0V45Q211 55 235 61T285 73L294 536L322 523L77 193L57 240H538V161H18L5 226L299 616H423V71L511 50V0H186Z" />
<glyph unicode="5" horiz-adv-x="602" d="M278 -11Q233 -11 183 -4T78 20L100 118Q154 104 200 97T285 89Q342 89 392 105Q401 122 405 139T410 171Q410 217 381 245T296 273H96L146 372H313Q426 372 486 327T546 195Q546 99 475 44T278 -11ZM210 18L78 20L83
204H141L210 18ZM96 273V616H200L194 318L96 273ZM487 513L146 521L96 616H487V513ZM455 418L382 616H516L513 418H455Z" />
<glyph unicode="6" horiz-adv-x="593" d="M298 -11Q173 -11 113 62T53 288Q53 460 131 544T369 629Q401 629 435 625T508 615L472 507Q399 531 303 531Q271 531 238 526T171 512L233 539Q211 496 199 428T187 284Q187 177 213 131T302 85Q349 85 374 111T400 187Q400
234 376 255T298 276H107V370H315Q422 370 478 324T534 191Q534 97 471 43T298 -11ZM448 421L381 615H508L505 421H448Z" />
<glyph unicode="7" horiz-adv-x="510" d="M30 376L27 616H155L90 376H30ZM56 503V616H442V514L56 503ZM501 567L250 0H129L408 616H501V567Z" />
<glyph unicode="8" horiz-adv-x="586" d="M285 -12Q218 -12 165 9T81 67T51 153Q51 210 95 255T217 321L247 298Q206 268 186 238T166 172Q166 128 202 103T302 78Q335 78 375 86Q393 98 403 114T414 146Q414 172 389 191T324 228T240 265T156 309T91 369T65 452Q65
504 95 544T179 607T303 630Q366 630 414 611T490 557T517 476Q517 418 475 372T354 301L324 325Q365 359 384 390T404 456Q404 498 376 519T295 541Q280 541 263 540T227 534Q211 523 202 508T193 477Q193 448 218 427T282 388T366 351T449 307T514 250T539 170Q539
118 506 77T416 12T285 -12Z" />
<glyph unicode="9" horiz-adv-x="592" d="M294 628Q419 628 479 555T539 330Q539 158 462 74T223 -11Q192 -11 158 -8T84 2L120 110Q195 88 292 88Q356 88 422 106L359 78Q381 122 393 190T406 334Q406 441 379 487T291 533Q244 533 219 507T193 430Q193 384 217
363T294 341H486V248H277Q170 248 114 294T58 427Q58 520 121 574T294 628ZM145 196L211 2H84L87 196H145Z" />
<glyph unicode=":" horiz-adv-x="282" d="M123 -5Q99 15 83 44T59 105Q81 127 109 144T169 166Q192 145 209 117T230 58Q211 34 182 17T123 -5ZM123 264Q99 284 83 313T59 374Q81 396 109 413T169 435Q192 414 209 386T230 327Q211 303 182 286T123 264Z" />
<glyph unicode=";" horiz-adv-x="283" d="M82 -99L106 88L238 66Q219 21 194 -21T135 -106L82 -99ZM123 6L74 109Q98 132 125 146T183 168Q203 147 217 122T238 66L123 6ZM127 260Q103 280 87 309T63 370Q85 392 113 409T173 431Q196 410 213 382T234 323Q215
299 186 282T127 260Z" />
<glyph unicode="&lt;" horiz-adv-x="454" d="M408 141L364 59L18 263V309L364 513L408 431L147 286L408 141Z" />
<glyph unicode="=" horiz-adv-x="617" d="M99 333V428H517V333H99ZM99 145V241H517V145H99Z" />
<glyph unicode="&gt;" horiz-adv-x="461" d="M52 431L97 513L443 309V263L97 60L52 142L313 286L52 431Z" />
<glyph unicode="?" horiz-adv-x="447" d="M229 678Q337 678 399 637T461 523Q461 482 444 453T401 401T348 359T300 320T274 274L263 229H173V289Q173 321 188 344T225 387T269 424T306 461T321 507Q321 539 294 556T214 574Q158 574 81 553L48 651Q94 665 139
671T229 678ZM179 652L104 444H48V651L179 652ZM238 166Q261 148 278 119T301 57Q277 33 249 17T191 -5Q167 18 151 46T129 104Q150 129 179 145T238 166Z" />
<glyph unicode="@" horiz-adv-x="859" d="M772 -137Q654 -189 542 -200T334 -189T164 -110T49 29T7 218Q7 316 42 400T142 546T291 642T474 677Q559 677 629 652T751 581T831 472T860 336Q860 269 836 212T770 111T671 44T548 20Q507 20 484 32T445 74L492 220L479
226L541 477H653L555 49L514 77Q577 67 632 81T729 131T795 217T819 333Q819 420 776 488T655 596T476 636Q386 636 308 605T172 517T81 385T48 220Q48 123 86 48T191 -77T348 -148T542 -159T757 -101L772 -137ZM335 22Q268 17 232 60T196 188Q196 248 213 301T261
396T332 461T416 485Q460 485 492 463T533 407L529 363Q500 385 462 395T376 406L424 414Q395 398 372 365T333 288T315 200T322 118L303 140Q336 120 375 117L350 104Q384 135 412 169T465 247T515 348L537 336Q488 215 439 138T335 22Z" />
<glyph unicode="A" horiz-adv-x="723" d="M659 74Q676 69 692 64T725 52V0H402V50L493 75L320 620H356L178 82Q205 76 230 69T282 52V0H-3V50L66 83L277 669H446L659 74ZM168 193V275H546V193H168Z" />
<glyph unicode="B" horiz-adv-x="725" d="M504 346Q587 330 630 288T674 183Q674 97 605 49T411 0H33V49Q49 58 71 64T127 78L139 588L33 615V669H422Q528 669 588 627T648 512Q648 454 610 411T504 346ZM282 27L218 90H443Q481 102 500 127T520 189Q520 237 488
264T400 291H269V381H415Q494 419 494 485Q494 529 466 553T385 578H218L282 642V27Z" />
<glyph unicode="C" horiz-adv-x="680" d="M381 -11Q223 -11 137 77T50 329Q50 440 91 518T212 639T401 681Q444 681 493 675T596 654L561 544Q512 559 464 567T367 575Q328 575 291 569T216 549L275 592Q240 532 223 469T205 330Q205 212 252 152T394 91Q426 91
466 100T553 127L596 21Q475 -11 381 -11ZM452 19L534 237H596V21L452 19ZM534 439L453 656L596 654V439H534Z" />
<glyph unicode="D" horiz-adv-x="769" d="M423 669Q516 669 582 631T685 520T721 346Q721 239 682 162T570 43T398 0H32V49Q53 58 76 65T128 78L139 588L32 615V669H423ZM451 92Q509 120 537 179T565 331Q565 406 551 454T513 529T460 566T399 577H219L282 640V29L219
92H451Z" />
<glyph unicode="E" horiz-adv-x="722" d="M585 235H643V0H32V49Q56 59 79 66T127 78L139 588L32 615V669H634V453H575L534 578H218L282 642V386H421L454 465H506V213H454L419 295H282V28L218 91H542L585 235Z" />
<glyph unicode="F" horiz-adv-x="652" d="M622 669V450H563L521 578H218L282 642V363H415L447 442H499V191H447L413 273H282V76L411 55V0H32V49Q56 59 79 66T127 78L139 588L32 615V669H622Z" />
<glyph unicode="G" horiz-adv-x="738" d="M401 -11Q232 -11 140 77T48 329Q48 440 92 518T221 639T423 681Q468 681 519 675T624 654L577 544Q526 559 474 566T367 574Q320 574 273 567T180 544L286 592Q245 532 225 468T204 330Q204 210 257 149T412 87Q448 87
490 95T581 120L624 21Q562 5 506 -3T401 -11ZM476 21L481 266L363 292V347H707V297Q689 289 669 282T624 268V21H476ZM563 442L481 656L624 654V442H563Z" />
<glyph unicode="H" horiz-adv-x="835" d="M461 0V49Q483 59 505 66T550 78L561 588L461 615V669H799V620Q777 611 754 604T704 591V76L799 55V0H461ZM32 0V49Q56 59 79 66T127 78L139 588L32 615V669H371V620Q351 611 328 604T282 591V76L371 55V0H32ZM209 289V380H631V289H209Z"
/>
<glyph unicode="I" horiz-adv-x="412" d="M32 0V49Q56 59 79 66T127 78L139 588L32 615V669H376V620Q355 611 331 604T282 591V76L376 55V0H32Z" />
<glyph unicode="J" horiz-adv-x="538" d="M35 1L49 128Q88 110 122 100T184 90Q213 90 234 96T270 116T297 152L281 72L288 588L136 615V669H522V620Q503 612 481 604T432 591V234Q432 -11 165 -11Q135 -11 103 -8T35 1ZM35 1V244H92L169 1H35Z" />
<glyph unicode="K" horiz-adv-x="783" d="M32 0V49Q56 59 79 66T127 78L139 588L32 615V669H376V620Q355 611 331 604T282 591V76L376 55V0H32ZM438 0V49Q484 70 531 84T626 103L770 55V0H438ZM595 565L457 613V669H750V621Q712 599 673 585T595 565ZM422 317L427
418L714 56V10H545L300 333L583 658H690V618L422 317Z" />
<glyph unicode="L" horiz-adv-x="628" d="M535 282H593V0H32V49Q56 59 79 66T127 78L139 588L32 615V669H398V620Q373 611 344 604T282 591V91H487L535 282Z" />
<glyph unicode="M" horiz-adv-x="1000" d="M872 76L971 55V0H627V49Q650 59 673 66T721 78L727 623L746 619L518 0H432L215 603L236 606L229 76L340 55V0H30V49Q53 59 76 66T124 78L144 588L34 615V669H335L512 159L476 160L662 669H964V620Q942 611 917 604T865
591L872 76Z" />
<glyph unicode="N" horiz-adv-x="819" d="M497 669H799V620Q776 610 754 603T705 591L704 0H546L199 552L232 562V76L346 55V0H35V49Q57 59 79 66T126 78L137 588L33 615V669H299L641 124L610 115L600 593L497 615V669Z" />
<glyph unicode="O" horiz-adv-x="742" d="M361 -12Q266 -12 196 29T88 145T50 326Q50 432 92 512T207 636T376 680Q473 680 544 639T654 524T693 347Q693 237 653 157T538 32T361 -12ZM372 82Q423 82 460 111T516 198T536 336Q536 415 517 469T459 552T366 581Q328
581 290 567T216 521L272 587Q205 467 205 329Q205 251 225 196T282 111T372 82Z" />
<glyph unicode="P" horiz-adv-x="675" d="M421 669Q491 669 542 645T620 575T648 468Q648 401 616 351T525 272T387 244H205V335H436Q466 360 480 390T495 460Q495 519 465 548T380 578H282V76L412 55V0H32V49Q51 59 74 66T127 78L139 588L32 615V669H421Z" />
<glyph unicode="Q" horiz-adv-x="750" d="M361 -11Q265 -11 195 29T87 146T49 326Q49 433 89 512T203 636T375 680Q473 680 544 640T653 525T692 347Q692 238 652 158T537 33T361 -11ZM682 -152L350 2L388 52Q445 44 501 32T622 0L785 -48Q760 -78 737 -103T682
-152ZM371 82Q422 82 459 112T516 199T536 337Q536 416 516 470T458 553T365 581Q338 581 310 573T255 550Q230 498 217 443T204 330Q204 251 224 196T281 111T371 82Z" />
<glyph unicode="R" horiz-adv-x="746" d="M647 77L737 55V0H504L475 182Q467 233 446 252T379 271H210V361H427Q466 384 484 411T503 474Q503 523 474 550T392 578H282V76L378 55V0H32V49Q48 58 71 65T128 78L139 588L32 615V669H423Q530 669 593 624T657 502Q657
439 616 390T507 320Q559 306 588 271T629 174L647 77Z" />
<glyph unicode="S" horiz-adv-x="655" d="M289 -12Q234 -12 178 -4T66 22L131 120Q179 105 230 98T334 91Q365 91 396 93T459 101L404 85Q413 90 424 101T443 126T452 156Q452 183 425 204T355 245T264 285T174 334T104 399T76 490Q76 549 112 591T216 656T374
679Q424 679 474 673T572 652L528 548Q480 563 428 570T320 578Q291 578 263 576T205 569L269 586Q247 571 235 554T222 516Q222 488 249 466T318 425T409 384T500 335T570 271T597 184Q597 124 558 80T450 12T289 -12ZM208 20L66 22L71 230H134L208 20ZM503 449L430
655L572 652L567 449H503Z" />
<glyph unicode="T" horiz-adv-x="715" d="M679 669V402H621L575 578H431V78L560 55V0H147V49Q179 59 211 67T276 81L287 578H141L95 402H37V669H679Z" />
<glyph unicode="U" horiz-adv-x="769" d="M385 -12Q253 -12 181 48T109 214L117 588L11 615V669H350V620Q332 610 311 604T261 591V206Q261 150 298 119T405 87Q452 87 487 101T547 146L554 588L458 615V669H756V620Q734 610 711 603T660 591V226Q660 112 588
50T385 -12Z" />
<glyph unicode="V" horiz-adv-x="723" d="M278 0L42 658H214L399 72H372L565 658H682L446 0H278ZM165 566Q122 573 81 586T-3 618V669H320V619L165 566ZM625 566Q577 573 531 586T441 618V669H725V619L625 566Z" />
<glyph unicode="W" horiz-adv-x="1056" d="M639 0L450 658H591L755 71H730L898 658H1012L802 0H639ZM250 0L39 658H208L369 71H344L500 619L570 529L415 0H250ZM157 566Q116 573 77 586T-1 618V669H310V619L157 566ZM558 566Q517 573 478 586T401 618V669H693V619L558
566ZM955 566Q911 573 869 586T785 618V669H1057V619L955 566Z" />
<glyph unicode="X" horiz-adv-x="781" d="M75 10V61L313 386H481L712 56V10H549L342 319H387L173 10H75ZM310 323L98 620V658H269L448 390H407L588 658H693V617L478 323H310ZM411 0V49Q458 70 508 84T608 103L765 55V0H411ZM12 0V49Q50 70 89 84T168 103L313 55V0H12ZM390
669V621Q342 599 292 585T191 565L39 614V669H390ZM750 669V621Q712 599 673 585T594 565L457 614V669H750Z" />
<glyph unicode="Y" horiz-adv-x="703" d="M310 191L55 620V658H219L407 315H361L552 658H650L651 617L391 191H310ZM160 0V49Q188 59 215 66T272 78L277 305H426V76L540 55V0H160ZM148 565L-4 614V669H347V621Q299 599 249 585T148 565ZM551 565L414 614V669H707V621Q670
599 631 585T551 565Z" />
<glyph unicode="Z" horiz-adv-x="689" d="M52 0V56L434 583L177 576L133 426H69L68 669H630V613L249 86L523 96L565 242H627L631 0H52Z" />
<glyph unicode="[" horiz-adv-x="365" d="M101 -195V749H357V697L150 665L216 746V-192L150 -112L357 -144V-195H101Z" />
<glyph unicode="\" horiz-adv-x="319" d="M274 -200L-24 737L46 758L343 -178L274 -200Z" />
<glyph unicode="]" horiz-adv-x="365" d="M256 749V-194H0V-142L207 -111L140 -191V747L207 666L0 699V749H256Z" />
<glyph unicode="^" horiz-adv-x="441" d="M76 216L-6 260L198 607H244L447 260L366 216L222 477L76 216Z" />
<glyph unicode="_" horiz-adv-x="623" d="M83 -117H540V-212H83V-117Z" />
<glyph unicode="`" horiz-adv-x="306" d="M509 563Q449 586 391 612T275 671L325 767H344L537 609L509 563Z" />
<glyph unicode="a" horiz-adv-x="546" d="M429 -9Q392 -9 360 16T315 94L329 378Q258 426 155 426Q139 426 124 425T93 420L176 459L154 304Q100 306 72 324T44 375Q44 412 73 442T151 491T257 509Q318 509 369 486T457 419V100L543 110Q543 75 528 48T487 6T429
-9ZM219 -11Q134 -11 86 27T37 129Q37 157 49 178T95 218T189 258T349 307V236L145 206L188 225Q183 210 181 195T179 166Q179 128 195 110T244 91Q267 91 290 98T340 121V109Q315 73 286 44T219 -11Z" />
<glyph unicode="b" horiz-adv-x="569" d="M68 31L118 127Q171 106 209 96T276 86Q336 86 365 124T394 237Q394 278 386 317T359 389L416 338Q356 387 291 387Q249 387 205 359L204 385Q228 421 254 450T310 508Q316 509 322 509T334 510Q395 510 440 479T510 391T535
261Q535 175 503 114T412 21T271 -11Q226 -11 175 -1T68 31ZM68 31L82 610L23 704Q69 730 116 744T214 762V66L68 31Z" />
<glyph unicode="c" horiz-adv-x="472" d="M247 -11Q183 -11 135 21T60 110T33 244Q33 328 63 387T149 479T280 511Q316 511 352 504T423 482L406 380Q321 411 225 411Q206 411 188 407T152 394L213 445Q195 400 186 356T177 269Q177 214 193 176T239 118T313 98Q338
98 367 105T428 127L439 102Q366 -11 247 -11ZM367 314L303 482H423L421 314H367Z" />
<glyph unicode="d" horiz-adv-x="589" d="M234 -10Q174 -10 129 21T59 107T34 238Q34 368 105 439T299 511Q335 511 375 505T458 484L440 363Q347 416 256 416Q229 416 204 410T155 394L212 429Q193 393 184 347T175 253Q175 205 186 174T219 128T272 112Q292
112 314 119T361 141V115Q340 81 314 50T256 -8Q250 -9 245 -9T234 -10ZM474 -9Q445 -9 419 5T374 49T352 121L362 610L304 704Q347 728 394 743T495 762V96L581 107Q579 69 564 43T524 4T474 -9ZM412 768L411 769H412V768Z" />
<glyph unicode="e" horiz-adv-x="513" d="M256 -11Q189 -11 139 20T61 109T33 244Q33 324 62 384T145 477T272 510Q333 510 378 487T447 419T472 315L470 249Q402 236 345 229T233 216T119 208L120 282L342 283L344 322Q344 369 322 394T258 419Q242 419 226 415T193
403Q179 370 172 335T165 267Q165 183 204 140T317 96Q380 96 466 128L475 102Q431 46 375 18T256 -11Z" />
<glyph unicode="f" horiz-adv-x="368" d="M23 420V446Q41 464 61 477T105 496Q111 555 132 604T188 687T266 741T359 760Q365 760 371 760T385 759V636Q361 639 339 640T295 642Q281 642 267 641T240 639Q235 616 235 579T237 496H372L366 420H23ZM241 462V69L331
48V0H34V44Q46 52 61 59T96 73L104 462H241Z" />
<glyph unicode="g" horiz-adv-x="566" d="M252 -208Q142 -208 80 -169T15 -59Q45 -27 83 -5T167 28H183Q161 6 153 -11T144 -43Q144 -78 177 -96T275 -115Q341 -115 378 -94T416 -36Q416 -24 412 -11T399 12H148Q112 30 95 56T77 106Q77 137 102 165T172 207L171
124H419Q455 124 485 106T532 56T550 -15Q550 -72 513 -115T408 -183T252 -208ZM267 176Q155 176 100 217T45 337Q45 393 71 431T151 490T282 511Q393 511 449 470T505 350Q505 295 478 256T397 197T267 176ZM273 258Q320 258 345 281T371 347Q371 387 346 407T272
428Q256 428 236 426T198 418Q188 396 184 376T179 341Q179 301 203 280T273 258ZM430 457Q410 478 401 501T391 542Q391 580 418 602T492 625Q509 625 528 622T571 609L560 525H453L444 457H430Z" />
<glyph unicode="h" horiz-adv-x="604" d="M25 0V44Q35 52 48 59T78 73L91 610L30 704Q74 728 122 743T224 762V69L279 48V0H25ZM329 0V44Q339 53 351 60T381 73L392 357L526 421V69L583 48V0H329ZM215 358L212 379Q236 418 264 449T325 507Q335 509 344 509T361
510Q411 510 452 488T526 421L392 357Q350 387 303 387Q260 387 215 358Z" />
<glyph unicode="i" horiz-adv-x="312" d="M40 0V44Q51 52 64 59T93 73L103 368L46 453Q89 478 137 493T238 512V69L294 48V0H40ZM191 763Q216 740 233 710T256 647Q236 622 205 604T140 581Q116 601 98 632T74 697Q96 721 126 739T191 763Z" />
<glyph unicode="j" horiz-adv-x="293" d="M10 -201L-3 -172L81 -56L92 368L33 453Q77 478 124 493T226 512V19Q226 -69 170 -124T10 -201ZM179 763Q204 740 221 710T244 647Q224 622 193 604T128 581Q104 601 86 632T62 697Q84 721 114 739T179 763Z" />
<glyph unicode="k" horiz-adv-x="571" d="M25 0V44Q36 52 49 59T78 73L91 610L31 704Q74 728 122 743T224 762V69L280 48V0H25ZM419 -8L229 260L422 489H521V473L323 241L327 340L573 22Q537 11 499 4T419 -8ZM428 397Q396 404 369 417T317 450V499H553V450L428 397Z" />
<glyph unicode="l" horiz-adv-x="306" d="M25 0V44Q35 52 48 59T78 73L91 610L30 704Q74 728 122 743T224 762V69L279 48V0H25Z" />
<glyph unicode="m" horiz-adv-x="914" d="M32 0V44Q43 52 55 59T85 73L95 368L38 453Q123 502 217 512L230 382V69L286 48V0H32ZM336 0V44Q346 53 358 60T388 73L399 357L544 403L533 379V69L590 48V0H336ZM399 357Q356 387 310 387Q266 387 222 358L218 379Q243
418 271 449T332 507Q341 509 350 509T368 510Q423 510 466 485T544 403L399 357ZM639 0V44Q649 53 661 60T691 73L702 357L837 421V69L893 48V0H639ZM702 357Q661 387 614 387Q570 387 525 358L522 379Q547 418 575 449T636 507Q645 509 654 509T671 510Q722 510
763 488T837 421L702 357Z" />
<glyph unicode="n" horiz-adv-x="610" d="M32 0V44Q43 52 55 59T85 73L95 368L38 453Q123 502 217 512L230 382V69L286 48V0H32ZM336 0V44Q346 53 358 60T388 73L399 357L533 421V69L590 48V0H336ZM222 358L218 379Q243 418 271 449T332 507Q341 509 350 509T367
510Q419 510 460 488T533 421L399 357Q356 387 310 387Q266 387 222 358Z" />
<glyph unicode="o" horiz-adv-x="549" d="M266 -12Q193 -12 141 19T62 107T34 243Q34 326 63 386T148 478T278 511Q352 511 405 481T487 394T516 261Q516 176 486 115T400 21T266 -12ZM274 75Q305 75 326 93T359 151T371 250Q371 308 360 345T326 400T269 419Q246
419 214 410T133 382L217 439Q198 395 188 350T178 248Q178 188 189 150T222 94T274 75Z" />
<glyph unicode="p" horiz-adv-x="574" d="M277 -11Q239 -11 195 -3T102 21L124 127Q177 106 215 96T282 86Q342 86 371 124T400 237Q400 278 392 317T365 389L422 338Q362 387 298 387Q255 387 211 359L210 385Q234 421 260 450T316 508Q322 509 328 509T340 510Q401
510 446 479T516 391T541 261Q541 175 509 114T417 21T277 -11ZM23 -195V-151Q34 -144 46 -137T75 -122L85 368L28 453Q73 477 117 492T208 512L220 382V-126L286 -147V-195H23Z" />
<glyph unicode="q" horiz-adv-x="563" d="M234 -10Q174 -10 129 20T59 107T34 238Q34 367 105 439T299 511Q335 511 375 505T458 484L440 363Q347 416 256 416Q229 416 204 410T155 394L212 429Q193 393 184 347T175 253Q175 205 186 174T219 128T272 112Q292
112 314 119T361 141V114Q340 81 314 50T256 -8Q250 -9 245 -9T234 -10ZM260 -195V-151Q279 -142 299 -135T344 -122L357 470L489 512V-126L548 -147V-195H260Z" />
<glyph unicode="r" horiz-adv-x="426" d="M403 355Q309 375 219 351V370Q243 409 269 441T327 502Q350 504 371 500T411 484L403 355ZM32 0V44Q44 53 56 60T85 73L95 368L38 453Q123 502 217 512L230 371V74L335 48V0H32Z" />
<glyph unicode="s" horiz-adv-x="505" d="M231 -7Q191 -7 145 0T49 20L104 116Q150 100 193 92T279 83Q294 83 310 84T341 89L305 62Q320 75 330 89T340 119Q340 136 320 149T267 177T198 207T130 244T78 294T57 363Q57 434 119 472T283 510Q319 510 360 506T444
490L407 390Q361 406 317 413T232 421Q218 421 204 420T173 417L207 437Q192 426 186 413T180 386Q180 368 200 354T252 326T321 296T389 260T442 210T463 142Q463 72 399 33T231 -7ZM49 20L53 182H115L178 21L49 20ZM381 336L316 491L444 490L442 336H381Z" />
<glyph unicode="t" horiz-adv-x="386" d="M223 605V496H374L366 420H223V99L374 102Q362 66 337 41T280 2T214 -11Q172 -11 135 8T76 65L90 420H16V446Q56 495 108 535T223 605Z" />
<glyph unicode="u" horiz-adv-x="611" d="M517 96L603 107Q601 69 586 43T546 4T496 -9Q468 -9 441 5T396 49T373 121L381 368L325 453Q418 506 517 512V96ZM274 -8Q264 -9 255 -10T238 -11Q184 -11 143 12T70 83L186 155Q237 112 295 112Q339 112 383 142L387
121Q363 81 335 50T274 -8ZM70 83L80 368L22 453Q121 506 214 512V97L70 83Z" />
<glyph unicode="v" horiz-adv-x="509" d="M183 -4L10 489H170L296 64H268L399 489H501L360 82Q352 56 343 40T318 14T270 1T183 -4ZM123 398Q86 405 52 418T-15 450V499H238V450L123 398ZM455 398Q377 412 307 450V499H523V450L455 398Z" />
<glyph unicode="w" horiz-adv-x="805" d="M483 -4L316 489H467L592 64H557L690 489H798L655 82Q647 56 639 40T614 14T568 1T483 -4ZM183 -4L11 489H171L297 64H263L377 429L430 304L355 82Q347 55 339 39T314 13T266 0T183 -4ZM123 398Q86 405 52 418T-15 450V499H238V450L123
398ZM422 398Q388 405 354 418T289 450V499H533V450L422 398ZM751 398Q712 405 675 418T603 450V499H818V450L751 398Z" />
<glyph unicode="x" horiz-adv-x="548" d="M31 10V50L208 288H344L512 53V10H382L230 236H273L117 10H31ZM3 0V46Q52 81 115 95L203 46V0H3ZM290 0V46Q326 66 362 78T434 96L548 46V0H290ZM146 404Q110 411 77 423T14 454V499H264V454L146 404ZM204 240L51 453V489H187L319
293H276L409 489H498L499 451L342 240H204ZM452 404Q420 411 390 423T333 454V499H533V454L452 404Z" />
<glyph unicode="y" horiz-adv-x="510" d="M-32 -182L-23 -85L181 -99Q205 -68 221 -41T250 17T274 84L398 489H501L354 57Q309 -75 244 -139T87 -204Q60 -204 30 -199T-32 -182ZM179 4L11 489H170L304 30L179 4ZM124 398Q89 405 54 418T-15 450V499H238V450L124
398ZM455 398Q417 405 380 418T308 450V499H523V450L455 398Z" />
<glyph unicode="z" horiz-adv-x="523" d="M37 0V49L304 420L139 416L105 308H52L51 499H477V451L209 78L390 84L423 195H477L479 0H37Z" />
<glyph unicode="{" horiz-adv-x="357" d="M10 266V322H30Q78 322 103 345T129 418V594Q129 646 148 681T211 735T328 757V692Q290 686 273 673T252 636T246 577L242 432Q239 361 201 321T87 273L10 266ZM328 -201Q255 -197 212 -179T149 -125T129 -37V138Q129
184 106 209T30 234H10V291L88 283Q160 276 199 234T242 119L246 -21Q247 -55 251 -78T271 -115T328 -136V-201Z" />
<glyph unicode="|" horiz-adv-x="221" d="M74 -195V749H147V-195H74Z" />
<glyph unicode="}" horiz-adv-x="357" d="M347 291V234H327Q279 234 254 212T228 138V-37Q228 -89 209 -124T146 -178T29 -201V-136Q67 -129 84 -116T105 -80T111 -21L115 125Q118 196 156 236T270 283L347 291ZM29 757Q102 754 145 735T208 681T228 594V418Q228
372 251 347T327 322H347V266L269 273Q197 280 158 322T115 437L111 577Q109 611 105 634T85 672T29 692V757Z" />
<glyph unicode="~" horiz-adv-x="577" d="M77 217L52 243Q99 303 127 332T177 367T225 363L403 299L502 358L525 332Q478 272 450 243T401 208T353 212L174 276L77 217Z" />
<glyph unicode="&#xa0;" horiz-adv-x="158" />
<glyph unicode="&#xa1;" horiz-adv-x="290" d="M71 -172L72 -54L106 272H188L209 -54L204 -172Q188 -173 171 -174T137 -176Q121 -176 104 -175T71 -172ZM129 335Q106 353 89 382T66 444Q89 468 118 484T176 505Q200 483 216 455T237 397Q217 373 188 356T129 335Z" />
<glyph unicode="&#xa2;" horiz-adv-x="486" d="M276 -132H204L252 632H324L276 -132ZM247 -11Q185 -11 138 20T64 109T37 244Q37 327 67 386T153 478T285 511Q321 511 357 504T427 482L410 380Q350 404 284 407T156 394L217 445Q200 401 191 356T181 269Q181 208
200 170T252 113T332 98T432 127L443 102Q401 44 352 17T247 -11ZM371 314L307 482H427L425 314H371Z" />
<glyph unicode="&#xa3;" horiz-adv-x="625" d="M45 277V303Q68 321 94 335T149 357Q159 432 187 485T261 570T372 616T522 624V501Q473 507 422 508T317 505Q290 460 284 357H469L463 277H45ZM27 0V49Q50 59 73 68T122 83L142 315H281L273 179Q270 126 250 80T193
0H27ZM166 0V100L530 109L531 0H166ZM427 0L503 217H562V0H427Z" />
<glyph unicode="&#xa4;" horiz-adv-x="627" d="M312 111Q256 111 211 137T141 208T115 310Q115 367 140 412T211 482T312 508Q369 508 414 483T485 412T511 310Q511 253 485 208T414 137T312 111ZM121 53L57 118L182 242L246 178L121 53ZM313 201Q343 201 367
215T406 254T421 310Q420 341 406 365T368 403T313 418Q282 417 257 403T218 365T204 310Q204 279 218 255T257 216T313 201ZM507 53L382 179L446 242L572 118L507 53ZM181 379L57 502L121 568L246 441L181 379ZM446 378L382 442L507 568L572 502L446 378Z" />
<glyph unicode="&#xa5;" horiz-adv-x="725" d="M86 275V338H637V275H86ZM86 142V204H637V142H86ZM323 196L88 575V616H235L413 304H366L548 616H641V572L399 196H323ZM185 0V45Q212 55 237 61T289 72L294 301H432V70L537 51V0H185ZM176 521L35 566V616H358V572Q315
551 269 539T176 521ZM546 521L420 566V616H690V572Q656 551 620 539T546 521Z" />
<glyph unicode="&#xa6;" horiz-adv-x="221" d="M74 395V749H147V395H74ZM74 -195V159H147V-195H74Z" />
<glyph unicode="&#xa7;" horiz-adv-x="541" d="M229 -203Q184 -203 137 -195T45 -172L97 -84Q212 -118 324 -103Q338 -93 345 -79T353 -50Q353 -27 330 -10T271 23T195 57T118 101T59 162T36 249Q36 307 71 348T169 408L223 347Q195 338 179 316T162 268Q162 238
185 217T244 178T321 143T398 102T457 46T480 -35Q480 -85 449 -123T362 -182T229 -203ZM168 -174L44 -168L48 18L103 13L168 -174ZM299 58L285 107Q330 118 360 148T390 211Q390 240 368 260T309 298T232 333T155 374T96 431T73 514Q73 588 138 632T316 676Q357
676 399 670T479 652L448 560Q393 576 337 580T222 577Q211 568 205 556T199 530Q199 505 222 487T281 452T358 418T435 375T494 316T517 232Q517 184 490 147T415 86T299 58ZM421 467L356 655L479 652L476 467H421Z" />
<glyph unicode="&#xa8;" horiz-adv-x="448" d="M157 749Q179 729 194 703T214 647Q196 625 169 609T112 589Q91 607 75 634T52 692Q73 713 100 728T157 749ZM362 749Q384 729 400 703T421 647Q402 625 375 609T318 589Q295 607 280 634T259 692Q279 713 305 728T362 749Z" />
<glyph unicode="&#xa9;" horiz-adv-x="722" d="M368 132Q274 132 222 184T170 334Q170 432 225 487T381 543Q407 543 437 539T500 527L476 456Q435 468 391 469T301 462Q272 410 272 335Q272 240 321 211T471 220L500 151Q463 141 430 137T368 132ZM407 150L459
282H500V151L407 150ZM459 397L408 528L500 527V397H459ZM359 -12Q286 -12 223 14T113 87T40 197T14 335Q14 410 39 472T112 581T222 654T359 680Q434 680 497 655T608 582T681 473T707 335Q707 260 681 197T608 87T498 14T359 -12ZM359 31Q447 31 516 70T625 179T665
335Q665 423 625 491T516 598T359 637Q272 637 204 598T97 491T57 335Q57 248 96 179T203 71T359 31Z" />
<glyph unicode="&#xaa;" horiz-adv-x="378" d="M301 411Q276 411 254 427T223 476L233 648Q211 661 182 669T117 677Q106 677 97 676T77 673L134 701L119 602Q84 603 64 615T44 648Q44 671 63 690T115 721T187 733Q270 733 321 676V484L377 491Q377 456 355 434T301
411ZM162 409Q105 410 73 434T40 498Q40 520 55 536T114 569T245 609V562L113 546L143 559Q140 550 139 541T137 523Q137 500 147 489T180 478Q194 478 209 482T240 494V488Q222 463 204 445T162 409Z" />
<glyph unicode="&#xab;" horiz-adv-x="454" d="M177 41L1 236V255L177 450L227 414L122 245L227 76L177 41ZM378 41L202 236V255L378 450L428 414L323 245L428 76L378 41Z" />
<glyph unicode="&#xac;" horiz-adv-x="609" d="M510 353V131H418V258H59V353H510Z" />
<glyph unicode="&#xad;" horiz-adv-x="317" d="M42 312L282 342L292 247L53 217L42 312Z" />
<glyph unicode="&#xae;" horiz-adv-x="611" d="M304 197Q222 197 158 234T57 337T20 484Q20 565 57 629T158 730T304 767Q387 767 451 731T553 630T591 483Q591 402 554 337T452 235T304 197ZM162 355V378Q171 382 180 384T200 390L205 593L162 605V630H273V389L310
380V355H162ZM304 238Q375 238 430 270T518 358T550 484Q550 554 518 608T431 695T304 727Q234 727 179 695T93 608T61 484Q61 414 92 359T179 271T304 238ZM353 355L344 431Q342 449 334 456T308 463H238V506H313Q332 506 343 517T355 547Q355 565 345 575T314
586H238V630H327Q373 630 399 611T426 561Q426 530 404 509T346 483L334 493Q374 489 393 473T417 427L428 355L395 397L458 380V355H353Z" />
<glyph unicode="&#xaf;" horiz-adv-x="439" d="M72 625V718H361V625H72Z" />
<glyph unicode="&#xb0;" horiz-adv-x="417" d="M208 294Q159 294 120 316T59 378T37 466Q37 516 59 554T120 615T208 637Q258 637 296 615T357 555T379 466Q379 417 357 378T296 317T208 294ZM208 357Q255 357 286 388T317 466Q317 514 286 545T208 576Q161 576
130 545T99 466Q99 419 130 388T208 357Z" />
<glyph unicode="&#xb1;" horiz-adv-x="544" d="M63 347V442H480V347H63ZM63 66V161H480V66H63ZM224 215V576H320V215H224Z" />
<glyph unicode="&#xb2;" horiz-adv-x="404" d="M58 374V420Q58 451 77 477T126 525T184 568T232 609T252 652Q252 661 249 672T234 700L276 662Q261 664 245 665T210 666Q179 666 148 663T85 652L69 728Q106 735 139 739T203 744Q273 744 311 721T350 654Q350
622 330 596T282 548T224 504T175 463T155 420V374H58ZM90 374V439L339 447V374H90ZM270 374L323 511H365L364 374H270ZM69 586V728L159 729L110 586H69Z" />
<glyph unicode="&#xb3;" horiz-adv-x="391" d="M62 388L83 451Q116 444 141 440T186 436Q219 436 237 447T255 481Q255 503 240 514T196 525H150V590H190Q217 590 233 601T250 637Q250 645 247 654T238 672Q227 674 216 674T193 675Q170 675 144 672T92 662L71
725Q105 735 137 740T200 745Q266 745 308 721T350 651Q350 621 329 598T269 562Q314 552 335 530T357 474Q357 423 311 395T193 367Q164 367 130 372T62 388ZM64 504H106L156 386L62 388L64 504ZM74 610L71 725L165 727L115 610H74Z" />
<glyph unicode="&#xb4;" horiz-adv-x="306" d="M290 563L263 609L456 767H474L524 671Q467 639 409 613T290 563Z" />
<glyph unicode="&#xb5;" horiz-adv-x="625" d="M535 96L622 107Q620 69 604 43T565 4T515 -9Q486 -9 460 5T415 49T391 121L400 368L343 453Q437 506 535 512V96ZM85 -195L98 368L41 453Q138 506 233 512L231 102L206 57L239 -179V-195H85ZM301 -8Q294 -9 286
-10T271 -11Q192 -11 139 54L205 155Q256 112 314 112Q357 112 402 142L405 121Q383 81 357 50T301 -8Z" />
<glyph unicode="&#xb6;" horiz-adv-x="572" d="M247 -122L227 -96L353 78V669H591V620Q568 610 545 603T496 591V186Q496 73 434 -3T247 -122ZM237 224Q124 224 59 283T-6 447Q-6 551 58 610T237 669V224ZM225 574L237 669H423V574H225Z" />
<glyph unicode="&#xb7;" horiz-adv-x="276" d="M120 191Q96 211 80 240T56 301Q78 323 106 340T166 362Q189 341 206 313T227 254Q208 230 179 213T120 191Z" />
<glyph unicode="&#xb8;" horiz-adv-x="305" d="M45 -225L53 -143Q90 -155 124 -163T195 -174Q200 -170 202 -165T205 -156Q205 -146 197 -139T164 -122T93 -97L127 -28Q210 -47 246 -74T283 -142Q283 -184 250 -209T164 -240T45 -225ZM120 16H174L147 -97H93L120 16Z" />
<glyph unicode="&#xb9;" horiz-adv-x="296" d="M35 374V408Q54 413 74 418T114 426L121 664H36V697L161 740H219V424L295 412V374H35Z" />
<glyph unicode="&#xba;" horiz-adv-x="381" d="M193 409Q120 409 79 451T37 568Q37 645 81 689T201 734Q276 734 318 693T360 579Q360 499 316 454T193 409ZM199 469Q227 469 242 492T258 571Q258 623 242 647T195 671Q178 671 158 666T104 649L163 688Q151 661
145 634T139 571Q139 516 154 493T199 469Z" />
<glyph unicode="&#xbb;" horiz-adv-x="453" d="M283 450L459 256V236L283 41L233 77L338 246L233 415L283 450ZM77 450L254 256V236L77 41L28 77L133 246L28 415L77 450Z" />
<glyph unicode="&#xbc;" horiz-adv-x="786" d="M43 247V281Q62 286 82 291T122 299L129 537H44V570L169 613H227V297L303 285V247H43ZM163 -65L105 -20L641 680L700 636L163 -65ZM531 0V31Q547 37 561 41T591 49L597 309L616 300L466 113L452 146H756V92H425L417
137L601 364H687V47L740 35V0H531Z" />
<glyph unicode="&#xbd;" horiz-adv-x="868" d="M43 247V281Q62 286 82 291T122 299L129 537H44V570L169 613H227V297L303 285V247H43ZM163 -65L105 -20L641 680L700 636L163 -65ZM511 0V46Q511 77 530 103T579 151T637 194T685 235T705 278Q705 287 702 298T687
326L729 288Q714 290 698 291T663 292Q632 292 601 289T538 278L522 354Q559 361 592 365T656 370Q726 370 764 347T803 280Q803 248 783 222T735 174T677 130T628 89T608 46V0H511ZM543 0V65L792 73V0H543ZM723 0L776 137H818L817 0H723ZM522 212V354L612 355L563
212H522Z" />
<glyph unicode="&#xbe;" horiz-adv-x="818" d="M70 261L91 324Q124 317 149 313T194 309Q227 309 245 320T263 354Q263 376 248 387T204 398H158V463H198Q225 463 241 474T258 510Q258 518 255 527T246 545Q235 547 224 547T201 548Q178 548 152 545T100 535L79
598Q113 608 145 613T208 618Q274 618 316 594T358 524Q358 494 337 471T277 435Q322 425 343 403T365 347Q365 296 319 268T201 240Q172 240 138 245T70 261ZM72 377H114L164 259L70 261L72 377ZM82 483L79 598L173 600L123 483H82ZM195 -65L137 -20L673 680L732
636L195 -65ZM563 0V31Q579 37 593 41T623 49L629 309L648 300L498 113L484 146H788V92H457L449 137L633 364H719V47L772 35V0H563Z" />
<glyph unicode="&#xbf;" horiz-adv-x="435" d="M234 -178Q126 -178 64 -137T1 -22Q1 19 18 48T62 100T115 142T163 182T190 227L199 272H289L290 212Q290 180 275 157T238 114T194 77T156 40T141 -6Q141 -39 169 -56T249 -73Q305 -73 382 -52L415 -150Q369 -164
324 -171T234 -178ZM284 -152L359 57H415V-150L284 -152ZM225 335Q202 353 185 382T162 444Q185 468 214 484T272 505Q297 483 313 455T333 397Q313 373 284 356T225 335Z" />
<glyph unicode="&#xc0;" horiz-adv-x="723" d="M667 74Q684 69 700 64T733 52V0H410V50L501 75L328 620H364L186 82Q213 76 238 69T290 52V0H5V50L74 83L285 669H454L667 74ZM176 193V275H554V193H176ZM468 728Q408 751 350 777T234 836L284 932H303L496 774L468 728Z" />
<glyph unicode="&#xc1;" horiz-adv-x="723" d="M667 74Q684 69 700 64T733 52V0H410V50L501 75L328 620H364L186 82Q213 76 238 69T290 52V0H5V50L74 83L285 669H454L667 74ZM176 193V275H554V193H176ZM272 728L245 774L438 932H456L506 836Q449 804 391 778T272 728Z" />
<glyph unicode="&#xc2;" horiz-adv-x="723" d="M667 74Q684 69 700 64T733 52V0H410V50L501 75L328 620H364L186 82Q213 76 238 69T290 52V0H5V50L74 83L285 669H454L667 74ZM176 193V275H554V193H176ZM429 930L552 791L501 742L384 832L267 742L216 791L339 930H429Z" />
<glyph unicode="&#xc3;" horiz-adv-x="723" d="M666 74Q683 69 699 64T732 52V0H409V50L500 75L327 620H363L185 82Q212 76 237 69T289 52V0H4V50L73 83L284 669H453L666 74ZM175 193V275H553V193H175ZM212 753L183 779Q211 828 230 855T263 893T290 905T319 902L452
869L518 922L548 896Q513 836 492 808T453 774T412 773L278 807L212 753Z" />
<glyph unicode="&#xc4;" horiz-adv-x="723" d="M667 74Q684 69 700 64T733 52V0H410V50L501 75L328 620H364L186 82Q213 76 238 69T290 52V0H5V50L74 83L285 669H454L667 74ZM176 193V275H554V193H176ZM287 914Q309 894 324 868T344 812Q326 790 299 774T242 754Q221
772 205 799T182 857Q203 878 230 893T287 914ZM492 914Q514 894 530 868T551 812Q532 790 505 774T448 754Q425 772 410 799T389 857Q409 878 435 893T492 914Z" />
<glyph unicode="&#xc5;" horiz-adv-x="723" d="M666 74Q683 69 699 64T732 52V0H409V50L500 75L327 620H363L185 82Q212 76 237 69T289 52V0H4V50L73 83L284 669H453L666 74ZM175 193V275H553V193H175ZM365 721Q331 721 306 736T265 777T250 836Q250 869 265 895T305
936T364 951Q414 951 446 919T479 836Q479 803 464 777T424 736T365 721ZM364 781Q388 781 404 797T420 836Q420 860 404 876T364 892Q341 892 325 876T309 836Q309 813 325 797T364 781Z" />
<glyph unicode="&#xc6;" horiz-adv-x="1003" d="M878 234H935V0H388V49L491 79L374 634L409 630L165 76Q189 70 213 64T260 50V0H-3V49L52 82L292 591L190 617V669H904V454H847L807 578H457L507 640L652 29L575 91H835L878 234ZM733 217L680 340L733 463H784V217H733ZM176
193L178 275H545L544 193H176ZM507 297L508 386H762L761 297H507Z" />
<glyph unicode="&#xc7;" horiz-adv-x="680" d="M389 -11Q231 -11 145 77T58 329Q58 440 99 518T220 639T409 681Q452 681 501 675T604 654L569 544Q520 559 472 567T375 575Q336 575 299 569T224 549L283 592Q248 532 231 469T213 330Q213 212 260 152T402 91Q434
91 474 100T561 127L604 21Q483 -11 389 -11ZM460 19L542 237H604V21L460 19ZM542 439L461 656L604 654V439H542ZM295 -225L303 -143Q340 -155 374 -163T445 -174Q450 -170 452 -165T455 -156Q455 -146 447 -139T414 -122T343 -97L377 -28Q460 -47 496 -74T533
-142Q533 -184 500 -209T414 -240T295 -225ZM370 16H424L397 -97H343L370 16Z" />
<glyph unicode="&#xc8;" horiz-adv-x="722" d="M593 235H651V0H40V49Q64 59 87 66T135 78L147 588L40 615V669H642V453H583L542 578H226L290 642V386H429L462 465H514V213H462L427 295H290V28L226 91H550L593 235ZM479 728Q419 751 361 777T245 836L295 932H314L507
774L479 728Z" />
<glyph unicode="&#xc9;" horiz-adv-x="722" d="M593 235H651V0H40V49Q64 59 87 66T135 78L147 588L40 615V669H642V453H583L542 578H226L290 642V386H429L462 465H514V213H462L427 295H290V28L226 91H550L593 235ZM284 728L257 774L450 932H468L518 836Q461 804
403 778T284 728Z" />
<glyph unicode="&#xca;" horiz-adv-x="722" d="M593 235H651V0H40V49Q64 59 87 66T135 78L147 588L40 615V669H642V453H583L542 578H226L290 642V386H429L462 465H514V213H462L427 295H290V28L226 91H550L593 235ZM440 930L563 791L512 742L395 832L278 742L227
791L350 930H440Z" />
<glyph unicode="&#xcb;" horiz-adv-x="722" d="M593 235H651V0H40V49Q64 59 87 66T135 78L147 588L40 615V669H642V453H583L542 578H226L290 642V386H429L462 465H514V213H462L427 295H290V28L226 91H550L593 235ZM298 914Q320 894 335 868T355 812Q337 790 310
774T253 754Q232 772 216 799T193 857Q214 878 241 893T298 914ZM503 914Q525 894 541 868T562 812Q543 790 516 774T459 754Q436 772 421 799T400 857Q420 878 446 893T503 914Z" />
<glyph unicode="&#xcc;" horiz-adv-x="412" d="M40 0V49Q64 59 87 66T135 78L147 588L40 615V669H384V620Q363 611 339 604T290 591V76L384 55V0H40ZM316 728Q256 751 198 777T82 836L132 932H151L344 774L316 728Z" />
<glyph unicode="&#xcd;" horiz-adv-x="412" d="M40 0V49Q64 59 87 66T135 78L147 588L40 615V669H384V620Q363 611 339 604T290 591V76L384 55V0H40ZM120 728L93 774L286 932H304L354 836Q297 804 239 778T120 728Z" />
<glyph unicode="&#xce;" horiz-adv-x="412" d="M40 0V49Q64 59 87 66T135 78L147 588L40 615V669H384V620Q363 611 339 604T290 591V76L384 55V0H40ZM277 930L400 791L349 742L232 832L115 742L64 791L187 930H277Z" />
<glyph unicode="&#xcf;" horiz-adv-x="412" d="M40 0V49Q64 59 87 66T135 78L147 588L40 615V669H384V620Q363 611 339 604T290 591V76L384 55V0H40ZM135 914Q157 894 172 868T192 812Q174 790 147 774T90 754Q69 772 53 799T30 857Q51 878 78 893T135 914ZM340
914Q362 894 378 868T399 812Q380 790 353 774T296 754Q273 772 258 799T237 857Q257 878 283 893T340 914Z" />
<glyph unicode="&#xd0;" horiz-adv-x="796" d="M457 669Q550 669 616 631T719 520T755 346Q755 239 716 162T604 43T432 0H66V49Q87 58 110 65T162 78L173 588L66 615V669H457ZM485 92Q543 120 571 179T599 331Q599 406 585 454T547 529T494 566T433 577H253L316
640V29L253 92H485ZM321 375H706V299H321V375Z" />
<glyph unicode="&#xd1;" horiz-adv-x="819" d="M505 669H807V620Q784 610 762 603T713 591L712 0H554L207 552L240 562V76L354 55V0H43V49Q65 59 87 66T134 78L145 588L41 615V669H307L649 124L618 115L608 593L505 615V669ZM261 753L232 779Q260 828 279 855T312
893T339 905T368 902L501 869L567 922L597 896Q562 836 541 808T502 774T461 773L327 807L261 753Z" />
<glyph unicode="&#xd2;" horiz-adv-x="742" d="M369 -12Q274 -12 204 29T96 145T58 326Q58 432 100 512T215 636T384 680Q481 680 552 639T662 524T701 347Q701 237 661 157T546 32T369 -12ZM380 82Q431 82 468 111T524 198T544 336Q544 415 525 469T467 552T374
581Q336 581 298 567T224 521L280 587Q213 467 213 329Q213 251 233 196T290 111T380 82ZM478 728Q418 751 360 777T244 836L294 932H313L506 774L478 728Z" />
<glyph unicode="&#xd3;" horiz-adv-x="742" d="M369 -12Q274 -12 204 29T96 145T58 326Q58 432 100 512T215 636T384 680Q481 680 552 639T662 524T701 347Q701 237 661 157T546 32T369 -12ZM380 82Q431 82 468 111T524 198T544 336Q544 415 525 469T467 552T374
581Q336 581 298 567T224 521L280 587Q213 467 213 329Q213 251 233 196T290 111T380 82ZM282 728L255 774L448 932H466L516 836Q459 804 401 778T282 728Z" />
<glyph unicode="&#xd4;" horiz-adv-x="742" d="M369 -12Q274 -12 204 29T96 145T58 326Q58 432 100 512T215 636T384 680Q481 680 552 639T662 524T701 347Q701 237 661 157T546 32T369 -12ZM380 82Q431 82 468 111T524 198T544 336Q544 415 525 469T467 552T374
581Q336 581 298 567T224 521L280 587Q213 467 213 329Q213 251 233 196T290 111T380 82ZM439 930L562 791L511 742L394 832L277 742L226 791L349 930H439Z" />
<glyph unicode="&#xd5;" horiz-adv-x="742" d="M369 -12Q274 -12 204 29T96 145T58 326Q58 432 100 512T215 636T384 680Q481 680 552 639T662 524T701 347Q701 237 661 157T546 32T369 -12ZM380 82Q431 82 468 111T524 198T544 336Q544 415 525 469T467 552T374
581Q336 581 298 567T224 521L280 587Q213 467 213 329Q213 251 233 196T290 111T380 82ZM223 753L194 779Q222 828 241 855T274 893T301 905T330 902L463 869L529 922L559 896Q524 836 503 808T464 774T423 773L289 807L223 753Z" />
<glyph unicode="&#xd6;" horiz-adv-x="742" d="M369 -12Q274 -12 204 29T96 145T58 326Q58 432 100 512T215 636T384 680Q481 680 552 639T662 524T701 347Q701 237 661 157T546 32T369 -12ZM380 82Q431 82 468 111T524 198T544 336Q544 415 525 469T467 552T374
581Q336 581 298 567T224 521L280 587Q213 467 213 329Q213 251 233 196T290 111T380 82ZM297 914Q319 894 334 868T354 812Q336 790 309 774T252 754Q231 772 215 799T192 857Q213 878 240 893T297 914ZM502 914Q524 894 540 868T561 812Q542 790 515 774T458
754Q435 772 420 799T399 857Q419 878 445 893T502 914Z" />
<glyph unicode="&#xd7;" horiz-adv-x="483" d="M113 91L47 159L369 481L437 414L113 91ZM369 91L47 414L113 481L437 159L369 91Z" />
<glyph unicode="&#xd8;" horiz-adv-x="743" d="M281 57L213 -91L145 -62L215 90L281 57ZM362 -12Q267 -12 197 29T89 145T51 326Q51 432 91 512T205 636T377 680Q474 680 545 639T655 524T694 347Q694 237 654 157T539 32T362 -12ZM373 82Q425 82 461 111T517
198T537 336Q537 415 518 469T460 552T367 581Q339 581 311 573T257 550Q207 447 207 329Q207 251 226 196T283 111T373 82ZM456 617L518 752L586 724L524 587L456 617ZM215 90L456 617L524 587L281 57L215 90Z" />
<glyph unicode="&#xd9;" horiz-adv-x="769" d="M393 -12Q261 -12 189 48T117 214L125 588L19 615V669H358V620Q340 610 319 604T269 591V206Q269 150 306 119T413 87Q460 87 495 101T555 146L562 588L466 615V669H764V620Q742 610 719 603T668 591V226Q668 112
596 50T393 -12ZM509 728Q449 751 391 777T275 836L325 932H344L537 774L509 728Z" />
<glyph unicode="&#xda;" horiz-adv-x="769" d="M392 -12Q260 -12 188 48T116 214L124 588L18 615V669H357V620Q339 610 318 604T268 591V206Q268 150 305 119T412 87Q459 87 494 101T554 146L561 588L465 615V669H763V620Q741 610 718 603T667 591V226Q667 112
595 50T392 -12ZM313 728L286 774L479 932H497L547 836Q490 804 432 778T313 728Z" />
<glyph unicode="&#xdb;" horiz-adv-x="769" d="M393 -12Q261 -12 189 48T117 214L125 588L19 615V669H358V620Q340 610 319 604T269 591V206Q269 150 306 119T413 87Q460 87 495 101T555 146L562 588L466 615V669H764V620Q742 610 719 603T668 591V226Q668 112
596 50T393 -12ZM470 930L593 791L542 742L425 832L308 742L257 791L380 930H470Z" />
<glyph unicode="&#xdc;" horiz-adv-x="769" d="M392 -12Q260 -12 188 48T116 214L124 588L18 615V669H357V620Q339 610 318 604T268 591V206Q268 150 305 119T412 87Q459 87 494 101T554 146L561 588L465 615V669H763V620Q741 610 718 603T667 591V226Q667 112
595 50T392 -12ZM327 914Q349 894 364 868T384 812Q366 790 339 774T282 754Q261 772 245 799T222 857Q243 878 270 893T327 914ZM532 914Q554 894 570 868T591 812Q572 790 545 774T488 754Q465 772 450 799T429 857Q449 878 475 893T532 914Z" />
<glyph unicode="&#xdd;" horiz-adv-x="703" d="M318 191L63 620V658H227L415 315H369L560 658H658L659 617L399 191H318ZM168 0V49Q196 59 223 66T280 78L285 305H434V76L548 55V0H168ZM156 565L4 614V669H355V621Q307 599 257 585T156 565ZM559 565L422 614V669H715V621Q678
599 639 585T559 565ZM280 728L253 774L446 932H464L514 836Q457 804 399 778T280 728Z" />
<glyph unicode="&#xde;" horiz-adv-x="674" d="M32 0V49Q56 59 79 66T127 78L139 588L32 615V669H376V622Q355 614 331 606T282 593V74L376 53V0H32ZM207 142V231H443Q474 253 488 280T502 343Q502 396 473 422T389 449H207V537H422Q527 537 588 488T650 351Q650
287 618 241T527 168T389 142H207Z" />
<glyph unicode="&#xdf;" horiz-adv-x="700" d="M307 18L340 103Q387 91 432 86T526 80Q546 80 567 81T611 84L532 75Q544 80 552 93T560 121Q560 140 544 156T503 188T450 219T396 257T355 305T339 368Q339 400 353 422T387 462T427 495T461 528T475 571Q475 610
443 629T348 649Q329 649 307 647T261 640Q251 612 246 561T241 420H24V446Q41 463 61 476T104 496Q115 581 151 639T245 727T382 758Q484 758 543 715T603 600Q603 564 589 538T554 490T513 452T478 419T464 385Q464 367 480 352T520 323T573 292T625 256T666
208T682 143Q682 96 654 63T577 11T465 -8Q428 -8 389 -2T307 18ZM35 0V44Q48 52 63 59T95 73L103 420H241V0H35ZM422 16L307 18L311 178H362L422 16Z" />
<glyph unicode="&#xe0;" horiz-adv-x="544" d="M437 -9Q400 -9 368 16T323 94L337 378Q266 426 163 426Q147 426 132 425T101 420L184 459L162 304Q108 306 80 324T52 375Q52 412 81 442T159 491T265 509Q326 509 377 486T465 419V100L551 110Q551 75 536 48T495
6T437 -9ZM227 -11Q142 -11 94 27T45 129Q45 157 57 178T103 218T197 258T357 307V236L153 206L196 225Q191 210 189 195T187 166Q187 128 203 110T252 91Q275 91 298 98T348 121V109Q323 73 294 44T227 -11ZM379 563Q319 586 261 612T145 671L195 767H214L407
609L379 563Z" />
<glyph unicode="&#xe1;" horiz-adv-x="544" d="M437 -9Q400 -9 368 16T323 94L337 378Q266 426 163 426Q147 426 132 425T101 420L184 459L162 304Q108 306 80 324T52 375Q52 412 81 442T159 491T265 509Q326 509 377 486T465 419V100L551 110Q551 75 536 48T495
6T437 -9ZM227 -11Q142 -11 94 27T45 129Q45 157 57 178T103 218T197 258T357 307V236L153 206L196 225Q191 210 189 195T187 166Q187 128 203 110T252 91Q275 91 298 98T348 121V109Q323 73 294 44T227 -11ZM183 563L156 609L349 767H367L417 671Q360 639 302
613T183 563Z" />
<glyph unicode="&#xe2;" horiz-adv-x="544" d="M437 -9Q400 -9 368 16T323 94L337 378Q266 426 163 426Q147 426 132 425T101 420L184 459L162 304Q108 306 80 324T52 375Q52 412 81 442T159 491T265 509Q326 509 377 486T465 419V100L551 110Q551 75 536 48T495
6T437 -9ZM227 -11Q142 -11 94 27T45 129Q45 157 57 178T103 218T197 258T357 307V236L153 206L196 225Q191 210 189 195T187 166Q187 128 203 110T252 91Q275 91 298 98T348 121V109Q323 73 294 44T227 -11ZM340 765L463 626L412 577L295 667L178 577L127 626L250
765H340Z" />
<glyph unicode="&#xe3;" horiz-adv-x="544" d="M437 -9Q400 -9 368 16T323 94L337 378Q266 426 163 426Q147 426 132 425T101 420L184 459L162 304Q108 306 80 324T52 375Q52 412 81 442T159 491T265 509Q326 509 377 486T465 419V100L551 110Q551 75 536 48T495
6T437 -9ZM227 -11Q142 -11 94 27T45 129Q45 157 57 178T103 218T197 258T357 307V236L153 206L196 225Q191 210 189 195T187 166Q187 128 203 110T252 91Q275 91 298 98T348 121V109Q323 73 294 44T227 -11ZM124 588L95 614Q123 663 142 690T175 728T202 740T231
737L364 704L430 757L460 731Q425 671 404 643T365 609T324 608L190 642L124 588Z" />
<glyph unicode="&#xe4;" horiz-adv-x="544" d="M437 -9Q400 -9 368 16T323 94L337 378Q266 426 163 426Q147 426 132 425T101 420L184 459L162 304Q108 306 80 324T52 375Q52 412 81 442T159 491T265 509Q326 509 377 486T465 419V100L551 110Q551 75 536 48T495
6T437 -9ZM227 -11Q142 -11 94 27T45 129Q45 157 57 178T103 218T197 258T357 307V236L153 206L196 225Q191 210 189 195T187 166Q187 128 203 110T252 91Q275 91 298 98T348 121V109Q323 73 294 44T227 -11ZM198 749Q220 729 235 703T255 647Q237 625 210 609T153
589Q132 607 116 634T93 692Q114 713 141 728T198 749ZM403 749Q425 729 441 703T462 647Q443 625 416 609T359 589Q336 607 321 634T300 692Q320 713 346 728T403 749Z" />
<glyph unicode="&#xe5;" horiz-adv-x="544" d="M437 -9Q400 -9 368 16T323 94L337 378Q266 426 163 426Q147 426 132 425T101 420L184 459L162 304Q108 306 80 324T52 375Q52 412 81 442T159 491T265 509Q326 509 377 486T465 419V100L551 110Q551 75 536 48T495
6T437 -9ZM227 -11Q142 -11 94 27T45 129Q45 157 57 178T103 218T197 258T357 307V236L153 206L196 225Q191 210 189 195T187 166Q187 128 203 110T252 91Q275 91 298 98T348 121V109Q323 73 294 44T227 -11ZM277 556Q243 556 218 571T177 612T162 671Q162 704
177 730T217 771T276 786Q326 786 358 754T391 671Q391 638 376 612T336 571T277 556ZM276 616Q300 616 316 632T332 671Q332 695 316 711T276 727Q253 727 237 711T221 671Q221 648 237 632T276 616Z" />
<glyph unicode="&#xe6;" horiz-adv-x="798" d="M541 -11Q434 -11 378 60T322 266Q322 386 384 447T567 509Q625 509 667 485T733 418T756 315L753 251Q687 238 631 230T521 217T404 210L405 276L631 278L634 322Q634 370 611 395T544 420Q527 420 507 416T467
403Q458 372 454 341T449 279Q449 183 488 137T599 91Q631 91 669 99T750 125L760 100Q665 -11 541 -11ZM236 -11Q138 -11 88 24T38 128Q38 156 50 177T96 218T190 258T349 306L348 236L181 209Q179 197 178 186T176 163Q176 124 193 106T244 87Q275 87 309 101T381
142L386 125Q354 83 318 50T236 -11ZM352 363Q271 427 158 427Q126 427 93 420L175 459L152 304Q99 307 72 325T45 376Q45 413 73 442T150 490T255 509Q317 509 370 485T461 413L352 363Z" />
<glyph unicode="&#xe7;" horiz-adv-x="472" d="M255 -11Q191 -11 143 21T68 110T41 244Q41 328 71 387T157 479T288 511Q324 511 360 504T431 482L414 380Q329 411 233 411Q214 411 196 407T160 394L221 445Q203 400 194 356T185 269Q185 214 201 176T247 118T321
98Q346 98 375 105T436 127L447 102Q374 -11 255 -11ZM375 314L311 482H431L429 314H375ZM151 -225L159 -143Q196 -155 230 -163T301 -174Q306 -170 308 -165T311 -156Q311 -146 303 -139T270 -122T199 -97L233 -28Q316 -47 352 -74T389 -142Q389 -184 356 -209T270
-240T151 -225ZM226 16H280L253 -97H199L226 16Z" />
<glyph unicode="&#xe8;" horiz-adv-x="513" d="M264 -11Q197 -11 147 20T69 109T41 244Q41 324 70 384T153 477T280 510Q341 510 386 487T455 419T480 315L478 249Q410 236 353 229T241 216T127 208L128 282L350 283L352 322Q352 369 330 394T266 419Q250 419
234 415T201 403Q187 370 180 335T173 267Q173 183 212 140T325 96Q388 96 474 128L483 102Q439 46 383 18T264 -11ZM376 818Q316 841 258 867T142 926L192 1022H211L404 864L376 818Z" />
<glyph unicode="&#xe9;" horiz-adv-x="513" d="M264 -11Q197 -11 147 20T69 109T41 244Q41 324 70 384T153 477T280 510Q341 510 386 487T455 419T480 315L478 249Q410 236 353 229T241 216T127 208L128 282L350 283L352 322Q352 369 330 394T266 419Q250 419
234 415T201 403Q187 370 180 335T173 267Q173 183 212 140T325 96Q388 96 474 128L483 102Q439 46 383 18T264 -11ZM181 562L154 608L347 766H365L415 670Q358 638 300 612T181 562Z" />
<glyph unicode="&#xea;" horiz-adv-x="513" d="M264 -11Q197 -11 147 20T69 109T41 244Q41 324 70 384T153 477T280 510Q341 510 386 487T455 419T480 315L478 249Q410 236 353 229T241 216T127 208L128 282L350 283L352 322Q352 369 330 394T266 419Q250 419
234 415T201 403Q187 370 180 335T173 267Q173 183 212 140T325 96Q388 96 474 128L483 102Q439 46 383 18T264 -11ZM337 1020L460 881L409 832L292 922L175 832L124 881L247 1020H337Z" />
<glyph unicode="&#xeb;" horiz-adv-x="513" d="M264 -11Q197 -11 147 20T69 109T41 244Q41 324 70 384T153 477T280 510Q341 510 386 487T455 419T480 315L478 249Q410 236 353 229T241 216T127 208L128 282L350 283L352 322Q352 369 330 394T266 419Q250 419
234 415T201 403Q187 370 180 335T173 267Q173 183 212 140T325 96Q388 96 474 128L483 102Q439 46 383 18T264 -11ZM195 1004Q217 984 232 958T252 902Q234 880 207 864T150 844Q129 862 113 889T90 947Q111 968 138 983T195 1004ZM400 1004Q422 984 438 958T459
902Q440 880 413 864T356 844Q333 862 318 889T297 947Q317 968 343 983T400 1004Z" />
<glyph unicode="&#xec;" horiz-adv-x="312" d="M39 0V44Q50 52 63 59T92 73L102 368L45 453Q88 478 136 493T237 512V69L293 48V0H39ZM267 563Q207 586 149 612T33 671L83 767H102L295 609L267 563Z" />
<glyph unicode="&#xed;" horiz-adv-x="312" d="M39 0V44Q50 52 63 59T92 73L102 368L45 453Q88 478 136 493T237 512V69L293 48V0H39ZM72 563L45 609L238 767H256L306 671Q249 639 191 613T72 563Z" />
<glyph unicode="&#xee;" horiz-adv-x="312" d="M39 0V44Q50 52 63 59T92 73L102 368L45 453Q88 478 136 493T237 512V69L293 48V0H39ZM484 765L607 626L556 577L439 667L322 577L271 626L394 765H484Z" />
<glyph unicode="&#xef;" horiz-adv-x="312" d="M40 0V44Q51 52 64 59T93 73L103 368L46 453Q89 478 137 493T238 512V69L294 48V0H40ZM342 749Q364 729 379 703T399 647Q381 625 354 609T297 589Q276 607 260 634T237 692Q258 713 285 728T342 749ZM547 749Q569
729 585 703T606 647Q587 625 560 609T503 589Q480 607 465 634T444 692Q464 713 490 728T547 749Z" />
<glyph unicode="&#xf0;" horiz-adv-x="554" d="M265 -12Q192 -12 140 18T61 104T33 238Q33 322 62 380T144 470T265 501Q301 501 339 490T415 455L401 363Q371 386 336 397T263 409Q249 409 234 406T205 395Q190 356 184 318T177 240Q177 187 188 150T222 94T274
75Q304 75 325 94T358 149T369 241Q369 337 342 418T255 575T102 727L157 761Q272 699 351 621T472 451T514 262Q514 178 484 117T399 22T265 -12ZM110 535L86 599L437 719L460 654L110 535Z" />
<glyph unicode="&#xf1;" horiz-adv-x="610" d="M39 0V44Q50 52 62 59T92 73L102 368L45 453Q130 502 224 512L237 382V69L293 48V0H39ZM343 0V44Q353 53 365 60T395 73L406 357L540 421V69L597 48V0H343ZM229 358L225 379Q250 418 278 449T339 507Q348 509 357
509T374 510Q426 510 467 488T540 421L406 357Q363 387 317 387Q273 387 229 358ZM171 588L142 614Q170 663 189 690T222 728T249 740T278 737L411 704L477 757L507 731Q472 671 451 643T412 609T371 608L237 642L171 588Z" />
<glyph unicode="&#xf2;" horiz-adv-x="549" d="M274 -12Q201 -12 149 19T70 107T42 243Q42 326 71 386T156 478T286 511Q360 511 413 481T495 394T524 261Q524 176 494 115T408 21T274 -12ZM282 75Q313 75 334 93T367 151T379 250Q379 308 368 345T334 400T277
419Q254 419 222 410T141 382L225 439Q206 395 196 350T186 248Q186 188 197 150T230 94T282 75ZM384 563Q324 586 266 612T150 671L200 767H219L412 609L384 563Z" />
<glyph unicode="&#xf3;" horiz-adv-x="549" d="M274 -12Q201 -12 149 19T70 107T42 243Q42 326 71 386T156 478T286 511Q360 511 413 481T495 394T524 261Q524 176 494 115T408 21T274 -12ZM282 75Q313 75 334 93T367 151T379 250Q379 308 368 345T334 400T277
419Q254 419 222 410T141 382L225 439Q206 395 196 350T186 248Q186 188 197 150T230 94T282 75ZM187 563L160 609L353 767H371L421 671Q364 639 306 613T187 563Z" />
<glyph unicode="&#xf4;" horiz-adv-x="549" d="M274 -12Q201 -12 149 19T70 107T42 243Q42 326 71 386T156 478T286 511Q360 511 413 481T495 394T524 261Q524 176 494 115T408 21T274 -12ZM282 75Q313 75 334 93T367 151T379 250Q379 308 368 345T334 400T277
419Q254 419 222 410T141 382L225 439Q206 395 196 350T186 248Q186 188 197 150T230 94T282 75ZM345 765L468 626L417 577L300 667L183 577L132 626L255 765H345Z" />
<glyph unicode="&#xf5;" horiz-adv-x="549" d="M274 -12Q201 -12 149 19T70 107T42 243Q42 326 71 386T156 478T286 511Q360 511 413 481T495 394T524 261Q524 176 494 115T408 21T274 -12ZM282 75Q313 75 334 93T367 151T379 250Q379 308 368 345T334 400T277
419Q254 419 222 410T141 382L225 439Q206 395 196 350T186 248Q186 188 197 150T230 94T282 75ZM128 588L99 614Q127 663 146 690T179 728T206 740T235 737L368 704L434 757L464 731Q429 671 408 643T369 609T328 608L194 642L128 588Z" />
<glyph unicode="&#xf6;" horiz-adv-x="549" d="M274 -12Q201 -12 149 19T70 107T42 243Q42 326 71 386T156 478T286 511Q360 511 413 481T495 394T524 261Q524 176 494 115T408 21T274 -12ZM282 75Q313 75 334 93T367 151T379 250Q379 308 368 345T334 400T277
419Q254 419 222 410T141 382L225 439Q206 395 196 350T186 248Q186 188 197 150T230 94T282 75ZM203 749Q225 729 240 703T260 647Q242 625 215 609T158 589Q137 607 121 634T98 692Q119 713 146 728T203 749ZM408 749Q430 729 446 703T467 647Q448 625 421 609T364
589Q341 607 326 634T305 692Q325 713 351 728T408 749Z" />
<glyph unicode="&#xf7;" horiz-adv-x="513" d="M27 239V334H485V239H27ZM228 41Q212 58 202 83T190 135Q209 151 234 161T285 173Q301 153 311 128T322 78Q303 61 278 51T228 41ZM228 400Q212 417 202 442T190 494Q209 510 234 520T285 531Q301 512 311 487T322
438Q303 420 278 410T228 400Z" />
<glyph unicode="&#xf8;" horiz-adv-x="553" d="M230 37L170 -113L101 -89L163 68L230 37ZM268 -12Q195 -12 143 19T63 107T35 243Q35 326 65 386T150 478T281 511Q355 511 408 481T490 394T519 261Q519 176 489 115T403 21T268 -12ZM277 75Q308 75 330 93T363
150T375 250Q375 308 363 345T328 400T271 419Q241 419 208 403Q193 368 186 329T179 248Q179 188 191 150T224 93T277 75ZM321 459L381 613L451 589L388 430L321 459ZM163 68L321 459L388 430L230 37L163 68Z" />
<glyph unicode="&#xf9;" horiz-adv-x="612" d="M525 96L611 107Q609 69 594 43T554 4T504 -9Q476 -9 449 5T404 49T381 121L389 368L333 453Q426 506 525 512V96ZM282 -8Q272 -9 263 -10T246 -11Q192 -11 151 12T78 83L194 155Q245 112 303 112Q347 112 391 142L395
121Q371 81 343 50T282 -8ZM78 83L88 368L30 453Q129 506 222 512V97L78 83ZM408 563Q348 586 290 612T174 671L224 767H243L436 609L408 563Z" />
<glyph unicode="&#xfa;" horiz-adv-x="612" d="M525 96L611 107Q609 69 594 43T554 4T504 -9Q476 -9 449 5T404 49T381 121L389 368L333 453Q426 506 525 512V96ZM282 -8Q272 -9 263 -10T246 -11Q192 -11 151 12T78 83L194 155Q245 112 303 112Q347 112 391 142L395
121Q371 81 343 50T282 -8ZM78 83L88 368L30 453Q129 506 222 512V97L78 83ZM213 563L186 609L379 767H397L447 671Q390 639 332 613T213 563Z" />
<glyph unicode="&#xfb;" horiz-adv-x="612" d="M525 96L611 107Q609 69 594 43T554 4T504 -9Q476 -9 449 5T404 49T381 121L389 368L333 453Q426 506 525 512V96ZM282 -8Q272 -9 263 -10T246 -11Q192 -11 151 12T78 83L194 155Q245 112 303 112Q347 112 391 142L395
121Q371 81 343 50T282 -8ZM78 83L88 368L30 453Q129 506 222 512V97L78 83ZM369 765L492 626L441 577L324 667L207 577L156 626L279 765H369Z" />
<glyph unicode="&#xfc;" horiz-adv-x="612" d="M525 96L611 107Q609 69 594 43T554 4T504 -9Q476 -9 449 5T404 49T381 121L389 368L333 453Q426 506 525 512V96ZM282 -8Q272 -9 263 -10T246 -11Q192 -11 151 12T78 83L194 155Q245 112 303 112Q347 112 391 142L395
121Q371 81 343 50T282 -8ZM78 83L88 368L30 453Q129 506 222 512V97L78 83ZM227 749Q249 729 264 703T284 647Q266 625 239 609T182 589Q161 607 145 634T122 692Q143 713 170 728T227 749ZM432 749Q454 729 470 703T491 647Q472 625 445 609T388 589Q365 607
350 634T329 692Q349 713 375 728T432 749Z" />
<glyph unicode="&#xfd;" horiz-adv-x="510" d="M-25 -182L-16 -85L188 -99Q212 -68 228 -41T257 17T281 84L405 489H508L361 57Q316 -75 251 -139T94 -204Q67 -204 37 -199T-25 -182ZM186 4L18 489H177L311 30L186 4ZM131 398Q96 405 61 418T-8 450V499H245V450L131
398ZM462 398Q424 405 387 418T315 450V499H530V450L462 398ZM179 563L152 609L345 767H363L413 671Q356 639 298 613T179 563Z" />
<glyph unicode="&#xfe;" horiz-adv-x="568" d="M16 -195V-151Q26 -144 39 -137T68 -122L81 610L21 704Q64 728 111 743T213 762L214 -126L280 -147V-195H16ZM96 21L117 127Q170 106 209 96T274 86Q334 86 363 124T393 237Q393 278 385 317T359 389L415 338Q355
387 290 387Q247 387 204 359L203 385Q226 420 252 450T309 508Q317 509 323 509T337 510Q427 507 480 441T534 261Q534 176 502 115T410 21T269 -11Q190 -11 96 21Z" />
<glyph unicode="&#xff;" horiz-adv-x="510" d="M-25 -182L-16 -85L188 -99Q212 -68 228 -41T257 17T281 84L405 489H508L361 57Q316 -75 251 -139T94 -204Q67 -204 37 -199T-25 -182ZM186 4L18 489H177L311 30L186 4ZM131 398Q96 405 61 418T-8 450V499H245V450L131
398ZM462 398Q424 405 387 418T315 450V499H530V450L462 398ZM194 749Q216 729 231 703T251 647Q233 625 206 609T149 589Q128 607 112 634T89 692Q110 713 137 728T194 749ZM399 749Q421 729 437 703T458 647Q439 625 412 609T355 589Q332 607 317 634T296 692Q316
713 342 728T399 749Z" />
<glyph unicode="&#x2013;" horiz-adv-x="568" d="M43 327H524V232H43V327Z" />
<glyph unicode="&#x2014;" horiz-adv-x="1032" d="M43 327H989V232H43V327Z" />
<glyph unicode="&#x2018;" horiz-adv-x="251" d="M187 683L163 495L31 518Q70 609 135 691L187 683ZM146 577L196 475Q172 452 144 438T86 416Q65 438 52 463T31 518L146 577Z" />
<glyph unicode="&#x2019;" horiz-adv-x="252" d="M70 422L94 609L226 587Q207 542 182 500T123 415L70 422ZM111 527L62 630Q86 653 113 667T171 689Q191 668 205 643T226 587L111 527Z" />
<glyph unicode="&#x201a;" horiz-adv-x="248" d="M326 -99L350 88L482 66Q463 21 438 -21T379 -106L326 -99ZM367 6L318 109Q342 132 369 146T427 168Q447 147 461 122T482 66L367 6Z" />
<glyph unicode="&#x201c;" horiz-adv-x="429" d="M186 683L161 495L30 518Q69 609 133 691L186 683ZM145 577L195 475Q170 452 143 438T85 416Q65 438 51 463T30 518L145 577ZM368 683L343 495L211 518Q250 609 315 691L368 683ZM327 577L376 475Q352 452 325
438T266 416Q246 438 233 463T211 518L327 577Z" />
<glyph unicode="&#x201d;" horiz-adv-x="427" d="M237 422L261 609L393 587Q374 542 349 500T290 415L237 422ZM278 527L229 630Q253 653 280 667T338 689Q358 668 372 643T393 587L278 527ZM63 422L87 609L219 587Q200 542 175 500T116 415L63 422ZM104 527L55
630Q79 653 106 667T164 689Q184 668 198 643T219 587L104 527Z" />
<glyph unicode="&#x201e;" horiz-adv-x="429" d="M247 -99L271 88L403 66Q384 21 359 -21T300 -106L247 -99ZM288 6L239 109Q263 132 290 146T348 168Q368 147 382 122T403 66L288 6ZM326 -99L350 88L482 66Q463 21 438 -21T379 -106L326 -99ZM367 6L318 109Q342
132 369 146T427 168Q447 147 461 122T482 66L367 6Z" />
<glyph unicode="&#x2022;" horiz-adv-x="332" d="M200 379Q233 349 256 309T287 226Q259 194 219 170T134 140Q102 167 78 207T46 292Q76 324 116 347T200 379Z" />
<glyph unicode="&#x2039;" horiz-adv-x="248" d="M170 41L-6 236V255L170 450L220 414L115 245L220 76L170 41Z" />
<glyph unicode="&#x203a;" horiz-adv-x="248" d="M77 450L254 256V236L77 41L28 77L133 246L28 415L77 450Z" />
</font>
</defs>
</svg>
